<svg width="106" height="91" viewBox="0 0 106 91" fill="none" xmlns="http://www.w3.org/2000/svg">
<g clip-path="url(#clip0_65_19330)">
<path d="M123 91.875C123 95.2571 120.246 98 116.85 98H104.55C101.154 98 98.4 95.2571 98.4 91.875V30.625H123V91.875ZM11.6927 55.125C8.26022 51.7964 6.15 47.9779 6.15 43.8493C6.15 33.7315 14.1815 25.8973 23.0471 20.3254C31.1075 15.2589 38.5432 9.26789 44.5644 1.90832L46.125 0L47.6856 1.90832C53.7068 9.26789 61.1406 15.2608 69.2029 20.3254C78.0685 25.8973 86.1 33.7315 86.1 43.8493C86.1 47.9779 83.9898 51.7964 80.5573 55.125H11.6927ZM6.15 61.25H86.1C89.496 61.25 92.25 63.9929 92.25 67.375V91.875C92.25 95.2571 89.496 98 86.1 98H79.95V85.75C79.95 82.3679 77.196 79.625 73.8 79.625C70.404 79.625 67.65 82.3679 67.65 85.75V98H55.35V84.2188C55.35 75.0312 46.125 70.4375 46.125 70.4375C46.125 70.4375 36.9 75.0312 36.9 84.2188V98H24.6V85.75C24.6 82.3679 21.846 79.625 18.45 79.625C15.054 79.625 12.3 82.3679 12.3 85.75V98H6.15C2.75404 98 0 95.2571 0 91.875V67.375C0 63.9929 2.75404 61.25 6.15 61.25ZM110.7 0C110.7 0 123 6.125 123 18.375V24.5H98.4V18.375C98.4 6.125 110.7 0 110.7 0Z" fill="white" fill-opacity="0.12"/>
</g>
<defs>
<clipPath id="clip0_65_19330">
<rect width="123" height="98" fill="white" transform="matrix(-1 0 0 1 123 0)"/>
</clipPath>
</defs>
</svg>
