<svg width="28" height="28" viewBox="0 0 28 28" fill="none" xmlns="http://www.w3.org/2000/svg">
<g clip-path="url(#clip0_2244_660)">
<path d="M20.75 26H7.25C4.3505 26 2 23.6495 2 20.75V7.25C2 4.3505 4.3505 2 7.25 2H20.75C23.6495 2 26 4.3505 26 7.25V20.75C26 23.6495 23.6495 26 20.75 26Z" fill="#41479B"/>
<path d="M26 20.7495V19.597L22.2772 17.1579H26V15.8947H15.8947V26H17.1579V18.3341L25.1703 23.5836C25.4541 23.1418 25.6732 22.6545 25.8149 22.1354" fill="#F5F5F5"/>
<path d="M2.35302 22.6458C2.48089 22.9758 2.64092 23.2897 2.82964 23.5836L10.8421 18.3341V26H12.1052V15.8947H2V17.1579H5.72277L2 19.597V20.75C2 20.9519 2.01181 21.1509 2.03398 21.3469" fill="#F5F5F5"/>
<path d="M2 7.42845V8.40303L5.72277 10.8421H2V12.1053H12.1053V2H10.8421V9.66594L2.82964 4.41641C2.51825 4.90123 2.28467 5.44072 2.14597 6.01719" fill="#F5F5F5"/>
<path d="M25.6401 5.33605C25.5134 5.01266 25.3556 4.70483 25.1703 4.41636L17.1579 9.66594V2H15.8947V12.1053H26V10.8421H22.2772L26 8.40303V7.25C26 7.04094 25.9874 6.83478 25.9636 6.63209" fill="#F5F5F5"/>
<path d="M15.8947 2H12.1053V12.1053H2V15.8947H12.1053V26H15.8947V15.8947H26V12.1053H15.8947V2Z" fill="#FF4B55"/>
<path d="M8.48728 17.1579L2.034 21.3469C2.08528 21.7998 2.19403 22.2353 2.35307 22.6458L10.8074 17.1579H8.48728V17.1579Z" fill="#FF4B55"/>
<path d="M18.1468 17.1579L25.8149 22.1354C25.9353 21.694 26 21.2296 26 20.75V20.7495L20.4669 17.1579L18.1468 17.1579Z" fill="#FF4B55"/>
<path d="M9.57894 10.8421L2.14597 6.01718C2.05077 6.41262 2 6.82535 2 7.24999V7.42845L7.25881 10.8421H9.57894Z" fill="#FF4B55"/>
<path d="M19.4779 10.8421L25.9636 6.63209C25.9106 6.18003 25.8004 5.7455 25.64 5.33609L17.1579 10.8421H19.4779Z" fill="#FF4B55"/>
</g>
<rect x="1" y="1" width="26" height="26" rx="13" stroke="white" stroke-opacity="0.1" stroke-width="2"/>
<defs>
<clipPath id="clip0_2244_660">
<rect x="2" y="2" width="24" height="24" rx="12" fill="white"/>
</clipPath>
</defs>
</svg>
