<svg width="44" height="40" viewBox="0 0 44 40" fill="none" xmlns="http://www.w3.org/2000/svg">
<g filter="url(#filter0_d_71_18198)">
<rect x="8" y="8" width="23.9999" height="24" rx="12" fill="#4392E0"/>
<path d="M20.0125 27C18.1394 27 16.3784 26.2706 15.0539 24.9461C13.7294 23.6216 13 21.8606 13 19.9875C13 18.1143 13.7294 16.3534 15.0539 15.0289C16.2195 13.8632 17.765 13.1432 19.4057 13.0016C19.605 12.9842 19.788 13.1134 19.8386 13.3071C19.8893 13.5008 19.7929 13.7028 19.6104 13.7854C19.0632 14.033 18.5688 14.3755 18.1409 14.8035C16.1957 16.7487 16.1957 19.9138 18.1409 21.8591C20.0861 23.8043 23.2513 23.8043 25.1965 21.8591C25.6244 21.4312 25.9669 20.9367 26.2146 20.3895C26.2971 20.2071 26.4991 20.1107 26.6929 20.1614C26.8866 20.212 27.0156 20.3948 26.9984 20.5943C26.8567 22.235 26.1367 23.7805 24.9711 24.9461C23.6466 26.2706 21.8856 27 20.0125 27Z" fill="white"/>
<path d="M24.3398 17.625C24.2915 17.4763 24.1629 17.3678 24.0081 17.3453L22.5804 17.1379L21.942 15.8442C21.8727 15.7039 21.7299 15.6151 21.5735 15.6151C21.4171 15.6151 21.2742 15.7039 21.205 15.8442L20.5665 17.1379L19.1388 17.3453C18.8105 17.3822 18.6671 17.8235 18.9111 18.0463L19.9441 19.0533L19.7003 20.4752C19.6338 20.7988 20.0093 21.0715 20.2965 20.9084L21.5735 20.2371L22.8504 20.9084C23.1372 21.0716 23.5133 20.7988 23.4467 20.4752L23.2028 19.0533L24.2359 18.0463C24.3479 17.9371 24.3882 17.7738 24.3398 17.625Z" fill="white"/>
</g>
<defs>
<filter id="filter0_d_71_18198" x="-4" y="0" width="48" height="48" filterUnits="userSpaceOnUse" color-interpolation-filters="sRGB">
<feFlood flood-opacity="0" result="BackgroundImageFix"/>
<feColorMatrix in="SourceAlpha" type="matrix" values="0 0 0 0 0 0 0 0 0 0 0 0 0 0 0 0 0 0 127 0" result="hardAlpha"/>
<feOffset dy="4"/>
<feGaussianBlur stdDeviation="6"/>
<feComposite in2="hardAlpha" operator="out"/>
<feColorMatrix type="matrix" values="0 0 0 0 0.262745 0 0 0 0 0.572549 0 0 0 0 0.878431 0 0 0 0.3 0"/>
<feBlend mode="normal" in2="BackgroundImageFix" result="effect1_dropShadow_71_18198"/>
<feBlend mode="normal" in="SourceGraphic" in2="effect1_dropShadow_71_18198" result="shape"/>
</filter>
</defs>
</svg>
