<svg width="50" height="51" viewBox="0 0 50 51" fill="none" xmlns="http://www.w3.org/2000/svg">
<path d="M25.0046 0.41388C20.0874 0.413325 15.2804 1.87095 11.1916 4.60243C7.10279 7.3339 3.9158 11.2165 2.03366 15.7593C0.151528 20.3021 -0.341212 25.301 0.617756 30.1238C1.57672 34.9467 3.94433 39.3768 7.42115 42.854C10.898 46.3313 15.3279 48.6994 20.1506 49.6589C24.9733 50.6184 29.9723 50.1262 34.5153 48.2446C39.0583 46.363 42.9413 43.1764 45.6732 39.0879C48.4051 34.9994 49.8633 30.1926 49.8633 25.2753C49.8633 18.6821 47.2444 12.359 42.5825 7.69662C37.9207 3.03428 31.5978 0.414623 25.0046 0.41388Z" fill="#00AFCA"/>
<path d="M36.5474 27.654C37.7788 27.7831 39.3889 28.6583 40.5699 27.741C38.8868 27.438 37.2262 26.5713 35.675 25.9906C37.2655 25.3342 39.3693 26.6667 40.7634 25.2753C39.0495 25.2389 37.2795 24.6442 35.6553 24.3104C37.1252 23.4156 39.4114 24.403 40.5699 22.8097C38.87 23.0425 37.0298 22.7311 35.372 22.6582C36.6848 21.5362 39.0972 22.1589 39.992 20.4141C38.351 20.9134 36.4828 20.891 34.8363 21.0789C35.9583 19.7718 38.4352 20.0046 39.0439 18.1308C37.4983 18.8769 35.6525 19.1518 34.0536 19.5922C34.9569 18.1252 37.4422 17.9681 37.7507 16.0214C36.3482 17.0031 34.5614 17.5614 33.0522 18.2458C33.7142 16.6553 36.1378 16.1111 36.1378 14.142C34.9008 15.3285 33.2289 16.1588 31.846 17.0733C32.25 15.3902 34.567 14.4814 34.2584 12.5346C33.2233 13.9035 31.7002 14.9835 30.4772 16.1027C30.6146 14.386 32.7577 13.1181 32.1602 11.2443C31.3524 12.7534 30.0171 14.0494 28.9849 15.3566C28.853 13.6398 30.7689 12.0522 29.8769 10.3074C29.3159 11.9287 28.1938 13.4267 27.3832 14.8685C26.9848 13.1854 28.6286 11.3257 27.4701 9.72956C27.17 11.4126 26.3032 13.0732 25.7225 14.6244C25.0662 13.0339 26.3986 10.9301 25.0073 9.53601C24.9708 11.2499 24.3761 13.0199 24.0423 14.6441C23.1475 13.1742 24.1349 10.8881 22.5416 9.72956C22.7744 11.4294 22.463 13.2724 22.3901 14.9274C21.2681 13.6146 21.8908 11.2022 20.146 10.3074C20.6425 11.9484 20.6229 13.8166 20.8108 15.4632C19.5037 14.3411 19.7365 11.8642 17.8627 11.2555C18.6089 12.7983 18.8838 14.6469 19.3242 16.243C17.8431 15.3173 17.6748 12.832 15.7393 12.5234C16.7182 13.926 17.2792 15.7128 17.9637 17.2219C16.3732 16.5599 15.829 14.1363 13.8599 14.1363C15.0464 15.3734 15.8767 17.0452 16.7912 18.4281C15.1081 18.0242 14.1993 15.71 12.2525 16.0158C13.6186 17.0508 14.7014 18.574 15.8206 19.797C14.1039 19.6596 12.836 17.5165 10.9622 18.114C12.4713 18.9218 13.7673 20.257 15.0745 21.2893C13.3577 21.4211 11.7701 19.5053 10.0253 20.3973C11.6466 20.9583 13.1446 22.0803 14.5864 22.8938C12.9033 23.2921 11.0435 21.6456 9.44746 22.8041C11.1305 23.1042 12.7911 23.971 14.3423 24.5544C12.7518 25.208 10.648 23.8756 9.25391 25.2697C10.9678 25.3034 12.7378 25.9009 14.362 26.2319C12.8921 27.1267 10.606 26.1393 9.44746 27.7354C11.1473 27.4998 12.9875 27.8111 14.6453 27.8869C13.3325 29.0089 10.9201 28.3834 10.0253 30.1309C11.6663 29.6344 13.5345 29.6541 15.181 29.4661C14.059 30.7733 11.5821 30.5405 10.9734 32.4143C12.5162 31.6681 14.3648 31.396 15.9609 30.9528C15.0576 32.4199 12.5723 32.577 12.2638 34.5237C13.6663 33.5447 15.4531 32.9865 16.9623 32.2993C16.3003 33.8897 13.8767 34.4339 13.8767 36.4031C15.1137 35.2165 16.7856 34.3862 18.1685 33.4718C17.7645 35.1548 15.4475 36.0637 15.7561 38.0104C16.7912 36.6443 18.3143 35.5616 19.5373 34.4423C19.3999 36.1591 17.2568 37.427 17.8543 39.3036C18.6622 37.7916 19.9974 36.4844 21.0296 35.1885C21.1615 36.9052 19.2456 38.4929 20.1376 40.2376C20.6986 38.6191 21.8207 37.1184 22.6313 35.6766C23.0297 37.3596 21.3859 39.2194 22.5444 40.8155C22.8445 39.1324 23.7113 37.4718 24.292 35.9206C24.9483 37.5139 23.6159 39.6149 25.0101 41.009C25.0437 39.2951 25.6384 37.5251 25.9722 35.901C26.867 37.3709 25.8796 39.657 27.4729 40.8155C27.2401 39.1156 27.5515 37.2755 27.6272 35.6205C28.7492 36.9305 28.1237 39.3428 29.8713 40.2376C29.3748 38.5967 29.3944 36.7285 29.2065 35.0819C30.5136 36.2039 30.2808 38.6808 32.1546 39.2895C31.4084 37.7439 31.1336 35.8982 30.6932 34.2993C32.1602 35.2025 32.3173 37.6878 34.264 37.9964C33.2851 36.5938 32.724 34.807 32.0396 33.2979C33.6301 33.9599 34.1743 36.3835 36.1434 36.3835C34.9569 35.1492 34.1266 33.4746 33.2121 32.0917C34.8952 32.4956 35.804 34.8126 37.7507 34.5041C36.3847 33.469 35.3019 31.9458 34.1827 30.7228C35.8994 30.8603 37.1673 33.0033 39.0439 32.4059C37.5319 31.598 36.2248 30.2628 34.9288 29.2305C36.6455 29.0987 38.2332 31.0145 39.978 30.1225C38.3594 29.5615 36.8587 28.4395 35.4169 27.6288C35.7841 27.5281 36.1717 27.5281 36.5389 27.6288M30.9484 28.9135L28.3453 27.7915L27.2962 30.4255L26.2583 27.8195L23.6552 28.9416L24.7772 26.3413L22.1461 25.2922L24.7772 24.2431L23.6552 21.6399L26.2583 22.762L27.3046 20.128L28.3537 22.7592L30.9568 21.6371L29.8348 24.2403L32.466 25.2894L29.8348 26.3385L30.9484 28.9135ZM27.1139 16.9807C22.6005 16.9807 18.6986 20.4955 18.6986 25.2305C18.6986 29.9654 22.665 33.4774 27.1139 33.4774C29.2579 33.4784 31.3249 32.678 32.9092 31.2333C31.386 33.6934 27.5795 35.4606 25.4056 35.4606H23.8459C23.1077 35.362 22.3761 35.2187 21.6552 35.0314C20.1292 34.5636 18.7309 33.7517 17.5682 32.6583C15.7252 30.9753 14.3956 27.8532 14.3956 25.8925V24.5516C14.3956 23.6652 14.9061 21.9233 15.2035 21.2136C15.646 20.1268 16.2882 19.1325 17.0969 18.2823C19.4644 15.8306 22.1629 14.9891 24.6286 14.9891C26.6814 14.9798 28.6886 15.5941 30.3846 16.7507C31.2261 17.3117 32.3734 18.3496 32.9288 19.2584C31.3536 17.7827 29.2723 16.9674 27.1139 16.9807Z" fill="white"/>
<path d="M2.9902 26.7059C2.77204 26.4952 2.62147 26.2244 2.55766 25.9279C2.49385 25.6314 2.51967 25.3226 2.63184 25.0408C2.74402 24.759 2.93747 24.517 3.1876 24.3454C3.43773 24.1739 3.73322 24.0807 4.0365 24.0775C4.23766 24.0723 4.43784 24.1072 4.62541 24.18C4.81298 24.2529 4.98418 24.3623 5.12906 24.502C5.27394 24.6417 5.38959 24.8087 5.46929 24.9935C5.54899 25.1783 5.59116 25.377 5.59332 25.5783C5.59854 25.7799 5.56352 25.9805 5.4903 26.1685C5.41709 26.3564 5.30714 26.5279 5.16689 26.6728C5.02664 26.8178 4.8589 26.9333 4.67348 27.0127C4.48806 27.092 4.28868 27.1337 4.08699 27.1351C3.88454 27.1424 3.68275 27.108 3.4941 27.0342C3.30545 26.9604 3.13395 26.8486 2.9902 26.7059ZM3.36889 24.9387C3.23549 25.0748 3.14607 25.2479 3.11222 25.4354C3.07837 25.623 3.10166 25.8164 3.17906 25.9905C3.25646 26.1647 3.38441 26.3115 3.5463 26.4121C3.7082 26.5126 3.89657 26.5622 4.08699 26.5544C4.21499 26.5567 4.34212 26.533 4.46072 26.4848C4.57931 26.4366 4.68692 26.3648 4.77704 26.2739C4.86495 26.1841 4.93367 26.0774 4.979 25.9602C5.02433 25.843 5.04533 25.7178 5.04072 25.5923C5.04243 25.4673 5.01841 25.3432 4.97015 25.2279C4.9219 25.1126 4.85044 25.0084 4.76021 24.9219C4.66808 24.8324 4.55853 24.7628 4.43838 24.7175C4.31822 24.6721 4.19002 24.6519 4.06174 24.6582C3.93415 24.6558 3.80741 24.6795 3.68925 24.7277C3.57109 24.7759 3.464 24.8477 3.3745 24.9387" fill="white"/>
<path d="M2.95949 29.4184L3.87675 28.6695L3.80662 28.2347L2.79679 28.3946L2.70703 27.8336L5.6131 27.3595L5.79823 28.5208C5.82025 28.6483 5.81619 28.7788 5.78629 28.9047C5.7564 29.0305 5.7013 29.149 5.62432 29.2529C5.55046 29.358 5.45585 29.4468 5.34633 29.5138C5.23681 29.5809 5.11471 29.6248 4.98756 29.6428C4.80936 29.6722 4.62645 29.6468 4.46301 29.5699C4.29473 29.4937 4.15168 29.3711 4.05067 29.2165L3.05486 30.0355L2.95949 29.4184ZM5.16989 28.0159L4.30873 28.1533L4.40411 28.7452C4.41213 28.7981 4.4316 28.8486 4.46115 28.8931C4.49071 28.9377 4.52963 28.9753 4.57522 29.0033C4.66962 29.0675 4.7856 29.0917 4.8978 29.0706C5.00902 29.0533 5.10939 28.9941 5.17831 28.9051C5.21212 28.8641 5.23684 28.8164 5.25087 28.7652C5.26489 28.7139 5.26788 28.6603 5.25966 28.6078L5.16989 28.0159Z" fill="white"/>
<path d="M5.54573 32.8939L5.32974 32.9584C5.15139 33.0223 4.96164 33.0481 4.77272 33.0341C4.5838 33.02 4.39992 32.9666 4.23295 32.8771C4.06579 32.7835 3.9191 32.6573 3.80154 32.506C3.68398 32.3547 3.59794 32.1814 3.54851 31.9963C3.48083 31.7987 3.45388 31.5895 3.46931 31.3812C3.48474 31.1729 3.54222 30.9699 3.63827 30.7845C3.7296 30.6045 3.85688 30.4452 4.01224 30.3164C4.1676 30.1875 4.34774 30.092 4.54151 30.0355C4.73413 29.9756 4.93675 29.9545 5.13761 29.9734C5.33846 29.9924 5.53354 30.0511 5.71152 30.1461C5.8895 30.2411 6.04684 30.3705 6.1744 30.5268C6.30196 30.6831 6.39719 30.8632 6.45458 31.0566C6.53472 31.3067 6.55016 31.5731 6.49946 31.8308C6.45268 32.074 6.34235 32.3005 6.17968 32.4872L5.75891 32.0973C5.85757 31.9869 5.92276 31.8507 5.94686 31.7046C5.97739 31.5426 5.9658 31.3755 5.91319 31.2193C5.87964 31.0961 5.82095 30.9811 5.74081 30.8817C5.66068 30.7822 5.56083 30.7004 5.44755 30.6414C5.33346 30.5819 5.20836 30.5465 5.08001 30.5373C4.95166 30.5282 4.82279 30.5455 4.7014 30.5881C4.58088 30.623 4.46885 30.6823 4.37231 30.7624C4.27578 30.8426 4.19682 30.9417 4.14038 31.0538C4.08049 31.1735 4.04562 31.3041 4.03791 31.4377C4.03019 31.5713 4.04979 31.705 4.0955 31.8308C4.14562 32.0214 4.25338 32.1919 4.40406 32.3189C4.53884 32.4303 4.70891 32.4899 4.88373 32.4872L4.62005 31.6457L5.11094 31.4942L5.54573 32.8939Z" fill="white"/>
<path d="M5.1024 35.6345L5.50072 35.2362L4.97898 34.145L4.41796 34.2151L4.13745 33.6541L7.23987 33.3175L7.57648 33.9599L5.35486 36.1787L5.1024 35.6345ZM5.55121 34.0833L5.90746 34.8294L6.8107 33.9346L5.55121 34.0833Z" fill="white"/>
<path d="M9.03807 36.4396L9.35785 36.9249L6.89779 38.5434L6.65655 38.1759L7.46442 36.131L5.96089 37.1212L5.64111 36.6359L8.10117 35.0174L8.34241 35.3849L7.54015 37.427L9.03807 36.4396Z" fill="white"/>
<path d="M9.64992 37.2595L7.35645 39.1075L7.72076 39.5596L10.0142 37.7117L9.64992 37.2595Z" fill="white"/>
<path d="M8.99039 40.1591L9.85155 41.0651L9.44762 41.4494L8.08154 40.0104L8.41815 39.6906L10.6566 39.2502L9.83472 38.3862L10.2358 38.002L11.5683 39.4017L11.2373 39.7159L8.99039 40.1591Z" fill="white"/>
<path d="M11.4056 43.1156L11.5963 42.5855L10.6622 41.8169L10.1882 42.117L9.70288 41.7187L12.3705 40.1058L12.9315 40.5602L11.8656 43.4971L11.4056 43.1156ZM11.1531 41.5195L11.7843 42.0441L12.219 40.8463L11.1531 41.5195Z" fill="white"/>
<path d="M15.3411 42.218L15.0382 42.6836L14.3734 42.2516L13.0718 44.2573L12.5837 43.9431L13.8853 41.9375L13.2205 41.5055L13.5234 41.0399L15.3411 42.218Z" fill="white"/>
<path d="M15.5619 42.3054L14.1692 44.9006L14.6808 45.1752L16.0735 42.58L15.5619 42.3054Z" fill="white"/>
<path d="M17.7758 46.1227C17.497 46.2399 17.1898 46.272 16.8929 46.2148C16.5959 46.1577 16.3225 46.0139 16.1072 45.8017C15.8918 45.5894 15.7441 45.3182 15.6826 45.0221C15.6211 44.726 15.6487 44.4184 15.7618 44.1379C15.8749 43.8575 16.0685 43.6168 16.3182 43.4462C16.5679 43.2756 16.8625 43.1828 17.1648 43.1794C17.4672 43.1759 17.7638 43.2621 18.0173 43.427C18.2708 43.5918 18.4698 43.8281 18.5892 44.1059C18.7452 44.4816 18.7473 44.9035 18.5951 45.2807C18.443 45.658 18.1487 45.9603 17.7758 46.1227ZM16.2891 45.0961C16.3937 45.3255 16.5823 45.5061 16.8161 45.6006C17.05 45.695 17.3111 45.6962 17.5457 45.6038C17.6633 45.5532 17.7693 45.4791 17.8571 45.3859C17.9449 45.2928 18.0127 45.1827 18.0563 45.0624C18.1069 44.9445 18.133 44.8176 18.133 44.6893C18.133 44.561 18.1069 44.4341 18.0563 44.3162C17.9523 44.0863 17.7635 43.9055 17.5293 43.8114C17.2952 43.7173 17.0338 43.7173 16.7996 43.8113C16.5665 43.92 16.3833 44.113 16.287 44.3514C16.1906 44.5899 16.1884 44.856 16.2807 45.0961" fill="white"/>
<path d="M21.0466 44.3527L21.6132 44.4873L20.9344 47.3541L20.5024 47.2503L19.6889 45.2082L19.2766 46.9614L18.71 46.8268L19.3888 43.96L19.818 44.0609L20.6342 46.1002L21.0466 44.3527Z" fill="white"/>
<path d="M25.3861 47.3289C25.2023 47.5019 24.9786 47.627 24.7348 47.6929C24.4911 47.7587 24.2348 47.7634 23.9888 47.7066C23.7428 47.6497 23.5146 47.533 23.3245 47.3668C23.1344 47.2006 22.9883 46.9901 22.8991 46.7539C22.8098 46.5177 22.7803 46.2631 22.813 46.0127C22.8457 45.7624 22.9397 45.5239 23.0867 45.3186C23.2336 45.1133 23.429 44.9474 23.6554 44.8357C23.8819 44.7239 24.1324 44.6698 24.3847 44.6781C24.6871 44.6893 24.9794 44.7895 25.225 44.9661C25.4706 45.1427 25.6587 45.3879 25.7656 45.671C25.8725 45.954 25.8936 46.2623 25.8261 46.5572C25.7586 46.8521 25.6055 47.1205 25.3861 47.3289ZM23.6358 46.8801C23.7456 46.9959 23.8823 47.0828 24.0338 47.1331C24.1853 47.1835 24.3469 47.1957 24.5042 47.1687C24.6615 47.1417 24.8098 47.0763 24.9358 46.9783C25.0618 46.8803 25.1617 46.7527 25.2266 46.6069C25.2915 46.461 25.3195 46.3014 25.308 46.1422C25.2965 45.983 25.2459 45.8291 25.1607 45.6941C25.0755 45.5591 24.9583 45.4472 24.8195 45.3683C24.6807 45.2895 24.5247 45.246 24.3651 45.2419C24.2398 45.2349 24.1144 45.2537 23.9967 45.2971C23.879 45.3406 23.7714 45.4077 23.6806 45.4944C23.5896 45.5832 23.5178 45.6898 23.4695 45.8075C23.4213 45.9252 23.3977 46.0516 23.4001 46.1788C23.3923 46.3065 23.4104 46.4344 23.4533 46.555C23.4962 46.6755 23.563 46.7861 23.6498 46.8801" fill="white"/>
<path d="M27.9807 45.1045L26.8081 45.2223L26.8783 45.918L28.0171 45.8029L28.0732 46.3555L26.9344 46.4706L27.0494 47.601L26.4715 47.6599L26.177 44.7286L27.9246 44.5519L27.9807 45.1045Z" fill="white"/>
<path d="M31.0888 43.8085L31.2319 44.3471L30.4633 44.5519L31.0776 46.8605L30.5166 47.0091L29.9023 44.7006L29.1365 44.9053L28.9934 44.3667L31.0888 43.8085Z" fill="white"/>
<path d="M33.4087 46.1255C33.1434 46.244 32.8436 46.26 32.5672 46.1704C32.4383 46.1236 32.3213 46.0491 32.2243 45.9522C32.1274 45.8553 32.0529 45.7382 32.0061 45.6094L31.2432 43.7524L31.7789 43.5364L32.5026 45.3317C32.5254 45.3934 32.5602 45.4499 32.6049 45.4981C32.6497 45.5462 32.7036 45.585 32.7635 45.6122C32.9081 45.6478 33.0602 45.6369 33.1983 45.581C33.3363 45.5251 33.4531 45.4271 33.5321 45.3008C33.5576 45.2395 33.5707 45.1737 33.5707 45.1073C33.5707 45.0408 33.5576 44.9751 33.5321 44.9137L32.8056 43.1185L33.3442 42.8997L34.0875 44.737C34.1473 44.8638 34.1782 45.0022 34.1782 45.1423C34.1782 45.2825 34.1473 45.4209 34.0875 45.5477C33.9485 45.8096 33.7163 46.0098 33.4367 46.1087" fill="white"/>
<path d="M36.5278 44.5154L35.5068 43.9179L35.1225 44.1339L35.6274 45.0231L35.1197 45.3036L33.6638 42.7454L34.6905 42.1647C34.8022 42.0999 34.926 42.0584 35.0543 42.043C35.1826 42.0276 35.3127 42.0384 35.4366 42.075C35.5608 42.107 35.677 42.1644 35.7779 42.2436C35.8788 42.3228 35.9622 42.422 36.0229 42.535C36.1127 42.6914 36.1528 42.8714 36.1379 43.0511C36.1252 43.2357 36.06 43.4129 35.95 43.5617L37.072 44.2068L36.5278 44.5154ZM34.4464 42.9333L34.8728 43.6907L35.3946 43.3962C35.441 43.37 35.4813 43.3342 35.5128 43.2911C35.5442 43.248 35.5661 43.1987 35.5769 43.1465C35.6021 43.0346 35.584 42.9174 35.5264 42.8183C35.4729 42.7185 35.3822 42.6439 35.2739 42.6107C35.2235 42.5928 35.1698 42.5861 35.1166 42.5909C35.0633 42.5958 35.0117 42.6121 34.9654 42.6388L34.4464 42.9333Z" fill="white"/>
<path d="M39.3975 42.5098L38.8589 42.9081L37.1927 42.4284L38.0146 43.5364L37.549 43.8815L35.793 41.5196L36.2586 41.1718L37.0328 42.2124L37.0693 40.5687L37.6051 40.1703L37.5854 41.9684L39.3975 42.5098Z" fill="white"/>
<path d="M38.1921 39.6008L37.7593 39.9879L39.7228 42.1832L40.1556 41.7961L38.1921 39.6008Z" fill="white"/>
<path d="M41.6977 40.3246C41.5649 40.4795 41.4013 40.6052 41.2173 40.6936C41.0333 40.7819 40.833 40.8311 40.629 40.8379C40.2233 40.8447 39.8303 40.6959 39.5309 40.422C39.2314 40.1481 39.0482 39.77 39.0189 39.3652C39.0121 39.0323 39.1103 38.7058 39.2997 38.4318C39.489 38.1579 39.7598 37.9506 40.0736 37.8393C40.308 37.758 40.56 37.7415 40.8029 37.7916L40.6795 38.3526C40.5348 38.3171 40.3829 38.3239 40.2419 38.3723C40.0923 38.4255 39.9583 38.5151 39.852 38.6331C39.7615 38.7235 39.6909 38.8318 39.645 38.9512C39.5991 39.0706 39.5788 39.1983 39.5855 39.326C39.6128 39.5808 39.7322 39.8169 39.9212 39.9899C40.1103 40.1629 40.3559 40.261 40.6122 40.2657C40.7397 40.2599 40.8646 40.2278 40.979 40.1713C41.0934 40.1148 41.1949 40.0352 41.277 39.9375C41.3886 39.8286 41.4715 39.6936 41.5182 39.5448C41.5551 39.4013 41.5492 39.2502 41.5014 39.11L42.0624 38.9361C42.1332 39.1732 42.1399 39.4248 42.082 39.6654C42.0219 39.9174 41.8972 40.1494 41.7202 40.3386" fill="white"/>
<path d="M44.1325 37.0791C44.002 37.3053 43.8065 37.487 43.5715 37.6009C43.3611 37.7013 43.1229 37.728 42.8955 37.6766L42.9123 37.1156C43.0559 37.1487 43.2064 37.1333 43.3403 37.0719C43.4743 37.0105 43.5842 36.9065 43.6528 36.7762C43.7271 36.6745 43.7665 36.5515 43.7651 36.4255C43.7609 36.3799 43.7456 36.336 43.7205 36.2976C43.6954 36.2592 43.6613 36.2276 43.6212 36.2054C43.5811 36.1833 43.5361 36.1713 43.4903 36.1706C43.4445 36.1698 43.3992 36.1803 43.3583 36.2011C43.2059 36.2918 43.0647 36.4 42.9376 36.5237C42.848 36.6033 42.7543 36.6782 42.657 36.7481C42.5686 36.8068 42.4747 36.8566 42.3765 36.8968C42.2743 36.938 42.1635 36.9534 42.054 36.9417C41.933 36.9247 41.8172 36.8816 41.7145 36.8154C41.6093 36.7558 41.5193 36.6726 41.4517 36.5723C41.384 36.4721 41.3405 36.3575 41.3246 36.2376C41.2891 35.9907 41.345 35.7393 41.4817 35.5307C41.5958 35.339 41.7635 35.1849 41.9642 35.0875C42.1621 34.9958 42.3815 34.9609 42.5981 34.9865L42.5813 35.5475C42.4617 35.5244 42.3378 35.539 42.2267 35.5892C42.1157 35.6395 42.023 35.7229 41.9614 35.828C41.9041 35.91 41.8755 36.0086 41.88 36.1086C41.8864 36.15 41.902 36.1896 41.9257 36.2242C41.9494 36.2588 41.9806 36.2877 42.0169 36.3087C42.0533 36.3297 42.0939 36.3423 42.1357 36.3455C42.1776 36.3487 42.2196 36.3425 42.2587 36.3273C42.4044 36.2551 42.5379 36.1604 42.6542 36.0468L42.8169 35.9066C42.8534 35.8757 42.9067 35.8365 42.9768 35.786C43.0313 35.7434 43.0895 35.7059 43.1507 35.6738C43.1984 35.6541 43.2573 35.6317 43.3275 35.6092C43.3888 35.588 43.4533 35.5776 43.5182 35.5784C43.5847 35.5799 43.6508 35.5903 43.7146 35.6092C43.7904 35.6315 43.863 35.6636 43.9306 35.7046C44.0378 35.7663 44.1292 35.8522 44.1974 35.9554C44.2656 36.0587 44.3087 36.1764 44.3233 36.2993C44.3485 36.5761 44.2761 36.853 44.1185 37.0819" fill="white"/>
<path d="M43.0496 32.6808L43.5517 32.922L43.2095 33.6373L45.3638 34.6696L45.1141 35.1941L42.957 34.1619L42.6176 34.8772L42.1155 34.6359L43.0496 32.6808Z" fill="white"/>
<path d="M46.4634 31.8252H45.9024L45.5097 32.9696L45.9529 33.3091L45.7482 33.9009L43.2993 31.9654L43.5349 31.2866L46.657 31.2642L46.4634 31.8252ZM45.0609 32.619L45.3414 31.8336H44.0651L45.0609 32.619Z" fill="white"/>
<path d="M44.2475 28.4535L44.7917 28.5741L44.6178 29.3483L46.9516 29.8673L46.8254 30.4339L44.4915 29.9149L44.3204 30.6891L43.7791 30.5685L44.2475 28.4535Z" fill="white"/>
<path d="M46.7074 27.9234L46.842 26.6891L47.3946 26.7508L47.1983 28.5601L44.2698 28.2431L44.4633 26.4535L45.0159 26.5124L44.8841 27.727L45.5068 27.7943L45.6274 26.6863L46.1716 26.7452L46.051 27.8532L46.7074 27.9234Z" fill="white"/>
<path d="M47.479 25.1042C47.4928 25.3631 47.4283 25.6202 47.2938 25.8419C47.1726 26.0403 46.9877 26.1916 46.7693 26.2711L46.4719 25.7802C46.6106 25.731 46.7288 25.637 46.8081 25.513C46.8873 25.3891 46.923 25.2423 46.9095 25.0958C46.9171 24.9702 46.8847 24.8455 46.817 24.7395C46.7905 24.7052 46.7565 24.6775 46.7176 24.6585C46.6787 24.6395 46.6359 24.6298 46.5926 24.6301C46.5436 24.6304 46.4956 24.6435 46.4533 24.6681C46.4109 24.6928 46.3758 24.728 46.3513 24.7704C46.2715 24.93 46.2113 25.0985 46.1718 25.2725C46.1421 25.3862 46.1046 25.4978 46.0596 25.6063C46.0193 25.7055 45.9675 25.7996 45.9053 25.8868C45.8432 25.9784 45.7581 26.0519 45.6585 26.1C45.5484 26.1502 45.4288 26.176 45.3078 26.1757C45.1864 26.1815 45.0653 26.1592 44.9539 26.1105C44.8425 26.0619 44.7438 25.9882 44.6655 25.8952C44.5029 25.7055 44.4143 25.4635 44.4158 25.2136C44.4091 24.9917 44.4665 24.7725 44.5813 24.5825C44.6979 24.3966 44.864 24.247 45.061 24.1505L45.3415 24.6358C45.2299 24.6803 45.1347 24.758 45.0685 24.8583C45.0023 24.9585 44.9684 25.0767 44.9712 25.1968C44.9684 25.2973 44.9989 25.396 45.0582 25.4773C45.0835 25.5099 45.1165 25.5359 45.1541 25.553C45.1917 25.5701 45.2329 25.5778 45.2742 25.5755C45.3181 25.5763 45.3615 25.5659 45.4003 25.5453C45.439 25.5247 45.4719 25.4945 45.4958 25.4576C45.5785 25.3182 45.6391 25.1668 45.6753 25.0088C45.7034 24.9191 45.723 24.8517 45.737 24.8041L45.8071 24.6133C45.8307 24.5492 45.8598 24.4872 45.8941 24.4282C45.9278 24.375 45.9653 24.3244 46.0063 24.2767C46.0459 24.2248 46.0944 24.1801 46.1494 24.1449C46.2074 24.1128 46.2685 24.0865 46.3317 24.0663C46.4071 24.0432 46.4856 24.0318 46.5645 24.0327C46.6879 24.0245 46.8114 24.0456 46.925 24.0944C47.0386 24.1431 47.1391 24.2181 47.2181 24.3132C47.3893 24.5321 47.4786 24.804 47.4706 25.0818" fill="white"/>
<path d="M3.71128 16.7731L4.23583 16.9527L3.97495 17.7044L6.23304 18.4842L6.0451 19.034L3.78701 18.2542L3.52895 19.0032L3.00439 18.8208L3.71128 16.7731Z" fill="white"/>
<path d="M4.07019 15.2921C4.08327 15.327 4.08878 15.3643 4.08636 15.4016C4.08394 15.4388 4.07365 15.4751 4.05616 15.5081C4.0405 15.5418 4.0183 15.572 3.99085 15.597C3.96341 15.6221 3.93126 15.6414 3.89627 15.6539C3.86167 15.6686 3.82446 15.6761 3.78688 15.6761C3.74929 15.6761 3.71209 15.6686 3.67748 15.6539C3.64404 15.6377 3.61417 15.6149 3.58961 15.587C3.56505 15.559 3.54629 15.5265 3.53442 15.4912C3.51976 15.4566 3.51221 15.4194 3.51221 15.3818C3.51221 15.3443 3.51976 15.3071 3.53442 15.2724C3.55102 15.2387 3.57422 15.2087 3.60265 15.1841C3.63108 15.1595 3.66416 15.1409 3.69992 15.1294C3.73687 15.1149 3.77648 15.1084 3.81613 15.1103C3.85578 15.1122 3.89457 15.1226 3.92994 15.1406C3.96338 15.1569 3.99325 15.1797 4.01781 15.2076C4.04237 15.2355 4.06113 15.268 4.073 15.3033M4.42363 14.5796C4.43528 14.6149 4.4398 14.6522 4.43691 14.6893C4.43402 14.7264 4.42378 14.7625 4.4068 14.7956C4.39091 14.8294 4.36843 14.8597 4.34067 14.8847C4.31292 14.9097 4.28045 14.9289 4.24518 14.9411C4.20991 14.9534 4.17254 14.9585 4.13526 14.9562C4.09799 14.9538 4.06156 14.944 4.02811 14.9274C3.99467 14.9111 3.9648 14.8884 3.94024 14.8604C3.91568 14.8325 3.89692 14.8 3.88505 14.7647C3.87258 14.7292 3.8674 14.6915 3.86981 14.6539C3.87222 14.6163 3.88217 14.5796 3.89908 14.5459C3.91536 14.5125 3.93813 14.4826 3.96606 14.4581C3.99399 14.4335 4.02653 14.4147 4.06177 14.4029C4.09599 14.3886 4.1327 14.3812 4.16977 14.3812C4.20684 14.3812 4.24355 14.3886 4.27777 14.4029C4.31173 14.4188 4.34214 14.4415 4.36719 14.4694C4.39225 14.4974 4.41144 14.5301 4.42363 14.5656M7.11651 16.5488C6.99855 16.8185 6.78319 17.0339 6.51342 17.1518C6.38422 17.2058 6.24453 17.2301 6.10469 17.2228C5.96486 17.2155 5.82845 17.1769 5.70555 17.1098L3.92994 16.2626L4.18239 15.7437L5.92154 16.5852C5.98007 16.6175 6.04443 16.6379 6.11088 16.6451C6.17733 16.6523 6.24455 16.6463 6.30865 16.6273C6.44009 16.557 6.54606 16.4471 6.61152 16.3131C6.67697 16.1792 6.69859 16.0281 6.67331 15.8811C6.6482 15.8177 6.61035 15.7601 6.56211 15.7118C6.51386 15.6636 6.45624 15.6257 6.3928 15.6006L4.65365 14.7591L4.9061 14.2374L6.68733 15.1069C6.81523 15.16 6.92968 15.2409 7.02237 15.3438C7.11505 15.4467 7.18362 15.5689 7.2231 15.7016C7.29356 15.9856 7.25555 16.2857 7.11651 16.5431" fill="white"/>
<path d="M8.67057 13.7941L7.48963 13.738L7.24839 14.1027L8.08992 14.6637L7.78136 15.1405L5.33252 13.5192L5.98049 12.5374C6.05013 12.4285 6.1413 12.3351 6.24839 12.2627C6.35547 12.1903 6.47623 12.1406 6.60322 12.1167C6.72832 12.0882 6.85797 12.0859 6.98398 12.1101C7.10999 12.1342 7.22963 12.1842 7.33535 12.2569C7.48726 12.356 7.6056 12.4988 7.67476 12.6665C7.74527 12.8367 7.76759 13.023 7.73928 13.205L9.02681 13.2724L8.67057 13.7941ZM6.0955 13.3341L6.82202 13.8137L7.15302 13.3172C7.18221 13.2726 7.20156 13.2222 7.20979 13.1695C7.21801 13.1168 7.21491 13.0629 7.2007 13.0115C7.18885 12.9542 7.16561 12.8998 7.13236 12.8516C7.09911 12.8034 7.05654 12.7624 7.00715 12.731C6.9611 12.6988 6.90914 12.676 6.85426 12.664C6.79938 12.652 6.74267 12.6509 6.68737 12.6608C6.63426 12.6671 6.58323 12.6852 6.53806 12.7138C6.4929 12.7425 6.45477 12.7809 6.4265 12.8263L6.0955 13.3341Z" fill="white"/>
<path d="M10.6706 11.3341L10.2358 11.8418L8.50505 11.7464L9.55415 12.6412L9.17547 13.0844L6.93701 11.1686L7.3157 10.7282L8.30028 11.5697L7.97209 9.95956L8.40688 9.45184L8.78556 11.2106L10.6706 11.3341Z" fill="white"/>
<path d="M10.606 7.46865C10.7507 7.34693 10.9194 7.25705 11.1011 7.20485C11.2828 7.15266 11.4735 7.13932 11.6607 7.1657C12.0439 7.22509 12.3912 7.42536 12.6345 7.72731C12.8778 8.02927 12.9997 8.41117 12.9763 8.79826C12.9621 8.98675 12.9083 9.17013 12.8184 9.33641C12.7285 9.50268 12.6045 9.64812 12.4545 9.76321L11.5429 10.4981L9.69434 8.20358L10.606 7.46865ZM12.1067 9.33123C12.1986 9.26071 12.2749 9.172 12.3308 9.07064C12.3868 8.96928 12.4213 8.85745 12.4321 8.74216C12.4454 8.49814 12.3629 8.25857 12.2021 8.07455C12.057 7.87823 11.8402 7.74717 11.599 7.70989C11.4841 7.69383 11.367 7.70254 11.2558 7.73544C11.1445 7.76834 11.0415 7.82467 10.9538 7.90064L10.4966 8.27091L11.6467 9.69869L12.1067 9.33123Z" fill="white"/>
<path d="M14.0479 7.93429L15.1054 7.28351L15.3971 7.75757L13.8459 8.7113L12.3003 6.20355L13.8347 5.25824L14.1264 5.7323L13.0857 6.37186L13.4139 6.90482L14.3648 6.32137L14.651 6.78701L13.7028 7.37047L14.0479 7.93429Z" fill="white"/>
<path d="M16.3341 7.29473L14.2051 5.03383L14.7773 4.77015L16.379 6.52613L16.0817 4.16986L16.6567 3.90338L16.9877 6.99458L16.3341 7.29473Z" fill="white"/>
<path d="M18.4659 5.83053L19.5346 5.4827L19.7057 6.01005L18.0872 6.54021L17.1699 3.74074L17.7225 3.55841L18.4659 5.83053Z" fill="white"/>
<path d="M20.4043 5.28348L21.6189 5.02261L21.7367 5.56399L19.9555 5.94829L19.3328 3.07027L21.0944 2.68878L21.2122 3.23297L20.0172 3.49104L20.1518 4.10254L21.2402 3.86692L21.3552 4.40269L20.2669 4.63831L20.4043 5.28348Z" fill="white"/>
<path d="M23.7002 2.38867L23.7591 2.94127L22.9681 3.02262L23.2121 5.39853L22.6343 5.46024L22.3902 3.08153L21.602 3.16287L21.5459 2.61308L23.7002 2.38867Z" fill="white"/>
<path d="M24.8503 4.76456L25.9723 4.78139L25.9639 5.3396L24.2612 5.31155L24.3089 2.36621L24.8896 2.37463L24.8503 4.76456Z" fill="white"/>
<path d="M26.8476 4.84869L28.0818 4.97211L28.0257 5.52752L26.2136 5.34238L26.5138 2.41107L28.3034 2.5934L28.2473 3.146L27.0355 3.02258L26.971 3.64531L28.079 3.76032L28.0229 4.3045L26.9149 4.18949L26.8476 4.84869Z" fill="white"/>
<path d="M29.9274 5.92586L29.5656 4.80383L29.1364 4.70846L28.9148 5.70707L28.3538 5.58084L28.9933 2.70563L30.1434 2.96089C30.2695 2.98709 30.389 3.03864 30.4946 3.11241C30.6002 3.18619 30.6897 3.28065 30.7577 3.39007C30.8286 3.49713 30.8766 3.61764 30.8988 3.74409C30.921 3.87054 30.9169 4.00021 30.8867 4.125C30.8488 4.3022 30.7578 4.46364 30.6259 4.58784C30.4939 4.71525 30.3286 4.80276 30.149 4.8403L30.5445 6.06612L29.9274 5.92586ZM29.4365 3.35921L29.2486 4.20074L29.8292 4.32977C29.8814 4.34153 29.9355 4.34185 29.9878 4.33071C30.0401 4.31958 30.0893 4.29724 30.1322 4.26525C30.2277 4.19959 30.2933 4.09871 30.3145 3.98475C30.3288 3.93008 30.332 3.8731 30.3238 3.8172C30.3156 3.76129 30.2962 3.70761 30.2668 3.65936C30.2417 3.61233 30.2066 3.57138 30.1639 3.53939C30.1213 3.50741 30.0722 3.48516 30.02 3.47422L29.4365 3.35921Z" fill="white"/>
<path d="M31.7002 3.3592L32.2613 3.53592L31.3664 6.341L30.8054 6.16428L31.7002 3.3592ZM32.0425 3.24138C32.0012 3.22863 31.9628 3.20779 31.9297 3.18007C31.8965 3.15234 31.8693 3.1183 31.8494 3.07991C31.8296 3.04152 31.8176 2.99957 31.8141 2.9565C31.8106 2.91342 31.8158 2.87009 31.8293 2.82903C31.8412 2.78824 31.8617 2.75043 31.8892 2.71805C31.9168 2.68567 31.9508 2.65945 31.9892 2.64109C32.0664 2.60241 32.1556 2.59542 32.2379 2.62163C32.3202 2.64783 32.389 2.70515 32.4296 2.78135C32.4492 2.81907 32.4611 2.86037 32.4645 2.90278C32.4679 2.94518 32.4627 2.98784 32.4492 3.0282C32.4362 3.06924 32.4151 3.10726 32.3871 3.14002C32.3592 3.17278 32.325 3.19961 32.2865 3.21894C32.2497 3.23964 32.2089 3.25234 32.1669 3.2562C32.1248 3.26007 32.0824 3.25502 32.0425 3.24138Z" fill="white"/>
<path d="M35.7789 5.03944L35.5404 5.53875L34.8223 5.19933L33.7985 7.35925L33.2739 7.1096L34.2978 4.94968L33.5825 4.61307L33.8209 4.11096L35.7789 5.03944Z" fill="white"/>
<path d="M35.5152 7.65939L36.5727 8.31016L36.2809 8.78422L34.7297 7.82769L36.2725 5.31995L37.8069 6.26526L37.5152 6.73651L36.4745 6.09695L36.1463 6.63273L37.0972 7.21618L36.8111 7.68183L35.8602 7.09837L35.5152 7.65939Z" fill="white"/>
<path d="M38.6905 9.59772C38.6277 9.68563 38.5475 9.75965 38.4548 9.81516C38.3622 9.87066 38.259 9.90646 38.1519 9.9203C37.9211 9.944 37.689 9.88968 37.4927 9.76602L37.3973 9.88383C37.4482 9.94581 37.4812 10.0205 37.4927 10.0998C37.4987 10.1397 37.4961 10.1803 37.4849 10.2191C37.4738 10.2578 37.4544 10.2937 37.4282 10.3242C37.2412 10.5561 36.9186 10.4673 36.4604 10.0577L36.6961 9.75761C36.9233 9.95957 37.0607 10.0381 37.1056 9.97079C37.1505 9.90347 37.1056 9.84456 36.9626 9.72394L37.1421 9.49673C36.9843 9.34303 36.8718 9.14897 36.8167 8.93571C36.7661 8.7403 36.7749 8.53424 36.8419 8.34384L37.403 8.42238C37.3532 8.561 37.3513 8.71228 37.3976 8.85209C37.4439 8.9919 37.5356 9.11219 37.6582 9.19378C37.7507 9.27989 37.869 9.33313 37.9948 9.34526C38.0408 9.34604 38.0862 9.33553 38.1272 9.31463C38.1681 9.29373 38.2033 9.2631 38.2296 9.22542C38.2559 9.18775 38.2726 9.14418 38.2781 9.09855C38.2836 9.05293 38.2779 9.00664 38.2613 8.96377C38.1869 8.80133 38.0927 8.6487 37.9808 8.50934C37.9109 8.41343 37.8472 8.31318 37.7901 8.2092C37.741 8.12012 37.7015 8.02609 37.6722 7.92869C37.6442 7.82204 37.6442 7.70995 37.6722 7.6033C37.7017 7.48497 37.7573 7.37474 37.8349 7.28072C37.9053 7.18213 37.9978 7.10136 38.1049 7.04487C38.2121 6.98837 38.331 6.95771 38.4521 6.95533C38.7008 6.94815 38.9437 7.0308 39.1365 7.18815C39.3137 7.32177 39.4481 7.50402 39.5236 7.7127C39.594 7.92056 39.6056 8.14381 39.5573 8.35787L38.9962 8.27933C39.0318 8.16278 39.0307 8.03812 38.993 7.92223C38.9554 7.80633 38.8831 7.70479 38.7859 7.63135C38.7073 7.56445 38.6085 7.52592 38.5054 7.52195C38.4644 7.52264 38.4241 7.53228 38.3873 7.55022C38.3504 7.56815 38.318 7.59392 38.2922 7.62574C38.2651 7.66066 38.2467 7.70147 38.2384 7.74486C38.2301 7.78824 38.2322 7.83297 38.2445 7.87539C38.3014 8.0267 38.3809 8.16855 38.4801 8.29616L38.6007 8.47288C38.626 8.51215 38.6624 8.57105 38.7045 8.64679C38.7403 8.70551 38.7703 8.7675 38.7943 8.83193C38.8143 8.8906 38.8302 8.95059 38.842 9.01145C38.8528 9.07646 38.8528 9.1428 38.842 9.20781C38.832 9.27331 38.8141 9.33735 38.7887 9.39855C38.7593 9.47177 38.7186 9.53992 38.668 9.60052" fill="white"/>
<path d="M40.0061 12.0606L39.5348 11.5894L39.7649 9.86984L38.7887 10.846L38.3792 10.4365L40.4605 8.34949L40.8701 8.76183L39.9528 9.6791L41.5854 9.47433L42.0594 9.94838L40.2754 10.1896L40.0061 12.0606Z" fill="white"/>
<path d="M42.3848 10.3719L42.7579 10.8179L40.5138 12.7085L40.1155 12.2569L42.3848 10.3719ZM42.7354 10.4588C42.7077 10.4256 42.687 10.3871 42.6744 10.3456C42.6619 10.3042 42.6578 10.2607 42.6625 10.2176C42.673 10.1339 42.7159 10.0577 42.782 10.0053C42.8481 9.95284 42.932 9.92837 43.0159 9.9371C43.0586 9.94073 43.1002 9.95277 43.1382 9.9725C43.1762 9.99224 43.21 10.0193 43.2375 10.0521C43.265 10.0849 43.2857 10.123 43.2982 10.1639C43.3107 10.2049 43.3149 10.2479 43.3105 10.2905C43.3024 10.3758 43.2611 10.4544 43.1955 10.5093C43.1294 10.565 43.0441 10.5924 42.958 10.5856C42.8718 10.5788 42.7919 10.5383 42.7354 10.4729" fill="white"/>
<path d="M41.6023 13.2275L42.2559 14.142L41.8043 14.4645L40.8113 13.0788L43.2068 11.3649L43.5462 11.8362L41.6023 13.2275Z" fill="white"/>
<path d="M42.9207 16.4365L43.2965 16.0186L42.7159 14.9554L42.1549 15.0564L41.8547 14.4954L44.9403 13.9877L45.2825 14.6188L43.2012 16.9526L42.9207 16.4365ZM43.2769 14.8601L43.6752 15.5866L44.5168 14.6385L43.2769 14.8601Z" fill="white"/>
<path d="M46.6261 17.6483L46.1128 17.8587L45.8126 17.121L43.5994 18.0214L43.3806 17.4856L45.5938 16.5824L45.2937 15.8503L45.8098 15.6427L46.6261 17.6483Z" fill="white"/>
<path d="M46.7675 18.1411L43.9568 19.0214L44.1303 19.5755L46.941 18.6952L46.7675 18.1411Z" fill="white"/>
<path d="M25.0045 50.2742C20.0594 50.2747 15.2252 48.8088 11.1133 46.0618C7.00132 43.3148 3.79636 39.4101 1.90369 34.8415C0.0110218 30.2729 -0.484332 25.2457 0.480275 20.3956C1.44488 15.5454 3.82612 11.0903 7.32284 7.59359C10.8196 4.09687 15.2747 1.71563 20.1248 0.751027C24.9749 -0.21358 30.0022 0.281774 34.5707 2.17444C39.1393 4.06711 43.044 7.27207 45.791 11.384C48.538 15.496 50.004 20.3302 50.0034 25.2753C49.996 31.9031 47.3598 38.2574 42.6732 42.944C37.9866 47.6306 31.6324 50.2667 25.0045 50.2742ZM25.0045 0.554076C20.115 0.553522 15.3351 2.00292 11.2694 4.71899C7.20365 7.43505 4.03463 11.2958 2.16311 15.8129C0.291595 20.3301 -0.198368 25.3008 0.755188 30.0964C1.70874 34.892 4.06299 39.2972 7.5202 42.7548C10.9774 46.2124 15.3823 48.5672 20.1778 49.5212C24.9733 50.4753 29.9441 49.986 34.4615 48.1149C38.9788 46.2439 42.8399 43.0754 45.5564 39.0099C48.273 34.9445 49.7229 30.1648 49.7229 25.2753C49.7162 18.7213 47.1099 12.4377 42.4759 7.80312C37.8418 3.16852 31.5584 0.561502 25.0045 0.554076ZM25.0045 43.2699C21.4447 43.2704 17.9647 42.2153 15.0046 40.2379C12.0445 38.2606 9.73734 35.4498 8.37481 32.1611C7.01228 28.8724 6.65564 25.2535 7.34998 21.762C8.04433 18.2706 9.75847 15.0635 12.2756 12.5464C14.7928 10.0292 17.9999 8.31508 21.4913 7.62073C24.9827 6.92639 28.6016 7.28303 31.8903 8.64556C35.179 10.0081 37.9898 12.3153 39.9672 15.2754C41.9445 18.2355 42.9997 21.7155 42.9991 25.2753C42.9932 30.0459 41.0954 34.6195 37.7221 37.9928C34.3487 41.3662 29.7752 43.2639 25.0045 43.2699ZM25.0045 7.56678C21.5003 7.56623 18.0747 8.60484 15.1608 10.5513C12.2469 12.4977 9.97562 15.2645 8.63424 18.5018C7.29285 21.7391 6.9416 25.3014 7.62489 28.7384C8.30819 32.1753 9.99534 35.3324 12.473 37.8104C14.9506 40.2885 18.1075 41.9761 21.5443 42.66C24.9811 43.3438 28.5435 42.9931 31.781 41.6522C35.0185 40.3114 37.7857 38.0406 39.7326 35.127C41.6795 32.2134 42.7186 28.7879 42.7186 25.2837C42.7134 20.587 40.8455 16.084 37.5247 12.7627C34.2039 9.44132 29.7013 7.57272 25.0045 7.56678Z" fill="white"/>
</svg>
