<svg width="21" height="20" viewBox="0 0 21 20" fill="none" xmlns="http://www.w3.org/2000/svg">
<path d="M18 6.66675L15.0327 8.31526C13.3783 9.23435 12.5511 9.6939 11.6751 9.87406C10.8998 10.0335 10.1002 10.0335 9.32487 9.87406C8.44887 9.6939 7.62169 9.23435 5.96733 8.31527L3 6.66675M5.66667 15.8334H15.3333C16.2668 15.8334 16.7335 15.8334 17.09 15.6518C17.4036 15.492 17.6586 15.237 17.8183 14.9234C18 14.5669 18 14.1002 18 13.1667V6.83341C18 5.89999 18 5.43328 17.8183 5.07676C17.6586 4.76316 17.4036 4.50819 17.09 4.3484C16.7335 4.16675 16.2668 4.16675 15.3333 4.16675H5.66667C4.73325 4.16675 4.26654 4.16675 3.91002 4.3484C3.59641 4.50819 3.34144 4.76316 3.18166 5.07676C3 5.43328 3 5.89999 3 6.83341V13.1667C3 14.1002 3 14.5669 3.18166 14.9234C3.34144 15.237 3.59641 15.492 3.91002 15.6518C4.26654 15.8334 4.73325 15.8334 5.66667 15.8334Z" stroke="white" stroke-opacity="0.6" stroke-width="1.5" stroke-linecap="round" stroke-linejoin="round"/>
</svg>
