<svg width="116" height="35" viewBox="0 0 116 35" fill="none" xmlns="http://www.w3.org/2000/svg">
<g id="Frame" style="mix-blend-mode:luminosity">
<path id="Vector" d="M1.79156 11.5835H5.67284C6.40793 11.5835 7.11292 11.882 7.63271 12.4134C8.15249 12.9448 8.4445 13.6656 8.4445 14.4171V33.1028H4.5632C3.82812 33.1028 3.12314 32.8042 2.60335 32.2728C2.08357 31.7414 1.79156 31.0206 1.79156 30.2692V11.5835Z" fill="#6A6E8C"/>
<path id="Vector_2" d="M12.223 11.5846H16.3145C16.9952 11.5846 17.648 11.8611 18.1293 12.3531C18.6105 12.8452 18.881 13.5125 18.881 14.2084C19.6209 13.3331 20.4941 12.5856 21.4668 11.9944C22.6589 11.3117 24.0119 10.9779 25.3775 11.0299C26.8367 10.986 28.2805 11.3451 29.5569 12.0694C30.692 12.7361 31.5842 13.7623 32.0988 14.993C32.4764 14.486 32.8829 14.002 33.316 13.5436C34.2707 12.5342 35.4621 11.791 36.7769 11.3847C37.5697 11.1433 38.3939 11.0271 39.221 11.0399C41.4696 11.0399 43.2457 11.6763 44.5493 12.949C45.8528 14.2216 46.5046 15.9458 46.5046 18.1214V33.1139H39.8222V20.4152C39.8544 19.9158 39.7893 19.4148 39.6307 18.9412C39.4722 18.4677 39.2233 18.0311 38.8984 17.6566C38.5699 17.3281 38.1782 17.0727 37.7483 16.9066C37.3183 16.7407 36.8595 16.6675 36.4005 16.692C35.896 16.6859 35.3965 16.7938 34.9376 17.008C34.4788 17.2222 34.0718 17.5376 33.7461 17.9315C33.0292 18.761 32.6692 19.9721 32.6659 21.5646V33.1039H28.7552C28.0201 33.1039 27.3152 32.8053 26.7953 32.2739C26.2756 31.7425 25.9835 31.0218 25.9835 30.2704V20.4152C26.0153 19.9163 25.9505 19.4158 25.7928 18.9423C25.6351 18.469 25.3876 18.0321 25.0646 17.6566C24.7523 17.3423 24.3817 17.095 23.9746 16.9294C23.5674 16.7637 23.1319 16.6831 22.6937 16.692C22.1616 16.675 21.6322 16.7792 21.1441 16.9969C19.6484 17.6866 18.8793 19.1325 18.837 21.3347V33.1039H12.223V11.5846Z" fill="#6A6E8C"/>
<path id="Vector_3" d="M56.7885 23.2634V33.1035H50.1306V0H54.0412C54.7764 0 55.4813 0.298538 56.0011 0.829937C56.5209 1.36134 56.8129 2.08207 56.8129 2.83359V20.09L62.8841 11.5942H70.5294L62.7961 21.2393L72.1963 33.1035H64.4337L56.7885 23.2634Z" fill="#6A6E8C"/>
<path id="Vector_4" d="M93.9803 11.5836H98.1645C98.8201 11.5849 99.4486 11.8518 99.9122 12.3257C100.376 12.7997 100.637 13.4421 100.638 14.1123C101.382 13.2773 102.246 12.5629 103.199 11.9934C104.425 11.3126 105.809 10.9861 107.203 11.0489C108.277 11.0327 109.344 11.219 110.351 11.5986C111.24 11.9423 112.052 12.4678 112.736 13.1428C113.401 13.8079 113.923 14.6081 114.267 15.4916C114.631 16.447 114.814 17.4648 114.804 18.4902V33.1028H110.918C110.183 33.1028 109.478 32.8043 108.958 32.2729C108.438 31.7415 108.146 31.0208 108.146 30.2692V20.4142C108.179 19.9131 108.112 19.4106 107.95 18.9366C107.788 18.4625 107.534 18.0268 107.203 17.6556C106.863 17.3254 106.46 17.0697 106.019 16.9038C105.579 16.738 105.11 16.6656 104.642 16.6911C104.12 16.6787 103.602 16.7788 103.122 16.9846C102.641 17.1903 102.208 17.4973 101.85 17.8854C101.104 18.6817 100.7 19.8312 100.638 21.3337V33.1028H93.9803V11.5836Z" fill="#6A6E8C"/>
<path id="Vector_5" d="M7.88208 1.33379C7.52031 0.961709 7.08878 0.668121 6.61336 0.470613C6.13794 0.273106 5.62843 0.175745 5.11532 0.184364C4.60301 0.176134 4.09432 0.273692 3.61976 0.471196C3.14519 0.668701 2.71449 0.962088 2.35345 1.33379C1.97577 1.70799 1.67854 2.15857 1.48076 2.65678C1.28297 3.155 1.18895 3.68989 1.2047 4.22735C1.19202 4.75844 1.2876 5.28642 1.48537 5.7777C1.68314 6.26898 1.97877 6.71281 2.35345 7.08092C2.71449 7.45262 3.14519 7.74601 3.61976 7.9435C4.09432 8.14101 4.60301 8.23856 5.11532 8.23035C5.62843 8.23896 6.13794 8.1416 6.61336 7.94409C7.08878 7.74659 7.52031 7.453 7.88208 7.08092C8.25588 6.71237 8.5506 6.26835 8.74752 5.7771C8.94444 5.28584 9.03926 4.75808 9.02594 4.22735C9.04232 3.69027 8.94908 3.15559 8.75213 2.65739C8.55519 2.1592 8.25888 1.70842 7.88208 1.33379ZM6.31295 5.44673C6.15647 5.60811 5.96975 5.73555 5.76396 5.82142C5.55818 5.90727 5.33756 5.94982 5.11532 5.94649C4.89386 5.94943 4.6741 5.9067 4.46915 5.82082C4.26422 5.73497 4.07833 5.60772 3.92258 5.44673C3.76274 5.28723 3.63681 5.09572 3.55271 4.88418C3.4686 4.67264 3.4281 4.44563 3.43375 4.21734C3.42919 3.9889 3.46935 3.76181 3.55187 3.54946C3.63439 3.3371 3.75762 3.14376 3.91429 2.9808C4.07096 2.81784 4.25791 2.68854 4.46417 2.60051C4.67043 2.51249 4.89182 2.46751 5.11532 2.46822C5.33965 2.46617 5.5621 2.51016 5.76949 2.59759C5.97688 2.68501 6.165 2.8141 6.32272 2.9772C6.48043 3.14031 6.60452 3.3341 6.68766 3.54712C6.77078 3.76015 6.81125 3.98804 6.80666 4.21734C6.81169 4.44599 6.77043 4.67322 6.68546 4.88478C6.6005 5.09635 6.47367 5.28767 6.31295 5.44673Z" fill="#6A6E8C"/>
<path id="Vector_6" d="M80.8502 33.7931C79.2702 33.818 77.7018 33.5136 76.2405 32.8986C74.9258 32.3394 73.7329 31.519 72.7308 30.4848C71.7492 29.4459 70.9917 28.2082 70.5066 26.8516C69.9894 25.4116 69.731 23.8879 69.744 22.3538C69.7316 20.833 69.9899 19.3225 70.5066 17.8961C70.9999 16.5436 71.7565 15.3076 72.7308 14.2629C73.7254 13.2084 74.9196 12.3719 76.2405 11.8041C79.2017 10.6047 82.4987 10.6047 85.4598 11.8041C86.7808 12.3719 87.9749 13.2084 88.9696 14.2629C89.9439 15.3076 90.7006 16.5436 91.1938 17.8961C91.7104 19.3225 91.9689 20.833 91.9563 22.3538C91.9694 23.8879 91.711 25.4116 91.1938 26.8516C90.7088 28.2082 89.9511 29.4459 88.9696 30.4848C87.9697 31.528 86.7766 32.3571 85.4598 32.9236C83.9969 33.53 82.4285 33.8259 80.8502 33.7931ZM80.8502 28.001C81.5589 28.0161 82.261 27.8585 82.8984 27.5413C83.4639 27.242 83.9631 26.8269 84.3649 26.3219C84.7886 25.7948 85.1015 25.184 85.2838 24.5278C85.675 23.0993 85.675 21.5884 85.2838 20.1599C85.1064 19.5057 84.8004 18.8952 84.3844 18.3659C83.9824 17.8624 83.4833 17.4489 82.918 17.1515C82.2758 16.8486 81.577 16.6917 80.8697 16.6917C80.1625 16.6917 79.4638 16.8486 78.8216 17.1515C78.2562 17.4489 77.7571 17.8624 77.3551 18.3659C76.9371 18.8976 76.6234 19.5068 76.4312 20.1599C76.014 21.5847 76.014 23.1031 76.4312 24.5278C76.6224 25.1815 76.9361 25.7908 77.3551 26.3219C77.7569 26.8269 78.256 27.242 78.8216 27.5413C79.4541 27.8508 80.1491 28.0032 80.8502 27.986V28.001Z" fill="#6A6E8C"/>
</g>
</svg>
