<svg width="154" height="40" viewBox="0 0 154 40" fill="none" xmlns="http://www.w3.org/2000/svg">
<g id="Group 13">
<path id="Vector" d="M136.73 6.68481C143.114 9.65711 146.584 15.5285 147.902 23.5522C149.469 24.0061 151.764 23.2222 153.023 24.1592C153.814 24.7596 153.594 27.3805 153.623 28.8007C153.726 33.8668 151.251 39.2707 151.251 39.2707C151.251 39.2707 152.042 31.8023 151.251 25.5941C149.699 25.316 148.107 25.1775 146.364 25.1043C145.354 20.4042 143.509 15.8799 140.903 12.5123C140.2 11.6045 139.512 10.6528 138.765 10.0232C138.37 9.6864 137.36 8.9543 136.862 8.9543C135.808 8.93966 134.27 10.7113 133.538 11.4434C130.595 14.3864 128.692 18.1494 127.476 22.6152C126.539 19.0718 128.428 15.7774 130.097 13.2297C131.81 10.5649 134.182 8.01722 136.73 6.68481Z" fill="#6A6E8C"/>
<path id="Vector_2" d="M44.052 10.9529C43.6085 7.4149 40.9806 5.38457 38.1731 4.03954C35.5169 2.77359 31.6992 1.95753 29.0171 4.22794C28.9645 3.58568 29.7065 3.23387 30.1243 2.8572C31.4206 1.70997 33.2689 0.471488 35.8225 0.496774C40.8403 0.523289 45.8445 5.28817 44.052 10.9529Z" fill="#6A6E8C"/>
<path id="Vector_3" d="M91.1918 13.1719C89.6227 12.9271 88.0792 12.1235 86.3363 11.669C84.1763 11.1072 81.9468 10.6081 79.1482 10.9053C76.7571 11.1491 74.3369 11.8933 71.8591 12.4062C64.975 13.8099 56.6446 15.3136 48.8412 15.5542C38.2124 15.8882 30.9326 12.5777 24.2218 7.72288C21.1595 9.51703 17.6484 11.1617 13.7968 12.5037C9.88671 13.8492 5.26274 14.0341 0.421151 13.7626C5.4319 12.9241 9.8048 12.71 13.8292 11.0644C17.6112 9.5358 20.7842 7.13374 23.8473 5.35421C25.0389 4.66785 26.144 6.24536 27.4012 7.16854C34.266 12.1463 43.8445 13.8984 56.3011 12.7231C62.5732 12.1329 68.9595 10.7439 74.941 9.95085C81.3162 9.11988 86.526 10.4111 91.1918 13.1719Z" fill="#6A6E8C"/>
<path id="Vector_4" d="M115.166 23.326C112.443 24.8195 108.973 25.742 105.063 25.4638C102.472 25.2734 99.9972 24.3949 97.4641 23.6774C95.1214 23.0186 92.5884 22.0961 89.9821 21.8911C85.5017 21.5397 81.2263 22.1693 76.087 22.3597C79.2789 20.998 82.7344 19.8852 86.7756 19.6217C90.6557 19.3727 93.9354 20.1195 97.1127 21.0419C100.144 21.9351 103.087 23.2089 106.498 23.4139C109.192 23.6042 112.165 23.3846 115.166 23.326Z" fill="#6A6E8C"/>
<g id="Group 12">
<g id="O&#226;&#128;&#152;zbekiston Respublikasi">
<path d="M4.46975 25.7662C5.73911 25.7662 6.76486 24.7405 6.76486 23.4583C6.76486 22.1697 5.73911 21.144 4.46975 21.144C3.20038 21.144 2.17464 22.1697 2.17464 23.4583C2.17464 24.7405 3.20038 25.7662 4.46975 25.7662ZM4.46975 25.1957C3.51452 25.1957 2.76444 24.4264 2.76444 23.4583C2.76444 22.4774 3.51452 21.7081 4.46975 21.7081C5.42497 21.7081 6.17505 22.4774 6.17505 23.4583C6.17505 24.4264 5.42497 25.1957 4.46975 25.1957Z" fill="#6A6E8C"/>
<path d="M7.55946 22.362C7.7582 22.362 7.91206 22.2082 7.91206 22.0159C7.91206 21.8171 7.7582 21.6633 7.55946 21.6633C7.55946 21.4709 7.61075 21.3171 7.68768 21.1632C7.7005 21.1311 7.68768 21.1119 7.65562 21.1119H7.57869C7.55946 21.1119 7.54664 21.1183 7.52741 21.1311C7.39278 21.2978 7.20686 21.5863 7.20686 21.9517C7.20686 22.2082 7.36713 22.362 7.55946 22.362Z" fill="#6A6E8C"/>
<path d="M10.8542 22.6377C10.8542 22.58 10.8157 22.5416 10.758 22.5416H8.38597C8.32827 22.5416 8.2898 22.58 8.2898 22.6377V22.9262C8.2898 22.9839 8.32827 23.0224 8.38597 23.0224H10.1682L8.33468 25.1444C8.30263 25.1764 8.2898 25.2213 8.2898 25.2662V25.5867C8.2898 25.6444 8.32827 25.6829 8.38597 25.6829H10.758C10.8157 25.6829 10.8542 25.6444 10.8542 25.5867V25.2918C10.8542 25.2341 10.8157 25.1957 10.758 25.1957H8.96936L10.8093 23.0737C10.8414 23.0416 10.8542 22.9967 10.8542 22.9518V22.6377Z" fill="#6A6E8C"/>
<path d="M12.9891 22.4774C12.5339 22.4774 12.1749 22.689 11.9313 22.9967V21.0991C11.9313 21.0414 11.8928 21.0029 11.8351 21.0029H11.4504C11.3927 21.0029 11.3543 21.0414 11.3543 21.0991V25.5867C11.3543 25.6444 11.3927 25.6829 11.4504 25.6829H11.803C11.8607 25.6829 11.8928 25.6444 11.8992 25.5867L11.9248 25.2341C12.1685 25.5483 12.5275 25.7598 12.9891 25.7598C13.8802 25.7598 14.5213 25.0354 14.5213 24.1186C14.5213 23.2019 13.8802 22.4774 12.9891 22.4774ZM12.9314 25.2341C12.3416 25.2341 11.9056 24.7213 11.9056 24.1122C11.9056 23.5032 12.3416 22.9967 12.9314 22.9967C13.5276 22.9967 13.9699 23.4775 13.9699 24.1122C13.9699 24.7533 13.5276 25.2341 12.9314 25.2341Z" fill="#6A6E8C"/>
<path d="M16.4783 22.471C15.568 22.471 14.9269 23.1955 14.9269 24.1186C14.9269 25.0418 15.5872 25.7662 16.5296 25.7662C16.9976 25.7662 17.4079 25.5931 17.7028 25.2854C17.7541 25.2341 17.7477 25.1893 17.7028 25.138L17.5361 24.9841C17.4848 24.9392 17.4464 24.9521 17.4015 24.9905C17.1899 25.1572 16.9463 25.279 16.5937 25.279C15.9718 25.279 15.5744 24.8944 15.491 24.343H17.7605C17.9272 24.343 17.9528 24.234 17.9528 24.0097C17.9528 23.1955 17.3822 22.471 16.4783 22.471ZM16.4783 22.9711C17.0168 22.9711 17.4143 23.375 17.4464 23.9263H15.491C15.5551 23.3621 15.9398 22.9711 16.4783 22.9711Z" fill="#6A6E8C"/>
<path d="M21.2932 25.5675L19.9597 23.8622L21.1072 22.6569C21.1649 22.5928 21.1393 22.5416 21.056 22.5416H20.62C20.5751 22.5416 20.5367 22.5544 20.5046 22.5928L19.0622 24.1186V21.0991C19.0622 21.0414 19.0237 21.0029 18.966 21.0029H18.5813C18.5236 21.0029 18.4852 21.0414 18.4852 21.0991V25.5867C18.4852 25.6444 18.5236 25.6829 18.5813 25.6829H18.966C19.0237 25.6829 19.0622 25.6444 19.0622 25.5867V24.8046L19.6135 24.2276L20.6969 25.6252C20.729 25.6701 20.761 25.6829 20.8123 25.6829H21.2355C21.3124 25.6829 21.338 25.6316 21.2932 25.5675Z" fill="#6A6E8C"/>
<path d="M22.0167 21.8299C22.209 21.8299 22.3629 21.6761 22.3629 21.4837C22.3629 21.285 22.209 21.1311 22.0167 21.1311C21.8179 21.1311 21.6641 21.285 21.6641 21.4837C21.6641 21.6761 21.8179 21.8299 22.0167 21.8299ZM21.7282 22.6377V25.5867C21.7282 25.6444 21.7667 25.6829 21.8244 25.6829H22.209C22.2667 25.6829 22.3052 25.6444 22.3052 25.5867V22.6377C22.3052 22.58 22.2667 22.5416 22.209 22.5416H21.8244C21.7667 22.5416 21.7282 22.58 21.7282 22.6377Z" fill="#6A6E8C"/>
<path d="M23.443 23.3557C23.443 23.0608 23.7186 22.9518 23.943 22.9518C24.2251 22.9518 24.411 23.0608 24.6546 23.2596C24.7123 23.3045 24.7572 23.3173 24.7957 23.266L24.9431 23.0801C24.9752 23.0352 24.988 22.9903 24.9495 22.9454C24.6867 22.6377 24.2764 22.471 23.9238 22.471C23.3596 22.471 22.8916 22.8236 22.8916 23.3557C22.8916 24.4071 24.5585 24.1699 24.5585 24.8559C24.5585 25.1252 24.3213 25.2662 23.9943 25.2662C23.6353 25.2662 23.3212 25.0546 23.1352 24.9008C23.0775 24.8559 23.0391 24.8431 23.0006 24.8944L22.8275 25.1187C22.7955 25.1572 22.7955 25.1957 22.8339 25.2405C23.0583 25.5034 23.4814 25.7662 24.0071 25.7662C24.5585 25.7662 25.1226 25.4201 25.1226 24.8623C25.1226 23.7404 23.443 24.0097 23.443 23.3557Z" fill="#6A6E8C"/>
<path d="M26.9396 22.5416H26.4908V21.6761C26.4908 21.6184 26.4523 21.5799 26.3946 21.5799H26.01C25.9523 21.5799 25.9138 21.6184 25.9138 21.6761V22.5416H25.4651C25.4074 22.5416 25.3689 22.58 25.3689 22.6377V22.9262C25.3689 22.9839 25.4074 23.0224 25.4651 23.0224H25.9138V25.5867C25.9138 25.6444 25.9523 25.6829 26.01 25.6829H26.3946C26.4523 25.6829 26.4908 25.6444 26.4908 25.5867V23.0224H26.9396C26.9973 23.0224 27.0357 22.9839 27.0357 22.9262V22.6377C27.0357 22.58 26.9973 22.5416 26.9396 22.5416Z" fill="#6A6E8C"/>
<path d="M28.9694 25.7662C29.8733 25.7662 30.5721 25.0482 30.5721 24.1186C30.5721 23.1891 29.8733 22.471 28.9694 22.471C28.0719 22.471 27.3731 23.1891 27.3731 24.1186C27.3731 25.0482 28.0719 25.7662 28.9694 25.7662ZM28.9694 25.2405C28.386 25.2405 27.9244 24.7726 27.9244 24.1186C27.9244 23.4647 28.386 22.9967 28.9694 22.9967C29.5592 22.9967 30.0144 23.4647 30.0144 24.1186C30.0144 24.7726 29.5592 25.2405 28.9694 25.2405Z" fill="#6A6E8C"/>
<path d="M32.7286 22.471C32.2542 22.471 31.908 22.7339 31.6837 23.0672L31.658 22.6377C31.6516 22.58 31.6195 22.5416 31.5618 22.5416H31.2028C31.1451 22.5416 31.1067 22.58 31.1067 22.6377V25.5867C31.1067 25.6444 31.1451 25.6829 31.2028 25.6829H31.5875C31.6452 25.6829 31.6837 25.6444 31.6837 25.5867V23.7019C31.6837 23.5673 31.9914 22.9903 32.5748 22.9903C32.9851 22.9903 33.2607 23.2596 33.2607 23.8045V25.5867C33.2607 25.6444 33.2992 25.6829 33.3569 25.6829H33.7416C33.7993 25.6829 33.8377 25.6444 33.8377 25.5867V23.7404C33.8377 22.9006 33.3825 22.471 32.7286 22.471Z" fill="#6A6E8C"/>
<path d="M39.0958 25.5675L38.0188 23.9584C38.6984 23.7981 39.0638 23.2724 39.0638 22.6057C39.0638 21.7915 38.5253 21.1953 37.5316 21.1953H36.2943C36.2366 21.1953 36.1981 21.2337 36.1981 21.2914V25.5867C36.1981 25.6444 36.2366 25.6829 36.2943 25.6829H36.6981C36.7558 25.6829 36.7943 25.6444 36.7943 25.5867V24.0161H37.4162L38.474 25.6188C38.4996 25.6637 38.5381 25.6829 38.5894 25.6829H39.0317C39.1087 25.6829 39.1407 25.638 39.0958 25.5675ZM36.7943 21.7402H37.5059C38.038 21.7402 38.4868 21.971 38.4868 22.6057C38.4868 23.2403 38.038 23.4711 37.5059 23.4711H36.7943V21.7402Z" fill="#6A6E8C"/>
<path d="M40.8761 22.471C39.9658 22.471 39.3247 23.1955 39.3247 24.1186C39.3247 25.0418 39.985 25.7662 40.9274 25.7662C41.3954 25.7662 41.8057 25.5931 42.1006 25.2854C42.1519 25.2341 42.1455 25.1893 42.1006 25.138L41.9339 24.9841C41.8826 24.9392 41.8442 24.9521 41.7993 24.9905C41.5877 25.1572 41.3441 25.279 40.9915 25.279C40.3697 25.279 39.9722 24.8944 39.8888 24.343H42.1583C42.325 24.343 42.3506 24.234 42.3506 24.0097C42.3506 23.1955 41.7801 22.471 40.8761 22.471ZM40.8761 22.9711C41.4146 22.9711 41.8121 23.375 41.8442 23.9263H39.8888C39.9529 23.3621 40.3376 22.9711 40.8761 22.9711Z" fill="#6A6E8C"/>
<path d="M43.3206 23.3557C43.3206 23.0608 43.5962 22.9518 43.8206 22.9518C44.1027 22.9518 44.2886 23.0608 44.5322 23.2596C44.5899 23.3045 44.6348 23.3173 44.6733 23.266L44.8207 23.0801C44.8528 23.0352 44.8656 22.9903 44.8271 22.9454C44.5643 22.6377 44.154 22.471 43.8014 22.471C43.2372 22.471 42.7692 22.8236 42.7692 23.3557C42.7692 24.4071 44.4361 24.1699 44.4361 24.8559C44.4361 25.1252 44.1989 25.2662 43.8719 25.2662C43.5129 25.2662 43.1988 25.0546 43.0129 24.9008C42.9552 24.8559 42.9167 24.8431 42.8782 24.8944L42.7051 25.1187C42.6731 25.1572 42.6731 25.1957 42.7115 25.2405C42.9359 25.5034 43.359 25.7662 43.8847 25.7662C44.4361 25.7662 45.0002 25.4201 45.0002 24.8623C45.0002 23.7404 43.3206 24.0097 43.3206 23.3557Z" fill="#6A6E8C"/>
<path d="M47.1347 22.4774C46.6731 22.4774 46.3077 22.6954 46.0641 23.0095L46.0449 22.6377C46.0385 22.58 46.0064 22.5416 45.9487 22.5416H45.5961C45.5384 22.5416 45.4999 22.58 45.4999 22.6377V26.8048C45.4999 26.8625 45.5384 26.901 45.5961 26.901H45.9808C46.0385 26.901 46.0769 26.8625 46.0769 26.8048V25.2405C46.3205 25.5483 46.6731 25.7598 47.1347 25.7598C48.0258 25.7598 48.6669 25.0354 48.6669 24.1186C48.6669 23.2019 48.0258 22.4774 47.1347 22.4774ZM47.077 25.2341C46.4872 25.2341 46.0513 24.7213 46.0513 24.1122C46.0513 23.5032 46.4872 22.9967 47.077 22.9967C47.6732 22.9967 48.1156 23.4775 48.1156 24.1122C48.1156 24.7533 47.6732 25.2341 47.077 25.2341Z" fill="#6A6E8C"/>
<path d="M51.7715 22.5416H51.3869C51.3292 22.5416 51.2907 22.58 51.2907 22.6377V24.5161C51.2907 24.7213 50.9894 25.247 50.4252 25.247C50.0021 25.247 49.7136 24.9713 49.7136 24.42V22.6377C49.7136 22.58 49.6752 22.5416 49.6175 22.5416H49.2328C49.1751 22.5416 49.1366 22.58 49.1366 22.6377V24.4841C49.1366 25.3239 49.5918 25.7662 50.3034 25.7662C50.7458 25.7662 51.0727 25.529 51.2907 25.2085L51.3163 25.5867C51.3228 25.6444 51.3548 25.6829 51.4125 25.6829H51.7715C51.8292 25.6829 51.8677 25.6444 51.8677 25.5867V22.6377C51.8677 22.58 51.8292 22.5416 51.7715 22.5416Z" fill="#6A6E8C"/>
<path d="M54.1279 22.4774C53.6727 22.4774 53.3137 22.689 53.0701 22.9967V21.0991C53.0701 21.0414 53.0316 21.0029 52.9739 21.0029H52.5893C52.5316 21.0029 52.4931 21.0414 52.4931 21.0991V25.5867C52.4931 25.6444 52.5316 25.6829 52.5893 25.6829H52.9419C52.9996 25.6829 53.0316 25.6444 53.038 25.5867L53.0637 25.2341C53.3073 25.5483 53.6663 25.7598 54.1279 25.7598C55.019 25.7598 55.6601 25.0354 55.6601 24.1186C55.6601 23.2019 55.019 22.4774 54.1279 22.4774ZM54.0702 25.2341C53.4804 25.2341 53.0444 24.7213 53.0444 24.1122C53.0444 23.5032 53.4804 22.9967 54.0702 22.9967C54.6664 22.9967 55.1088 23.4775 55.1088 24.1122C55.1088 24.7533 54.6664 25.2341 54.0702 25.2341Z" fill="#6A6E8C"/>
<path d="M56.1932 21.0991V25.5867C56.1932 25.6444 56.2316 25.6829 56.2893 25.6829H56.674C56.7317 25.6829 56.7701 25.6444 56.7701 25.5867V21.0991C56.7701 21.0414 56.7317 21.0029 56.674 21.0029H56.2893C56.2316 21.0029 56.1932 21.0414 56.1932 21.0991Z" fill="#6A6E8C"/>
<path d="M57.715 21.8299C57.9073 21.8299 58.0612 21.6761 58.0612 21.4837C58.0612 21.285 57.9073 21.1311 57.715 21.1311C57.5163 21.1311 57.3624 21.285 57.3624 21.4837C57.3624 21.6761 57.5163 21.8299 57.715 21.8299ZM57.4265 22.6377V25.5867C57.4265 25.6444 57.465 25.6829 57.5227 25.6829H57.9073C57.965 25.6829 58.0035 25.6444 58.0035 25.5867V22.6377C58.0035 22.58 57.965 22.5416 57.9073 22.5416H57.5227C57.465 22.5416 57.4265 22.58 57.4265 22.6377Z" fill="#6A6E8C"/>
<path d="M61.4678 25.5675L60.1344 23.8622L61.2819 22.6569C61.3396 22.5928 61.314 22.5416 61.2306 22.5416H60.7947C60.7498 22.5416 60.7114 22.5544 60.6793 22.5928L59.2368 24.1186V21.0991C59.2368 21.0414 59.1984 21.0029 59.1407 21.0029H58.756C58.6983 21.0029 58.6599 21.0414 58.6599 21.0991V25.5867C58.6599 25.6444 58.6983 25.6829 58.756 25.6829H59.1407C59.1984 25.6829 59.2368 25.6444 59.2368 25.5867V24.8046L59.7882 24.2276L60.8716 25.6252C60.9037 25.6701 60.9357 25.6829 60.987 25.6829H61.4101C61.4871 25.6829 61.5127 25.6316 61.4678 25.5675Z" fill="#6A6E8C"/>
<path d="M64.552 22.5416H64.1994C64.1417 22.5416 64.1096 22.58 64.1032 22.6377L64.084 23.0095C63.8404 22.6954 63.475 22.4774 63.0134 22.4774C62.1222 22.4774 61.4812 23.2019 61.4812 24.1186C61.4812 25.0354 62.1222 25.7598 63.0134 25.7598C63.475 25.7598 63.834 25.5483 64.0776 25.2341L64.1032 25.5867C64.1096 25.6444 64.1417 25.6829 64.1994 25.6829H64.552C64.6097 25.6829 64.6482 25.6444 64.6482 25.5867V22.6377C64.6482 22.58 64.6097 22.5416 64.552 22.5416ZM63.0711 25.2341C62.4749 25.2341 62.0325 24.7533 62.0325 24.1122C62.0325 23.4775 62.4749 22.9967 63.0711 22.9967C63.6609 22.9967 64.0968 23.5032 64.0968 24.1122C64.0968 24.7213 63.6609 25.2341 63.0711 25.2341Z" fill="#6A6E8C"/>
<path d="M65.7838 23.3557C65.7838 23.0608 66.0595 22.9518 66.2839 22.9518C66.566 22.9518 66.7519 23.0608 66.9955 23.2596C67.0532 23.3045 67.0981 23.3173 67.1366 23.266L67.284 23.0801C67.3161 23.0352 67.3289 22.9903 67.2904 22.9454C67.0276 22.6377 66.6173 22.471 66.2647 22.471C65.7005 22.471 65.2325 22.8236 65.2325 23.3557C65.2325 24.4071 66.8993 24.1699 66.8993 24.8559C66.8993 25.1252 66.6621 25.2662 66.3352 25.2662C65.9762 25.2662 65.662 25.0546 65.4761 24.9008C65.4184 24.8559 65.38 24.8431 65.3415 24.8944L65.1684 25.1187C65.1363 25.1572 65.1363 25.1957 65.1748 25.2405C65.3992 25.5034 65.8223 25.7662 66.348 25.7662C66.8993 25.7662 67.4635 25.4201 67.4635 24.8623C67.4635 23.7404 65.7838 24.0097 65.7838 23.3557Z" fill="#6A6E8C"/>
<path d="M68.2517 21.8299C68.444 21.8299 68.5979 21.6761 68.5979 21.4837C68.5979 21.285 68.444 21.1311 68.2517 21.1311C68.053 21.1311 67.8991 21.285 67.8991 21.4837C67.8991 21.6761 68.053 21.8299 68.2517 21.8299ZM67.9632 22.6377V25.5867C67.9632 25.6444 68.0017 25.6829 68.0594 25.6829H68.444C68.5017 25.6829 68.5402 25.6444 68.5402 25.5867V22.6377C68.5402 22.58 68.5017 22.5416 68.444 22.5416H68.0594C68.0017 22.5416 67.9632 22.58 67.9632 22.6377Z" fill="#6A6E8C"/>
</g>
<g id="Madaniyat va Turizm vazirligi">
<path d="M10.2894 30.2576H8.95491C8.86811 30.2576 8.79217 30.2902 8.75962 30.3661L6.49213 36.1487L4.21378 30.3661C4.18124 30.2902 4.10529 30.2576 4.0185 30.2576H2.68404C2.5864 30.2576 2.5213 30.3227 2.5213 30.4203V37.6893C2.5213 37.787 2.5864 37.8521 2.68404 37.8521H3.84491C3.94255 37.8521 4.00765 37.787 4.00765 37.6893V33.3713L5.76523 37.7219C5.79778 37.8087 5.87372 37.8521 5.96051 37.8521H7.01289C7.09969 37.8521 7.17563 37.8087 7.20818 37.7219L8.96576 33.3713V37.6893C8.96576 37.787 9.03085 37.8521 9.12849 37.8521H10.2894C10.387 37.8521 10.4521 37.787 10.4521 37.6893V30.4203C10.4521 30.3227 10.387 30.2576 10.2894 30.2576Z" fill="#6A6E8C"/>
<path d="M16.7536 32.5359H15.7554C15.6578 32.5359 15.6035 32.601 15.5927 32.6987L15.5602 33.1978C15.1587 32.7421 14.6163 32.4166 13.9436 32.4166C12.4573 32.4166 11.3723 33.6534 11.3723 35.2049C11.3723 36.7563 12.4573 37.9931 13.9436 37.9931C14.638 37.9931 15.1696 37.6785 15.5493 37.2337L15.5927 37.6893C15.6035 37.787 15.6578 37.8521 15.7554 37.8521H16.7536C16.8512 37.8521 16.9163 37.787 16.9163 37.6893V32.6987C16.9163 32.601 16.8512 32.5359 16.7536 32.5359ZM14.1172 36.6912C13.3252 36.6912 12.7502 36.0511 12.7502 35.194C12.7502 34.3478 13.3252 33.7185 14.1172 33.7185C14.8983 33.7185 15.4734 34.3912 15.4734 35.194C15.4734 35.9969 14.8983 36.6912 14.1172 36.6912Z" fill="#6A6E8C"/>
<path d="M23.1106 29.9321H22.0039C21.9063 29.9321 21.8412 29.9972 21.8412 30.0949V33.111C21.4506 32.6987 20.9299 32.4166 20.3006 32.4166C18.8142 32.4166 17.7293 33.6534 17.7293 35.2049C17.7293 36.7563 18.8142 37.9931 20.3006 37.9931C20.9949 37.9931 21.5266 37.6785 21.9063 37.2337L21.9497 37.6893C21.9605 37.787 22.0148 37.8521 22.1124 37.8521H23.1106C23.2082 37.8521 23.2733 37.787 23.2733 37.6893V30.0949C23.2733 29.9972 23.2082 29.9321 23.1106 29.9321ZM20.4742 36.6912C19.6822 36.6912 19.1072 36.0511 19.1072 35.194C19.1072 34.3478 19.6822 33.7185 20.4742 33.7185C21.2553 33.7185 21.8303 34.3912 21.8303 35.194C21.8303 35.9969 21.2553 36.6912 20.4742 36.6912Z" fill="#6A6E8C"/>
<path d="M29.4675 32.5359H28.4694C28.3718 32.5359 28.3175 32.601 28.3067 32.6987L28.2741 33.1978C27.8727 32.7421 27.3302 32.4166 26.6576 32.4166C25.1712 32.4166 24.0863 33.6534 24.0863 35.2049C24.0863 36.7563 25.1712 37.9931 26.6576 37.9931C27.3519 37.9931 27.8835 37.6785 28.2633 37.2337L28.3067 37.6893C28.3175 37.787 28.3718 37.8521 28.4694 37.8521H29.4675C29.5652 37.8521 29.6303 37.787 29.6303 37.6893V32.6987C29.6303 32.601 29.5652 32.5359 29.4675 32.5359ZM26.8312 36.6912C26.0392 36.6912 25.4642 36.0511 25.4642 35.194C25.4642 34.3478 26.0392 33.7185 26.8312 33.7185C27.6123 33.7185 28.1873 34.3912 28.1873 35.194C28.1873 35.9969 27.6123 36.6912 26.8312 36.6912Z" fill="#6A6E8C"/>
<path d="M33.7198 32.4166C32.9495 32.4166 32.3853 32.8397 32.0381 33.4039V33.393L31.9947 32.6987C31.9839 32.601 31.9296 32.5359 31.832 32.5359H30.7688C30.6711 32.5359 30.606 32.601 30.606 32.6987V37.6893C30.606 37.787 30.6711 37.8521 30.7688 37.8521H31.8754C31.973 37.8521 32.0381 37.787 32.0381 37.6893V34.7817C32.0381 34.5322 32.407 33.7402 33.2098 33.7402C33.7306 33.7402 34.208 34.044 34.208 34.9228V37.6893C34.208 37.787 34.2731 37.8521 34.3707 37.8521H35.4773C35.575 37.8521 35.6401 37.787 35.6401 37.6893V34.6624C35.6401 33.2412 34.8047 32.4166 33.7198 32.4166Z" fill="#6A6E8C"/>
<path d="M37.3511 31.527C37.7851 31.527 38.1323 31.1689 38.1323 30.735C38.1323 30.301 37.7851 29.943 37.3511 29.943C36.9063 29.943 36.5591 30.301 36.5591 30.735C36.5591 31.1689 36.9063 31.527 37.3511 31.527ZM36.6351 32.6987V37.6893C36.6351 37.787 36.7002 37.8521 36.7978 37.8521H37.9044C38.0021 37.8521 38.0672 37.787 38.0672 37.6893V32.6987C38.0672 32.601 38.0021 32.5359 37.9044 32.5359H36.7978C36.7002 32.5359 36.6351 32.601 36.6351 32.6987Z" fill="#6A6E8C"/>
<path d="M44.1711 32.5359H43.0319C42.9451 32.5359 42.8692 32.5793 42.8366 32.6661L41.5455 36.1813L40.2436 32.6661C40.2111 32.5793 40.1351 32.5359 40.0483 32.5359H38.9309C38.8115 32.5359 38.7573 32.601 38.8007 32.7204L40.8512 37.8629L40.0809 39.729C40.0266 39.8483 40.0917 39.9134 40.2111 39.9134H41.296C41.3828 39.9134 41.4588 39.87 41.4913 39.7832L44.3013 32.7204C44.3447 32.601 44.2904 32.5359 44.1711 32.5359Z" fill="#6A6E8C"/>
<path d="M49.8205 32.5359H48.8223C48.7247 32.5359 48.6705 32.601 48.6596 32.6987L48.6271 33.1978C48.2256 32.7421 47.6832 32.4166 47.0105 32.4166C45.5242 32.4166 44.4392 33.6534 44.4392 35.2049C44.4392 36.7563 45.5242 37.9931 47.0105 37.9931C47.7049 37.9931 48.2365 37.6785 48.6162 37.2337L48.6596 37.6893C48.6705 37.787 48.7247 37.8521 48.8223 37.8521H49.8205C49.9181 37.8521 49.9832 37.787 49.9832 37.6893V32.6987C49.9832 32.601 49.9181 32.5359 49.8205 32.5359ZM47.1841 36.6912C46.3921 36.6912 45.8171 36.0511 45.8171 35.194C45.8171 34.3478 46.3921 33.7185 47.1841 33.7185C47.9652 33.7185 48.5403 34.3912 48.5403 35.194C48.5403 35.9969 47.9652 36.6912 47.1841 36.6912Z" fill="#6A6E8C"/>
<path d="M53.8557 32.5359H53.0963V31.0713C53.0963 30.9737 53.0312 30.9086 52.9335 30.9086H51.8269C51.7293 30.9086 51.6642 30.9737 51.6642 31.0713V32.5359H50.9047C50.8071 32.5359 50.742 32.601 50.742 32.6987V33.5449C50.742 33.6426 50.8071 33.7077 50.9047 33.7077H51.6642V37.6893C51.6642 37.787 51.7293 37.8521 51.8269 37.8521H52.9335C53.0312 37.8521 53.0963 37.787 53.0963 37.6893V33.7077H53.8557C53.9534 33.7077 54.0185 33.6426 54.0185 33.5449V32.6987C54.0185 32.601 53.9534 32.5359 53.8557 32.5359Z" fill="#6A6E8C"/>
<path d="M61.3884 32.6661L60.0973 36.1813L58.7954 32.6661C58.7629 32.5793 58.6869 32.5359 58.6001 32.5359H57.4827C57.3633 32.5359 57.3091 32.601 57.3525 32.7204L59.3487 37.7219C59.3813 37.8087 59.4572 37.8521 59.544 37.8521H60.6507C60.7374 37.8521 60.8134 37.8087 60.8459 37.7219L62.8313 32.7204C62.8747 32.601 62.8205 32.5359 62.7012 32.5359H61.5837C61.4969 32.5359 61.4209 32.5793 61.3884 32.6661Z" fill="#6A6E8C"/>
<path d="M68.3511 32.5359H67.3529C67.2553 32.5359 67.2011 32.601 67.1902 32.6987L67.1577 33.1978C66.7562 32.7421 66.2138 32.4166 65.5411 32.4166C64.0548 32.4166 62.9698 33.6534 62.9698 35.2049C62.9698 36.7563 64.0548 37.9931 65.5411 37.9931C66.2355 37.9931 66.7671 37.6785 67.1468 37.2337L67.1902 37.6893C67.2011 37.787 67.2553 37.8521 67.3529 37.8521H68.3511C68.4487 37.8521 68.5138 37.787 68.5138 37.6893V32.6987C68.5138 32.601 68.4487 32.5359 68.3511 32.5359ZM65.7147 36.6912C64.9227 36.6912 64.3477 36.0511 64.3477 35.194C64.3477 34.3478 64.9227 33.7185 65.7147 33.7185C66.4959 33.7185 67.0709 34.3912 67.0709 35.194C67.0709 35.9969 66.4959 36.6912 65.7147 36.6912Z" fill="#6A6E8C"/>
<path d="M77.1357 30.2576H72.3621C72.2644 30.2576 72.1993 30.3227 72.1993 30.4203V31.4076C72.1993 31.5053 72.2644 31.5704 72.3621 31.5704H74.0112V37.6893C74.0112 37.787 74.0763 37.8521 74.1739 37.8521H75.3348C75.4324 37.8521 75.4975 37.787 75.4975 37.6893V31.5704H77.1357C77.2334 31.5704 77.2985 31.5053 77.2985 31.4076V30.4203C77.2985 30.3227 77.2334 30.2576 77.1357 30.2576Z" fill="#6A6E8C"/>
<path d="M82.0092 32.5359H80.9026C80.8049 32.5359 80.7398 32.601 80.7398 32.6987V35.6388C80.7398 36.0186 80.3601 36.6695 79.5898 36.6695C79.0799 36.6695 78.57 36.3657 78.57 35.4869V32.6987C78.57 32.601 78.5049 32.5359 78.4072 32.5359H77.3006C77.203 32.5359 77.1379 32.601 77.1379 32.6987V35.7473C77.1379 37.1686 77.9624 37.9931 79.1558 37.9931C79.8285 37.9931 80.3709 37.6134 80.7398 37.0926L80.7832 37.6893C80.7941 37.787 80.8483 37.8521 80.946 37.8521H82.0092C82.1068 37.8521 82.1719 37.787 82.1719 37.6893V32.6987C82.1719 32.601 82.1068 32.5359 82.0092 32.5359Z" fill="#6A6E8C"/>
<path d="M86.6399 32.6661C86.4881 32.5359 86.2277 32.4166 85.9239 32.4166C85.2838 32.4166 84.8498 32.7746 84.5677 33.2845L84.5243 32.6987C84.5135 32.601 84.4593 32.5359 84.3616 32.5359H83.3092C83.2116 32.5359 83.1465 32.601 83.1465 32.6987V37.6893C83.1465 37.787 83.2116 37.8521 83.3092 37.8521H84.4158C84.5135 37.8521 84.5786 37.787 84.5786 37.6893V34.8685C84.5786 34.2176 85.0126 33.7185 85.6852 33.7185C85.8913 33.7185 86.0215 33.7619 86.13 33.7945C86.2385 33.827 86.3253 33.8053 86.3687 33.686L86.6942 32.8831C86.7267 32.8072 86.7267 32.7312 86.6399 32.6661Z" fill="#6A6E8C"/>
<path d="M87.9315 31.527C88.3655 31.527 88.7127 31.1689 88.7127 30.735C88.7127 30.301 88.3655 29.943 87.9315 29.943C87.4867 29.943 87.1395 30.301 87.1395 30.735C87.1395 31.1689 87.4867 31.527 87.9315 31.527ZM87.2155 32.6987V37.6893C87.2155 37.787 87.2806 37.8521 87.3782 37.8521H88.4848C88.5825 37.8521 88.6476 37.787 88.6476 37.6893V32.6987C88.6476 32.601 88.5825 32.5359 88.4848 32.5359H87.3782C87.2806 32.5359 87.2155 32.601 87.2155 32.6987Z" fill="#6A6E8C"/>
<path d="M93.9052 32.6987C93.9052 32.601 93.8401 32.5359 93.7425 32.5359H89.5764C89.4787 32.5359 89.4136 32.601 89.4136 32.6987V33.5449C89.4136 33.6426 89.4787 33.7077 89.5764 33.7077H92.191L89.4896 36.5936C89.4353 36.6478 89.4136 36.7238 89.4136 36.7997V37.6893C89.4136 37.787 89.4787 37.8521 89.5764 37.8521H93.7425C93.8401 37.8521 93.9052 37.787 93.9052 37.6893V36.8431C93.9052 36.7455 93.8401 36.6804 93.7425 36.6804H91.1386L93.8293 33.7945C93.8835 33.7402 93.9052 33.6643 93.9052 33.5883V32.6987Z" fill="#6A6E8C"/>
<path d="M101.303 32.4166C100.435 32.4166 99.8055 32.8289 99.4258 33.4039C99.0895 32.7638 98.4928 32.4166 97.7876 32.4166C97.0173 32.4166 96.4531 32.8397 96.1059 33.4039V33.393L96.0625 32.6987C96.0517 32.601 95.9974 32.5359 95.8998 32.5359H94.8366C94.7389 32.5359 94.6738 32.601 94.6738 32.6987V37.6893C94.6738 37.787 94.7389 37.8521 94.8366 37.8521H95.9432C96.0408 37.8521 96.1059 37.787 96.1059 37.6893V34.7817C96.1059 34.5322 96.4748 33.7402 97.2776 33.7402C97.7984 33.7402 98.2758 34.044 98.2758 34.9228V37.6893C98.2758 37.787 98.3409 37.8521 98.4385 37.8521H99.5451C99.6428 37.8521 99.7079 37.787 99.7079 37.6893V34.76C99.7079 34.3803 100.077 33.7402 100.88 33.7402C101.39 33.7402 101.867 34.044 101.867 34.9228V37.6893C101.867 37.787 101.932 37.8521 102.03 37.8521H103.136C103.234 37.8521 103.299 37.787 103.299 37.6893V34.6624C103.299 33.2412 102.464 32.4166 101.303 32.4166Z" fill="#6A6E8C"/>
<path d="M110.878 32.6661L109.586 36.1813L108.285 32.6661C108.252 32.5793 108.176 32.5359 108.089 32.5359H106.972C106.852 32.5359 106.798 32.601 106.842 32.7204L108.838 37.7219C108.87 37.8087 108.946 37.8521 109.033 37.8521H110.14C110.227 37.8521 110.302 37.8087 110.335 37.7219L112.32 32.7204C112.364 32.601 112.31 32.5359 112.19 32.5359H111.073C110.986 32.5359 110.91 32.5793 110.878 32.6661Z" fill="#6A6E8C"/>
<path d="M117.84 32.5359H116.842C116.744 32.5359 116.69 32.601 116.679 32.6987L116.647 33.1978C116.245 32.7421 115.703 32.4166 115.03 32.4166C113.544 32.4166 112.459 33.6534 112.459 35.2049C112.459 36.7563 113.544 37.9931 115.03 37.9931C115.725 37.9931 116.256 37.6785 116.636 37.2337L116.679 37.6893C116.69 37.787 116.744 37.8521 116.842 37.8521H117.84C117.938 37.8521 118.003 37.787 118.003 37.6893V32.6987C118.003 32.601 117.938 32.5359 117.84 32.5359ZM115.204 36.6912C114.412 36.6912 113.837 36.0511 113.837 35.194C113.837 34.3478 114.412 33.7185 115.204 33.7185C115.985 33.7185 116.56 34.3912 116.56 35.194C116.56 35.9969 115.985 36.6912 115.204 36.6912Z" fill="#6A6E8C"/>
<path d="M123.253 32.6987C123.253 32.601 123.188 32.5359 123.091 32.5359H118.924C118.827 32.5359 118.762 32.601 118.762 32.6987V33.5449C118.762 33.6426 118.827 33.7077 118.924 33.7077H121.539L118.838 36.5936C118.783 36.6478 118.762 36.7238 118.762 36.7997V37.6893C118.762 37.787 118.827 37.8521 118.924 37.8521H123.091C123.188 37.8521 123.253 37.787 123.253 37.6893V36.8431C123.253 36.7455 123.188 36.6804 123.091 36.6804H120.487L123.177 33.7945C123.232 33.7402 123.253 33.6643 123.253 33.5883V32.6987Z" fill="#6A6E8C"/>
<path d="M124.76 31.527C125.194 31.527 125.541 31.1689 125.541 30.735C125.541 30.301 125.194 29.943 124.76 29.943C124.315 29.943 123.968 30.301 123.968 30.735C123.968 31.1689 124.315 31.527 124.76 31.527ZM124.044 32.6987V37.6893C124.044 37.787 124.109 37.8521 124.206 37.8521H125.313C125.411 37.8521 125.476 37.787 125.476 37.6893V32.6987C125.476 32.601 125.411 32.5359 125.313 32.5359H124.206C124.109 32.5359 124.044 32.601 124.044 32.6987Z" fill="#6A6E8C"/>
<path d="M129.952 32.6661C129.8 32.5359 129.54 32.4166 129.236 32.4166C128.596 32.4166 128.162 32.7746 127.88 33.2845L127.837 32.6987C127.826 32.601 127.771 32.5359 127.674 32.5359H126.621C126.524 32.5359 126.459 32.601 126.459 32.6987V37.6893C126.459 37.787 126.524 37.8521 126.621 37.8521H127.728C127.826 37.8521 127.891 37.787 127.891 37.6893V34.8685C127.891 34.2176 128.325 33.7185 128.997 33.7185C129.204 33.7185 129.334 33.7619 129.442 33.7945C129.551 33.827 129.638 33.8053 129.681 33.686L130.006 32.8831C130.039 32.8072 130.039 32.7312 129.952 32.6661Z" fill="#6A6E8C"/>
<path d="M130.506 30.0949V37.6893C130.506 37.787 130.571 37.8521 130.669 37.8521H131.775C131.873 37.8521 131.938 37.787 131.938 37.6893V30.0949C131.938 29.9972 131.873 29.9321 131.775 29.9321H130.669C130.571 29.9321 130.506 29.9972 130.506 30.0949Z" fill="#6A6E8C"/>
<path d="M133.659 31.527C134.093 31.527 134.441 31.1689 134.441 30.735C134.441 30.301 134.093 29.943 133.659 29.943C133.215 29.943 132.867 30.301 132.867 30.735C132.867 31.1689 133.215 31.527 133.659 31.527ZM132.943 32.6987V37.6893C132.943 37.787 133.008 37.8521 133.106 37.8521H134.213C134.31 37.8521 134.375 37.787 134.375 37.6893V32.6987C134.375 32.601 134.31 32.5359 134.213 32.5359H133.106C133.008 32.5359 132.943 32.601 132.943 32.6987Z" fill="#6A6E8C"/>
<path d="M140.577 32.5359H139.579C139.481 32.5359 139.427 32.601 139.416 32.6987L139.384 33.1761C138.993 32.7312 138.44 32.4166 137.767 32.4166C136.281 32.4166 135.196 33.6534 135.196 35.1506C135.196 36.6478 136.281 37.8846 137.767 37.8846C138.483 37.8846 139.026 37.5592 139.416 37.1035V37.6893C139.416 38.5681 138.483 38.8177 137.832 38.8177C137.181 38.8177 136.682 38.6875 136.194 38.4162C136.096 38.362 136.031 38.3945 135.977 38.4813L135.619 39.1323C135.575 39.2191 135.586 39.295 135.662 39.3493C136.216 39.729 137.04 40.0002 137.951 40.0002C139.167 40.0002 140.74 39.4903 140.74 37.7978V32.6987C140.74 32.601 140.675 32.5359 140.577 32.5359ZM137.941 36.5827C137.149 36.5827 136.574 35.9426 136.574 35.1398C136.574 34.3478 137.149 33.7185 137.941 33.7185C138.722 33.7185 139.297 34.3912 139.297 35.1398C139.297 35.8884 138.722 36.5827 137.941 36.5827Z" fill="#6A6E8C"/>
<path d="M142.453 31.527C142.887 31.527 143.234 31.1689 143.234 30.735C143.234 30.301 142.887 29.943 142.453 29.943C142.008 29.943 141.661 30.301 141.661 30.735C141.661 31.1689 142.008 31.527 142.453 31.527ZM141.737 32.6987V37.6893C141.737 37.787 141.802 37.8521 141.9 37.8521H143.007C143.104 37.8521 143.169 37.787 143.169 37.6893V32.6987C143.169 32.601 143.104 32.5359 143.007 32.5359H141.9C141.802 32.5359 141.737 32.601 141.737 32.6987Z" fill="#6A6E8C"/>
</g>
</g>
</g>
</svg>
