<svg width="177" height="35" viewBox="0 0 177 35" fill="none" xmlns="http://www.w3.org/2000/svg">
<g id="Group 86" style="mix-blend-mode:luminosity">
<g id="Group">
<path id="Vector" d="M21.6736 8.382C12.7825 6.24835 6.56894 11.3187 2.747 5.61743C2.73556 5.59446 2.72412 5.58299 2.71268 5.56006C2.6097 5.39947 2.74701 5.17004 2.93008 5.21591C10.8028 7.09722 12.0844 5.92714 15.3915 6.32862C18.4467 6.69571 21.6736 8.382 21.6736 8.382Z" fill="#6A6E8C"/>
<path id="Vector_2" d="M23.2407 9.81619C15.414 8.6576 9.86442 14.5194 5.67651 10.0112C5.66507 9.99974 5.65363 9.97681 5.63075 9.96534C5.51633 9.83915 5.59642 9.60973 5.76805 9.62119C12.9195 10.1489 14.6016 8.88703 17.5424 8.76085C20.2884 8.64613 23.2407 9.81619 23.2407 9.81619Z" fill="#6A6E8C"/>
<path id="Vector_3" d="M24.6939 11.6627C17.8627 10.7336 14.9336 16.8822 9.39548 13.1196C9.38404 13.1081 9.3726 13.0967 9.34971 13.0737C9.2353 12.9705 9.26962 12.6722 9.42981 12.6722C15.4828 12.6837 17.0618 11.2727 19.6136 10.963C23.0692 10.55 24.6939 11.6627 24.6939 11.6627Z" fill="#6A6E8C"/>
<path id="Vector_4" d="M27.7724 13.6935C24.2024 14.0721 24.7632 16.9399 20.85 16.2975C20.3351 16.2172 20.4495 15.8501 20.6783 15.7813C23.9623 14.8406 23.9623 14.2097 25.1409 13.7394C26.2622 13.315 27.7724 13.6935 27.7724 13.6935Z" fill="#6A6E8C"/>
<path id="Vector_5" d="M26.1588 12.8096C21.0097 12.9129 19.6939 16.6181 15.3572 15.4136C14.6936 15.2301 14.9224 14.7253 15.2771 14.6794C20.2432 13.8879 20.4833 13.1538 22.3255 12.7178C24.0533 12.3049 26.1588 12.8096 26.1588 12.8096Z" fill="#6A6E8C"/>
<path id="Vector_6" d="M23.2184 8.37066C23.1841 8.428 23.104 8.43947 23.0468 8.41653C21.9826 7.80855 20.9872 7.09732 19.843 6.31729C18.7672 5.59459 16.4557 4.60806 11.6497 4.83749C9.36112 4.95221 5.88248 5.42253 2.28939 2.95621C1.41972 2.37116 0.538607 1.37316 0.0808885 0.444006C0.0351197 0.363696 0.0122357 0.260449 0.00079355 0.157203C-0.0106486 0.0539558 0.103772 -0.0263227 0.206783 0.00808245C9.09795 3.58712 11.6383 2.18764 17.2339 3.48388C19.5338 4.02305 22.3831 7.37266 23.2072 8.21004C23.2528 8.24447 23.2528 8.31328 23.2184 8.37066Z" fill="#6A6E8C"/>
<path id="Vector_7" d="M30.954 27.9863C30.8508 28.3072 30.8736 28.686 30.6679 28.9613C30.416 29.3284 29.7982 29.3628 29.5006 29.03C29.3062 28.8582 29.3062 28.5828 29.2374 28.3647C28.7913 26.4032 28.3565 24.4414 27.9216 22.4684C27.876 22.3309 27.9216 22.239 28.0589 22.1818C28.2764 22.1243 28.2993 22.3652 28.3677 22.503C28.8598 23.8452 29.3174 25.1986 29.8211 26.5407C29.9811 26.9998 30.5191 26.8504 30.8736 26.9654C31.2513 27.206 31.0224 27.6535 30.954 27.9863Z" fill="#6A6E8C"/>
<path id="Vector_8" d="M31.5373 22.5717C31.5833 22.6979 31.5145 22.847 31.3773 22.8698C31.2972 22.8814 31.2285 22.8698 31.2056 22.7551C30.8736 22.0898 30.5876 21.3902 30.2444 20.7249C29.7983 20.3461 29.329 19.9562 29.0546 19.417C28.5625 18.5452 28.6081 17.4096 29.1574 16.5722C29.203 16.5148 29.2374 16.446 29.2834 16.3886C29.3634 16.2739 29.535 16.2969 29.5807 16.4345C29.6151 16.5378 29.6379 16.641 29.6838 16.7328C30.3016 18.6714 30.8968 20.633 31.5373 22.5717Z" fill="#6A6E8C"/>
<path id="Vector_9" d="M31.629 13.3378C31.6062 13.854 31.4117 14.3358 31.2857 14.829C31.2742 14.8634 31.2629 14.8864 31.2285 14.8978C31.1485 14.9323 31.0685 14.8749 31.0685 14.7946C31.0797 14.1178 31.3201 13.4525 31.1485 12.7871C30.8968 11.8809 30.2788 11.0894 30.2332 10.1258C30.21 9.62107 30.336 9.1278 30.4392 8.63454C30.0728 7.86597 29.9012 6.98265 30.0956 6.14527C30.13 6.04203 30.1416 6.04203 30.1988 6.12231C30.5536 6.63854 31.0225 7.15474 31.0225 7.83153C30.9769 8.79513 30.4504 9.75872 30.8052 10.7223C31.0913 11.5827 31.709 12.3856 31.629 13.3378Z" fill="#6A6E8C"/>
<path id="Vector_10" d="M34.6499 10.0111C34.6271 11.2729 33.5285 12.2824 33.6545 13.5672C33.6545 14.0605 33.7802 14.5652 33.723 15.0585C33.643 15.4943 33.1509 15.5632 32.7964 15.6664C32.5904 15.7582 32.3616 15.5173 32.4188 15.3108C32.4188 13.8196 32.4188 12.3168 32.4188 10.8256C32.4416 10.2061 32.5904 9.55222 33.0137 9.08193C33.2769 8.77219 33.5514 8.46248 33.8374 8.15274C33.8946 8.0839 33.929 8.00362 33.9177 7.92331C33.8946 7.648 33.8374 7.40711 33.9634 7.0859C34.1578 6.68441 34.4098 6.44351 34.6727 6.17968C34.7186 6.1338 34.7871 6.15674 34.7987 6.21408C34.9819 7.02856 34.7987 7.91184 34.421 8.646C34.5126 9.08193 34.6499 9.54076 34.6499 10.0111Z" fill="#6A6E8C"/>
<path id="Vector_11" d="M49.1025 5.39935C47.5462 5.83524 46.8253 6.36291 46.2075 6.85618C46.2075 6.85618 47.615 6.36291 49.6402 6.14498C55.3847 5.51406 55.7164 7.65918 62.1475 5.16992C62.3648 5.13551 62.422 5.30757 62.3648 5.39935C61.5066 6.89061 60.5568 8.54247 56.9638 8.69159C53.0503 8.85221 51.0136 7.28063 47.3402 7.75096C44.9945 8.0492 43.7815 8.78337 43.1063 9.23076C51.1164 7.69359 50.4527 11.2268 58.3025 9.34547C58.3941 9.3225 58.4972 9.29957 58.5888 9.31104C58.7945 9.33397 58.8749 9.58637 58.7489 9.72402C58.6917 9.79283 58.6117 9.86168 58.5545 9.93049C57.5247 11.0432 56.4373 12.2592 52.7755 11.9839C48.4731 11.6626 48.1987 8.98986 39.9825 11.0317C47.9467 10.9973 47.8094 13.6128 53.8056 12.8327C54.0117 12.8098 54.1373 13.0622 53.9773 13.1998C53.8857 13.2801 53.7825 13.3489 53.7025 13.4178C52.7987 14.129 51.4825 15.0008 49.0109 14.4961C43.8616 13.4178 44.514 11.2841 37.8885 12.4542C43.049 12.5918 42.6945 14.5993 47.9926 15.0926C47.9926 15.0926 47.9926 15.0926 48.0039 15.0926C48.2899 15.127 48.3703 15.5055 48.1299 15.6661C47.9467 15.7923 47.7407 15.8841 47.5462 15.9644C43.6787 17.4671 41.882 12.6033 37.1332 13.6931C40.5318 13.9913 40.257 15.1384 43.3238 15.9759C43.6555 16.0676 43.6215 16.515 43.2551 16.5494C39.6164 16.9165 39.9368 14.4617 37.7053 14.3699C37.1104 14.3469 36.5611 14.6681 36.2635 15.1958C35.3825 16.733 35.737 18.1898 35.6798 18.9814C35.8858 19.8073 36.195 20.6104 36.2062 21.4819C36.2178 22.09 36.1606 22.721 35.9658 23.3059C35.5998 24.5218 35.2337 25.738 34.856 26.9655C34.776 27.2177 34.7872 27.493 34.8788 27.7339C35.0161 28.1011 35.1536 28.4567 35.2108 28.8467C35.3481 29.5004 35.2565 30.1773 35.0276 30.8082C34.5471 31.9897 34.0663 33.1712 33.5858 34.3643C33.4942 34.5821 33.4257 34.8118 33.2654 34.9952C33.0253 35.0412 33.0481 34.7315 33.0709 34.5821C33.5402 30.1657 33.9863 25.7493 34.444 21.3329L34.8104 20.2776C34.0894 20.8969 33.769 21.7572 33.2997 22.526C33.2425 22.7094 32.968 22.7438 32.9108 22.5375C32.9565 21.7688 33.0593 21.0004 33.0825 20.2317C33.1509 19.4516 33.1397 18.6601 33.4029 17.9145C33.7002 17.1574 34.2723 16.5494 34.7188 15.8956C35.4509 14.9549 36.0002 13.8881 36.3779 12.7639C36.6067 12.0756 37.0875 11.4677 37.7053 11.0891C39.8452 9.73549 41.0923 8.5654 43.1178 7.02827C44.983 5.61728 46.4248 4.51603 47.2489 4.18339C51.0136 2.63475 58.5773 4.2981 65.054 0.0766755C65.2141 -0.0151028 65.4201 0.168423 65.2944 0.432258C64.6879 1.96943 63.967 2.95596 62.2503 3.80484C57.3071 6.24823 51.6313 4.68812 49.1025 5.39935Z" fill="#6A6E8C"/>
<path id="Vector_12" d="M34.0893 8.04987C34.0893 8.04987 33.6657 7.30395 32.636 7.21214C31.8579 7.1433 31.5034 7.40724 31.5034 7.40724C31.5034 7.40724 32.4415 7.13183 33.174 7.78594C33.9061 8.44004 33.5057 9.00237 33.5057 9.00237C33.5057 9.00237 34.3066 8.53186 34.0893 8.04987Z" fill="#6A6E8C"/>
<path id="Vector_13" d="M34.0434 7.94635C34.0434 7.94635 33.5057 7.37281 32.4072 7.3269C32.4072 7.3269 33.0593 7.48749 33.1397 7.84311C33.2769 8.51993 32.682 9.42615 32.5676 9.86207C32.476 10.2521 34.0434 7.94635 34.0434 7.94635Z" fill="#6A6E8C"/>
</g>
<g id="Group_2">
<path id="Vector_14" d="M130.69 23.1593C129.2 23.4059 127.693 23.5202 126.184 23.5012C123.354 23.5012 120.319 21.6315 120.319 16.4112V13.3559C120.319 7.8207 123.5 6.24641 126.384 6.24641C127.826 6.2335 129.266 6.34012 130.69 6.56515C130.89 6.58849 131.076 6.67789 131.076 6.90723V8.04613C131.076 8.2055 130.987 8.2755 130.782 8.2755H130.693C129.357 8.16275 128.315 8.1161 126.388 8.1161C124.284 8.1161 122.38 9.25503 122.38 13.3559V16.4112C122.38 20.1741 124.08 21.655 126.187 21.655C127.566 21.655 128.504 21.5656 129.037 21.5187V15.0002C129.032 14.9427 129.039 14.8847 129.058 14.83C129.076 14.7753 129.105 14.7249 129.143 14.6819C129.182 14.639 129.228 14.6044 129.28 14.5802C129.333 14.5561 129.389 14.5429 129.446 14.5415H130.67C130.787 14.5475 130.896 14.5986 130.976 14.6841C131.056 14.7696 131.1 14.8828 131.099 15.0002V22.6578C131.102 22.7771 131.063 22.8937 130.988 22.9859C130.912 23.0781 130.806 23.1396 130.69 23.1593Z" fill="#6A6E8C" fill-opacity="0.4"/>
<path id="Vector_15" d="M139.54 12.3999C138.486 12.3578 137.43 12.4347 136.393 12.6292V22.8873C136.399 22.9986 136.362 23.1076 136.29 23.192C136.218 23.2767 136.117 23.3304 136.007 23.342H134.829C134.715 23.336 134.608 23.2848 134.531 23.1998C134.455 23.1145 134.415 23.0023 134.42 22.8873V11.809C134.427 11.6946 134.468 11.5848 134.537 11.494C134.607 11.4032 134.702 11.3355 134.81 11.2998C136.1 10.7284 137.663 10.6624 139.54 10.6624C139.837 10.6624 140.019 10.6857 140.019 11.0044V12.0501C140.019 12.2872 139.972 12.3999 139.54 12.3999Z" fill="#6A6E8C" fill-opacity="0.4"/>
<path id="Vector_16" d="M147.054 23.5015C143.726 23.5015 142.035 21.29 142.035 17.9392V16.2055C142.035 12.8549 143.733 10.647 147.054 10.647C150.374 10.647 152.073 12.8549 152.073 16.2055V17.9392C152.073 21.29 150.363 23.5015 147.054 23.5015ZM150.112 16.2055C150.112 13.8733 149.181 12.4001 147.054 12.4001C144.927 12.4001 144.019 13.8616 144.019 16.2055V17.9392C144.019 20.2713 144.927 21.7485 147.054 21.7485C149.181 21.7485 150.112 20.2869 150.112 17.9392V16.2055Z" fill="#6A6E8C" fill-opacity="0.4"/>
<path id="Vector_17" d="M159.626 23.5013H159.41C157.866 23.5013 154.746 22.6345 154.746 18.145V11.261C154.741 11.203 154.748 11.1446 154.767 11.0896C154.786 11.0345 154.816 10.984 154.855 10.9412C154.894 10.8985 154.942 10.8644 154.995 10.8411C155.048 10.8179 155.105 10.806 155.163 10.8062H156.341C156.398 10.807 156.454 10.8197 156.506 10.8434C156.558 10.8672 156.605 10.9014 156.643 10.9441C156.682 10.9867 156.711 11.0369 156.729 11.0914C156.748 11.1459 156.755 11.2036 156.75 11.261V18.145C156.75 20.8661 157.908 21.7483 159.422 21.7483H159.626C161.14 21.7483 162.298 20.8814 162.298 18.145V11.261C162.293 11.2039 162.3 11.1465 162.318 11.0923C162.337 11.038 162.365 10.9881 162.403 10.9455C162.441 10.9029 162.488 10.8685 162.539 10.8446C162.591 10.8206 162.647 10.8076 162.704 10.8062H163.881C163.938 10.807 163.995 10.8197 164.047 10.8434C164.099 10.8672 164.146 10.9014 164.184 10.9441C164.222 10.9867 164.252 11.0369 164.27 11.0914C164.288 11.1459 164.295 11.2036 164.29 11.261V18.145C164.29 22.6345 161.163 23.5013 159.626 23.5013Z" fill="#6A6E8C" fill-opacity="0.4"/>
<path id="Vector_18" d="M172.009 23.5013C171.121 23.4894 170.236 23.4063 169.361 23.2525V27.3768C169.361 27.4336 169.35 27.4896 169.328 27.5421C169.307 27.5942 169.275 27.6417 169.235 27.6821C169.195 27.7221 169.148 27.7539 169.096 27.7755C169.044 27.7971 168.988 27.8083 168.932 27.8083H167.774C167.718 27.8077 167.664 27.7961 167.613 27.7742C167.562 27.7521 167.517 27.7199 167.479 27.6796C167.44 27.6396 167.411 27.5917 167.391 27.5399C167.371 27.488 167.362 27.4324 167.365 27.3768V11.6884C167.365 11.393 167.434 11.257 167.839 11.1676C169.204 10.8345 170.602 10.6585 172.006 10.6428C175.38 10.6428 176.944 12.8507 176.944 16.2714V17.9078C176.948 21.4957 175.314 23.5013 172.009 23.5013ZM174.951 16.2752C174.951 13.8808 174.253 12.3337 172.009 12.3337C171.122 12.3389 170.236 12.4143 169.361 12.5592V21.5851C170.237 21.7297 171.122 21.8066 172.009 21.8144C174.23 21.8144 174.951 20.3567 174.951 17.9273V16.2752Z" fill="#6A6E8C" fill-opacity="0.4"/>
<path id="Vector_19" d="M91.2775 23.315C90.2581 23.4743 87.4162 23.6765 86.4317 23.6765C82.0611 23.6765 79.0957 22.5725 79.0957 17.0452V6.96977C79.0966 6.9114 79.1091 6.85384 79.1326 6.80041C79.156 6.747 79.1895 6.69878 79.2317 6.65863C79.2736 6.61844 79.3233 6.5871 79.3773 6.56644C79.4317 6.54579 79.4896 6.53623 79.5474 6.53829H83.2387C83.2966 6.53569 83.3547 6.54488 83.4091 6.56535C83.4635 6.58582 83.5135 6.6171 83.5557 6.65738C83.5976 6.69766 83.6314 6.74609 83.6545 6.79975C83.6776 6.85343 83.6898 6.91125 83.6904 6.96977V17.0452C83.6904 19.0976 84.3701 19.7661 85.98 19.7661C86.7068 19.7638 87.4327 19.7171 88.1539 19.6262V6.96977C88.1542 6.91125 88.1664 6.85343 88.1896 6.79975C88.2127 6.74609 88.2465 6.69766 88.2887 6.65738C88.3309 6.6171 88.3806 6.58582 88.435 6.56535C88.4894 6.54488 88.5475 6.53569 88.6056 6.53829H92.2735C92.3932 6.53298 92.5099 6.57529 92.599 6.656C92.6877 6.73675 92.7415 6.84947 92.7484 6.96977V21.5582C92.7484 22.8331 92.3623 23.1556 91.2775 23.315Z" fill="#6A6E8C"/>
<path id="Vector_20" d="M99.8577 23.4743H96.1433C96.0245 23.4715 95.9116 23.4218 95.8285 23.3359C95.7456 23.2502 95.699 23.1353 95.699 23.0159V6.96974C95.7003 6.91205 95.7125 6.85514 95.7353 6.80224C95.7581 6.74934 95.7913 6.70146 95.8325 6.6614C95.8738 6.62134 95.9222 6.58984 95.9757 6.56872C96.0288 6.54759 96.086 6.53725 96.1433 6.53828H99.8577C99.9155 6.53566 99.9737 6.54484 100.028 6.56531C100.082 6.58578 100.132 6.61709 100.174 6.65737C100.217 6.69762 100.25 6.74605 100.273 6.79974C100.297 6.8534 100.309 6.91124 100.309 6.96974V23.0159C100.31 23.0759 100.298 23.1352 100.276 23.1909C100.253 23.2465 100.22 23.2971 100.178 23.3399C100.136 23.3824 100.087 23.4162 100.031 23.4393C99.9762 23.4624 99.9171 23.4743 99.8577 23.4743Z" fill="#6A6E8C"/>
<path id="Vector_21" d="M112.989 23.2682C111.959 23.5638 110.89 23.7016 109.819 23.6763C105.653 23.6763 102.846 21.3986 102.846 16.1782V13.8459C102.846 8.60993 105.653 6.33209 109.819 6.33209C110.89 6.30894 111.959 6.4465 112.989 6.74024C113.352 6.85686 113.488 6.92292 113.488 7.24169V10.1609C113.488 10.4563 113.352 10.5924 113.102 10.5924H113.032C111.98 10.4686 110.921 10.4011 109.862 10.3902C108.638 10.3902 107.545 10.9344 107.545 13.8303V16.1626C107.545 19.0352 108.634 19.6066 109.862 19.6066C110.921 19.5946 111.98 19.5259 113.032 19.4005H113.074C113.345 19.4005 113.46 19.5366 113.46 19.832V22.7667C113.488 23.0623 113.352 23.1554 112.989 23.2682Z" fill="#6A6E8C"/>
</g>
</g>
</svg>
