<svg width="129" height="55" viewBox="0 0 129 55" fill="none" xmlns="http://www.w3.org/2000/svg">
<g id="Layer_1" clip-path="url(#clip0_94_18339)">
<path id="Vector" d="M79.01 12.6409H52.2188L52.0055 13.2053H79.2218L79.0084 12.6409H79.01Z" fill="#6E7080"/>
<path id="Vector_2" d="M66.5456 6.75293H64.6832V7.7324H66.5456V6.75293Z" fill="#6E7080"/>
<path id="Vector_3" d="M66.1847 5.90552H65.0457V6.54154H66.1847V5.90552Z" fill="#6E7080"/>
<path id="Vector_4" d="M65.7725 0H65.4612V5.69399H65.7725V0Z" fill="#6E7080"/>
<path id="Vector_5" d="M69.0658 8.79297H68.1578V12.431H69.0658V8.79297Z" fill="#6E7080"/>
<path id="Vector_6" d="M63.071 8.79297H62.1631V12.431H63.071V8.79297Z" fill="#6E7080"/>
<path id="Vector_7" d="M79.2234 13.4185H52.0071V14.584H79.2234V13.4185Z" fill="#6E7080"/>
<path id="Vector_8" d="M79.2234 14.7954H52.0071V15.3774H79.2234V14.7954Z" fill="#6E7080"/>
<path id="Vector_9" d="M78.9394 15.5889H52.291V17.0549H78.9394V15.5889Z" fill="#6E7080"/>
<path id="Vector_10" d="M52.8252 17.2664L53.0354 18.3253H54.1358L54.346 17.2664H52.8252Z" fill="#6E7080"/>
<path id="Vector_11" d="M54.1374 18.5383H53.037V28.2488H54.1374V18.5383Z" fill="#6E7080"/>
<path id="Vector_12" d="M54.3476 28.4604H52.8268V28.7785H54.3476V28.4604Z" fill="#6E7080"/>
<path id="Vector_13" d="M54.3476 28.99H52.8268V29.8073H54.3476V28.99Z" fill="#6E7080"/>
<path id="Vector_14" d="M60.8492 17.2664L61.0594 18.3253H62.1615L62.3716 17.2664H60.8508H60.8492Z" fill="#6E7080"/>
<path id="Vector_15" d="M62.1599 18.5383H61.0578V28.2488H62.1599V18.5383Z" fill="#6E7080"/>
<path id="Vector_16" d="M62.37 28.4604H60.8492V28.7785H62.37V28.4604Z" fill="#6E7080"/>
<path id="Vector_17" d="M62.37 28.99H60.8492V29.8073H62.37V28.99Z" fill="#6E7080"/>
<path id="Vector_18" d="M68.8733 17.2664L69.0834 18.3253H70.1839L70.394 17.2664H68.8733Z" fill="#6E7080"/>
<path id="Vector_19" d="M70.1839 18.5383H69.0834V28.2488H70.1839V18.5383Z" fill="#6E7080"/>
<path id="Vector_20" d="M70.394 28.4604H68.8733V28.7785H70.394V28.4604Z" fill="#6E7080"/>
<path id="Vector_21" d="M70.394 28.99H68.8733V29.8073H70.394V28.99Z" fill="#6E7080"/>
<path id="Vector_22" d="M76.8973 17.2664L77.1059 18.3253H78.2079L78.4181 17.2664H76.8973Z" fill="#6E7080"/>
<path id="Vector_23" d="M78.208 18.5383H77.1059V28.2488H78.208V18.5383Z" fill="#6E7080"/>
<path id="Vector_24" d="M78.4165 28.4604H76.8957V28.7785H78.4165V28.4604Z" fill="#6E7080"/>
<path id="Vector_25" d="M78.4165 28.99H76.8957V29.8073H78.4165V28.99Z" fill="#6E7080"/>
<path id="Vector_26" d="M61.9481 9.55453V8.95508C58.2617 9.00755 55.1352 10.6819 53.8792 12.4293H54.6058C55.9116 11.0333 58.735 9.60382 61.9481 9.55453Z" fill="#6E7080"/>
<path id="Vector_27" d="M61.9481 9.80273C58.9082 9.84567 56.2373 11.1734 55.0021 12.4295H61.9481V9.80273Z" fill="#6E7080"/>
<path id="Vector_28" d="M76.6391 12.4293H77.3658C76.1081 10.6819 72.98 9.00755 69.2968 8.95508V9.55453C72.5084 9.60382 75.3333 11.0317 76.6391 12.4293Z" fill="#6E7080"/>
<path id="Vector_29" d="M69.2968 9.80273V12.4295H76.2412C75.006 11.1734 72.3351 9.84567 69.2968 9.80273Z" fill="#6E7080"/>
<path id="Vector_30" d="M67.9461 17.7783H63.3213V25.9353H67.9461V17.7783Z" fill="#6E7080"/>
<path id="Vector_31" d="M59.9108 17.7783H55.286V25.9353H59.9108V17.7783Z" fill="#6E7080"/>
<path id="Vector_32" d="M75.9798 17.7783H71.3549V25.9353H75.9798V17.7783Z" fill="#6E7080"/>
<path id="Vector_33" d="M60.6327 29.8071V28.2489H60.846V26.5364H54.3492V28.2489H54.5625L54.5593 29.8071H56.6431V27.6081H58.5537V29.8071H60.6327Z" fill="#6E7080"/>
<path id="Vector_34" d="M58.3387 27.8196H56.8565V29.8056H58.3387V27.8196Z" fill="#6E7080"/>
<path id="Vector_35" d="M68.668 29.8071V28.2489H68.8813V26.5364H62.386V28.2489H62.5994L62.5962 29.8071H64.6784V27.6081H66.589V29.8071H68.668Z" fill="#6E7080"/>
<path id="Vector_36" d="M66.374 27.8196H64.8918V29.8056H66.374V27.8196Z" fill="#6E7080"/>
<path id="Vector_37" d="M76.7032 29.8071V28.2489H76.9166V26.5364H70.3989V28.2489H70.6122V29.8071H72.7153V27.6081H74.6258V29.8071H76.7048H76.7032Z" fill="#6E7080"/>
<path id="Vector_38" d="M74.4093 27.8196H72.927V29.8056H74.4093V27.8196Z" fill="#6E7080"/>
<path id="Vector_39" d="M97.6103 13.4185L97.397 12.854H79.3309L79.5442 13.4185H97.6103Z" fill="#6E7080"/>
<path id="Vector_40" d="M121.204 15.8019L120.991 15.22H99.1102L98.8969 15.8019H121.204Z" fill="#6E7080"/>
<path id="Vector_41" d="M98.4012 17.4795H120.993L121.206 16.0134H98.6145L98.4012 17.4795Z" fill="#6E7080"/>
<path id="Vector_42" d="M79.1528 15.802V17.268H98.1862L98.3996 15.802H79.1512H79.1528Z" fill="#6E7080"/>
<path id="Vector_43" d="M83.5947 17.4795H82.5007L82.4975 18.5385H83.5996L83.5963 17.4795H83.5947Z" fill="#6E7080"/>
<path id="Vector_44" d="M83.5979 18.75H82.4959V26.3234H83.5979V18.75Z" fill="#6E7080"/>
<path id="Vector_45" d="M88.0688 17.4795H86.9747L86.9699 18.5385H88.072L88.0688 17.4795Z" fill="#6E7080"/>
<path id="Vector_46" d="M88.072 18.75H86.9715V26.3234H88.072V18.75Z" fill="#6E7080"/>
<path id="Vector_47" d="M86.6603 14.584H84.2765V15.22H86.6603V14.584Z" fill="#6E7080"/>
<path id="Vector_48" d="M91.1215 14.584H88.7377V15.22H91.1215V14.584Z" fill="#6E7080"/>
<path id="Vector_49" d="M97.612 14.7954V13.6299H79.4384V14.7954H84.0632V14.3708H86.8737V14.7954H88.5244V14.3708H91.3349V14.7954H92.9855V14.3708H95.796V14.7954H97.612Z" fill="#6E7080"/>
<path id="Vector_50" d="M95.5827 14.584H93.1989V15.22H95.5827V14.584Z" fill="#6E7080"/>
<path id="Vector_51" d="M95.796 15.4314H92.9855V15.0068H91.3349V15.4314H88.5244V15.0068H86.8737V15.4314H84.0632V15.0068H79.4384V15.5888H98.6868L98.9001 15.0068H95.7976V15.4314H95.796Z" fill="#6E7080"/>
<path id="Vector_52" d="M92.5412 17.4795H91.4471L91.4439 18.5385H92.546L92.5428 17.4795H92.5412Z" fill="#6E7080"/>
<path id="Vector_53" d="M92.546 18.75H91.4439V26.3234H92.546V18.75Z" fill="#6E7080"/>
<path id="Vector_54" d="M90.8135 17.7783H88.704V26.3233H90.8135V17.7783Z" fill="#6E7080"/>
<path id="Vector_55" d="M86.3395 17.7783H84.23V26.3233H86.3395V17.7783Z" fill="#6E7080"/>
<path id="Vector_56" d="M81.8622 17.7783H79.7527V26.3233H81.8622V17.7783Z" fill="#6E7080"/>
<path id="Vector_57" d="M95.2875 17.7783H93.178V26.3233H95.2875V17.7783Z" fill="#6E7080"/>
<path id="Vector_58" d="M97.0152 17.4795H95.9211L95.9179 18.5385H97.02L97.0168 17.4795H97.0152Z" fill="#6E7080"/>
<path id="Vector_59" d="M97.02 18.75H95.9179V26.3234H97.02V18.75Z" fill="#6E7080"/>
<path id="Vector_60" d="M99.0589 20.5244H97.7868V25.6349H99.0589V20.5244Z" fill="#6E7080"/>
<path id="Vector_61" d="M100.971 20.5244H99.699V25.6349H100.971V20.5244Z" fill="#6E7080"/>
<path id="Vector_62" d="M99.0589 17.7783H97.7868V19.4431H99.0589V17.7783Z" fill="#6E7080"/>
<path id="Vector_63" d="M100.971 17.7783H99.699V19.4431H100.971V17.7783Z" fill="#6E7080"/>
<path id="Vector_64" d="M103.355 20.5244H102.083V25.6349H103.355V20.5244Z" fill="#6E7080"/>
<path id="Vector_65" d="M105.267 20.5244H103.995V25.6349H105.267V20.5244Z" fill="#6E7080"/>
<path id="Vector_66" d="M103.355 17.7783H102.083V19.4431H103.355V17.7783Z" fill="#6E7080"/>
<path id="Vector_67" d="M105.267 17.7783H103.995V19.4431H105.267V17.7783Z" fill="#6E7080"/>
<path id="Vector_68" d="M107.651 20.5244H106.379V25.6349H107.651V20.5244Z" fill="#6E7080"/>
<path id="Vector_69" d="M109.563 20.5244H108.291V25.6349H109.563V20.5244Z" fill="#6E7080"/>
<path id="Vector_70" d="M107.651 17.7783H106.379V19.4431H107.651V17.7783Z" fill="#6E7080"/>
<path id="Vector_71" d="M109.563 17.7783H108.291V19.4431H109.563V17.7783Z" fill="#6E7080"/>
<path id="Vector_72" d="M111.947 20.5244H110.675V25.6349H111.947V20.5244Z" fill="#6E7080"/>
<path id="Vector_73" d="M113.859 20.5244H112.587V25.6349H113.859V20.5244Z" fill="#6E7080"/>
<path id="Vector_74" d="M111.947 17.7783H110.675V19.4431H111.947V17.7783Z" fill="#6E7080"/>
<path id="Vector_75" d="M113.859 17.7783H112.587V19.4431H113.859V17.7783Z" fill="#6E7080"/>
<path id="Vector_76" d="M116.243 20.5244H114.971V25.6349H116.243V20.5244Z" fill="#6E7080"/>
<path id="Vector_77" d="M118.155 20.5244H116.883V25.6349H118.155V20.5244Z" fill="#6E7080"/>
<path id="Vector_78" d="M116.243 17.7783H114.971V19.4431H116.243V17.7783Z" fill="#6E7080"/>
<path id="Vector_79" d="M118.155 17.7783H116.883V19.4431H118.155V17.7783Z" fill="#6E7080"/>
<path id="Vector_80" d="M120.539 20.5244H119.267V25.6349H120.539V20.5244Z" fill="#6E7080"/>
<path id="Vector_81" d="M120.539 17.7783H119.267V19.4431H120.539V17.7783Z" fill="#6E7080"/>
<path id="Vector_82" d="M80.7136 29.8071H97.182V26.5364H78.4245V28.2505H78.6379V29.8087H80.7136V29.8071ZM93.2887 27.2583H95.1752V28.8976H93.2887V27.2583ZM88.8147 27.2583H90.7012V28.8976H88.8147V27.2583ZM84.3407 27.2583H86.2272V28.8976H84.3407V27.2583ZM79.8618 27.2583H81.7467V28.8976H79.8618V27.2583Z" fill="#6E7080"/>
<path id="Vector_83" d="M97.4018 28.2506V29.8089H121.211V26.3267H97.4018V28.2506ZM119.267 27.2314H120.539V28.8994H119.267V27.2314ZM116.883 27.2314H118.155V28.8994H116.883V27.2314ZM114.971 27.2314H116.241V28.8994H114.971V27.2314ZM112.587 27.2314H113.859V28.8994H112.587V27.2314ZM110.675 27.2314H111.947V28.8994H110.675V27.2314ZM108.291 27.2314H109.563V28.8994H108.288L108.291 27.2314ZM106.379 27.2314H107.651V28.8994H106.379V27.2314ZM103.995 27.2314H105.267V28.8994H103.995V27.2314ZM102.083 27.2314H103.353V28.8994H102.083V27.2314ZM99.699 27.2314H100.971V28.8994H99.7022L99.699 27.2314ZM97.7868 27.2314H99.0589V28.8994H97.7868V27.2314Z" fill="#6E7080"/>
<path id="Vector_84" d="M51.9124 12.854H33.8463L33.633 13.4185H51.7007L51.914 12.854H51.9124Z" fill="#6E7080"/>
<path id="Vector_85" d="M32.1315 15.2185H10.2506L10.0373 15.8005H32.3448L32.1315 15.2185Z" fill="#6E7080"/>
<path id="Vector_86" d="M32.8421 17.4795L32.6288 16.0134H10.0373L10.2506 17.4795H32.8421Z" fill="#6E7080"/>
<path id="Vector_87" d="M52.0905 15.802H32.8421L33.0555 17.268H52.0905V15.802Z" fill="#6E7080"/>
<path id="Vector_88" d="M48.7426 17.4795H47.6486L47.6454 18.5385H48.7458L48.7426 17.4795Z" fill="#6E7080"/>
<path id="Vector_89" d="M48.7458 18.75H47.6454V26.3234H48.7458V18.75Z" fill="#6E7080"/>
<path id="Vector_90" d="M44.2686 17.4795H43.1745L43.1713 18.5385H44.2734L44.2702 17.4795H44.2686Z" fill="#6E7080"/>
<path id="Vector_91" d="M44.2734 18.75H43.1713V26.3234H44.2734V18.75Z" fill="#6E7080"/>
<path id="Vector_92" d="M46.9668 14.584H44.583V15.22H46.9668V14.584Z" fill="#6E7080"/>
<path id="Vector_93" d="M42.5056 14.584H40.1218V15.22H42.5056V14.584Z" fill="#6E7080"/>
<path id="Vector_94" d="M35.4473 14.3708H38.2578V14.7954H39.9085V14.3708H42.719V14.7954H44.3696V14.3708H47.1801V14.7954H51.805V13.6299H33.6313V14.7954H35.4457V14.3708H35.4473Z" fill="#6E7080"/>
<path id="Vector_95" d="M38.0428 14.584H35.659V15.22H38.0428V14.584Z" fill="#6E7080"/>
<path id="Vector_96" d="M51.8066 15.5888V15.0068H47.1818V15.4314H44.3713V15.0068H42.7206V15.4314H39.9101V15.0068H38.2594V15.4314H35.4489V15.0068H32.3464L32.5598 15.5888H51.8082H51.8066Z" fill="#6E7080"/>
<path id="Vector_97" d="M39.7946 17.4795H38.7005L38.6973 18.5385H39.7978L39.7946 17.4795Z" fill="#6E7080"/>
<path id="Vector_98" d="M39.7994 18.75H38.6989V26.3234H39.7994V18.75Z" fill="#6E7080"/>
<path id="Vector_99" d="M42.5393 17.7783H40.4298V26.3233H42.5393V17.7783Z" fill="#6E7080"/>
<path id="Vector_100" d="M47.0133 17.7783H44.9038V26.3233H47.0133V17.7783Z" fill="#6E7080"/>
<path id="Vector_101" d="M51.4921 17.7783H49.3827V26.3233H51.4921V17.7783Z" fill="#6E7080"/>
<path id="Vector_102" d="M38.0653 17.7783H35.9558V26.3233H38.0653V17.7783Z" fill="#6E7080"/>
<path id="Vector_103" d="M35.3205 17.4795H34.2265L34.2233 18.5385H35.3238L35.3205 17.4795Z" fill="#6E7080"/>
<path id="Vector_104" d="M35.3254 18.75H34.2249V26.3234H35.3254V18.75Z" fill="#6E7080"/>
<path id="Vector_105" d="M33.4565 20.5244H32.1844V25.6349H33.4565V20.5244Z" fill="#6E7080"/>
<path id="Vector_106" d="M31.5443 20.5244H30.2722V25.6349H31.5443V20.5244Z" fill="#6E7080"/>
<path id="Vector_107" d="M33.4565 17.7783H32.1844V19.4431H33.4565V17.7783Z" fill="#6E7080"/>
<path id="Vector_108" d="M31.5443 17.7783H30.2722V19.4431H31.5443V17.7783Z" fill="#6E7080"/>
<path id="Vector_109" d="M29.1605 20.5244H27.8884V25.6349H29.1605V20.5244Z" fill="#6E7080"/>
<path id="Vector_110" d="M27.2484 20.5244H25.9763V25.6349H27.2484V20.5244Z" fill="#6E7080"/>
<path id="Vector_111" d="M29.1605 17.7783H27.8884V19.4431H29.1605V17.7783Z" fill="#6E7080"/>
<path id="Vector_112" d="M27.2484 17.7783H25.9763V19.4431H27.2484V17.7783Z" fill="#6E7080"/>
<path id="Vector_113" d="M24.8646 20.5244H23.5925V25.6349H24.8646V20.5244Z" fill="#6E7080"/>
<path id="Vector_114" d="M22.9524 20.5244H21.6803V25.6349H22.9524V20.5244Z" fill="#6E7080"/>
<path id="Vector_115" d="M24.8646 17.7783H23.5925V19.4431H24.8646V17.7783Z" fill="#6E7080"/>
<path id="Vector_116" d="M22.9524 17.7783H21.6803V19.4431H22.9524V17.7783Z" fill="#6E7080"/>
<path id="Vector_117" d="M20.5686 20.5244H19.2965V25.6349H20.5686V20.5244Z" fill="#6E7080"/>
<path id="Vector_118" d="M18.6565 20.5244H17.3844V25.6349H18.6565V20.5244Z" fill="#6E7080"/>
<path id="Vector_119" d="M20.5686 17.7783H19.2965V19.4431H20.5686V17.7783Z" fill="#6E7080"/>
<path id="Vector_120" d="M18.6565 17.7783H17.3844V19.4431H18.6565V17.7783Z" fill="#6E7080"/>
<path id="Vector_121" d="M16.2727 20.5244H15.0006V25.6349H16.2727V20.5244Z" fill="#6E7080"/>
<path id="Vector_122" d="M14.3605 20.5244H13.0884V25.6349H14.3605V20.5244Z" fill="#6E7080"/>
<path id="Vector_123" d="M16.2727 17.7783H15.0006V19.4431H16.2727V17.7783Z" fill="#6E7080"/>
<path id="Vector_124" d="M14.3605 17.7783H13.0884V19.4431H14.3605V17.7783Z" fill="#6E7080"/>
<path id="Vector_125" d="M11.9767 20.5244H10.7046V25.6349H11.9767V20.5244Z" fill="#6E7080"/>
<path id="Vector_126" d="M11.9767 17.7783H10.7046V19.4431H11.9767V17.7783Z" fill="#6E7080"/>
<path id="Vector_127" d="M52.822 26.5364H34.0645V29.8071H52.6167V28.2489H52.83L52.822 26.5364ZM37.953 28.8992H36.0681V27.2599H37.953V28.8992ZM42.427 28.8992H40.5421V27.2599H42.427V28.8992ZM46.901 28.8992H45.0145V27.2599H46.901V28.8992ZM51.3815 28.8992H49.495V27.2599H51.3799V28.8992H51.3815Z" fill="#6E7080"/>
<path id="Vector_128" d="M30.3829 29.8072H33.8447V26.325H10.0373V29.8072H30.3829ZM32.1844 27.2329H33.4565V28.9008H32.1844V27.2329ZM30.269 27.2329H31.5411V28.9008H30.269V27.2329ZM11.9783 28.9008H10.7046V27.2329H11.9783V28.9008ZM14.3621 28.9008H13.0884V27.2329H14.3605V28.9008H14.3621ZM16.2759 28.9008H15.0022V27.2329H16.2727L16.2759 28.9008ZM18.6597 28.9008H17.386V27.2329H18.6581V28.9008H18.6597ZM20.5734 28.9008H19.2997V27.2329H20.5718V28.9008H20.5734ZM22.9588 28.9008H21.6883V27.2329H22.9604V28.9008H22.9588ZM24.8694 28.9008H23.5957V27.2329H24.8662V28.9008H24.8694ZM27.2564 28.9008H25.9827V27.2329H27.2548V28.9008H27.2564ZM27.8981 27.2329H29.1702V28.9008H27.8965V27.2329H27.8981Z" fill="#6E7080"/>
<path id="Vector_129" d="M66.5505 10.4117C66.6596 9.9061 66.3355 9.41 65.8254 9.30188C65.3169 9.19375 64.8148 9.51653 64.7073 10.0206C64.5982 10.5262 64.9222 11.0223 65.4324 11.1304C65.9409 11.2386 66.443 10.9158 66.5505 10.4117Z" fill="#6E7080"/>
<path id="Vector_130" d="M67.9461 7.94556H63.2796V12.4295H67.9461V7.94556ZM65.6329 11.4532C65.3891 11.4532 65.15 11.3817 64.9463 11.2465C64.7426 11.1114 64.5838 10.9205 64.4907 10.6964C64.3961 10.4722 64.372 10.2257 64.4201 9.98719C64.4683 9.74868 64.5854 9.53084 64.7586 9.35912C64.9319 9.18739 65.1516 9.06973 65.3923 9.02361C65.6329 8.9775 65.8815 8.99976 66.1061 9.09358C66.3323 9.1858 66.5248 9.34321 66.6612 9.54515C66.7975 9.74709 66.8697 9.98401 66.8697 10.2273C66.8697 10.5532 66.7398 10.8649 66.5072 11.0955C66.2762 11.326 65.9617 11.4548 65.6329 11.4548V11.4532Z" fill="#6E7080"/>
<path id="Vector_131" d="M104.462 32.4658C104.287 32.4658 104.117 32.5231 103.977 32.6296C103.838 32.7345 103.737 32.884 103.692 33.051H27.5484C27.497 32.8649 27.3783 32.7043 27.2163 32.5978C27.0543 32.4913 26.8586 32.4483 26.6661 32.4738C26.4736 32.4992 26.2971 32.5946 26.1704 32.7393C26.0421 32.884 25.9715 33.07 25.9715 33.264C25.9715 33.458 26.0421 33.6425 26.1704 33.7887C26.2987 33.9334 26.4752 34.0273 26.6661 34.0543C26.8586 34.0797 27.0543 34.0368 27.2163 33.9303C27.3783 33.8237 27.497 33.6631 27.5484 33.4771H103.693C103.733 33.6202 103.812 33.749 103.923 33.8492C104.033 33.9493 104.168 34.0177 104.316 34.0447C104.462 34.0718 104.614 34.0591 104.754 34.0066C104.893 33.9541 105.015 33.8635 105.105 33.7442C105.195 33.6266 105.251 33.485 105.264 33.3372C105.278 33.1893 105.249 33.0414 105.184 32.9079C105.118 32.7759 105.015 32.663 104.887 32.5851C104.76 32.5072 104.614 32.4658 104.463 32.4658H104.46H104.462Z" fill="#6E7080"/>
<path id="Vector_132" d="M0 40.7944C0 39.8849 0.306396 39.1567 0.919188 38.6049C1.53198 38.0547 2.29556 37.7797 3.21154 37.7813C4.13554 37.7813 4.90715 38.0532 5.52796 38.597C6.14877 39.1408 6.45998 39.8817 6.46158 40.8199C6.46158 41.731 6.16481 42.4687 5.57127 43.0332C4.97773 43.5977 4.1965 43.8791 3.22919 43.8791C2.26187 43.8791 1.51433 43.5961 0.909563 43.0332C0.306396 42.4687 0.00320833 41.723 0 40.7928L0 40.7944ZM1.0026 40.8246C1.0026 41.7707 1.1919 42.4815 1.57208 42.9553C1.95227 43.4291 2.52335 43.6661 3.28533 43.6676C3.95427 43.6676 4.48204 43.4307 4.87185 42.9553C5.26167 42.4799 5.45577 41.7723 5.45417 40.8326C5.45417 39.9183 5.26327 39.2171 4.88148 38.7289C4.49969 38.2408 3.94465 37.9959 3.21796 37.9975C2.5041 37.9975 1.95548 38.236 1.57529 38.7114C1.1951 39.1885 1.00421 39.8928 1.0026 40.8246Z" fill="#6E7080"/>
<path id="Vector_133" d="M8.59994 37.8545V38.0803C8.03366 38.1916 7.75133 38.5048 7.75133 39.0216C7.75133 39.2076 7.80748 39.2999 7.91816 39.2999C7.94704 39.2999 7.97591 39.2951 8.00479 39.2871C8.06094 39.2681 8.12029 39.2585 8.17964 39.2569C8.24221 39.2537 8.30637 39.2649 8.36412 39.2871C8.42348 39.311 8.47641 39.346 8.51973 39.3905C8.60154 39.4716 8.64646 39.5813 8.64646 39.6942C8.64646 39.7498 8.63523 39.8055 8.61277 39.858C8.59031 39.9104 8.55823 39.9565 8.51812 39.9963C8.47481 40.0408 8.42187 40.0758 8.36412 40.0981C8.30637 40.1203 8.24381 40.1315 8.18285 40.1299C8.0866 40.1283 7.99196 40.1028 7.90854 40.0583C7.82352 40.0122 7.75133 39.9486 7.69679 39.8707C7.54921 39.6703 7.47541 39.4239 7.48825 39.1758C7.48023 38.8642 7.58289 38.5605 7.78021 38.3188C7.98875 38.0723 8.28071 37.9086 8.59994 37.8561V37.8545Z" fill="#6E7080"/>
<path id="Vector_134" d="M9.38437 43.7773V43.6421L11.7601 40.4207H10.4543C10.3405 40.4143 10.2266 40.4255 10.1159 40.4525C10.026 40.5002 9.95224 40.5733 9.90091 40.6608C9.79343 40.8309 9.70841 41.0138 9.65066 41.2046H9.48864L9.54479 40.2188H12.5462V40.3762L10.1848 43.5769H11.165C11.38 43.5865 11.5933 43.569 11.8035 43.5245C11.9334 43.4736 12.0457 43.383 12.1227 43.2669C12.2558 43.0745 12.3617 42.8662 12.4387 42.6452H12.6136L12.5093 43.7773H9.38918H9.38437Z" fill="#6E7080"/>
<path id="Vector_135" d="M13.844 43.9204H13.6739V39.1614C13.6803 38.9372 13.6707 38.713 13.645 38.4888C13.6386 38.4427 13.6226 38.3997 13.5969 38.36C13.5713 38.3202 13.5392 38.2884 13.4991 38.263C13.3739 38.2042 13.2344 38.1787 13.0948 38.1883V37.9895C13.3034 37.9863 13.5103 37.9656 13.7156 37.9275C13.8841 37.9068 14.0509 37.8655 14.2097 37.8066H14.3028V40.6194C14.4856 40.4509 14.6958 40.3126 14.9236 40.2124C15.1257 40.1249 15.3423 40.0788 15.5636 40.0772C15.801 40.0709 16.0385 40.1138 16.2566 40.206C16.4748 40.2983 16.6721 40.4366 16.8309 40.6115C17.1598 40.9677 17.325 41.4224 17.325 41.9742C17.341 42.4846 17.1598 42.9823 16.8181 43.3639C16.6529 43.5467 16.4491 43.6898 16.2213 43.7868C15.9935 43.8822 15.7481 43.9284 15.5011 43.9204C15.2572 43.9252 15.0182 43.8695 14.8033 43.755C14.5963 43.6374 14.4231 43.4688 14.3028 43.2637C14.1103 43.4529 13.9547 43.6755 13.8424 43.9188L13.844 43.9204ZM14.3044 40.877V42.2667C14.2931 42.5275 14.3172 42.7867 14.3765 43.0411C14.4423 43.224 14.5642 43.383 14.7247 43.4943C14.9075 43.639 15.1337 43.7153 15.3679 43.7121C15.5444 43.7153 15.7192 43.6755 15.8764 43.5944C16.0337 43.5133 16.1668 43.3941 16.2663 43.2494C16.4892 42.9409 16.5999 42.4989 16.6015 41.9249C16.6015 41.3954 16.4973 40.9931 16.2887 40.7212C16.1957 40.5892 16.0705 40.4827 15.9246 40.4096C15.7786 40.3364 15.6182 40.3014 15.4562 40.3062C15.254 40.3062 15.0535 40.3555 14.8722 40.4477C14.6589 40.5574 14.4664 40.7037 14.3028 40.8786H14.306L14.3044 40.877Z" fill="#6E7080"/>
<path id="Vector_136" d="M21.2263 41.424H18.7286C18.7174 41.5941 18.7126 41.7213 18.7126 41.8056C18.7126 42.4305 18.8104 42.9012 19.0078 43.2144C19.0976 43.3655 19.2275 43.4879 19.3831 43.5722C19.5387 43.6549 19.7136 43.6946 19.8901 43.6867C20.4194 43.6867 20.7964 43.4513 21.0178 42.9791H21.2279C21.1365 43.2701 20.9392 43.5181 20.6729 43.6708C20.4066 43.8298 20.1034 43.9172 19.7938 43.9204C19.4826 43.9236 19.1778 43.8457 18.9083 43.693C18.6356 43.5372 18.4062 43.313 18.2458 43.0443C18.0661 42.7374 17.9763 42.3876 17.9875 42.033C17.9875 41.4701 18.1543 41.0042 18.4864 40.6322C18.6404 40.4541 18.8313 40.311 19.0463 40.2156C19.2612 40.1202 19.497 40.0725 19.7328 40.0772C20.2013 40.0772 20.5654 40.2187 20.8221 40.5034C21.0643 40.753 21.2087 41.079 21.2295 41.4256L21.2263 41.424ZM20.4611 41.2491C20.4692 41.1903 20.474 41.1314 20.474 41.071C20.482 40.9661 20.4676 40.8611 20.4323 40.761C20.397 40.6624 20.3392 40.5717 20.2654 40.4954C20.1916 40.4191 20.1034 40.3603 20.0039 40.3205C19.9061 40.2808 19.8002 40.2633 19.6943 40.2664C19.1634 40.2664 18.8473 40.594 18.7447 41.2475H20.4595L20.4611 41.2491Z" fill="#6E7080"/>
<path id="Vector_137" d="M23.9326 40.2205H25.3763V40.4208C25.1116 40.4256 24.7555 40.6227 24.3095 41.0107C24.1652 41.1347 23.9438 41.3128 23.6438 41.545L24.9207 43.0269C25.0507 43.1923 25.2047 43.3386 25.3747 43.4626C25.4774 43.5278 25.5945 43.5659 25.7164 43.5739V43.7726H23.931V43.5739C24.2293 43.5675 24.3785 43.5039 24.3785 43.3815C24.3785 43.3274 24.2807 43.1859 24.085 42.9617L23.1658 41.9027L22.9797 42.0411V42.5531C22.9797 42.9315 22.9845 43.17 22.9941 43.267C22.9973 43.3115 23.0102 43.3545 23.031 43.3942C23.0519 43.434 23.0824 43.4673 23.1192 43.4928C23.2347 43.5564 23.3679 43.585 23.4994 43.5739V43.7726H21.6819V43.5739H21.8167C22.0268 43.5739 22.1632 43.5437 22.2257 43.4817C22.2867 43.426 22.3236 43.3513 22.3332 43.2702C22.3412 43.1875 22.346 42.9474 22.346 42.5515V38.9961C22.346 38.6511 22.3124 38.4316 22.2466 38.3362C22.1808 38.2408 22.022 38.1931 21.7717 38.1931V37.9944C21.9787 37.9912 22.1856 37.9705 22.391 37.9324C22.5594 37.9101 22.7246 37.8704 22.8834 37.8115H22.9765V41.8105L23.3502 41.5497C23.9598 41.1204 24.2646 40.812 24.2646 40.6243C24.2646 40.4971 24.1523 40.4303 23.9277 40.4256L23.931 40.2236L23.9326 40.2205Z" fill="#6E7080"/>
<path id="Vector_138" d="M27.1184 40.0774V42.5563C27.1184 42.9347 27.1248 43.1732 27.1361 43.2718C27.1393 43.3163 27.1521 43.3592 27.1746 43.399C27.197 43.4387 27.2259 43.4721 27.2628 43.4976C27.3815 43.5612 27.5179 43.5882 27.6526 43.5771H27.7457V43.7758H25.8142V43.5771H25.9634C26.1704 43.5771 26.3067 43.5469 26.3693 43.4849C26.4302 43.4292 26.4687 43.3545 26.4784 43.2734C26.4896 43.1907 26.4944 42.9506 26.4944 42.5547V41.4782C26.4944 41.0616 26.4752 40.8072 26.4351 40.715C26.4222 40.6768 26.403 40.6418 26.3757 40.6116C26.3484 40.5814 26.3147 40.5576 26.2778 40.5417C26.1656 40.513 26.0501 40.5019 25.9346 40.5067H25.8158V40.3063C26.2265 40.2761 26.6308 40.1982 27.0238 40.0758L27.12 40.079L27.1184 40.0774ZM26.273 38.2631C26.273 38.2027 26.2843 38.1439 26.3067 38.0882C26.3292 38.0326 26.3645 37.9833 26.4062 37.9403C26.4479 37.8974 26.4976 37.8624 26.5522 37.8402C26.6083 37.8179 26.6677 37.8052 26.727 37.8068C26.7864 37.8068 26.8457 37.8179 26.9003 37.8402C26.9548 37.864 27.0045 37.8974 27.0462 37.9403C27.0879 37.9833 27.1216 38.0326 27.1441 38.0882C27.1666 38.1439 27.1778 38.2027 27.1778 38.2615C27.1778 38.322 27.1682 38.3824 27.1457 38.438C27.1232 38.4937 27.0896 38.5446 27.0462 38.5875C27.0045 38.6304 26.9564 38.6654 26.9003 38.6877C26.8457 38.7099 26.7864 38.7226 26.727 38.7211C26.6661 38.7211 26.6067 38.7099 26.5522 38.6877C26.496 38.6654 26.4463 38.6304 26.4062 38.5875C26.3629 38.5446 26.3292 38.4937 26.3051 38.438C26.2827 38.3824 26.2714 38.322 26.2714 38.2615L26.273 38.2631Z" fill="#6E7080"/>
<path id="Vector_139" d="M28.2766 43.8903V42.7216H28.4483C28.6456 43.3958 29.0001 43.7329 29.5118 43.7329C29.6049 43.7393 29.6979 43.725 29.783 43.69C29.8696 43.655 29.9466 43.6025 30.0075 43.5326C30.1134 43.4101 30.1712 43.2543 30.1712 43.0937C30.1744 43.0094 30.1599 42.9268 30.1295 42.8488C30.099 42.7709 30.0541 42.6994 29.9947 42.639C29.876 42.5197 29.6434 42.3766 29.3001 42.2096C28.9392 42.0331 28.6793 41.8598 28.5221 41.6897C28.3649 41.5211 28.2798 41.2985 28.2863 41.068C28.2895 40.8215 28.3793 40.5846 28.5397 40.397C28.6247 40.292 28.7338 40.2078 28.8573 40.1521C28.9809 40.0965 29.1172 40.071 29.2536 40.0774C29.4028 40.0758 29.552 40.1092 29.6867 40.1744C29.8215 40.2396 29.9386 40.3365 30.0284 40.4558C30.1022 40.3604 30.1599 40.2523 30.2 40.1394H30.3653V41.2381H30.2032C30.1503 40.9869 30.0332 40.7531 29.8648 40.5576C29.7926 40.4701 29.7027 40.3986 29.6001 40.3493C29.4974 40.3 29.3851 40.2745 29.2712 40.2729C29.1926 40.2698 29.1156 40.2825 29.0418 40.3095C28.968 40.3365 28.9023 40.3795 28.8461 40.4335C28.7948 40.4812 28.7547 40.5385 28.7258 40.6021C28.6985 40.6657 28.6841 40.7341 28.6825 40.804C28.6825 40.8803 28.6985 40.9551 28.729 41.025C28.7595 41.095 28.806 41.157 28.8622 41.2079C28.9793 41.324 29.2022 41.456 29.5311 41.6022C30.0284 41.8248 30.3316 42.0411 30.4407 42.251C30.5449 42.4402 30.6027 42.6517 30.6075 42.8663C30.6123 43.0063 30.5882 43.1462 30.5353 43.2766C30.4824 43.4069 30.4022 43.5246 30.2995 43.6216C30.1952 43.7186 30.0733 43.7933 29.9402 43.8442C29.807 43.8935 29.6658 43.9174 29.5231 43.9126C29.3562 43.9126 29.191 43.8744 29.0402 43.8045C28.8894 43.7345 28.7531 43.6343 28.644 43.5087C28.5542 43.6168 28.4884 43.744 28.4515 43.8792L28.2766 43.8887V43.8903Z" fill="#6E7080"/>
<path id="Vector_140" d="M33.3603 40.4207H32.279V42.5689C32.271 42.7915 32.2855 43.0157 32.3224 43.2367C32.3496 43.348 32.4154 43.4466 32.5084 43.5149C32.5951 43.5817 32.7025 43.6183 32.8132 43.6199C33.0234 43.6199 33.2063 43.5006 33.3603 43.2637L33.4998 43.3464C33.4164 43.5292 33.2768 43.6819 33.0988 43.7789C32.9352 43.8727 32.7507 43.922 32.563 43.9236C32.3625 43.9268 32.1668 43.8616 32.0095 43.7375C31.8636 43.6326 31.7577 43.48 31.7112 43.305C31.663 43.0188 31.6422 42.7279 31.6518 42.4369V40.4223H31.1305V40.2219C31.2524 40.2172 31.3727 40.1885 31.4834 40.1377C31.5941 40.0868 31.6919 40.0136 31.7737 39.923C31.9791 39.6956 32.1058 39.4094 32.1363 39.1057H32.2758V40.2172H33.357V40.4207H33.3603Z" fill="#6E7080"/>
<path id="Vector_141" d="M33.8463 41.9934C33.8399 41.7406 33.8848 41.4894 33.9795 41.254C34.0741 41.0187 34.2169 40.8056 34.3965 40.6276C34.7591 40.2746 35.2467 40.0774 35.7553 40.0774C36.2638 40.0774 36.7515 40.2746 37.114 40.6276C37.2953 40.8056 37.4364 41.0187 37.5311 41.2524C37.6257 41.4878 37.6722 41.7374 37.6658 41.9902C37.6658 42.5897 37.4797 43.0603 37.106 43.4022C36.7402 43.7425 36.2542 43.9269 35.7537 43.9174C35.505 43.9221 35.258 43.8792 35.027 43.7886C34.796 43.6979 34.5842 43.5644 34.4046 43.3927C34.0324 43.046 33.8463 42.5785 33.8463 41.9918V41.9934ZM34.573 42.0141C34.573 42.6453 34.6773 43.0874 34.8842 43.3402C35.0911 43.593 35.3815 43.7202 35.7553 43.7202C36.129 43.7202 36.429 43.593 36.6327 43.3402C36.8365 43.0874 36.9375 42.6453 36.9375 42.0141C36.9375 41.3892 36.8365 40.944 36.6343 40.6768C36.4322 40.4097 36.1403 40.2777 35.7553 40.2777C35.3735 40.2777 35.0815 40.4097 34.8778 40.6753C34.6741 40.9408 34.573 41.386 34.573 42.0141Z" fill="#6E7080"/>
<path id="Vector_142" d="M39.2283 40.0773H39.347C39.4224 40.3142 39.4609 40.5622 39.4593 40.8119C39.6422 40.5861 39.8668 40.3985 40.1202 40.2554C40.3416 40.1345 40.5902 40.0709 40.8421 40.0693C41.0891 40.0598 41.333 40.1218 41.5447 40.2474C41.7115 40.346 41.8351 40.5018 41.896 40.6831C41.957 40.9295 41.9843 41.1824 41.9746 41.4368V42.5482C41.9682 42.7994 41.9746 43.0491 41.9955 43.2987C42.0019 43.3401 42.0163 43.3798 42.0404 43.4148C42.0645 43.4498 42.0965 43.4784 42.1334 43.4991C42.2682 43.5547 42.4142 43.577 42.5601 43.5674V43.7662H40.725V43.5674H40.8132C41.0234 43.5674 41.1597 43.5372 41.2239 43.4752C41.2864 43.4196 41.3249 43.3448 41.3346 43.2621C41.3426 43.1811 41.3474 42.9425 41.3474 42.5466V41.4018C41.3538 41.1998 41.3394 40.9979 41.3057 40.7992C41.272 40.6704 41.1934 40.5575 41.0827 40.4811C40.9496 40.3841 40.7859 40.3349 40.6223 40.3428C40.4041 40.3428 40.1924 40.408 40.0127 40.5273C39.7946 40.6783 39.6069 40.8707 39.4625 41.0933V42.5434C39.4561 42.7947 39.4625 43.0443 39.4866 43.2939C39.493 43.3353 39.509 43.3766 39.5331 43.4116C39.5571 43.4466 39.5892 43.4752 39.6261 43.4959C39.7625 43.5515 39.9101 43.5738 40.0576 43.5627V43.7614H38.2417V43.5627C38.3845 43.5722 38.5273 43.5515 38.662 43.5007C38.6989 43.4832 38.731 43.4577 38.7567 43.4243C38.7823 43.3925 38.8 43.3544 38.808 43.3146C38.8369 43.057 38.8465 42.7978 38.8369 42.5387V41.4892C38.8433 41.238 38.8369 40.9868 38.8128 40.7355C38.8064 40.6942 38.7904 40.6545 38.7663 40.6195C38.7422 40.5845 38.7101 40.5559 38.6733 40.5352C38.5369 40.4795 38.3893 40.4573 38.2417 40.4684V40.2681C38.5754 40.2315 38.9059 40.1647 39.2283 40.0693V40.0773Z" fill="#6E7080"/>
<path id="Vector_143" d="M51.5066 43.7773H49.9104C49.6281 43.5801 49.195 43.065 48.6111 42.2318C48.425 41.9662 48.2309 41.7102 48.0287 41.4654C47.9052 41.3032 47.7673 41.1521 47.6133 41.0186C47.5058 40.9566 47.3823 40.9295 47.2587 40.9391H47.0229V42.2461C47.0165 42.5498 47.0261 42.8535 47.055 43.1556C47.0614 43.2176 47.0791 43.278 47.1096 43.3321C47.14 43.3862 47.1801 43.4355 47.2299 43.4736C47.3229 43.5436 47.5106 43.5786 47.7737 43.5786H48.0544V43.7773H45.2198V43.5786H45.4123C45.6658 43.5786 45.8423 43.5468 45.9401 43.4863C45.9898 43.4529 46.0332 43.4084 46.0652 43.3575C46.0973 43.3067 46.1182 43.2494 46.1262 43.189C46.1615 42.8773 46.1743 42.5641 46.1647 42.2493V39.357C46.1727 39.0548 46.1599 38.7511 46.1262 38.4506C46.1198 38.395 46.1005 38.3409 46.0701 38.2932C46.0396 38.2455 45.9995 38.2042 45.9513 38.174C45.8583 38.1215 45.6642 38.096 45.3658 38.096H45.2648V37.8957L46.1134 37.8528C46.6796 37.8273 47.1288 37.8146 47.4609 37.8146C47.9261 37.8019 48.3913 37.8544 48.8404 37.9704C49.1693 38.0595 49.4661 38.2376 49.7003 38.4824C49.9168 38.713 50.0339 39.0183 50.0275 39.3331C50.0291 39.5176 49.9922 39.702 49.9184 39.8705C49.8447 40.0407 49.7356 40.1933 49.5976 40.3174C49.3121 40.5893 48.8918 40.7578 48.3383 40.8246C48.587 40.9438 48.9864 41.3716 49.5367 42.1109C49.9858 42.7088 50.3387 43.1015 50.5954 43.2876C50.8617 43.4752 51.1793 43.5786 51.505 43.5833V43.7773H51.5066ZM47.0261 40.7387C47.2443 40.7339 47.4721 40.7244 47.7047 40.7133C47.91 40.7069 48.1138 40.6751 48.3127 40.6211C48.4683 40.5781 48.6111 40.5002 48.7298 40.3937C48.8437 40.284 48.9287 40.1488 48.9816 39.9993C49.049 39.8069 49.0795 39.605 49.0747 39.4015C49.0747 38.9881 48.9704 38.6557 48.7618 38.4061C48.5533 38.1565 48.0993 38.0324 47.3999 38.0356C47.2908 38.0356 47.1673 38.0404 47.0261 38.0531V40.7387Z" fill="#6E7080"/>
<path id="Vector_144" d="M54.6909 41.424H52.1932C52.1803 41.5941 52.1755 41.7213 52.1755 41.8056C52.1755 42.4305 52.2734 42.9012 52.4707 43.2144C52.5605 43.3655 52.6905 43.4879 52.8461 43.5722C53.0017 43.6549 53.1765 43.6946 53.353 43.6867C53.884 43.6867 54.2593 43.4513 54.4807 42.9791H54.6909C54.5994 43.2701 54.4021 43.5181 54.1358 43.6708C53.8711 43.8298 53.5663 43.9172 53.2567 43.9204C52.9471 43.9236 52.6407 43.8457 52.3712 43.693C52.0985 43.5372 51.8691 43.3146 51.7071 43.0443C51.5274 42.7374 51.4392 42.3876 51.4504 42.033C51.4504 41.4701 51.6173 41.0042 51.9493 40.6322C52.1033 40.4541 52.2942 40.311 52.5092 40.2156C52.7242 40.1202 52.9584 40.0725 53.1958 40.0772C53.6642 40.0772 54.0283 40.2187 54.285 40.5034C54.5272 40.753 54.6716 41.079 54.6925 41.4256L54.6909 41.424ZM53.9257 41.2491C53.9337 41.1903 53.9385 41.1314 53.9385 41.071C53.9481 40.9661 53.9337 40.8595 53.8984 40.761C53.8631 40.6624 53.807 40.5701 53.7332 40.4954C53.6594 40.4191 53.5695 40.3603 53.4717 40.3205C53.3722 40.2808 53.2664 40.2633 53.1605 40.268C52.6295 40.268 52.3135 40.5956 52.2108 41.2491H53.9257Z" fill="#6E7080"/>
<path id="Vector_145" d="M55.3951 43.8903V42.7216H55.5651C55.7624 43.3958 56.117 43.7329 56.6287 43.7329C56.7217 43.7393 56.8148 43.725 56.8998 43.69C56.9864 43.655 57.0634 43.6025 57.1244 43.5326C57.2303 43.4101 57.288 43.2543 57.288 43.0937C57.2912 43.0094 57.2768 42.9268 57.2463 42.8488C57.2158 42.7709 57.1709 42.6994 57.1115 42.639C56.9928 42.5197 56.7602 42.3766 56.4169 42.2096C56.1282 42.0824 55.8651 41.9075 55.6373 41.6897C55.4801 41.5211 55.3951 41.2985 55.4015 41.068C55.4063 40.8215 55.4961 40.5846 55.655 40.397C55.74 40.292 55.8491 40.2078 55.9726 40.1521C56.0961 40.0965 56.2325 40.071 56.3672 40.0774C56.518 40.0758 56.6656 40.1092 56.8003 40.1744C56.9351 40.2396 57.0522 40.3365 57.142 40.4558C57.2158 40.3604 57.2736 40.2523 57.3121 40.1394H57.4741V41.2381H57.3121C57.2591 40.9869 57.142 40.7531 56.972 40.5576C56.9014 40.4701 56.81 40.3986 56.7073 40.3493C56.6046 40.3 56.4923 40.2745 56.3784 40.2729C56.2998 40.2698 56.2228 40.2825 56.1506 40.3095C56.0769 40.3381 56.0111 40.3795 55.9549 40.4335C55.9036 40.4812 55.8635 40.5385 55.8346 40.6021C55.8074 40.6657 55.7913 40.7341 55.7913 40.804C55.7913 40.8803 55.8074 40.9551 55.8378 41.025C55.8683 41.095 55.9148 41.157 55.971 41.2079C56.0881 41.324 56.3111 41.456 56.6415 41.6022C57.1388 41.8248 57.442 42.0411 57.5511 42.251C57.6554 42.4402 57.7115 42.6517 57.7179 42.8663C57.7227 43.0063 57.6987 43.1462 57.6457 43.2766C57.5928 43.4069 57.5126 43.5246 57.4099 43.6216C57.3056 43.7186 57.1837 43.7933 57.0506 43.8442C56.9174 43.8935 56.7763 43.9174 56.6335 43.9126C56.4667 43.911 56.3014 43.8744 56.1506 43.8045C55.9983 43.7345 55.8635 43.6343 55.7544 43.5087C55.6646 43.6168 55.5988 43.744 55.5619 43.8792L55.3919 43.8887L55.3951 43.8903Z" fill="#6E7080"/>
<path id="Vector_146" d="M59.1264 40.0774H59.2451C59.298 40.2682 59.3237 40.4654 59.3205 40.6641C59.4905 40.4797 59.6943 40.3302 59.9221 40.2237C60.2413 40.0822 60.5974 40.0424 60.9407 40.1076C61.284 40.1744 61.5984 40.3445 61.8406 40.5942C62.1695 40.9392 62.3347 41.3972 62.3347 41.9632C62.3508 42.472 62.1727 42.9681 61.8374 43.3529C61.6754 43.5374 61.4749 43.6821 61.2487 43.7791C61.0225 43.876 60.7771 43.9222 60.5316 43.9126C60.3119 43.9126 60.0953 43.8681 59.8948 43.7806C59.6814 43.6852 59.4857 43.5517 59.3205 43.3879V44.7379C59.3141 44.9875 59.3205 45.2387 59.3446 45.4884C59.351 45.5297 59.367 45.5695 59.3911 45.6044C59.4151 45.6394 59.4472 45.668 59.4841 45.6903C59.6173 45.746 59.7632 45.7698 59.9092 45.7571V45.9574H58.0372V45.7571H58.1671C58.374 45.7571 58.5088 45.7269 58.5713 45.6649C58.6323 45.6092 58.6708 45.5329 58.6804 45.4518C58.6917 45.3691 58.6965 45.1306 58.6949 44.7347V41.5148C58.6949 41.1364 58.6901 40.8963 58.6804 40.7993C58.6772 40.7548 58.6644 40.7118 58.6435 40.6721C58.6227 40.6339 58.5922 40.5989 58.5553 40.5735C58.4366 40.5099 58.3002 40.4829 58.1655 40.494H58.0356V40.2921C58.4045 40.2475 58.7703 40.176 59.128 40.0774H59.1264ZM59.3189 43.108C59.4568 43.283 59.6253 43.4292 59.8194 43.5405C59.991 43.6359 60.1835 43.6852 60.3792 43.6852C60.5461 43.6852 60.7097 43.6455 60.8589 43.5723C61.0081 43.4992 61.138 43.3943 61.2407 43.2639C61.4861 42.984 61.6096 42.5356 61.608 41.9219C61.608 41.3892 61.4893 40.9917 61.2551 40.7277C61.1524 40.6053 61.0241 40.5051 60.8797 40.4368C60.7354 40.3684 60.5766 40.3318 60.4145 40.3318C60.214 40.3318 60.0151 40.3843 59.8418 40.4845C59.6413 40.6037 59.4649 40.7611 59.3253 40.9472L59.3189 43.1065V43.108Z" fill="#6E7080"/>
<path id="Vector_147" d="M66.5809 40.2205V42.5515C66.5809 42.9395 66.5874 43.1827 66.5986 43.2813C66.6018 43.3258 66.6146 43.3688 66.6371 43.4069C66.6595 43.4451 66.69 43.4785 66.7269 43.5023C66.8504 43.5628 66.99 43.5882 67.128 43.5771V43.7758C66.6852 43.7806 66.3612 43.8283 66.1558 43.9142H66.1061C66.0131 43.7552 65.9633 43.4801 65.9585 43.0889C65.8045 43.3386 65.596 43.55 65.3489 43.709C65.1212 43.8474 64.8565 43.9205 64.5886 43.9173C64.3656 43.9221 64.1474 43.8649 63.9549 43.7552C63.7897 43.6661 63.6566 43.5262 63.5763 43.3576C63.4961 43.1303 63.4624 42.8902 63.4737 42.6501V41.4384C63.4785 41.1872 63.4737 40.936 63.4528 40.6848C63.448 40.6434 63.432 40.6021 63.4079 40.5671C63.3838 40.5321 63.3518 40.5035 63.3149 40.4828C63.1801 40.4288 63.0341 40.4065 62.8882 40.4176V40.2173H64.1009V42.6835C64.0945 42.8615 64.1105 43.0396 64.1442 43.2129C64.1811 43.3322 64.2597 43.4356 64.3672 43.5007C64.4891 43.5834 64.6351 43.628 64.7827 43.6248C65.0153 43.6216 65.2415 43.5453 65.4259 43.4053C65.604 43.2893 65.7468 43.1303 65.8446 42.9426C65.9297 42.7184 65.9682 42.4799 65.9569 42.2414V41.4369C65.9569 41.0489 65.9521 40.8136 65.9441 40.7293C65.9345 40.645 65.8944 40.5671 65.8318 40.5099C65.766 40.4463 65.6297 40.4176 65.4227 40.4176H65.3297V40.2173H66.5825L66.5809 40.2205Z" fill="#6E7080"/>
<path id="Vector_148" d="M68.2172 43.9204H68.0472V39.1614C68.0536 38.9372 68.044 38.713 68.0183 38.4888C68.0119 38.4427 67.9958 38.3997 67.9702 38.36C67.9445 38.3218 67.9124 38.2884 67.8739 38.263C67.7472 38.2042 67.6076 38.1787 67.4697 38.1883V37.9895C67.6782 37.9863 67.8867 37.9656 68.0921 37.9275C68.2605 37.9052 68.4274 37.8655 68.5862 37.8066H68.6792V40.6194C68.8637 40.4509 69.0722 40.3142 69.3016 40.2124C69.5021 40.1249 69.7203 40.0788 69.9401 40.0772C70.1775 40.0709 70.4149 40.1138 70.6331 40.206C70.8529 40.2983 71.0486 40.4366 71.209 40.6115C71.5378 40.9677 71.7031 41.4224 71.7031 41.9742C71.7191 42.4846 71.5378 42.9823 71.1961 43.3639C71.0309 43.5467 70.8272 43.6898 70.5994 43.7868C70.3716 43.8822 70.1262 43.9284 69.8791 43.9204C69.6353 43.9268 69.3963 43.8695 69.1813 43.755C68.9744 43.6374 68.8011 43.4688 68.6808 43.2637C68.4899 43.4529 68.3327 43.6755 68.2204 43.9188L68.2172 43.9204ZM68.676 40.877V42.2667C68.6648 42.5275 68.6904 42.7867 68.7482 43.0411C68.814 43.224 68.9359 43.383 69.0947 43.4943C69.2776 43.639 69.5038 43.7153 69.738 43.7121C69.9144 43.7153 70.0909 43.6755 70.2481 43.5944C70.4053 43.5133 70.54 43.3941 70.6379 43.2494C70.8609 42.9409 70.9716 42.4989 70.9716 41.9249C70.9716 41.3954 70.8673 40.9931 70.6587 40.7212C70.5641 40.5892 70.4406 40.4827 70.2946 40.4096C70.1486 40.3364 69.9882 40.3014 69.8262 40.3062C69.6225 40.3062 69.4235 40.3555 69.2423 40.4477C69.0305 40.559 68.8396 40.7037 68.676 40.8786V40.877Z" fill="#6E7080"/>
<path id="Vector_149" d="M73.3088 37.8066V42.5561C73.3088 42.9346 73.3137 43.1731 73.3249 43.2717C73.3265 43.3162 73.3393 43.3591 73.3618 43.3989C73.3826 43.4386 73.4131 43.472 73.45 43.4975C73.5687 43.5611 73.7051 43.5881 73.8398 43.577H73.9473V43.7757H72.0319V43.577H72.1538C72.2822 43.5865 72.4121 43.5611 72.5276 43.5054C72.5629 43.4831 72.5934 43.4545 72.6174 43.4195C72.6399 43.3846 72.6559 43.3448 72.6624 43.3035C72.6832 43.0554 72.6896 42.8058 72.6832 42.5561V39.0358C72.6832 38.6653 72.6495 38.4299 72.5821 38.3298C72.5164 38.2376 72.3528 38.1851 72.0929 38.1851V37.9863C72.303 37.9831 72.5132 37.9625 72.7201 37.9243C72.8902 37.902 73.057 37.8607 73.2174 37.8035L73.312 37.8066H73.3088Z" fill="#6E7080"/>
<path id="Vector_150" d="M75.5322 40.0774V42.5563C75.5322 42.9347 75.5386 43.1732 75.5498 43.2718C75.5531 43.3163 75.5659 43.3593 75.5884 43.399C75.6108 43.4388 75.6413 43.4722 75.6782 43.4976C75.7969 43.5612 75.9332 43.5882 76.0664 43.5771H76.1594V43.7759H74.2264V43.5771H74.374C74.5809 43.5771 74.7173 43.5469 74.7798 43.4849C74.8408 43.4292 74.8793 43.3545 74.8889 43.2734C74.9002 43.1907 74.905 42.9506 74.905 42.5547V41.4782C74.905 41.0616 74.8841 40.8072 74.8456 40.715C74.8328 40.6768 74.8135 40.6403 74.7863 40.6116C74.759 40.5814 74.7253 40.5576 74.6884 40.5417C74.5761 40.5131 74.4606 40.5019 74.3467 40.5067H74.228V40.3064C74.6387 40.2761 75.0429 40.1982 75.436 40.0758L75.5354 40.079L75.5322 40.0774ZM74.6916 38.2631C74.6916 38.2027 74.7028 38.1439 74.7253 38.0882C74.7478 38.0326 74.7815 37.9833 74.8248 37.9404C74.8665 37.8974 74.9162 37.8624 74.9707 37.8402C75.0269 37.8163 75.0862 37.8052 75.1456 37.8068C75.205 37.8068 75.2643 37.8179 75.3205 37.8402C75.375 37.864 75.4247 37.8974 75.4648 37.9404C75.5065 37.9833 75.5402 38.0326 75.5627 38.0882C75.5851 38.1439 75.5964 38.2027 75.5948 38.2615C75.5948 38.322 75.5851 38.3824 75.5627 38.438C75.5402 38.4937 75.5065 38.5446 75.4648 38.5875C75.4247 38.6304 75.375 38.6654 75.3205 38.6877C75.2659 38.7099 75.2066 38.7227 75.1456 38.7211C75.0862 38.7211 75.0253 38.7099 74.9707 38.6877C74.9146 38.6638 74.8649 38.6304 74.8248 38.5875C74.7798 38.5462 74.7446 38.4953 74.7189 38.4396C74.6948 38.384 74.682 38.3236 74.682 38.2615H74.6916V38.2631Z" fill="#6E7080"/>
<path id="Vector_151" d="M78.6892 40.2203H80.133V40.4207C79.8667 40.4255 79.5121 40.6226 79.0662 41.0106C78.9234 41.1346 78.702 41.3127 78.4021 41.5448L79.679 43.0268C79.8089 43.1921 79.9629 43.3384 80.1346 43.4625C80.2372 43.5276 80.3543 43.5658 80.4746 43.5738V43.7725H78.6908V43.5738C78.9892 43.5674 79.1368 43.5038 79.1368 43.3814C79.1368 43.3273 79.0437 43.1858 78.8432 42.9616L77.9256 41.9026L77.7395 42.0409V42.5529C77.7395 42.9314 77.7444 43.1699 77.754 43.2669C77.7572 43.3114 77.77 43.3543 77.7909 43.3941C77.8133 43.4338 77.8422 43.4672 77.8791 43.4943C77.9946 43.5579 78.1277 43.5865 78.2593 43.5753V43.7741H76.445V43.5753H76.5797C76.7899 43.5753 76.9262 43.5451 76.9888 43.4831C77.0497 43.4275 77.0882 43.3527 77.0963 43.2717C77.1043 43.189 77.1091 42.9489 77.1091 42.5529V38.9976C77.1091 38.6525 77.0786 38.4331 77.0161 38.3377C76.9503 38.2455 76.7915 38.1946 76.5412 38.1946V37.9958C76.7498 37.9927 76.9567 37.972 77.1604 37.9338C77.3289 37.9116 77.4941 37.8718 77.6529 37.813H77.746V41.812L78.1197 41.5512C78.7293 41.1219 79.0341 40.8134 79.0341 40.6258C79.0341 40.4986 78.9218 40.4318 78.6972 40.427L78.6908 40.2251L78.6892 40.2203Z" fill="#6E7080"/>
<path id="Vector_152" d="M84.3776 43.1255H84.5396C84.5139 43.62 84.2685 43.8665 83.8049 43.8665C83.6348 43.8745 83.468 43.8188 83.3381 43.7107C83.2129 43.5851 83.1327 43.4229 83.1119 43.248C82.8632 43.4292 82.5953 43.5835 82.3146 43.7107C82.1125 43.8061 81.8927 43.8586 81.6697 43.8665C81.4435 43.8713 81.2222 43.7981 81.0441 43.6582C80.9591 43.593 80.8917 43.5087 80.8452 43.4117C80.7987 43.3148 80.7778 43.2098 80.781 43.1033C80.781 42.8043 80.927 42.5452 81.2206 42.3226C81.5959 42.057 82.0034 41.8392 82.4333 41.6738L83.1103 41.3956V41.2222C83.1167 41.0426 83.1006 40.8629 83.0621 40.688C83.0172 40.5624 82.929 40.459 82.8135 40.3922C82.6531 40.2984 82.4686 40.2539 82.2841 40.2619C81.8494 40.2619 81.6056 40.4065 81.5542 40.6959C81.5077 40.9917 81.3842 41.1396 81.1869 41.1396C81.0088 41.1396 80.9206 41.0553 80.9206 40.8883C80.9206 40.7214 81.0377 40.5449 81.2751 40.3557C81.5125 40.1664 81.8783 40.071 82.3772 40.071C82.7509 40.071 83.0301 40.1299 83.2386 40.246C83.4135 40.3318 83.5546 40.4702 83.6428 40.6419C83.7182 40.8597 83.7487 41.0887 83.7359 41.3192V42.7566C83.7359 43.0921 83.7535 43.3084 83.7888 43.4054C83.8049 43.4515 83.8354 43.4897 83.8771 43.5167C83.9188 43.5421 83.9669 43.5533 84.015 43.5485C84.2075 43.5517 84.3278 43.4117 84.376 43.1287L84.3776 43.1255ZM83.1087 41.6054L82.6322 41.7963C81.8799 42.1 81.5045 42.4816 81.5045 42.9427C81.4965 43.1017 81.5478 43.2591 81.6489 43.3831C81.6938 43.4372 81.7515 43.4801 81.8157 43.5087C81.8799 43.5374 81.9505 43.5517 82.021 43.5501C82.1879 43.5421 82.3515 43.496 82.4975 43.4149C82.714 43.302 82.9178 43.1669 83.1055 43.0111L83.1087 41.6039V41.6054Z" fill="#6E7080"/>
<path id="Vector_153" d="M84.9936 43.8902V42.7215H85.1636C85.3625 43.3957 85.7171 43.7328 86.2272 43.7328C86.3202 43.7391 86.4133 43.7248 86.4983 43.6914C86.5849 43.6565 86.6619 43.6024 86.7229 43.534C86.8288 43.4116 86.8865 43.2558 86.8865 43.0952C86.8897 43.0109 86.8753 42.9282 86.8464 42.8503C86.8159 42.7724 86.771 42.7008 86.7133 42.6404C86.5945 42.5212 86.3619 42.3781 86.0171 42.2111C85.7283 42.0839 85.4652 41.909 85.239 41.6912C85.0818 41.5226 84.9968 41.3 85.0032 41.0694C85.008 40.823 85.0979 40.5861 85.2567 40.3984C85.3417 40.2935 85.4508 40.2092 85.5743 40.1536C85.6978 40.0979 85.8342 40.0725 85.9705 40.0788C86.1197 40.0772 86.2689 40.1106 86.4037 40.1758C86.5384 40.241 86.6555 40.338 86.7453 40.4573C86.8175 40.3619 86.8753 40.2537 86.9154 40.1408H87.0774V41.2396H86.9186C86.8673 40.9883 86.7501 40.753 86.5801 40.559C86.5095 40.4716 86.4181 40.4 86.3154 40.3507C86.2128 40.3014 86.1005 40.276 85.9866 40.2744C85.908 40.2712 85.831 40.284 85.7572 40.311C85.685 40.338 85.6176 40.3809 85.5615 40.435C85.5101 40.4827 85.47 40.54 85.4428 40.6036C85.4155 40.6672 85.401 40.7355 85.3994 40.8055C85.3994 40.8818 85.4139 40.9565 85.446 41.0265C85.4764 41.0965 85.523 41.1585 85.5791 41.2094C85.6962 41.3254 85.9192 41.4574 86.2481 41.6037C86.7453 41.8263 87.0485 42.0426 87.1576 42.2524C87.2619 42.4417 87.318 42.6531 87.3244 42.8678C87.3293 43.0077 87.3052 43.1476 87.2523 43.278C87.1993 43.4084 87.1191 43.5261 87.0164 43.6231C86.9122 43.7201 86.7903 43.7948 86.6571 43.8457C86.524 43.895 86.3828 43.9188 86.24 43.914C86.0732 43.9125 85.908 43.8759 85.7572 43.8059C85.6064 43.736 85.47 43.6358 85.3609 43.5102C85.2711 43.6183 85.2053 43.7455 85.1684 43.8807L84.9952 43.8902H84.9936Z" fill="#6E7080"/>
<path id="Vector_154" d="M89.0634 40.0774V42.5563C89.0634 42.9347 89.0698 43.1732 89.081 43.2718C89.0842 43.3163 89.097 43.3592 89.1195 43.399C89.142 43.4387 89.1724 43.4721 89.2077 43.4976C89.3264 43.5612 89.4628 43.5882 89.5959 43.5771H89.689V43.7758H87.756V43.5771H87.9035C88.1105 43.5771 88.2468 43.5469 88.3094 43.4849C88.3703 43.4292 88.4088 43.3545 88.4185 43.2734C88.4297 43.1907 88.4345 42.9506 88.4345 42.5547V41.4782C88.4345 41.0616 88.4153 40.8072 88.3752 40.715C88.3623 40.6768 88.3431 40.6418 88.3158 40.6116C88.2885 40.5814 88.2565 40.5576 88.2196 40.5417C88.1073 40.513 87.9918 40.5019 87.8763 40.5067H87.7576V40.3063C88.1682 40.2761 88.5725 40.1982 88.9655 40.0758L89.065 40.079L89.0634 40.0774ZM88.2244 38.2631C88.2244 38.2027 88.2356 38.1439 88.2581 38.0882C88.2805 38.0326 88.3142 37.9833 88.3575 37.9403C88.3992 37.8974 88.449 37.8624 88.5035 37.8402C88.5596 37.8179 88.619 37.8052 88.6783 37.8068C88.7377 37.8068 88.7971 37.8179 88.8532 37.8402C88.9077 37.864 88.9575 37.8974 88.9976 37.9403C89.0393 37.9833 89.073 38.0326 89.0954 38.0882C89.1179 38.1439 89.1291 38.2027 89.1275 38.2615C89.1275 38.322 89.1179 38.3824 89.0954 38.438C89.073 38.4937 89.0393 38.5446 88.996 38.5875C88.9559 38.6304 88.9061 38.6654 88.8516 38.6877C88.7971 38.7099 88.7377 38.7226 88.6767 38.7211C88.6174 38.7211 88.5564 38.7099 88.5019 38.6877C88.4474 38.6654 88.396 38.6304 88.3559 38.5875C88.311 38.5461 88.2757 38.4953 88.2516 38.4396C88.2276 38.384 88.2147 38.3235 88.2147 38.2615H88.2212L88.2244 38.2631Z" fill="#6E7080"/>
<path id="Vector_155" d="M94.1582 41.0076V42.2447C94.1517 42.5484 94.163 42.8521 94.1902 43.1542C94.1966 43.2162 94.2159 43.2766 94.2464 43.3323C94.2769 43.3879 94.3186 43.4356 94.3683 43.4738C94.4646 43.5437 94.6442 43.5787 94.9105 43.5787H95.1078V43.7775H92.392V43.5787H92.5492C92.8026 43.5787 92.9791 43.5469 93.0769 43.4865C93.1267 43.4531 93.17 43.4086 93.2021 43.3577C93.2342 43.3068 93.255 43.2496 93.2646 43.1892C93.2999 42.8775 93.3128 42.5643 93.3031 42.2494V39.3571C93.3128 39.055 93.2983 38.7513 93.2646 38.4508C93.2582 38.3951 93.239 38.3411 93.2085 38.2918C93.178 38.2441 93.1379 38.2027 93.0898 38.1725C92.9967 38.1201 92.8042 38.0946 92.5043 38.0946H92.3952V37.8943L93.1411 37.8688C93.7363 37.8482 94.1999 37.8386 94.5335 37.8386C95.1447 37.8386 95.6179 37.8863 95.9484 37.9817C96.2644 38.0676 96.5468 38.2441 96.7617 38.489C96.9783 38.7465 97.0906 39.0741 97.0793 39.4096C97.0842 39.7069 97.0104 40.0011 96.8628 40.2603C96.7184 40.5051 96.5002 40.6991 96.242 40.8168C95.9725 40.944 95.4976 41.0092 94.8175 41.0092H94.163L94.1582 41.0076ZM94.1582 40.7882H94.5833C94.8624 40.7961 95.1415 40.7611 95.4094 40.6864C95.6308 40.6101 95.8153 40.459 95.934 40.2587C96.0816 40.017 96.1537 39.7371 96.1441 39.4557C96.1441 38.9692 96.0238 38.613 95.7832 38.3856C95.5426 38.1582 95.1527 38.0453 94.6121 38.0453C94.4148 38.0453 94.2624 38.0501 94.1582 38.0612V40.7882Z" fill="#6E7080"/>
<path id="Vector_156" d="M98.629 40.9854C98.7253 40.7294 98.8937 40.5052 99.1119 40.3366C99.2931 40.1792 99.5241 40.087 99.7647 40.0759C99.8498 40.0711 99.9332 40.0854 100.012 40.1156C100.09 40.1458 100.161 40.1935 100.22 40.2539C100.321 40.3493 100.381 40.4797 100.386 40.6181C100.386 40.6992 100.357 40.7771 100.301 40.8359C100.275 40.8645 100.243 40.8884 100.207 40.9043C100.172 40.9202 100.132 40.9281 100.094 40.9281C99.9476 40.9281 99.8369 40.8216 99.7615 40.6069C99.7086 40.4622 99.63 40.3907 99.5241 40.3907C99.399 40.3907 99.2498 40.475 99.075 40.6451C98.9161 40.7882 98.8006 40.9695 98.7381 41.173C98.6819 41.4194 98.6563 41.6723 98.6627 41.9235V42.5579C98.6627 42.9364 98.6675 43.1749 98.6771 43.2735C98.6803 43.318 98.6932 43.3609 98.714 43.4007C98.7349 43.4404 98.7654 43.4738 98.8022 43.4992C98.921 43.5628 99.0573 43.5899 99.1921 43.5787H99.314V43.7775H97.4114V43.5787H97.5045C97.6328 43.5883 97.7628 43.5628 97.8783 43.5072C97.9135 43.4849 97.944 43.4563 97.9681 43.4213C97.9905 43.3863 98.0066 43.3466 98.013 43.3053C98.0339 43.0572 98.0403 42.8076 98.0339 42.5579V41.5546C98.0339 41.173 98.029 40.9329 98.0194 40.8359C98.0162 40.7914 98.0034 40.7484 97.9825 40.7103C97.9617 40.6721 97.9312 40.6371 97.8943 40.6117C97.7756 40.5465 97.6392 40.5195 97.5045 40.5306H97.4114V40.335C97.7772 40.2826 98.1381 40.1967 98.4878 40.079C98.5825 40.3732 98.6306 40.6785 98.629 40.987V40.9854Z" fill="#6E7080"/>
<path id="Vector_157" d="M103.895 41.424H101.398C101.385 41.5941 101.38 41.7213 101.38 41.8056C101.38 42.4305 101.478 42.9012 101.675 43.2144C101.765 43.3655 101.895 43.4879 102.051 43.5722C102.206 43.6549 102.381 43.6946 102.558 43.6867C103.089 43.6867 103.466 43.4513 103.685 42.9791H103.895C103.804 43.2716 103.604 43.5197 103.336 43.6708C103.069 43.8298 102.766 43.9172 102.457 43.9204C102.147 43.9236 101.841 43.8457 101.571 43.693C101.297 43.5372 101.069 43.3146 100.907 43.0443C100.727 42.7374 100.639 42.3876 100.649 42.033C100.649 41.4701 100.815 41.0042 101.148 40.6322C101.302 40.4541 101.492 40.311 101.709 40.2156C101.924 40.1202 102.158 40.0725 102.396 40.0772C102.866 40.0772 103.228 40.2187 103.485 40.5034C103.729 40.7514 103.875 41.079 103.897 41.4256L103.895 41.424ZM103.13 41.2491C103.138 41.1903 103.143 41.1314 103.143 41.071C103.153 40.9661 103.138 40.8595 103.103 40.761C103.068 40.6624 103.012 40.5701 102.938 40.4954C102.864 40.4191 102.776 40.3603 102.676 40.3205C102.578 40.2808 102.471 40.2633 102.365 40.268C101.834 40.268 101.516 40.5956 101.415 41.2491H103.13Z" fill="#6E7080"/>
<path id="Vector_158" d="M104.468 43.7773V43.6421L106.844 40.4207H105.538C105.424 40.4143 105.309 40.4255 105.198 40.4525C105.108 40.5002 105.034 40.5733 104.985 40.6608C104.877 40.8309 104.792 41.0138 104.733 41.2046H104.571L104.629 40.2188H107.635V40.3762L105.273 43.5769H106.254C106.469 43.5865 106.683 43.569 106.894 43.5245C107.024 43.472 107.134 43.383 107.213 43.2669C107.346 43.0745 107.452 42.8646 107.527 42.6452H107.704L107.598 43.7773H104.471H104.468Z" fill="#6E7080"/>
<path id="Vector_159" d="M109.508 40.0774V42.5563C109.508 42.9347 109.515 43.1748 109.526 43.2718C109.529 43.3163 109.542 43.3592 109.565 43.399C109.587 43.4387 109.616 43.4721 109.653 43.4976C109.772 43.5612 109.908 43.5882 110.043 43.5771H110.136V43.7758H108.204V43.5771H108.353C108.56 43.5771 108.695 43.5469 108.758 43.4849C108.819 43.4292 108.857 43.3545 108.868 43.2734C108.878 43.1907 108.883 42.9506 108.883 42.5547V41.4782C108.883 41.0616 108.864 40.8072 108.823 40.715C108.811 40.6768 108.79 40.6418 108.763 40.6116C108.735 40.5814 108.702 40.5576 108.665 40.5417C108.552 40.513 108.437 40.5019 108.321 40.5067H108.203V40.3063C108.613 40.2761 109.018 40.1982 109.411 40.0758L109.507 40.079L109.508 40.0774ZM108.668 38.2631C108.668 38.2027 108.679 38.1439 108.702 38.0882C108.724 38.0326 108.759 37.9833 108.801 37.9403C108.843 37.8974 108.892 37.8624 108.947 37.8402C109.002 37.8179 109.061 37.8052 109.122 37.8068C109.181 37.8068 109.241 37.8163 109.297 37.8402C109.351 37.864 109.401 37.8974 109.441 37.9403C109.483 37.9833 109.516 38.0326 109.539 38.0882C109.561 38.1439 109.573 38.2027 109.571 38.2615C109.571 38.322 109.561 38.3824 109.539 38.438C109.516 38.4937 109.483 38.5446 109.439 38.5875C109.399 38.6304 109.35 38.6654 109.295 38.6877C109.241 38.7115 109.181 38.7226 109.12 38.7211C109.061 38.7211 109.002 38.7099 108.945 38.6877C108.889 38.6654 108.84 38.6304 108.799 38.5875C108.754 38.5461 108.719 38.4953 108.695 38.4396C108.671 38.384 108.658 38.3235 108.66 38.2615H108.666L108.668 38.2631Z" fill="#6E7080"/>
<path id="Vector_160" d="M113.668 40.5988V39.2091C113.668 38.8306 113.663 38.5921 113.654 38.4936C113.65 38.449 113.638 38.4061 113.617 38.3663C113.596 38.3266 113.565 38.2932 113.528 38.2678C113.41 38.2042 113.273 38.1771 113.139 38.1883H113.046V37.9895C113.439 37.9736 113.827 37.9116 114.205 37.8035H114.298V42.5848C114.292 42.836 114.298 43.0888 114.321 43.34C114.326 43.3814 114.342 43.4211 114.366 43.4561C114.39 43.4911 114.422 43.5197 114.459 43.5404C114.595 43.5944 114.743 43.6167 114.89 43.6056V43.8123C114.512 43.8155 114.135 43.8536 113.763 43.9252C113.719 43.7137 113.702 43.4975 113.71 43.2828C113.517 43.48 113.291 43.6437 113.042 43.7646C112.821 43.8711 112.579 43.9252 112.332 43.9252C112.102 43.9252 111.876 43.8759 111.669 43.7805C111.461 43.6851 111.278 43.5436 111.13 43.3703C110.795 43.0029 110.614 42.5212 110.625 42.0251C110.625 41.4463 110.797 40.9788 111.141 40.6195C111.297 40.4493 111.486 40.3142 111.698 40.2203C111.91 40.1281 112.139 40.0804 112.37 40.082C112.606 40.082 112.839 40.1249 113.057 40.2124C113.283 40.3046 113.49 40.435 113.67 40.5988H113.668ZM113.668 40.8516C113.495 40.699 113.299 40.5749 113.089 40.4811C112.904 40.4 112.706 40.3587 112.505 40.3571C112.348 40.3555 112.192 40.3873 112.049 40.4525C111.907 40.5177 111.782 40.6147 111.68 40.7355C111.461 40.9868 111.35 41.3986 111.35 41.9694C111.35 42.5402 111.462 42.9664 111.689 43.2494C111.786 43.3782 111.913 43.4831 112.059 43.5547C112.205 43.6263 112.365 43.6628 112.529 43.6628C112.746 43.6628 112.957 43.6103 113.147 43.5054C113.352 43.3861 113.532 43.2271 113.671 43.0363V40.8516H113.668Z" fill="#6E7080"/>
<path id="Vector_161" d="M118.554 41.424H116.053C116.041 41.5941 116.036 41.7213 116.036 41.8056C116.036 42.4305 116.134 42.9012 116.331 43.2144C116.421 43.3655 116.551 43.4879 116.706 43.5722C116.862 43.6549 117.037 43.6946 117.213 43.6867C117.744 43.6867 118.121 43.4513 118.341 42.9791H118.554C118.463 43.2716 118.262 43.5197 117.994 43.6708C117.73 43.8298 117.425 43.9172 117.115 43.9204C116.806 43.9236 116.499 43.8457 116.23 43.693C115.957 43.5372 115.728 43.313 115.567 43.0443C115.388 42.7374 115.298 42.3876 115.309 42.033C115.309 41.4701 115.474 41.0042 115.808 40.6322C115.962 40.4541 116.153 40.311 116.368 40.2156C116.583 40.1202 116.817 40.0725 117.054 40.0772C117.523 40.0772 117.887 40.2187 118.144 40.5034C118.387 40.7514 118.533 41.079 118.556 41.4256L118.554 41.424ZM117.789 41.2491C117.797 41.1903 117.802 41.1314 117.802 41.071C117.812 40.9661 117.797 40.8595 117.762 40.761C117.727 40.6624 117.67 40.5701 117.597 40.4954C117.523 40.4191 117.435 40.3603 117.335 40.3205C117.237 40.2808 117.13 40.2633 117.024 40.268C116.493 40.268 116.177 40.5956 116.074 41.2491H117.789Z" fill="#6E7080"/>
<path id="Vector_162" d="M120.125 40.0773H120.242C120.319 40.3142 120.357 40.5622 120.356 40.8119C120.539 40.5861 120.763 40.3985 121.017 40.2554C121.238 40.1345 121.487 40.0709 121.739 40.0693C121.986 40.0598 122.23 40.1218 122.44 40.2474C122.606 40.346 122.732 40.5018 122.791 40.6831C122.852 40.9295 122.879 41.1824 122.871 41.4368V42.5482C122.865 42.7994 122.871 43.0491 122.892 43.2987C122.898 43.3401 122.913 43.3798 122.937 43.4148C122.961 43.4498 122.993 43.4784 123.03 43.4991C123.165 43.5547 123.311 43.577 123.457 43.5674V43.7662H121.625V43.5674H121.708C121.918 43.5674 122.056 43.5372 122.119 43.4752C122.18 43.4196 122.22 43.3448 122.23 43.2621C122.238 43.1811 122.242 42.9425 122.242 42.5466V41.4018C122.249 41.1998 122.234 40.9979 122.201 40.7992C122.167 40.6704 122.088 40.5575 121.978 40.4811C121.844 40.3841 121.682 40.3349 121.517 40.3428C121.299 40.3428 121.087 40.408 120.908 40.5273C120.69 40.6783 120.502 40.8707 120.357 41.0933V42.5434C120.351 42.7947 120.357 43.0443 120.381 43.2939C120.388 43.3353 120.404 43.3766 120.428 43.4116C120.452 43.4466 120.484 43.4752 120.521 43.4959C120.657 43.5515 120.805 43.5738 120.953 43.5627V43.7614H119.141V43.5627C119.284 43.5722 119.427 43.5515 119.562 43.5007C119.599 43.4832 119.631 43.4577 119.656 43.4243C119.682 43.3925 119.7 43.3544 119.708 43.3146C119.737 43.057 119.746 42.7978 119.737 42.5387V41.4892C119.743 41.238 119.737 40.9868 119.713 40.7355C119.706 40.6942 119.69 40.6545 119.666 40.6195C119.642 40.5845 119.61 40.5559 119.573 40.5352C119.437 40.4795 119.289 40.4573 119.141 40.4684V40.2681C119.475 40.2315 119.804 40.1647 120.126 40.0693L120.125 40.0773Z" fill="#6E7080"/>
<path id="Vector_163" d="M126.113 40.4207H125.034V42.5689C125.026 42.7915 125.04 43.0157 125.077 43.2367C125.104 43.348 125.17 43.4466 125.263 43.5149C125.35 43.5817 125.455 43.6183 125.566 43.6199C125.776 43.6199 125.959 43.5022 126.113 43.2637L126.253 43.3464C126.171 43.5292 126.03 43.6819 125.852 43.7789C125.688 43.8727 125.504 43.922 125.316 43.9236C125.115 43.9268 124.92 43.86 124.762 43.7375C124.617 43.6326 124.511 43.48 124.466 43.305C124.416 43.0188 124.397 42.7279 124.406 42.4369V40.4223H123.885V40.2219C124.007 40.2172 124.127 40.1885 124.238 40.1377C124.349 40.0868 124.448 40.0136 124.528 39.923C124.734 39.6956 124.86 39.4094 124.891 39.1057H125.03V40.2172H126.11V40.4207H126.113Z" fill="#6E7080"/>
<path id="Vector_164" d="M127.706 40.0774V42.5563C127.706 42.9347 127.713 43.1748 127.724 43.2718C127.727 43.3163 127.74 43.3592 127.762 43.399C127.785 43.4387 127.814 43.4721 127.85 43.4976C127.969 43.5612 128.106 43.5882 128.24 43.5771H128.333V43.7758H126.402V43.5771H126.551C126.758 43.5771 126.893 43.5469 126.955 43.4849C127.016 43.4292 127.055 43.3545 127.066 43.2734C127.076 43.1907 127.08 42.9506 127.08 42.5547V41.4782C127.08 41.0616 127.061 40.8072 127.021 40.715C127.008 40.6768 126.987 40.6418 126.96 40.6116C126.933 40.5814 126.899 40.5576 126.862 40.5417C126.75 40.513 126.635 40.5019 126.519 40.5067H126.4V40.3063C126.811 40.2761 127.215 40.1982 127.608 40.0758L127.705 40.079L127.706 40.0774ZM126.866 38.2631C126.866 38.2027 126.877 38.1439 126.899 38.0882C126.922 38.0326 126.957 37.9833 126.999 37.9403C127.04 37.8974 127.09 37.8624 127.145 37.8402C127.199 37.8179 127.259 37.8052 127.32 37.8068C127.379 37.8068 127.438 37.8163 127.494 37.8402C127.549 37.864 127.599 37.8974 127.639 37.9403C127.68 37.9833 127.714 38.0326 127.737 38.0882C127.759 38.1439 127.77 38.2027 127.769 38.2615C127.769 38.322 127.759 38.3824 127.737 38.438C127.714 38.4937 127.68 38.5446 127.637 38.5875C127.597 38.6304 127.547 38.6654 127.493 38.6877C127.438 38.7115 127.379 38.7226 127.318 38.7211C127.259 38.7211 127.199 38.7099 127.143 38.6877C127.089 38.6638 127.037 38.6304 126.997 38.5875C126.952 38.5461 126.917 38.4953 126.893 38.4396C126.869 38.384 126.856 38.3235 126.858 38.2615H126.864L126.866 38.2631Z" fill="#6E7080"/>
<path id="Vector_165" d="M23.0663 54.8919H20.2719V54.4928C20.4451 54.4991 20.6184 54.4832 20.7884 54.4435C20.8397 54.4292 20.883 54.3989 20.9135 54.3544C20.944 54.3115 20.9568 54.259 20.9504 54.2065C20.9504 54.1159 20.9312 54.0253 20.8975 53.941L20.6168 53.2462H18.6966L18.5474 53.6294C18.4832 53.7756 18.4415 53.9331 18.4255 54.0921C18.4255 54.2654 18.4928 54.3751 18.6292 54.4212C18.7816 54.4705 18.942 54.4943 19.104 54.4912V54.8903H17.0619V54.4912C17.2063 54.4943 17.3491 54.4625 17.4774 54.3989C17.6138 54.3147 17.726 54.1954 17.803 54.0539C17.9346 53.8233 18.0469 53.5832 18.1383 53.3352L19.8484 48.8894H20.2638L22.0701 53.4751C22.2001 53.7995 22.2963 54.0189 22.3589 54.1334C22.4166 54.2447 22.5049 54.3353 22.6123 54.3989C22.7535 54.4689 22.9091 54.5007 23.0663 54.4912V54.8935V54.8919ZM20.4595 52.8216L19.6414 50.7689L18.8634 52.8216H20.4595Z" fill="#6E7080"/>
<path id="Vector_166" d="M29.6338 51.9997C29.6402 52.3956 29.5648 52.7867 29.4156 53.1524C29.2857 53.472 29.0932 53.763 28.8509 54.0111C28.6392 54.2273 28.3873 54.4022 28.1114 54.5263C27.5564 54.7695 26.8794 54.892 26.0773 54.892H23.3711V54.4929C23.5636 54.5008 23.7561 54.477 23.939 54.4213C23.9935 54.4054 24.0448 54.3768 24.0882 54.3402C24.1315 54.3036 24.1668 54.2575 24.1908 54.2067C24.2357 54.0747 24.255 53.9363 24.2502 53.798V50.0805C24.2502 49.8261 24.1972 49.6464 24.093 49.5414C23.9871 49.4365 23.7481 49.3856 23.3711 49.3856V48.9786L24.6448 48.9531C24.6881 48.9531 24.8662 48.9531 25.179 48.9436L25.7212 48.9356C26.1367 48.9309 26.5506 48.9563 26.9612 49.0135C27.2821 49.0612 27.5949 49.1455 27.8948 49.2648C28.1563 49.3713 28.3986 49.5176 28.6119 49.7004C28.8285 49.8849 29.0146 50.0995 29.1653 50.338C29.3177 50.5813 29.4348 50.8437 29.5134 51.1172C29.5953 51.4034 29.637 51.7007 29.6354 51.9981L29.6338 51.9997ZM28.2173 51.9742C28.2173 51.3636 28.1002 50.8532 27.8644 50.4398C27.6574 50.0518 27.3189 49.7481 26.9083 49.5828C26.7286 49.5128 26.5409 49.4683 26.3484 49.4508C26.1511 49.4317 25.8688 49.4238 25.5014 49.4238V53.5611C25.4966 53.7344 25.5078 53.9077 25.5367 54.0794C25.5479 54.1335 25.5736 54.1844 25.6089 54.2273C25.6442 54.2703 25.6907 54.3036 25.7421 54.3259C25.9105 54.3927 26.0902 54.4213 26.2714 54.4118C26.9805 54.4118 27.481 54.1653 27.7745 53.6708C28.0745 53.1556 28.2269 52.5705 28.2173 51.9758V51.9742Z" fill="#6E7080"/>
<path id="Vector_167" d="M38.5177 54.8919H35.5419V54.4928C35.7312 54.5023 35.9221 54.4769 36.1018 54.4164C36.1547 54.3974 36.2012 54.3687 36.2429 54.3306C36.283 54.2924 36.3151 54.2463 36.336 54.1954C36.3761 54.0666 36.3953 53.9331 36.3905 53.7979V50.1106L34.1511 54.895H33.8848L31.6181 50.1106V53.6135C31.6165 53.7566 31.6229 53.8981 31.6374 54.0396C31.6486 54.1302 31.6823 54.2177 31.7384 54.2924C31.8058 54.3687 31.8957 54.4228 31.9951 54.4467C32.1539 54.4848 32.3175 54.5023 32.4796 54.4959V54.895H30.2835V54.4959C30.4471 54.5007 30.6107 54.4832 30.7711 54.4435C30.869 54.4196 30.9588 54.364 31.023 54.2876C31.0759 54.2145 31.108 54.127 31.116 54.038C31.1289 53.8981 31.1353 53.7566 31.1337 53.6151V50.2807C31.1401 50.101 31.1257 49.9198 31.0952 49.7433C31.0807 49.6876 31.0535 49.6367 31.0166 49.5938C30.9797 49.5509 30.9315 49.5159 30.8786 49.4952C30.7599 49.4396 30.561 49.4109 30.2819 49.4094V49.0103H32.4507L34.419 53.1651L36.3921 49.0103H38.5144V49.4094C38.1503 49.4094 37.9145 49.4618 37.8086 49.5684C37.7027 49.6733 37.6482 49.853 37.6482 50.1042V53.8043C37.6434 53.9347 37.6626 54.065 37.7011 54.1907C37.7236 54.2431 37.7557 54.2908 37.7974 54.3306C37.8391 54.3703 37.8888 54.4005 37.9434 54.418C38.1262 54.48 38.3203 54.5087 38.5144 54.4991L38.5177 54.895V54.8919Z" fill="#6E7080"/>
<path id="Vector_168" d="M41.9169 54.8919H38.9075V54.4928C39.1 54.5007 39.2925 54.4769 39.4753 54.4212C39.5299 54.4053 39.5812 54.3767 39.6245 54.3401C39.6678 54.3036 39.7031 54.2574 39.7272 54.2066C39.7721 54.0746 39.7914 53.9363 39.7865 53.7979V50.0979C39.7865 49.8435 39.7336 49.6638 39.6261 49.5588C39.5203 49.4539 39.2796 49.403 38.9059 49.403V49.0039H41.9153V49.403C41.7228 49.3951 41.5303 49.4189 41.3458 49.4777C41.2912 49.4936 41.2399 49.5223 41.1982 49.5588C41.1549 49.5954 41.1196 49.6415 41.0955 49.6924C41.0506 49.8228 41.0314 49.9611 41.0362 50.0979V53.7979C41.0314 53.9315 41.0506 54.0666 41.0923 54.1938C41.1148 54.2447 41.1485 54.2908 41.1902 54.329C41.2319 54.3672 41.2816 54.3958 41.3346 54.4149C41.5206 54.4769 41.718 54.5023 41.9137 54.4928V54.8919H41.9169Z" fill="#6E7080"/>
<path id="Vector_169" d="M48.7635 49.4029C48.5565 49.3918 48.3496 49.4204 48.1555 49.4887C48.101 49.511 48.0512 49.5444 48.0127 49.5873C47.9726 49.6303 47.9437 49.6827 47.9277 49.7384C47.8924 49.9149 47.878 50.0961 47.8844 50.2774V54.9442H47.4817L43.6013 50.368V53.6102C43.5948 53.7898 43.6109 53.9711 43.6478 54.146C43.6638 54.2033 43.6943 54.2557 43.7344 54.3003C43.7745 54.3448 43.8242 54.3798 43.8804 54.402C44.0745 54.4736 44.2814 54.5054 44.4884 54.4942V54.8933H42.2842V54.4942C42.4783 54.5054 42.6741 54.4736 42.8537 54.402C42.9083 54.3782 42.9548 54.3432 42.9933 54.2987C43.0318 54.2541 43.0591 54.2017 43.0735 54.146C43.1072 53.9695 43.12 53.7898 43.1152 53.6102V50.6066C43.1152 50.3633 43.1088 50.1804 43.0959 50.0596C43.0863 49.9483 43.0542 49.8401 43.0029 49.74C42.9468 49.643 42.8617 49.5651 42.7607 49.519C42.6131 49.4538 42.4559 49.414 42.2939 49.4045V49.0054H44.0216L47.3983 52.9646V50.279C47.4031 50.1089 47.3887 49.9403 47.3518 49.7734C47.3358 49.7145 47.3069 49.6605 47.2684 49.6128C47.2283 49.5651 47.1802 49.5285 47.124 49.5015C46.9427 49.4283 46.7454 49.3965 46.5497 49.4092V49.0101H48.7635V49.4061V49.4029Z" fill="#6E7080"/>
<path id="Vector_170" d="M52.0841 54.8919H49.0747V54.4928C49.2672 54.5007 49.4597 54.4769 49.6425 54.4212C49.6971 54.4053 49.7484 54.3767 49.7917 54.3401C49.835 54.3036 49.8703 54.2574 49.8944 54.2066C49.9409 54.0746 49.9602 53.9363 49.9537 53.7979V50.0979C49.9537 49.8435 49.9008 49.6638 49.7933 49.5588C49.6858 49.4539 49.4468 49.403 49.0731 49.403V49.0039H52.0825V49.403C51.89 49.3951 51.6975 49.4189 51.513 49.4777C51.4585 49.4936 51.4087 49.5223 51.3654 49.5588C51.3221 49.5954 51.2868 49.6415 51.2627 49.6924C51.2162 49.8228 51.197 49.9611 51.2034 50.0979V53.7979C51.1986 53.9315 51.2178 54.0666 51.2595 54.1938C51.2836 54.2447 51.3157 54.2908 51.3574 54.329C51.3991 54.3672 51.4488 54.3958 51.5018 54.4149C51.6895 54.4769 51.8852 54.5023 52.0825 54.4928V54.8919H52.0841Z" fill="#6E7080"/>
<path id="Vector_171" d="M57.0089 53.2032C57.0057 53.4019 56.9656 53.5991 56.8902 53.7835C56.8051 53.9966 56.6848 54.1954 56.534 54.3687C56.3688 54.5611 56.1635 54.7169 55.9325 54.825C55.6694 54.9459 55.3822 55.0063 55.0919 54.9999C54.7678 54.9999 54.4486 54.9284 54.1535 54.7964C53.8438 54.6612 53.5727 54.453 53.3642 54.189C53.2776 54.3782 53.2182 54.5786 53.1845 54.7837H52.7819V52.7691H53.1845C53.2551 53.0505 53.3562 53.3256 53.4861 53.5848C53.6161 53.8408 53.8021 54.0666 54.0315 54.2415C54.2786 54.4307 54.5834 54.5293 54.8962 54.5197C55.1577 54.5325 55.4127 54.445 55.6116 54.2765C55.6983 54.2001 55.7672 54.1063 55.8138 53.9998C55.8603 53.8932 55.8827 53.7788 55.8795 53.6643C55.8827 53.5371 55.8539 53.4115 55.7961 53.2986C55.7368 53.1905 55.655 53.095 55.5555 53.0203C55.4207 52.9186 55.2764 52.8295 55.1256 52.7548C54.9395 52.6625 54.7358 52.5608 54.5016 52.4574C54.1903 52.3175 53.8952 52.1458 53.6177 51.9486C53.4187 51.8087 53.2439 51.6417 53.0947 51.4509C52.9888 51.3126 52.9054 51.1584 52.8493 50.993C52.8044 50.8515 52.7819 50.7036 52.7819 50.5541C52.7851 50.2806 52.8589 50.0119 52.9952 49.775C53.1444 49.5127 53.361 49.2948 53.6241 49.1453C53.9144 48.9784 54.2449 48.8941 54.5802 48.9005C54.8545 48.9005 55.1272 48.9641 55.3726 49.0849C55.6229 49.2074 55.8458 49.3791 56.0255 49.5906C56.0897 49.4252 56.1394 49.2535 56.1699 49.0786H56.5806V50.7195H56.1699C55.8779 49.8243 55.3694 49.3775 54.6459 49.3775C54.4165 49.3664 54.192 49.4395 54.0139 49.5842C53.9369 49.6494 53.8743 49.7305 53.8342 49.8227C53.7925 49.9149 53.7733 50.0151 53.7765 50.1153C53.7733 50.2759 53.8246 50.4333 53.9241 50.5605C54.0315 50.6941 54.1647 50.8038 54.3155 50.8849C54.4775 50.9755 54.739 51.1043 55.1015 51.2713C55.4528 51.4318 55.7945 51.6099 56.1282 51.8055C56.372 51.9534 56.5838 52.1474 56.7538 52.3748C56.9271 52.6149 57.0153 52.9058 57.0073 53.2016L57.0089 53.2032Z" fill="#6E7080"/>
<path id="Vector_172" d="M63.5009 50.6768H63.0854C63.0469 50.311 62.9667 50.0423 62.8416 49.869C62.7502 49.7195 62.609 49.6066 62.4422 49.5478C62.2818 49.5049 62.1149 49.4842 61.9481 49.4874H61.1957V53.7996C61.1909 53.9332 61.2086 54.0683 61.2487 54.1971C61.2711 54.248 61.3048 54.2941 61.3465 54.3323C61.3882 54.3705 61.438 54.3991 61.4925 54.4166C61.6722 54.4754 61.8631 54.5024 62.0524 54.4945V54.8936H59.0831V54.4945C59.4472 54.4945 59.6814 54.442 59.7873 54.3371C59.8916 54.2321 59.9445 54.054 59.9445 53.7996V49.4874H59.3141C59.1071 49.4826 58.9002 49.5033 58.6964 49.5462C58.5184 49.5955 58.3644 49.71 58.2649 49.8658C58.1414 50.0407 58.0708 50.311 58.0532 50.6768H57.6377V49.0088H63.4993V50.6768H63.5009Z" fill="#6E7080"/>
<path id="Vector_173" d="M70.3732 54.8919H68.7867C68.7097 54.8029 68.6375 54.7107 68.5701 54.6137C68.4851 54.4896 68.3904 54.3481 68.291 54.1859L68.0375 53.7805L67.6349 53.1206C67.5113 52.9123 67.375 52.7104 67.2258 52.518C67.1456 52.4178 67.0349 52.3447 66.9098 52.3097C66.7125 52.2731 66.5103 52.2572 66.3082 52.2636H66.0852V53.7996C66.0804 53.9315 66.0981 54.0635 66.1366 54.1907C66.159 54.2448 66.1927 54.2925 66.2344 54.3306C66.2777 54.3704 66.3275 54.399 66.3836 54.4165C66.5665 54.4769 66.7574 54.5024 66.9499 54.4944V54.8935H63.9709V54.4944C64.3335 54.4944 64.5661 54.4419 64.6688 54.3386C64.7714 54.2336 64.8244 54.054 64.8244 53.7996V50.082C64.8244 49.8308 64.7746 49.6527 64.6736 49.5462C64.5725 49.4412 64.3383 49.3872 63.9709 49.3872V48.9801L65.3441 48.9372C65.45 48.9308 65.5687 48.9276 65.7051 48.9244C65.8414 48.9213 65.9665 48.9197 66.0788 48.9197C66.1719 48.9197 66.3194 48.9197 66.5296 48.9292C66.8248 48.9372 67.1007 48.9547 67.3557 48.9817C67.5611 48.9992 67.7648 49.0326 67.9637 49.0819C68.1851 49.1391 68.3968 49.2329 68.5861 49.3601C68.7834 49.4889 68.9487 49.6606 69.0674 49.8642C69.1957 50.0852 69.2599 50.3348 69.2535 50.5892C69.2535 50.7864 69.2086 50.982 69.1251 51.1617C69.0289 51.3572 68.8877 51.5274 68.7097 51.6578C68.4819 51.8183 68.2268 51.9344 67.9541 52.0012C68.1626 52.122 68.3455 52.2779 68.4963 52.4639C68.6455 52.6499 68.8797 52.9886 69.1957 53.4831C69.3353 53.7026 69.4877 53.9156 69.6513 54.1192C69.7411 54.2368 69.8534 54.3354 69.9818 54.4101C70.1021 54.4658 70.232 54.4992 70.3652 54.5087L70.3684 54.8935L70.3732 54.8919ZM67.9156 50.5733C67.9156 50.1043 67.7712 49.7942 67.4841 49.64C67.1969 49.4857 66.8216 49.4094 66.3579 49.4094H66.082V51.777H66.3628C66.7429 51.7897 67.1231 51.7166 67.4712 51.5655C67.7648 51.424 67.9156 51.0933 67.9156 50.5733Z" fill="#6E7080"/>
<path id="Vector_174" d="M76.4578 54.892H73.6585V54.4929C73.8318 54.4992 74.005 54.4833 74.1751 54.4436C74.2264 54.4293 74.2697 54.3991 74.3002 54.3545C74.3307 54.31 74.3435 54.2591 74.3371 54.2067C74.3371 54.116 74.3179 54.0254 74.2842 53.9411L74.0034 53.2463H72.08L71.9357 53.6279C71.8715 53.7758 71.8298 53.9316 71.8137 54.0906C71.8137 54.2639 71.8811 54.3736 72.0175 54.4197C72.1699 54.469 72.3303 54.4929 72.4923 54.4897V54.8888H70.455V54.4897C70.5994 54.4929 70.7422 54.4611 70.8705 54.3975C71.0085 54.3132 71.1207 54.194 71.1961 54.0524C71.3277 53.8235 71.44 53.5818 71.5298 53.3337L73.2398 48.8879H73.6569L75.4632 53.4737C75.5932 53.798 75.6894 54.0175 75.752 54.1304C75.8097 54.2417 75.898 54.3339 76.0054 54.3959C76.1466 54.4659 76.3022 54.4977 76.4594 54.4881V54.892H76.4578ZM73.851 52.8217L73.0329 50.769L72.2549 52.8217H73.851Z" fill="#6E7080"/>
<path id="Vector_175" d="M82.228 50.6768H81.8125C81.774 50.311 81.6938 50.0423 81.5703 49.869C81.4772 49.7195 81.3361 49.6066 81.1692 49.5478C81.0088 49.5049 80.842 49.4842 80.6751 49.4874H79.9228V53.7996C79.918 53.9332 79.9356 54.0683 79.9757 54.1971C79.9982 54.248 80.0319 54.2941 80.0752 54.3323C80.1169 54.3705 80.1666 54.3991 80.2212 54.4166C80.4008 54.4754 80.5917 54.5024 80.781 54.4945V54.8936H77.8069V54.4945C78.171 54.4945 78.4068 54.442 78.5111 54.3371C78.6154 54.2321 78.6683 54.054 78.6683 53.7996V49.4874H78.0379C77.8309 49.4826 77.624 49.5033 77.4219 49.5462C77.2422 49.5955 77.0898 49.71 76.9904 49.8658C76.8652 50.0407 76.7963 50.311 76.7786 50.6768H76.3712V49.0088H82.2328L82.228 50.6768Z" fill="#6E7080"/>
<path id="Vector_176" d="M87.2153 53.2032C87.2121 53.4019 87.172 53.5991 87.0966 53.7835C87.0132 53.9982 86.8913 54.1954 86.7405 54.3687C86.5753 54.5611 86.3699 54.7169 86.1389 54.825C85.8759 54.9459 85.5887 55.0063 85.2984 54.9999C84.9743 54.9999 84.6551 54.9284 84.3599 54.7964C84.0503 54.6612 83.7792 54.453 83.5707 54.189C83.484 54.3782 83.4247 54.5786 83.391 54.7837H82.9884V52.7691H83.391C83.4616 53.0505 83.5626 53.3256 83.6926 53.5848C83.8225 53.8408 84.0086 54.0666 84.238 54.2415C84.485 54.4307 84.7898 54.5293 85.1027 54.5197C85.3625 54.5325 85.6192 54.4466 85.8181 54.2765C85.9047 54.2001 85.9737 54.1063 86.0202 53.9998C86.0668 53.8932 86.0892 53.7788 86.086 53.6643C86.0892 53.5371 86.0603 53.4115 86.0026 53.2986C85.9432 53.1905 85.8614 53.095 85.762 53.0203C85.6272 52.9186 85.4828 52.8295 85.3304 52.7548C85.1476 52.661 84.9406 52.5608 84.7064 52.4574C84.3952 52.3159 84.1001 52.1458 83.8225 51.9486C83.6252 51.8087 83.4488 51.6417 83.2996 51.4509C83.1937 51.3126 83.1103 51.1584 83.0541 50.993C83.0092 50.8515 82.9868 50.7036 82.9868 50.5541C82.99 50.2806 83.0638 50.0119 83.2001 49.775C83.3493 49.5127 83.5659 49.2964 83.8273 49.1453C84.1177 48.9784 84.4482 48.8941 84.7834 48.9005C85.0577 48.9005 85.3304 48.9641 85.5759 49.0849C85.8261 49.2074 86.0491 49.3791 86.2288 49.5906C86.2946 49.4252 86.3427 49.2535 86.3731 49.0786H86.7838V50.7195H86.3731C86.0812 49.8243 85.5727 49.3775 84.8508 49.3775C84.6214 49.3664 84.3952 49.4395 84.2188 49.5842C84.1418 49.6494 84.0808 49.7305 84.0391 49.8227C83.9974 49.9149 83.9781 50.0151 83.9813 50.1153C83.9781 50.2759 84.0311 50.4333 84.1289 50.5605C84.2364 50.6941 84.3695 50.8038 84.5203 50.8849C84.6824 50.9755 84.9438 51.1043 85.3048 51.2713C85.6561 51.4318 85.9994 51.6099 86.3314 51.8055C86.5753 51.9534 86.787 52.1474 86.9571 52.3748C87.1303 52.6149 87.2186 52.9058 87.2105 53.2016L87.2153 53.2032Z" fill="#6E7080"/>
<path id="Vector_177" d="M90.7846 54.8919H87.7752V54.4928C87.9677 54.5007 88.1602 54.4769 88.3431 54.4212C88.3976 54.4053 88.449 54.3783 88.4923 54.3401C88.5356 54.3036 88.5709 54.2574 88.5949 54.2066C88.6398 54.0746 88.6591 53.9363 88.6543 53.7979V50.0979C88.6543 49.8435 88.6013 49.6638 88.4939 49.5588C88.388 49.4539 88.1474 49.403 87.7736 49.403V49.0039H90.783V49.403C90.5905 49.3951 90.398 49.4189 90.2135 49.4777C90.159 49.4936 90.1077 49.5223 90.066 49.5588C90.0226 49.5954 89.9873 49.6415 89.9633 49.6924C89.9184 49.8228 89.8991 49.9611 89.9039 50.0979V53.7979C89.8991 53.9315 89.9184 54.0666 89.9601 54.1938C89.9825 54.2447 90.0162 54.2908 90.0579 54.329C90.0996 54.3672 90.1494 54.3958 90.2023 54.4149C90.3884 54.4769 90.5857 54.5023 90.7814 54.4928V54.8919H90.7846Z" fill="#6E7080"/>
<path id="Vector_178" d="M97.1981 49.4029C97.0585 49.4093 96.9221 49.4458 96.797 49.511C96.6719 49.5889 96.5628 49.6907 96.4778 49.8115C96.3719 49.9515 96.2163 50.1757 96.011 50.4889L94.7645 52.4033V53.793C94.7597 53.9218 94.7774 54.0506 94.8143 54.1746C94.8351 54.2271 94.8672 54.2732 94.9073 54.313C94.9474 54.3527 94.9955 54.3829 95.0485 54.4036C95.233 54.4688 95.4303 54.499 95.626 54.4879V54.887H92.639V54.4879C92.8283 54.4958 93.0176 54.472 93.1989 54.4163C93.2534 54.4004 93.3031 54.3718 93.3465 54.3352C93.3898 54.2987 93.4235 54.2526 93.4475 54.2017C93.4924 54.0697 93.5117 53.9314 93.5069 53.793V52.4781L92.0214 50.0182L91.9845 49.9594C91.9765 49.9451 91.9669 49.9308 91.9556 49.9181C91.8706 49.7591 91.7535 49.6207 91.6124 49.5094C91.476 49.4363 91.3236 49.3997 91.168 49.4013V49.0022H93.9464V49.4013C93.8069 49.4013 93.6946 49.4061 93.6144 49.414C93.5422 49.4188 93.4748 49.4442 93.4154 49.484C93.3898 49.5047 93.3689 49.5333 93.3545 49.5635C93.3416 49.5953 93.3352 49.6287 93.3384 49.6621C93.3416 49.732 93.3593 49.8004 93.3914 49.8624C93.4251 49.9403 93.5053 50.0866 93.632 50.3013L94.5544 51.8516L95.4351 50.4698C95.6212 50.1709 95.7158 49.9546 95.7158 49.8147C95.7158 49.6287 95.6565 49.5174 95.5361 49.4713C95.3757 49.4188 95.2073 49.3949 95.0372 49.4013V49.0022H97.1932L97.1965 49.4045L97.1981 49.4029Z" fill="#6E7080"/>
<path id="Vector_179" d="M102.487 54.892H99.6925V54.4929C99.8658 54.4992 100.039 54.4833 100.209 54.4436C100.259 54.4293 100.304 54.3975 100.333 54.3545C100.361 54.3116 100.376 54.2591 100.369 54.2067C100.369 54.116 100.35 54.0254 100.317 53.9411L100.036 53.2463H98.114L97.9697 53.6279C97.9039 53.7742 97.8622 53.9316 97.8461 54.0906C97.8461 54.2639 97.9135 54.3736 98.0499 54.4197C98.2039 54.469 98.3643 54.4929 98.5247 54.4897V54.8888H96.4826V54.4897C96.627 54.4929 96.7697 54.4611 96.8981 54.3975C97.036 54.3132 97.1483 54.194 97.2237 54.0524C97.3553 53.8235 97.4676 53.5818 97.559 53.3337L99.269 48.8879H99.6845L101.491 53.4737C101.622 53.798 101.719 54.0175 101.78 54.1304C101.837 54.2417 101.924 54.3323 102.033 54.3959C102.174 54.4643 102.331 54.4961 102.489 54.4881L102.485 54.892H102.487ZM99.8802 52.8217L99.0621 50.769L98.2825 52.8217H99.8786H99.8802Z" fill="#6E7080"/>
<path id="Vector_180" d="M107.312 53.2032C107.309 53.4019 107.269 53.5991 107.195 53.7835C107.11 53.9966 106.99 54.1954 106.839 54.3687C106.672 54.5611 106.469 54.7169 106.238 54.825C105.974 54.9459 105.687 55.0063 105.397 54.9999C105.075 54.9983 104.757 54.9284 104.463 54.7964C104.154 54.6612 103.883 54.453 103.674 54.189C103.587 54.3782 103.528 54.5786 103.494 54.7837H103.092V52.7691H103.494C103.565 53.0521 103.666 53.3256 103.798 53.5848C103.928 53.8408 104.114 54.0666 104.341 54.2415C104.588 54.4307 104.893 54.5277 105.206 54.5197C105.468 54.5325 105.723 54.445 105.922 54.2765C106.008 54.2001 106.077 54.1063 106.124 53.9998C106.17 53.8932 106.193 53.7788 106.189 53.6643C106.193 53.5371 106.164 53.4115 106.106 53.2986C106.047 53.1905 105.963 53.095 105.865 53.0203C105.731 52.9186 105.586 52.8295 105.434 52.7548C105.253 52.661 105.044 52.5608 104.81 52.4574C104.499 52.3159 104.203 52.1458 103.926 51.9486C103.729 51.8087 103.552 51.6417 103.403 51.4509C103.297 51.3126 103.214 51.1584 103.159 50.993C103.114 50.8515 103.092 50.7036 103.092 50.5541C103.095 50.2806 103.169 50.0119 103.307 49.775C103.454 49.5127 103.673 49.2948 103.934 49.1453C104.224 48.9784 104.555 48.8941 104.89 48.9005C105.164 48.9005 105.435 48.9641 105.681 49.0849C105.931 49.2074 106.154 49.3791 106.334 49.5906C106.398 49.4252 106.446 49.2535 106.478 49.0786H106.889V50.7195H106.477C106.185 49.8243 105.678 49.3775 104.954 49.3775C104.725 49.3664 104.5 49.4395 104.322 49.5842C104.245 49.6494 104.183 49.7305 104.141 49.8227C104.099 49.9149 104.08 50.0151 104.083 50.1153C104.08 50.2759 104.133 50.4333 104.232 50.5605C104.34 50.6941 104.473 50.8038 104.624 50.8849C104.786 50.9755 105.047 51.1043 105.408 51.2713C105.76 51.4318 106.101 51.6099 106.435 51.8055C106.677 51.9534 106.89 52.1474 107.061 52.3748C107.232 52.6149 107.32 52.9058 107.312 53.2016V53.2032Z" fill="#6E7080"/>
<path id="Vector_181" d="M110.882 54.8919H107.872V54.4928C108.065 54.5007 108.257 54.4769 108.442 54.4212C108.496 54.4053 108.548 54.3767 108.591 54.3401C108.634 54.3036 108.669 54.2574 108.694 54.2066C108.738 54.0746 108.758 53.9363 108.753 53.7979V50.0979C108.753 49.8435 108.7 49.6638 108.592 49.5588C108.487 49.4539 108.246 49.403 107.872 49.403V49.0039H110.882V49.403C110.689 49.3951 110.497 49.4189 110.314 49.4777C110.259 49.4936 110.208 49.5223 110.165 49.5588C110.121 49.5954 110.086 49.6415 110.062 49.6924C110.017 49.8228 109.998 49.9611 110.003 50.0979V53.7979C109.998 53.9315 110.017 54.0666 110.059 54.1938C110.083 54.2447 110.115 54.2908 110.157 54.329C110.198 54.3672 110.248 54.3958 110.301 54.4149C110.487 54.4769 110.684 54.5023 110.88 54.4928V54.8919H110.882Z" fill="#6E7080"/>
</g>
<defs>
<clipPath id="clip0_94_18339">
<rect width="128.333" height="55" fill="white"/>
</clipPath>
</defs>
</svg>
