<svg width="228" height="228" viewBox="0 0 228 228" fill="none" xmlns="http://www.w3.org/2000/svg">
<g id="logo" filter="url(#filter0_d_94_18262)">
<rect x="64" y="64" width="100" height="100" rx="50" fill="#57B4CA" shape-rendering="crispEdges"/>
<rect x="64.5" y="64.5" width="99" height="99" rx="49.5" stroke="white" stroke-opacity="0.23" shape-rendering="crispEdges"/>
<path id="Logo icon" d="M137.437 118.843C139.938 119.105 143.208 120.885 145.607 119.02C142.188 118.404 138.815 116.641 135.665 115.46C138.895 114.125 143.168 116.835 146 114.006C142.519 113.932 138.924 112.722 135.625 112.043C138.61 110.224 143.254 112.232 145.607 108.992C142.154 109.465 138.417 108.832 135.049 108.684C137.716 106.402 142.616 107.668 144.433 104.121C141.1 105.136 137.306 105.09 133.961 105.472C136.24 102.814 141.271 103.288 142.507 99.4774C139.368 100.995 135.619 101.554 132.372 102.449C134.206 99.466 139.254 99.1465 139.881 95.1879C137.032 97.1843 133.403 98.3194 130.338 99.7112C131.682 96.477 136.605 95.3704 136.605 91.3661C134.092 93.779 130.697 95.4674 127.888 97.3269C128.708 93.9045 133.414 92.0563 132.788 88.0977C130.685 90.8813 127.591 93.0774 125.107 95.3533C125.386 91.8624 129.739 89.2841 128.526 85.4738C126.885 88.5426 124.173 91.1779 122.076 93.836C121.808 90.3451 125.7 87.1166 123.888 83.5686C122.749 86.8656 120.47 89.9116 118.823 92.8435C118.014 89.421 121.353 85.6392 119 82.3936C118.39 85.816 116.629 89.1929 115.45 92.3472C114.117 89.113 116.823 84.8349 113.997 82C113.923 85.4852 112.715 89.0845 112.037 92.3872C110.22 89.3982 112.225 84.7494 108.989 82.3936C109.462 85.8503 108.83 89.5979 108.681 92.9633C106.402 90.2938 107.667 85.3882 104.123 83.5686C105.132 86.9055 105.092 90.7045 105.474 94.0528C102.819 91.7711 103.292 86.7344 99.4856 85.4966C101.001 88.6339 101.56 92.3929 102.454 95.6385C99.4457 93.7562 99.1039 88.7023 95.1726 88.0749C97.161 90.9269 98.3005 94.5604 99.6907 97.6292C96.4603 96.2831 95.3549 91.3547 91.3553 91.3547C93.7653 93.8702 95.4518 97.2699 97.3092 100.082C93.8907 99.2606 92.0447 94.5547 88.0906 95.1765C90.8653 97.2813 93.0645 100.379 95.3378 102.866C91.851 102.586 89.2757 98.2282 85.4698 99.4431C88.535 101.086 91.1673 103.801 93.8223 105.9C90.3354 106.168 87.1107 102.272 83.5668 104.086C86.86 105.227 89.9024 107.509 92.8309 109.163C89.4124 109.973 85.635 106.625 82.3931 108.98C85.8116 109.591 89.1845 111.353 92.3353 112.54C89.1048 113.869 84.8317 111.159 82 113.994C85.4812 114.063 89.0763 115.278 92.3751 115.951C89.3897 117.77 84.7462 115.763 82.3931 119.008C85.8458 118.529 89.5834 119.162 92.9506 119.316C90.2842 121.598 85.3843 120.326 83.5668 123.88C86.8998 122.87 90.6944 122.91 94.0388 122.528C91.7598 125.186 86.7289 124.712 85.4926 128.523C88.6262 127.005 92.3808 126.452 95.6227 125.551C93.7881 128.534 88.7401 128.853 88.1134 132.812C90.9622 130.821 94.5915 129.686 97.6567 128.289C96.3121 131.523 91.3895 132.63 91.3895 136.634C93.9021 134.221 97.2978 132.533 100.107 130.673C99.2862 134.096 94.5801 135.944 95.2068 139.902C97.3092 137.124 100.403 134.923 102.887 132.647C102.608 136.138 98.255 138.716 99.4685 142.532C101.109 139.457 103.821 136.799 105.918 134.164C106.186 137.655 102.294 140.883 104.106 144.431C105.246 141.14 107.525 138.088 109.171 135.157C109.98 138.579 106.642 142.361 108.995 145.606C109.604 142.184 111.365 138.807 112.544 135.653C113.878 138.893 111.171 143.165 114.003 146C114.071 142.515 115.279 138.916 115.957 135.613C117.775 138.602 115.769 143.251 119.005 145.606C118.532 142.15 119.165 138.408 119.319 135.042C121.598 137.706 120.327 142.612 123.877 144.431C122.868 141.094 122.908 137.296 122.526 133.947C125.181 136.229 124.708 141.266 128.514 142.503C126.999 139.36 126.44 135.607 125.546 132.356C128.526 134.193 128.845 139.246 132.799 139.874C130.81 137.022 129.671 133.388 128.281 130.319C131.511 131.666 132.617 136.594 136.616 136.594C134.206 134.084 132.52 130.679 130.662 127.867C134.081 128.688 135.927 133.4 139.881 132.772C137.106 130.667 134.907 127.57 132.634 125.083C136.121 125.363 138.696 129.721 142.507 128.506C139.436 126.863 136.781 124.148 134.149 122.048C137.636 121.78 140.861 125.676 144.405 123.862C141.117 122.722 138.069 120.44 135.141 118.791C135.886 118.587 136.674 118.587 137.42 118.791M126.064 121.404L120.777 119.122L118.646 124.478L116.538 119.179L111.251 121.461L113.53 116.173L108.186 114.04L113.53 111.907L111.251 106.613L116.538 108.895L118.663 103.539L120.794 108.889L126.082 106.607L123.803 111.901L129.147 114.034L123.803 116.168L126.064 121.404ZM118.276 97.1387C109.109 97.1387 101.183 104.286 101.183 113.914C101.183 123.543 109.24 130.684 118.276 130.684C122.631 130.687 126.829 129.059 130.047 126.121C126.953 131.124 119.222 134.717 114.806 134.717H111.638C110.139 134.517 108.653 134.225 107.189 133.845C104.089 132.893 101.249 131.242 98.8874 129.019C95.1441 125.596 92.4435 119.248 92.4435 115.261V112.534C92.4435 110.732 93.4805 107.189 94.0844 105.746C94.9831 103.536 96.2876 101.514 97.9302 99.7854C102.739 94.8 108.22 93.0888 113.228 93.0888C117.398 93.0698 121.474 94.319 124.919 96.6709C126.629 97.8118 128.959 99.9223 130.087 101.77C126.887 98.7695 122.66 97.1117 118.276 97.1387Z" fill="white"/>
</g>
<defs>
<filter id="filter0_d_94_18262" x="0" y="0" width="228" height="228" filterUnits="userSpaceOnUse" color-interpolation-filters="sRGB">
<feFlood flood-opacity="0" result="BackgroundImageFix"/>
<feColorMatrix in="SourceAlpha" type="matrix" values="0 0 0 0 0 0 0 0 0 0 0 0 0 0 0 0 0 0 127 0" result="hardAlpha"/>
<feOffset/>
<feGaussianBlur stdDeviation="32"/>
<feComposite in2="hardAlpha" operator="out"/>
<feColorMatrix type="matrix" values="0 0 0 0 0.341176 0 0 0 0 0.705882 0 0 0 0 0.792157 0 0 0 0.54 0"/>
<feBlend mode="normal" in2="BackgroundImageFix" result="effect1_dropShadow_94_18262"/>
<feBlend mode="normal" in="SourceGraphic" in2="effect1_dropShadow_94_18262" result="shape"/>
</filter>
</defs>
</svg>
