<svg width="18" height="18" viewBox="0 0 18 18" fill="none" xmlns="http://www.w3.org/2000/svg">
<g clip-path="url(#clip0_371_24372)">
<path d="M0 14.0625C0 16.2371 1.76288 18 3.9375 18H14.0625C16.2371 18 18 16.2371 18 14.0625V12H0V14.0625Z" fill="#73AF00"/>
<path d="M14.0625 0H3.9375C1.76288 0 0 1.76288 0 3.9375V6.00001H18V3.9375C18 1.76288 16.2371 0 14.0625 0Z" fill="#82AFFF"/>
<path d="M18 6.00012H0V12.0002H18V6.00012Z" fill="#FF4B55"/>
<path d="M9.64794 10.9644C8.58492 10.9644 7.72261 10.1021 7.72261 9.03806C7.72261 7.97602 8.58492 7.11178 9.64794 7.11178C10.0434 7.11178 10.4082 7.23342 10.7121 7.43929C10.7587 7.47083 10.8118 7.40966 10.7728 7.36912C10.3186 6.89683 9.67564 6.60869 8.96278 6.63302C7.73808 6.67482 6.7242 7.65673 6.64595 8.87964C6.5563 10.2804 7.66544 11.4445 9.04638 11.4445C9.72662 11.4445 10.338 11.1601 10.7745 10.7054C10.8131 10.6652 10.7599 10.605 10.7137 10.6363C10.4095 10.8426 10.0441 10.9644 9.64794 10.9644Z" fill="#F5F5F5"/>
<path d="M11.3335 7.8523L11.5333 8.41399L12.0717 8.15806C12.1123 8.13879 12.1546 8.18108 12.1353 8.22165L11.8794 8.76007L12.4411 8.95983C12.4834 8.97488 12.4834 9.03471 12.4411 9.04976L11.8794 9.24952L12.1353 9.78794C12.1546 9.82851 12.1123 9.8708 12.0717 9.85153L11.5333 9.5956L11.3335 10.1573C11.3185 10.1996 11.2587 10.1996 11.2436 10.1573L11.0439 9.5956L10.5054 9.85153C10.4649 9.8708 10.4226 9.82851 10.4418 9.78794L10.6978 9.24952L10.1361 9.04976C10.0938 9.03471 10.0938 8.97488 10.1361 8.95983L10.6978 8.76007L10.4418 8.22165C10.4226 8.18108 10.4649 8.13879 10.5054 8.15806L11.0439 8.41399L11.2436 7.8523C11.2587 7.80997 11.3185 7.80997 11.3335 7.8523Z" fill="#F5F5F5"/>
</g>
<defs>
<clipPath id="clip0_371_24372">
<rect width="18" height="18" rx="9" fill="white"/>
</clipPath>
</defs>
</svg>
