<svg width="18" height="18" viewBox="0 0 18 18" fill="none" xmlns="http://www.w3.org/2000/svg">
<g clip-path="url(#clip0_371_24381)">
<path d="M14.0625 0H3.9375C1.76288 0 0 1.76288 0 3.9375V14.0625C0 16.2371 1.76288 18 3.9375 18H14.0625C16.2371 18 18 16.2371 18 14.0625V3.9375C18 1.76288 16.2371 0 14.0625 0Z" fill="#82C3D2"/>
<path d="M1.921 16.7955C1.87846 16.668 1.7133 16.3258 1.70781 16.3144C1.66253 16.2127 1.6387 16.1002 1.6387 15.989C1.6387 15.8334 1.72894 15.6972 1.85821 15.6578C1.96333 15.6252 2.0715 15.6428 2.15542 15.7048C2.23913 15.7667 2.28715 15.8619 2.28715 15.9657C2.28715 16.0958 2.20376 16.1388 2.1679 16.1513C2.11239 16.1707 2.05931 16.1595 2.04218 16.1378C2.02774 16.1194 2.02921 16.0691 2.08103 15.9877C2.11313 15.9375 2.09843 15.8705 2.04809 15.8385C1.99764 15.8068 1.93106 15.8216 1.89885 15.8716C1.76079 16.088 1.83448 16.2235 1.87256 16.2718C1.94937 16.3687 2.0926 16.402 2.23073 16.357C2.18534 16.5496 2.14354 16.7315 2.31876 16.9068C2.33985 16.9279 2.36752 16.9384 2.39519 16.9384C2.42282 16.9384 2.45049 16.9279 2.47162 16.9068C2.51384 16.8646 2.51384 16.7962 2.47162 16.754C2.38506 16.6674 2.39635 16.5963 2.44195 16.4033C2.4693 16.2877 2.50326 16.1435 2.50326 15.9658C2.50326 15.7964 2.42208 15.6351 2.28642 15.5334C2.42208 15.4318 2.50326 15.2705 2.50326 15.1011C2.50326 14.9234 2.46926 14.7792 2.44195 14.6635C2.39635 14.4706 2.38506 14.3995 2.47162 14.3129C2.51384 14.2707 2.51384 14.2023 2.47162 14.1601C2.4294 14.1179 2.36102 14.1179 2.31879 14.1601C2.14354 14.3354 2.18534 14.5173 2.23076 14.7098C2.09263 14.6647 1.94941 14.698 1.87259 14.7951C1.83448 14.8434 1.76083 14.9789 1.89889 15.1953C1.93099 15.2455 1.99736 15.2603 2.04813 15.2284C2.09847 15.1963 2.11313 15.1294 2.08107 15.0792C2.02925 14.9977 2.02777 14.9475 2.04222 14.9291C2.05931 14.9074 2.11239 14.8962 2.16794 14.9156C2.20383 14.928 2.28719 14.9711 2.28719 15.1012C2.28719 15.205 2.23917 15.3002 2.15546 15.3621C2.07154 15.4241 1.96294 15.4419 1.85825 15.4091C1.72894 15.3696 1.63873 15.2335 1.63873 15.0779C1.63873 14.9667 1.66257 14.8542 1.70785 14.7524L2.41561 13.16C2.47376 13.0291 2.50333 12.89 2.50333 12.7467C2.50333 12.5623 2.41948 12.3939 2.28754 12.2912C2.41948 12.1884 2.50333 12.02 2.50333 11.8356C2.50333 11.6923 2.47376 11.5532 2.41561 11.4223L1.70785 9.8299C1.66257 9.72816 1.63873 9.61566 1.63873 9.50442C1.63873 9.34886 1.72898 9.2127 1.85825 9.17322C1.96336 9.1407 2.07154 9.15824 2.15546 9.22029C2.23917 9.28213 2.28719 9.37733 2.28719 9.48118C2.28719 9.61119 2.2038 9.65426 2.16794 9.66674C2.11243 9.68636 2.05934 9.67497 2.04222 9.65324C2.02777 9.63489 2.02925 9.58465 2.08107 9.50316C2.11317 9.45292 2.09847 9.38602 2.04813 9.35392C1.99768 9.32224 1.93109 9.33704 1.89889 9.38707C1.76083 9.60342 1.83452 9.73895 1.87259 9.78729C1.94941 9.88418 2.09263 9.91747 2.23076 9.87251C2.18538 10.065 2.14358 10.247 2.31879 10.4222C2.33989 10.4433 2.36756 10.4539 2.39522 10.4539C2.42286 10.4539 2.45052 10.4433 2.47165 10.4222C2.51388 10.38 2.51388 10.3116 2.47165 10.2694C2.3851 10.1828 2.39638 10.1117 2.44198 9.91878C2.46933 9.80311 2.50329 9.65893 2.50329 9.48118C2.50329 9.36288 2.4617 9.24982 2.39174 9.15694H2.39522C2.45495 9.15694 2.50329 9.1086 2.50329 9.04887C2.50329 8.98914 2.45495 8.9408 2.39522 8.9408H2.39174C2.4617 8.84792 2.50329 8.73485 2.50329 8.61655C2.50329 8.4388 2.4693 8.29466 2.44198 8.17896C2.39638 7.98602 2.3851 7.9149 2.47165 7.82835C2.51388 7.78613 2.51388 7.71775 2.47165 7.67552C2.42943 7.6333 2.36105 7.6333 2.31883 7.67552C2.14358 7.85078 2.18538 8.03275 2.2308 8.22526C2.09267 8.1803 1.94944 8.21359 1.87263 8.31048C1.83452 8.35882 1.76086 8.49435 1.89892 8.7107C1.93102 8.76094 1.9974 8.77549 2.04816 8.74385C2.0985 8.71176 2.11317 8.64485 2.0811 8.59461C2.02928 8.51312 2.02781 8.46292 2.04225 8.44453C2.05934 8.42281 2.11243 8.41159 2.16797 8.43103C2.20387 8.44348 2.28722 8.48654 2.28722 8.61659C2.28722 8.72044 2.2392 8.81564 2.15549 8.87748C2.07158 8.93953 1.96298 8.95708 1.85828 8.92456C1.72898 8.88508 1.63877 8.74892 1.63877 8.59335C1.63877 8.48211 1.6626 8.36958 1.70788 8.26787L2.41565 6.67544C2.4738 6.54455 2.50336 6.40547 2.50336 6.26214C2.50336 6.07774 2.41952 5.90935 2.28758 5.80662C2.41952 5.70386 2.50336 5.53546 2.50336 5.3511C2.50336 5.20777 2.4738 5.06865 2.41565 4.9378L1.70778 3.34522C1.6625 3.24348 1.63866 3.13098 1.63866 3.01971C1.63866 2.86415 1.72891 2.72799 1.85818 2.6885C1.96329 2.65598 2.07147 2.67353 2.15539 2.73558C2.23909 2.79742 2.28712 2.89262 2.28712 2.99647C2.28712 3.12652 2.20373 3.16958 2.16787 3.18203C2.11236 3.20143 2.05927 3.19004 2.04215 3.16853C2.0277 3.15018 2.02918 3.09994 2.081 3.01845C2.11309 2.96821 2.0984 2.90131 2.04806 2.86921C1.99761 2.83753 1.93102 2.85212 1.89882 2.90236C1.76076 3.11871 1.83445 3.25424 1.87252 3.30258C1.94934 3.39947 2.09256 3.43276 2.23069 3.3878C2.18531 3.58031 2.1435 3.76228 2.31872 3.93754C2.33982 3.95863 2.36749 3.96921 2.39515 3.96921C2.42279 3.96921 2.45045 3.95866 2.47158 3.93754C2.51381 3.89531 2.51381 3.82693 2.47158 3.78471C2.38503 3.69816 2.39631 3.62704 2.44191 3.4341C2.46926 3.31843 2.50322 3.17426 2.50322 2.99651C2.50322 2.87821 2.46163 2.76515 2.39167 2.67226H2.39515C2.45488 2.67226 2.50322 2.62392 2.50322 2.56419C2.50322 2.50446 2.45488 2.45612 2.39515 2.45612H2.39167C2.46163 2.36324 2.50322 2.25018 2.50322 2.13191C2.50322 1.95416 2.46923 1.80998 2.44191 1.69432C2.39631 1.50138 2.38503 1.43026 2.47158 1.34371C2.51381 1.30148 2.51381 1.23311 2.47158 1.19088C2.42936 1.14866 2.36098 1.14866 2.31876 1.19088C2.1435 1.36614 2.18531 1.54807 2.23073 1.74062C2.0926 1.69548 1.94937 1.72895 1.87256 1.82584C1.83445 1.87418 1.76079 2.00971 1.89885 2.22606C1.93095 2.2763 1.99733 2.29106 2.04809 2.25921C2.09843 2.22711 2.11309 2.16021 2.08103 2.10997C2.02921 2.02848 2.02774 1.97824 2.04218 1.95989C2.05927 1.93816 2.11236 1.92674 2.1679 1.94639C2.2038 1.95884 2.28715 2.0019 2.28715 2.13195C2.28715 2.2358 2.23913 2.331 2.15542 2.39284C2.0715 2.45489 1.96291 2.47243 1.85821 2.43991C1.72891 2.40043 1.6387 2.26427 1.6387 2.10871C1.6387 1.99747 1.66253 1.88497 1.70634 1.7864C1.7133 1.77184 1.8785 1.42966 1.921 1.30215C2.00513 1.04991 1.91963 0.923028 1.86127 0.870047C1.78315 0.798926 1.66907 0.781172 1.57081 0.824239C1.5559 0.830848 1.54356 0.840446 1.53059 0.849375C1.52419 0.844981 1.5179 0.840375 1.51143 0.836086C1.37056 0.946442 1.23756 1.06629 1.11304 1.19447C1.11867 1.22762 1.12721 1.2632 1.14018 1.30215C1.18272 1.42963 1.34788 1.77181 1.35337 1.78323C1.39865 1.88497 1.42249 1.99747 1.42249 2.10874C1.42249 2.26431 1.33224 2.40047 1.20297 2.43995C1.09796 2.47247 0.989677 2.45514 0.905759 2.39288C0.822052 2.33104 0.774028 2.23583 0.774028 2.13198C0.774028 2.00194 0.857419 1.95887 0.893278 1.94643C0.949001 1.92681 1.00177 1.9382 1.019 1.95993C1.03345 1.97828 1.03197 2.02852 0.980149 2.11001C0.948052 2.16025 0.962747 2.22715 1.01309 2.25925C1.06386 2.29134 1.13044 2.27633 1.16233 2.22609C1.30039 2.00974 1.2267 1.87422 1.18863 1.82588C1.11181 1.72898 0.968583 1.69552 0.830454 1.74066C0.852286 1.64806 0.873028 1.55791 0.869442 1.46981C0.764677 1.59989 0.667927 1.73672 0.580142 1.87963C0.56731 1.95507 0.557888 2.03882 0.557888 2.13195C0.557888 2.25021 0.599442 2.36331 0.669438 2.45616H0.665958C0.606228 2.45616 0.557888 2.5045 0.557888 2.56423C0.557888 2.62396 0.606228 2.6723 0.665958 2.6723H0.669438C0.599478 2.76518 0.557888 2.87824 0.557888 2.99654C0.557888 3.17429 0.591884 3.31847 0.6192 3.43413C0.664798 3.62707 0.676083 3.69819 0.589528 3.78475C0.547306 3.82697 0.547306 3.89535 0.589528 3.93757C0.610622 3.95866 0.63829 3.96925 0.665958 3.96925C0.693626 3.96925 0.721259 3.9587 0.742388 3.93757C0.917642 3.76232 0.875841 3.58035 0.830454 3.38783C0.968583 3.4328 1.11181 3.3995 1.18863 3.30261C1.22674 3.25427 1.30039 3.11875 1.16233 2.9024C1.13034 2.85216 1.06354 2.83718 1.01309 2.86924C0.962747 2.90134 0.948087 2.96824 0.980149 3.01848C1.03197 3.09997 1.03345 3.15021 1.019 3.16856C1.00181 3.19011 0.949036 3.2015 0.893278 3.18206C0.857384 3.16962 0.774028 3.12655 0.774028 2.99651C0.774028 2.89266 0.822052 2.79745 0.905759 2.73561C0.989677 2.67356 1.09817 2.65581 1.20297 2.68854C1.33227 2.72802 1.42249 2.86415 1.42249 3.01975C1.42249 3.13098 1.39861 3.24352 1.35337 3.34526L0.645603 4.93766C0.587454 5.06855 0.557888 5.20763 0.557888 5.35096C0.557888 5.53535 0.641735 5.70375 0.773677 5.80648C0.641735 5.90924 0.557888 6.0776 0.557888 6.262C0.557888 6.40533 0.587454 6.54444 0.645603 6.67529L1.35337 8.26773C1.39865 8.36947 1.42249 8.48197 1.42249 8.59321C1.42249 8.74877 1.33224 8.88494 1.20297 8.92442C1.09796 8.95715 0.989677 8.9396 0.905759 8.87734C0.822052 8.8155 0.774028 8.7203 0.774028 8.61645C0.774028 8.4864 0.857419 8.44334 0.893278 8.43089C0.949001 8.41149 1.00177 8.42267 1.019 8.44439C1.03345 8.46278 1.03197 8.51298 0.980149 8.59447C0.948052 8.64471 0.962747 8.71161 1.01309 8.74371C1.06386 8.77581 1.13044 8.76101 1.16233 8.71056C1.30039 8.49421 1.2267 8.35868 1.18863 8.31034C1.11181 8.21345 0.968583 8.18016 0.830454 8.22512C0.875841 8.03261 0.917642 7.85064 0.742388 7.67538C0.700165 7.63316 0.631786 7.63316 0.589564 7.67538C0.547341 7.71761 0.547341 7.78599 0.589564 7.82821C0.676118 7.91476 0.664833 7.98588 0.619235 8.17882C0.591884 8.29449 0.557923 8.43866 0.557923 8.61641C0.557923 8.73471 0.599478 8.84778 0.669474 8.94066H0.665993C0.606263 8.94066 0.557923 8.989 0.557923 9.04873C0.557923 9.10846 0.606263 9.1568 0.665993 9.1568H0.669474C0.599513 9.24968 0.557923 9.36274 0.557923 9.48104C0.557923 9.65876 0.591919 9.80294 0.619235 9.91863C0.664833 10.1116 0.676118 10.1827 0.589564 10.2692C0.547341 10.3115 0.547341 10.3798 0.589564 10.4221C0.610657 10.4432 0.638325 10.4537 0.665993 10.4537C0.693661 10.4537 0.721294 10.4432 0.742423 10.4221C0.917677 10.2468 0.875876 10.0648 0.830489 9.87237C0.968618 9.91733 1.11184 9.88404 1.18866 9.78715C1.22677 9.73881 1.30042 9.60328 1.16236 9.38693C1.13037 9.33669 1.06358 9.32172 1.01313 9.35378C0.962782 9.38588 0.948122 9.45278 0.980185 9.50302C1.032 9.58451 1.03348 9.63475 1.01903 9.6531C1.00184 9.67483 0.949071 9.68625 0.893313 9.6666C0.857419 9.65415 0.774063 9.61109 0.774063 9.48104C0.774063 9.37719 0.822087 9.28199 0.905794 9.22015C0.989712 9.1581 1.0982 9.14035 1.203 9.17308C1.33231 9.21256 1.42252 9.34872 1.42252 9.50428C1.42252 9.61552 1.39865 9.72805 1.3534 9.82976L0.645638 11.4222C0.587489 11.5531 0.557923 11.6922 0.557923 11.8355C0.557923 12.0199 0.641771 12.1883 0.773712 12.291C0.641771 12.3938 0.557923 12.5621 0.557923 12.7465C0.557923 12.8899 0.587489 13.029 0.645638 13.1598L1.3534 14.7523C1.39868 14.854 1.42252 14.9665 1.42252 15.0778C1.42252 15.2333 1.33227 15.3695 1.203 15.409C1.09799 15.4417 0.989712 15.424 0.905794 15.3619C0.822087 15.3001 0.774063 15.2049 0.774063 15.101C0.774063 14.971 0.857454 14.9279 0.893313 14.9155C0.949036 14.8961 1.00181 14.9072 1.01903 14.929C1.03348 14.9473 1.032 14.9976 0.980185 15.079C0.948087 15.1293 0.962782 15.1962 1.01313 15.2283C1.06389 15.2604 1.13048 15.2456 1.16236 15.1951C1.30042 14.9787 1.22674 14.8433 1.18866 14.7949C1.11184 14.6978 0.968618 14.6646 0.830489 14.7097C0.875876 14.5171 0.917677 14.3352 0.742423 14.16C0.7002 14.1177 0.631821 14.1177 0.589599 14.16C0.547376 14.2022 0.547376 14.2706 0.589599 14.3128C0.676153 14.3993 0.664868 14.4705 0.619271 14.6634C0.591919 14.7791 0.557958 14.9232 0.557958 15.101C0.557958 15.2704 0.639134 15.4317 0.774802 15.5333C0.639134 15.6349 0.557958 15.7962 0.557958 15.9656C0.557958 16.0103 0.560103 16.0528 0.563759 16.0934C0.654321 16.2435 0.754728 16.387 0.863888 16.5232C0.856575 16.4686 0.843743 16.4132 0.830489 16.3569C0.968618 16.4019 1.11184 16.3686 1.18866 16.2717C1.22677 16.2234 1.30042 16.0879 1.16236 15.8715C1.13037 15.8213 1.06358 15.8065 1.01313 15.8384C0.962782 15.8704 0.948122 15.9374 0.980185 15.9876C1.032 16.069 1.03348 16.1193 1.01903 16.1377C1.00184 16.1594 0.949071 16.1706 0.893313 16.1512C0.857419 16.1387 0.774063 16.0957 0.774063 15.9656C0.774063 15.8618 0.822087 15.7666 0.905794 15.7047C0.989712 15.6427 1.0982 15.6251 1.203 15.6576C1.33231 15.6971 1.42252 15.8333 1.42252 15.9889C1.42252 16.1001 1.39865 16.2126 1.35488 16.3112C1.34792 16.3257 1.18275 16.6679 1.14022 16.7954C1.13691 16.8053 1.13431 16.8147 1.1315 16.8243C1.19299 16.8867 1.25651 16.9471 1.32201 17.0053C1.3193 16.9711 1.32493 16.9245 1.34518 16.8638C1.37313 16.7802 1.47427 16.5627 1.53059 16.4446C1.58568 16.5599 1.68788 16.7796 1.71604 16.8638C1.75447 16.979 1.74104 17.0447 1.71572 17.0677C1.69874 17.0831 1.67382 17.0825 1.65821 17.0755C1.6387 17.0669 1.6387 17.0531 1.6387 17.0464C1.6387 16.9866 1.59036 16.9383 1.53063 16.9383C1.4709 16.9383 1.42256 16.9866 1.42256 17.0464C1.42256 17.0531 1.42256 17.0668 1.40308 17.0755C1.49558 17.1533 1.59169 17.227 1.69118 17.2963C1.75334 17.294 1.81388 17.2706 1.86131 17.2275C1.91963 17.1746 2.00509 17.0478 1.921 16.7955ZM1.34514 1.2337C1.30672 1.11846 1.32011 1.05279 1.34546 1.0298C1.36202 1.01419 1.38715 1.01482 1.40297 1.02199C1.42249 1.03064 1.42249 1.04435 1.42249 1.05114C1.42249 1.11087 1.47083 1.15921 1.53056 1.15921C1.59029 1.15921 1.63863 1.11087 1.63863 1.05114C1.63863 1.04439 1.63863 1.03068 1.65814 1.02199C1.67375 1.01482 1.69867 1.01419 1.71565 1.0298C1.741 1.05282 1.7544 1.11846 1.71597 1.2337C1.68802 1.31731 1.58688 1.53478 1.53056 1.65287C1.4755 1.53756 1.3733 1.31787 1.34514 1.2337ZM1.63831 2.56419C1.59739 2.59604 1.56114 2.63412 1.53059 2.67718C1.50004 2.63412 1.46379 2.59604 1.42287 2.56419C1.46379 2.53234 1.50004 2.49427 1.53059 2.4512C1.56111 2.49427 1.59739 2.53234 1.63831 2.56419ZM0.843181 5.02548L1.53059 3.47885L2.218 5.02548C2.26328 5.12722 2.28712 5.23972 2.28712 5.35099C2.28712 5.50656 2.19687 5.64272 2.0676 5.6822C1.9627 5.71493 1.8542 5.69718 1.77039 5.63513C1.68668 5.57329 1.63866 5.47808 1.63866 5.37423C1.63866 5.24419 1.72205 5.20116 1.75791 5.18868C1.81353 5.16927 1.86651 5.18045 1.88363 5.20218C1.89808 5.22053 1.8966 5.27077 1.84478 5.35226C1.81268 5.4025 1.82738 5.4694 1.87772 5.5015C1.92849 5.53338 1.99508 5.51879 2.02696 5.46834C2.16502 5.25199 2.09133 5.11647 2.05322 5.06813C1.9749 4.96934 1.8278 4.93555 1.687 4.98452C1.67093 4.99008 1.65473 4.99697 1.63866 5.00513V4.73175C1.6387 4.73182 1.63884 4.73193 1.63884 4.73193C1.64214 4.78881 1.68922 4.83377 1.74673 4.83377C1.80646 4.83377 1.8548 4.78543 1.8548 4.7257C1.8548 4.65522 1.80551 4.53294 1.63866 4.49504V4.29342C1.63866 4.23369 1.59032 4.18535 1.53059 4.18535C1.47086 4.18535 1.42252 4.23369 1.42252 4.29342V4.49504C1.25567 4.53294 1.20638 4.65522 1.20638 4.7257C1.20638 4.78543 1.25461 4.83736 1.31424 4.83736C1.37397 4.83736 1.4221 4.79261 1.4221 4.73288C1.42213 4.73266 1.42245 4.73245 1.42252 4.73224V5.00509C1.40645 4.99693 1.39025 4.99004 1.37418 4.98449C1.23338 4.93552 1.08615 4.9693 1.00796 5.06809C0.969849 5.11643 0.896196 5.25196 1.03425 5.46831C1.06635 5.51855 1.13304 5.5331 1.18349 5.50146C1.23384 5.46936 1.2485 5.40246 1.21643 5.35222C1.16461 5.27073 1.16314 5.22049 1.17759 5.20214C1.19457 5.18042 1.24758 5.1692 1.30331 5.18864C1.3392 5.20109 1.42256 5.24415 1.42256 5.3742C1.42256 5.47805 1.37453 5.57325 1.29083 5.63509C1.20691 5.69714 1.09852 5.7149 0.993614 5.68217C0.86431 5.64268 0.774099 5.50652 0.774099 5.35096C0.774028 5.23972 0.797899 5.12722 0.843181 5.02548ZM1.63936 5.80651C1.59668 5.83851 1.56163 5.87767 1.53059 5.91986C1.49955 5.87767 1.46446 5.83847 1.42182 5.80651C1.4645 5.77452 1.49955 5.73536 1.53059 5.69317C1.5616 5.73532 1.59668 5.77452 1.63936 5.80651ZM0.843181 6.58751C0.797899 6.48577 0.774063 6.37327 0.774063 6.262C0.774063 6.10643 0.86431 5.97027 0.993579 5.93079C1.09859 5.89831 1.20698 5.91581 1.29079 5.97786C1.3745 6.0397 1.42252 6.13491 1.42252 6.23876C1.42252 6.3688 1.33913 6.41187 1.30327 6.42431C1.24755 6.44393 1.19457 6.43254 1.17755 6.41081C1.1631 6.39246 1.16458 6.34222 1.2164 6.26073C1.2485 6.21049 1.2338 6.14359 1.18346 6.11149C1.13301 6.07961 1.06642 6.09441 1.03422 6.14465C0.896161 6.36103 0.969849 6.49652 1.00792 6.54486C1.08615 6.64365 1.23338 6.67744 1.37415 6.62847C1.39021 6.62291 1.40642 6.61602 1.42249 6.60786V6.8812L1.42227 6.88092C1.419 6.82415 1.37193 6.77918 1.31442 6.77918C1.25468 6.77918 1.20634 6.82752 1.20634 6.88725C1.20634 6.95777 1.25563 7.08001 1.42249 7.11791V7.31953C1.42249 7.37926 1.47083 7.4276 1.53056 7.4276C1.59029 7.4276 1.63863 7.37926 1.63863 7.31953V7.11791C1.80548 7.08001 1.85477 6.95774 1.85477 6.88725C1.85477 6.82752 1.80653 6.7756 1.74691 6.7756C1.68718 6.7756 1.63905 6.82035 1.63905 6.88008C1.63901 6.88029 1.6387 6.8805 1.6387 6.8805L1.63866 6.60786C1.65473 6.61602 1.67093 6.62291 1.687 6.62847C1.8278 6.67744 1.97493 6.64365 2.05322 6.54486C2.09133 6.49652 2.16499 6.361 2.02696 6.14465C1.99486 6.0942 1.92817 6.07943 1.87772 6.11149C1.82738 6.14359 1.81272 6.21049 1.84478 6.26073C1.8966 6.34222 1.89808 6.39246 1.88363 6.41081C1.86654 6.43254 1.81356 6.44397 1.75791 6.42431C1.72202 6.41187 1.63866 6.3688 1.63866 6.23876C1.63866 6.13491 1.68668 6.0397 1.77039 5.97786C1.85431 5.91581 1.96291 5.89831 2.0676 5.93079C2.19691 5.97027 2.28712 6.10643 2.28712 6.262C2.28712 6.37323 2.26328 6.48577 2.218 6.58751L1.53059 8.13414L0.843181 6.58751ZM1.63831 9.0488C1.59739 9.08065 1.56114 9.11872 1.53059 9.16179C1.50004 9.11872 1.46379 9.08065 1.42287 9.0488C1.46379 9.01695 1.50004 8.97887 1.53059 8.93581C1.56111 8.97887 1.59739 9.01695 1.63831 9.0488ZM0.843181 11.5101L1.53059 9.96349L2.218 11.5101C2.26328 11.6118 2.28712 11.7243 2.28712 11.8356C2.28712 11.9912 2.19687 12.1273 2.0676 12.1668C1.9627 12.1995 1.8542 12.1818 1.77039 12.1197C1.68668 12.0579 1.63866 11.9627 1.63866 11.8588C1.63866 11.7288 1.72205 11.6858 1.75791 11.6733C1.81353 11.6539 1.86651 11.6651 1.88363 11.6868C1.89808 11.7051 1.8966 11.7554 1.84478 11.8369C1.81268 11.8871 1.82738 11.954 1.87772 11.9861C1.92849 12.0182 1.99508 12.0034 2.02696 11.953C2.16502 11.7366 2.09133 11.6011 2.05322 11.5527C1.9749 11.4539 1.8278 11.4204 1.687 11.4691C1.67093 11.4747 1.65473 11.4816 1.63866 11.4897V11.2164L1.63887 11.2166C1.64214 11.2734 1.68922 11.3184 1.74673 11.3184C1.80646 11.3184 1.8548 11.27 1.8548 11.2103C1.8548 11.1398 1.80551 11.0175 1.63866 10.9797V10.778C1.63866 10.7183 1.59032 10.6699 1.53059 10.6699C1.47086 10.6699 1.42252 10.7183 1.42252 10.778V10.9797C1.25567 11.0175 1.20638 11.1398 1.20638 11.2103C1.20638 11.27 1.25461 11.322 1.31424 11.322C1.37397 11.322 1.4221 11.2772 1.4221 11.2175C1.42213 11.2173 1.42245 11.2171 1.42245 11.2171L1.42252 11.4897C1.40645 11.4815 1.39025 11.4747 1.37418 11.4691C1.23338 11.4203 1.08615 11.4539 1.00796 11.5527C0.969849 11.601 0.896196 11.7366 1.03425 11.9529C1.06635 12.0032 1.13304 12.0177 1.18349 11.9861C1.23384 11.954 1.2485 11.8871 1.21643 11.8368C1.16461 11.7553 1.16314 11.7051 1.17759 11.6867C1.19457 11.665 1.24758 11.6538 1.30331 11.6732C1.3392 11.6857 1.42256 11.7288 1.42256 11.8588C1.42256 11.9627 1.37453 12.0579 1.29083 12.1197C1.20691 12.1817 1.09852 12.1995 0.993614 12.1668C0.86431 12.1273 0.774099 11.9912 0.774099 11.8356C0.774028 11.7243 0.797899 11.6118 0.843181 11.5101ZM1.63936 12.2911C1.59668 12.3231 1.56163 12.3623 1.53059 12.4045C1.49955 12.3623 1.46446 12.3231 1.42182 12.2911C1.4645 12.2591 1.49955 12.22 1.53059 12.1778C1.5616 12.22 1.59668 12.2591 1.63936 12.2911ZM0.843181 13.0722C0.797899 12.9704 0.774063 12.8579 0.774063 12.7466C0.774063 12.5911 0.86431 12.4549 0.993579 12.4154C1.09859 12.3829 1.20698 12.4005 1.29079 12.4625C1.3745 12.5243 1.42252 12.6195 1.42252 12.7234C1.42252 12.8534 1.33913 12.8965 1.30327 12.909C1.24755 12.9284 1.19457 12.9172 1.17755 12.8955C1.1631 12.8771 1.16458 12.8268 1.2164 12.7454C1.2485 12.6951 1.2338 12.6282 1.18346 12.5961C1.13301 12.5645 1.06642 12.5793 1.03422 12.6293C0.896161 12.8457 0.969849 12.9812 1.00792 13.0295C1.08615 13.1283 1.23338 13.1623 1.37415 13.1131C1.39021 13.1075 1.40642 13.1007 1.42249 13.0925V13.3658C1.42245 13.3658 1.42231 13.3657 1.42231 13.3657C1.419 13.3088 1.37193 13.2638 1.31442 13.2638C1.25468 13.2638 1.20634 13.3122 1.20634 13.3719C1.20634 13.4424 1.25563 13.5647 1.42249 13.6026V13.8042C1.42249 13.8639 1.47083 13.9123 1.53056 13.9123C1.59029 13.9123 1.63863 13.8639 1.63863 13.8042V13.6026C1.80548 13.5647 1.85477 13.4424 1.85477 13.3719C1.85477 13.3122 1.80653 13.2602 1.74691 13.2602C1.68718 13.2602 1.63905 13.305 1.63905 13.3647C1.63901 13.3649 1.6387 13.3651 1.63863 13.3654V13.0925C1.65469 13.1007 1.6709 13.1076 1.68697 13.1131C1.82777 13.1623 1.9749 13.1283 2.05319 13.0295C2.0913 12.9812 2.16495 12.8456 2.02693 12.6293C1.99483 12.579 1.92814 12.5643 1.87769 12.5961C1.82734 12.6282 1.81268 12.6951 1.84475 12.7454C1.89657 12.8269 1.89804 12.8771 1.88359 12.8955C1.86651 12.9172 1.81353 12.9284 1.75788 12.909C1.72198 12.8965 1.63863 12.8534 1.63863 12.7234C1.63863 12.6195 1.68665 12.5243 1.77036 12.4625C1.85427 12.4005 1.96287 12.3827 2.06757 12.4154C2.19687 12.4549 2.28708 12.5911 2.28708 12.7466C2.28708 12.8579 2.26325 12.9704 2.21797 13.0722L1.53056 14.6187L0.843181 13.0722ZM1.53059 15.6464C1.50004 15.6033 1.46379 15.5653 1.42287 15.5334C1.46379 15.5016 1.50004 15.4635 1.53059 15.4204C1.56114 15.4635 1.59739 15.5016 1.63831 15.5334C1.59739 15.5653 1.56111 15.6033 1.53059 15.6464Z" fill="#FFE15A"/>
<path d="M9.50277 10.0624C10.6359 10.0624 11.5545 9.14384 11.5545 8.0107C11.5545 6.87757 10.6359 5.95898 9.50277 5.95898C8.36964 5.95898 7.45105 6.87757 7.45105 8.0107C7.45105 9.14384 8.36964 10.0624 9.50277 10.0624Z" fill="#FFE15A"/>
<path d="M9.65651 5.39441C9.65651 5.47938 9.58761 5.54829 9.50263 5.54829C9.41766 5.54829 9.34875 5.47938 9.34875 5.39441C9.34875 5.30944 9.50263 4.93274 9.50263 4.93274C9.50263 4.93274 9.65651 5.30944 9.65651 5.39441Z" fill="#FFE15A"/>
<path d="M9.34875 10.6267C9.34875 10.5417 9.41766 10.4728 9.50263 10.4728C9.58764 10.4728 9.65651 10.5417 9.65651 10.6267C9.65651 10.7117 9.50263 11.0883 9.50263 11.0883C9.50263 11.0883 9.34875 10.7117 9.34875 10.6267Z" fill="#FFE15A"/>
<path d="M12.1187 8.16445C12.0337 8.16445 11.9648 8.09554 11.9648 8.01057C11.9648 7.9256 12.0337 7.85669 12.1187 7.85669C12.2037 7.85669 12.5804 8.01057 12.5804 8.01057C12.5804 8.01057 12.2037 8.16445 12.1187 8.16445Z" fill="#FFE15A"/>
<path d="M6.8866 7.85669C6.97157 7.85669 7.04048 7.9256 7.04048 8.01057C7.04048 8.09554 6.97157 8.16445 6.8866 8.16445C6.80163 8.16445 6.42493 8.01057 6.42493 8.01057C6.42493 8.01057 6.80163 7.85669 6.8866 7.85669Z" fill="#FFE15A"/>
<path d="M11.4613 6.26946C11.4012 6.32955 11.3038 6.32955 11.2437 6.26946C11.1836 6.20938 11.1836 6.11193 11.2437 6.05185C11.3038 5.99173 11.6789 5.83423 11.6789 5.83423C11.6789 5.83423 11.5214 6.20935 11.4613 6.26946Z" fill="#FFE15A"/>
<path d="M7.54395 9.7516C7.60403 9.69152 7.70148 9.69152 7.76156 9.7516C7.82165 9.81172 7.82165 9.90914 7.76156 9.96922C7.70148 10.0293 7.32629 10.1868 7.32629 10.1868C7.32629 10.1868 7.48386 9.81172 7.54395 9.7516Z" fill="#FFE15A"/>
<path d="M11.2437 9.96922C11.1836 9.90914 11.1836 9.81169 11.2437 9.7516C11.3038 9.69152 11.4012 9.69152 11.4613 9.7516C11.5214 9.81172 11.6789 10.1869 11.6789 10.1869C11.6789 10.1869 11.3038 10.0293 11.2437 9.96922Z" fill="#FFE15A"/>
<path d="M7.76153 6.05188C7.82161 6.11196 7.82161 6.20942 7.76153 6.2695C7.70145 6.32958 7.60399 6.32958 7.54391 6.2695C7.48383 6.20942 7.32629 5.83423 7.32629 5.83423C7.32629 5.83423 7.70145 5.9918 7.76153 6.05188Z" fill="#FFE15A"/>
<path d="M8.64366 5.53474C8.67618 5.61328 8.63891 5.70328 8.56038 5.7358C8.48187 5.76832 8.39184 5.73106 8.35932 5.65252C8.3268 5.57401 8.32483 5.16711 8.32483 5.16711C8.32483 5.16711 8.61111 5.4562 8.64366 5.53474Z" fill="#FFE15A"/>
<path d="M10.3616 10.4864C10.3291 10.4079 10.3664 10.3178 10.4449 10.2853C10.5234 10.2528 10.6134 10.2901 10.646 10.3686C10.6785 10.4471 10.6804 10.854 10.6804 10.854C10.6804 10.854 10.3941 10.5649 10.3616 10.4864Z" fill="#FFE15A"/>
<path d="M11.9784 7.1516C11.8999 7.18412 11.8099 7.14685 11.7774 7.06831C11.7449 6.98977 11.7821 6.89977 11.8607 6.86725C11.9392 6.83473 12.3461 6.83276 12.3461 6.83276C12.3461 6.83276 12.0569 7.11908 11.9784 7.1516Z" fill="#FFE15A"/>
<path d="M7.02681 8.86954C7.10531 8.83702 7.19535 8.87429 7.22787 8.95283C7.26039 9.03133 7.22312 9.12137 7.14458 9.15389C7.06608 9.18641 6.65918 9.18838 6.65918 9.18838C6.65918 9.18838 6.94827 8.90206 7.02681 8.86954Z" fill="#FFE15A"/>
<path d="M10.6459 5.65252C10.6134 5.73106 10.5234 5.76832 10.4449 5.7358C10.3664 5.70328 10.3291 5.61325 10.3616 5.53474C10.3941 5.45624 10.6804 5.16711 10.6804 5.16711C10.6804 5.16711 10.6785 5.57398 10.6459 5.65252Z" fill="#FFE15A"/>
<path d="M8.35932 10.3686C8.39184 10.2901 8.48187 10.2528 8.56038 10.2853C8.63888 10.3178 8.67618 10.4079 8.64366 10.4864C8.61114 10.5649 8.32483 10.854 8.32483 10.854C8.32483 10.854 8.32676 10.4471 8.35932 10.3686Z" fill="#FFE15A"/>
<path d="M11.8607 9.15388C11.7822 9.12136 11.7449 9.03133 11.7774 8.95282C11.8099 8.87432 11.8999 8.83702 11.9784 8.86954C12.0569 8.90206 12.3461 9.18837 12.3461 9.18837C12.3461 9.18837 11.9392 9.1864 11.8607 9.15388Z" fill="#FFE15A"/>
<path d="M7.14458 6.86725C7.22309 6.89977 7.26039 6.98981 7.22787 7.06831C7.19535 7.14681 7.10531 7.18412 7.02681 7.1516C6.94827 7.11908 6.65918 6.83276 6.65918 6.83276C6.65918 6.83276 7.06604 6.83473 7.14458 6.86725Z" fill="#FFE15A"/>
<path d="M9.14317 5.4147C9.15977 5.49805 9.10562 5.57905 9.02227 5.59565C8.93891 5.61224 8.85791 5.5581 8.84132 5.47474C8.82473 5.39139 8.90218 4.99194 8.90218 4.99194C8.90218 4.99194 9.12658 5.33134 9.14317 5.4147Z" fill="#FFE15A"/>
<path d="M9.862 10.6063C9.84541 10.5229 9.89955 10.4419 9.9829 10.4254C10.0663 10.4088 10.1473 10.4629 10.1639 10.5463C10.1804 10.6296 10.103 11.0291 10.103 11.0291C10.103 11.0291 9.87859 10.6897 9.862 10.6063Z" fill="#FFE15A"/>
<path d="M12.0985 7.65111C12.0151 7.6677 11.9341 7.61356 11.9175 7.5302C11.9009 7.44685 11.9551 7.36581 12.0384 7.34925C12.1218 7.33266 12.5212 7.41011 12.5212 7.41011C12.5212 7.41011 12.1818 7.63455 12.0985 7.65111Z" fill="#FFE15A"/>
<path d="M6.90676 8.37006C6.99012 8.35346 7.07115 8.4076 7.08771 8.49096C7.10431 8.57431 7.05017 8.65531 6.96681 8.67191C6.88345 8.6885 6.48401 8.61105 6.48401 8.61105C6.48401 8.61105 6.82341 8.38661 6.90676 8.37006Z" fill="#FFE15A"/>
<path d="M11.084 5.92087C11.0368 5.99154 10.9412 6.01056 10.8705 5.96334C10.7999 5.91613 10.7809 5.82057 10.8281 5.74991C10.8753 5.67925 11.2125 5.45154 11.2125 5.45154C11.2125 5.45154 11.1312 5.85021 11.084 5.92087Z" fill="#FFE15A"/>
<path d="M7.92126 10.1003C7.96847 10.0296 8.06403 10.0106 8.13469 10.0578C8.20535 10.105 8.22437 10.2006 8.17716 10.2712C8.12994 10.3419 7.79272 10.5696 7.79272 10.5696C7.79272 10.5696 7.87404 10.1709 7.92126 10.1003Z" fill="#FFE15A"/>
<path d="M11.5923 9.59191C11.5217 9.54469 11.5027 9.44914 11.5499 9.37847C11.5971 9.30781 11.6926 9.28879 11.7633 9.336C11.834 9.38322 12.0617 9.72044 12.0617 9.72044C12.0617 9.72044 11.663 9.63916 11.5923 9.59191Z" fill="#FFE15A"/>
<path d="M7.41294 6.42919C7.4836 6.47641 7.50262 6.57196 7.45541 6.64262C7.40819 6.71329 7.31264 6.73231 7.24197 6.68509C7.17131 6.63788 6.9436 6.30066 6.9436 6.30066C6.9436 6.30066 7.34228 6.38198 7.41294 6.42919Z" fill="#FFE15A"/>
<path d="M8.17716 5.74991C8.22437 5.82057 8.20535 5.91613 8.13469 5.96334C8.06403 6.01056 7.96847 5.99154 7.92126 5.92087C7.87404 5.85021 7.79272 5.45154 7.79272 5.45154C7.79272 5.45154 8.12994 5.67921 8.17716 5.74991Z" fill="#FFE15A"/>
<path d="M10.8281 10.2712C10.7809 10.2006 10.7999 10.105 10.8705 10.0578C10.9412 10.0106 11.0368 10.0296 11.084 10.1003C11.1312 10.1709 11.2125 10.5696 11.2125 10.5696C11.2125 10.5696 10.8753 10.3419 10.8281 10.2712Z" fill="#FFE15A"/>
<path d="M11.7633 6.68509C11.6926 6.73231 11.5971 6.71329 11.5499 6.64262C11.5027 6.57196 11.5217 6.47641 11.5923 6.42919C11.663 6.38198 12.0617 6.30066 12.0617 6.30066C12.0617 6.30066 11.834 6.63788 11.7633 6.68509Z" fill="#FFE15A"/>
<path d="M7.24197 9.336C7.31264 9.28879 7.40819 9.30781 7.45541 9.37847C7.50262 9.44914 7.4836 9.54469 7.41294 9.59191C7.34228 9.63912 6.9436 9.72044 6.9436 9.72044C6.9436 9.72044 7.17131 9.38322 7.24197 9.336Z" fill="#FFE15A"/>
<path d="M10.164 5.47474C10.1474 5.5581 10.0664 5.61224 9.98302 5.59565C9.89967 5.57905 9.84553 5.49805 9.86212 5.4147C9.87871 5.33134 10.1031 4.99194 10.1031 4.99194C10.1031 4.99194 10.1805 5.39139 10.164 5.47474Z" fill="#FFE15A"/>
<path d="M8.84132 10.5464C8.85791 10.463 8.93891 10.4089 9.02227 10.4255C9.10562 10.4421 9.15977 10.5231 9.14317 10.6064C9.12658 10.6898 8.90218 11.0292 8.90218 11.0292C8.90218 11.0292 8.82473 10.6297 8.84132 10.5464Z" fill="#FFE15A"/>
<path d="M12.0384 8.67191C11.9551 8.65531 11.9009 8.57431 11.9175 8.49096C11.9341 8.4076 12.0151 8.35346 12.0985 8.37006C12.1818 8.38665 12.5212 8.61105 12.5212 8.61105C12.5212 8.61105 12.1218 8.68847 12.0384 8.67191Z" fill="#FFE15A"/>
<path d="M6.96681 7.34925C7.05017 7.36585 7.10431 7.44685 7.08771 7.5302C7.07112 7.61356 6.99012 7.6677 6.90676 7.65111C6.82341 7.63451 6.48401 7.41011 6.48401 7.41011C6.48401 7.41011 6.88345 7.33266 6.96681 7.34925Z" fill="#FFE15A"/>
<path d="M14.3289 8.55035C14.2689 8.52508 14.2001 8.55404 14.1751 8.61377C14.1751 8.61402 14.1751 8.61402 14.1751 8.61402C14.1746 8.61518 14.1723 8.6207 14.1683 8.63012C14.0794 8.83786 13.8954 9.14147 13.7096 9.42711C13.8826 8.87003 14.0409 8.27504 14.0519 8.23321C14.0685 8.1707 14.0314 8.10657 13.969 8.08956C13.9065 8.07279 13.8423 8.10911 13.8248 8.17137C13.744 8.4607 13.5789 8.84152 13.4265 9.16393C13.4545 8.8045 13.4598 8.4715 13.4601 8.44738C13.461 8.38371 13.4111 8.33108 13.3475 8.32809C13.2876 8.32992 13.2298 8.37359 13.2251 8.43725C13.0745 10.5098 11.0802 11.4368 10.886 11.5221C10.7845 11.5322 10.3113 11.5855 9.88174 11.7347C9.83301 11.7516 9.7916 11.7685 9.75025 11.7853C9.73493 11.7796 9.71844 11.7764 9.70111 11.7774C8.38289 11.8728 7.33182 11.332 6.57642 10.1735C6.00566 9.29816 5.82664 8.37935 5.82492 8.37014C5.81286 8.30626 5.75172 8.26513 5.68749 8.27638C5.62361 8.28854 5.58167 8.34993 5.59373 8.41381C5.59851 8.43915 5.67702 8.84022 5.89337 9.36802C5.60396 8.91116 5.4023 8.3577 5.33129 8.06952C5.32988 8.06375 5.32619 8.0594 5.32401 8.05405C5.32071 8.0459 5.31789 8.03774 5.31301 8.03067C5.30953 8.02568 5.30503 8.02202 5.30088 8.0177C5.29444 8.01092 5.28826 8.00427 5.28045 7.99921C5.27595 7.99629 5.27089 7.99485 5.26604 7.99256C5.25732 7.98852 5.24885 7.98451 5.23918 7.98272C5.2325 7.98142 5.22561 7.98226 5.21868 7.98216C5.21165 7.98209 5.20497 7.98026 5.19776 7.98152C5.19618 7.98177 5.19499 7.98282 5.19341 7.98318C5.19189 7.98346 5.19042 7.98297 5.18891 7.98335C5.18261 7.9849 5.1778 7.98884 5.17203 7.9913C5.16468 7.99446 5.15716 7.99685 5.15073 8.00132C5.1444 8.00568 5.13969 8.01134 5.13438 8.01679C5.12914 8.0222 5.12359 8.02695 5.11947 8.0332C5.11529 8.03957 5.113 8.0467 5.11009 8.05377C5.10724 8.06066 5.10397 8.06713 5.10246 8.07458C5.10091 8.08221 5.10161 8.09005 5.10165 8.09796C5.10165 8.10432 5.09992 8.11037 5.10101 8.11688C5.10147 8.11962 5.10239 8.12243 5.10284 8.12517V8.12559C5.10298 8.12612 5.10316 8.12679 5.1033 8.12725C5.17607 8.55612 5.34957 9.0007 5.5064 9.33972C5.25728 9.05706 5.04919 8.73141 4.9754 8.53858C4.97326 8.53295 4.969 8.52905 4.96612 8.52399C4.96173 8.51618 4.95793 8.50824 4.95202 8.5018C4.94787 8.49723 4.94274 8.49424 4.938 8.49041C4.93086 8.48468 4.92404 8.47884 4.91578 8.47491C4.91047 8.47238 4.90474 8.47157 4.89911 8.46984C4.89043 8.46721 4.88203 8.46433 4.87278 8.4638C4.8655 8.46331 4.85833 8.46513 4.85098 8.46608C4.8442 8.46696 4.83748 8.46608 4.8307 8.46819C4.8294 8.46861 4.82852 8.46963 4.82725 8.47009C4.82599 8.47048 4.82472 8.47027 4.82346 8.47072C4.81706 8.47318 4.81252 8.4779 4.80679 8.48127C4.80008 8.48528 4.79294 8.48851 4.78725 8.49365C4.78137 8.49892 4.77737 8.50539 4.77276 8.51165C4.7684 8.51752 4.76351 8.52283 4.76032 8.52936C4.75694 8.53625 4.75571 8.54374 4.75374 8.55113C4.75181 8.55837 4.74924 8.56515 4.74875 8.57275C4.74822 8.58034 4.75009 8.5879 4.7511 8.59563C4.75198 8.60228 4.75107 8.60889 4.75314 8.6155C4.88115 9.02848 5.18912 9.51982 5.43029 9.86593C5.2293 9.71104 5.08154 9.54348 5.03868 9.49293C5.03408 9.48741 5.02951 9.48189 5.0249 9.47637C4.98342 9.42648 4.91012 9.41938 4.85988 9.46006C4.80978 9.50098 4.80198 9.57449 4.84241 9.62483C4.84459 9.62757 4.85344 9.63861 4.86814 9.65588C5.04462 9.86593 5.237 10.062 5.4112 10.2274L5.17287 10.1259C5.11852 10.1024 5.05464 10.1236 5.02487 10.1753C4.99512 10.227 5.00855 10.2925 5.05623 10.3283C5.07943 10.3456 5.50148 10.6609 5.86689 10.8473C5.83241 10.8493 5.79198 10.8468 5.74669 10.8433C5.69143 10.8381 5.63708 10.8776 5.62361 10.9337C5.61039 10.99 5.63982 11.0474 5.69326 11.0695C5.70222 11.0732 5.81356 11.1191 5.95109 11.1681C5.91903 11.1812 5.89354 11.208 5.88296 11.243C5.8671 11.2951 5.88939 11.3517 5.93675 11.3788C5.94905 11.3859 6.11545 11.4813 6.32122 11.5658C6.3157 11.5744 6.31123 11.5835 6.30789 11.5937C6.29179 11.643 6.31018 11.6973 6.35307 11.727C6.38879 11.7515 7.188 12.2939 8.12139 12.2939C8.18264 12.2939 8.24458 12.2916 8.30684 12.2866C8.37153 12.2815 8.41991 12.2247 8.41474 12.16C8.40957 12.0952 8.35339 12.0462 8.288 12.0522C7.70163 12.1 7.13674 11.8798 6.80075 11.7116C6.84512 11.7008 6.8706 11.6909 6.87693 11.6884C6.92875 11.6672 6.95864 11.6127 6.94851 11.5578C6.93839 11.5029 6.89107 11.4627 6.8351 11.4615C6.69869 11.4588 6.5098 11.3923 6.34709 11.3211C6.40858 11.2903 6.44441 11.2609 6.44764 11.2584C6.48304 11.2287 6.49798 11.1814 6.48589 11.1368C6.47373 11.0924 6.43671 11.0591 6.39121 11.0518C6.34122 11.0435 6.27896 11.0274 6.21368 11.0076C6.2771 10.9711 6.3041 10.9309 6.31447 10.9104C6.33078 10.8778 6.33113 10.8397 6.31549 10.8068C6.29974 10.7739 6.26975 10.7503 6.23414 10.7427C6.20334 10.736 6.16853 10.7247 6.13085 10.71C6.13774 10.7031 6.14407 10.6953 6.14923 10.6864C6.17922 10.6356 6.16681 10.5703 6.12026 10.5338C6.11784 10.5319 6.0265 10.4602 5.88827 10.3409C5.91021 10.3329 5.92965 10.3179 5.94364 10.2977C5.97328 10.255 5.97124 10.1977 5.93868 10.1573C5.93608 10.1541 5.8446 10.0391 5.71857 9.86442C5.76016 9.89673 5.80178 9.92974 5.8433 9.95643C5.86285 9.96884 5.885 9.97506 5.90697 9.97506C5.93671 9.97506 5.96614 9.96381 5.98878 9.94198C5.9981 9.93298 6.00537 9.92261 6.0111 9.91157C6.08247 9.98782 6.1575 10.0571 6.23628 10.1162C6.24655 10.1239 6.25899 10.1237 6.27056 10.1276C6.30392 10.1835 6.33869 10.2396 6.37508 10.2956C7.08959 11.3951 8.09707 11.984 9.30546 12.0193C9.19419 12.0869 9.07343 12.1567 8.88214 12.2311C8.84041 12.2474 8.80353 12.2637 8.76641 12.28C8.74851 12.2836 8.73171 12.29 8.71768 12.3011C8.38387 12.4557 8.24567 12.6083 8.18956 12.7151C8.13359 12.8213 8.18186 12.9303 8.25024 12.9868C8.27151 13.0043 8.29851 13.0132 8.32562 13.0132C8.34421 13.0132 8.36285 13.0091 8.37976 13.0006C8.42135 12.9799 8.44916 12.936 8.44733 12.8898C8.45214 12.8845 8.47261 12.8675 8.53673 12.8654C8.58349 12.8615 8.68186 12.8721 8.79664 12.8813C8.90584 12.8903 9.03683 12.9005 9.17612 12.9077C9.089 13.0092 8.98771 13.127 8.98771 13.127C8.95727 13.1624 8.95059 13.2125 8.97084 13.2545C8.9912 13.2968 9.03496 13.323 9.08091 13.3214C9.17387 13.3181 9.23708 13.3163 9.27856 13.3154C9.31477 13.3628 9.35911 13.3816 9.38772 13.3889C9.46862 13.4096 9.54927 13.3772 9.61005 13.3388C9.656 13.3719 9.70198 13.386 9.73841 13.3912C9.82057 13.4025 9.89664 13.3786 9.95166 13.3515C10.0087 13.3882 10.0645 13.3977 10.107 13.3977C10.1076 13.3977 10.1083 13.3977 10.109 13.3977C10.2008 13.3972 10.2811 13.3528 10.338 13.3094C10.3882 13.3393 10.4362 13.3489 10.4733 13.3506C10.5575 13.3535 10.6274 13.3211 10.6738 13.2908C10.8396 13.3241 10.9826 13.246 11.0771 13.1598C11.1202 13.1849 11.1612 13.191 11.1938 13.1894C11.2778 13.1864 11.3418 13.1354 11.3828 13.0897C11.5708 13.1124 11.7057 13.0777 11.7838 12.9851C11.8263 12.9348 11.8435 12.8781 11.8482 12.8263C12.3698 12.8233 12.417 12.5386 12.4208 12.5035C12.4243 12.4715 12.4145 12.4396 12.3937 12.415C12.3731 12.3904 12.3431 12.3752 12.311 12.3734L10.9436 12.2911C10.8864 12.287 10.8354 12.3254 10.822 12.3812C10.8218 12.3821 10.7985 12.469 10.7255 12.5384C10.6273 12.6321 10.4693 12.6816 10.2974 12.7078C10.298 12.6921 10.2958 12.676 10.2898 12.6604C10.2663 12.5998 10.1981 12.5703 10.1376 12.5931C9.8553 12.7027 9.39823 12.6889 9.04066 12.664C9.09554 12.6191 9.16153 12.5748 9.2143 12.5458C9.25887 12.5212 9.28278 12.4709 9.27336 12.4208C9.2665 12.3844 9.24021 12.3591 9.20846 12.3428C9.30792 12.2926 9.38941 12.2441 9.46675 12.1969C9.60098 12.1146 9.72782 12.0372 9.9588 11.957C10.4047 11.8021 10.9206 11.7549 10.9257 11.7545C10.9374 11.7536 10.9489 11.7506 10.9599 11.7462C10.9783 11.7386 12.4336 11.129 13.1192 9.72225C13.1103 9.76475 13.1006 9.8036 13.0902 9.83763C13.0722 9.89554 13.1012 9.95738 13.157 9.98083C13.2002 9.99897 13.2493 9.98954 13.2825 9.95875C13.2392 10.073 13.2 10.1628 13.1681 10.2159C13.1354 10.2699 13.1512 10.34 13.2037 10.375C13.216 10.383 13.2292 10.3885 13.2427 10.3917C13.1897 10.4694 13.1359 10.5429 13.0822 10.6103C13.0465 10.6551 13.0485 10.719 13.0859 10.7613C12.9938 10.8578 12.9121 10.9373 12.85 10.9879C12.8094 11.0207 12.7962 11.0757 12.8149 11.1226C12.755 11.1568 12.7058 11.1809 12.6717 11.1913C12.6144 11.2085 12.5793 11.2662 12.5901 11.325C12.5957 11.356 12.6132 11.3823 12.6373 11.3995C12.5654 11.4188 12.4866 11.4374 12.4011 11.4544C12.353 11.464 12.3159 11.5024 12.3079 11.5509C12.3001 11.5994 12.3231 11.6477 12.3657 11.672C12.3694 11.6741 12.4096 11.6968 12.4711 11.723C12.2435 11.8147 11.837 11.9345 11.1701 12.0002C11.1055 12.0066 11.0582 12.0643 11.0646 12.1289C11.071 12.1935 11.1268 12.2383 11.1933 12.2346C12.4594 12.1094 12.8503 11.7925 12.8663 11.7789C12.9028 11.7483 12.9173 11.6985 12.9028 11.653C12.8932 11.6229 12.872 11.5985 12.8449 11.5845C13.2494 11.4572 13.423 11.3163 13.4321 11.3087C13.4765 11.2719 13.4876 11.2083 13.4584 11.1584C13.429 11.1085 13.3678 11.0869 13.3143 11.1085C13.2993 11.1143 13.2753 11.1202 13.2449 11.1262C13.5163 10.9403 13.8045 10.719 13.9313 10.6201C13.9536 10.6036 13.9738 10.5877 13.9916 10.5728C14.0408 10.5314 14.0477 10.4584 14.0071 10.4085C13.9668 10.3588 13.8933 10.3506 13.843 10.3903C13.8247 10.4048 13.8056 10.4198 13.7858 10.4351C13.7273 10.4786 13.6525 10.5278 13.5709 10.5783C13.879 10.2286 14.1891 9.84938 14.2777 9.74043C14.2858 9.73055 14.2937 9.72067 14.3017 9.71079C14.3424 9.66024 14.3345 9.58623 14.2839 9.54556C14.2332 9.50418 14.1591 9.51268 14.1186 9.56303L14.1183 9.56327L14.1182 9.56352C14.116 9.56605 14.106 9.57846 14.0892 9.59913C13.9964 9.71244 13.8987 9.82206 13.8023 9.92454C14.1161 9.35575 14.3538 8.79592 14.3886 8.71295C14.3899 8.70996 14.391 8.70697 14.3923 8.70399C14.4173 8.64411 14.3889 8.57517 14.3289 8.55035ZM8.81394 12.5168L8.84607 12.5209C8.80666 12.5577 8.7746 12.5991 8.74911 12.6417C8.69321 12.6372 8.64255 12.6332 8.60282 12.6314C8.65756 12.5957 8.72802 12.5569 8.81394 12.5168Z" fill="#FFE15A"/>
</g>
<defs>
<clipPath id="clip0_371_24381">
<rect width="18" height="18" rx="9" fill="white"/>
</clipPath>
</defs>
</svg>
