<svg width="18" height="18" viewBox="0 0 18 18" fill="none" xmlns="http://www.w3.org/2000/svg">
<g clip-path="url(#clip0_371_24383)">
<path d="M14.0625 0H3.9375C1.76288 0 0 1.76288 0 3.9375V14.0625C0 16.2371 1.76288 18 3.9375 18H14.0625C16.2371 18 18 16.2371 18 14.0625V3.9375C18 1.76288 16.2371 0 14.0625 0Z" fill="#FF4B55"/>
<path d="M14.0104 10.4127C14.0104 10.4127 13.0667 10.2554 12.3677 9.67571C12.1615 9.50471 11.8622 9.374 11.5707 9.27746C11.8051 9.26705 12.0536 9.27359 12.2884 9.32109C13.2614 9.51782 14.2048 9.0455 14.2048 9.0455C14.2048 9.0455 13.2529 9.14154 12.4262 8.76576C12.2027 8.66412 11.9126 8.61624 11.6296 8.59606C11.8332 8.53749 12.0492 8.49168 12.2625 8.47987C13.2536 8.42492 14.0475 7.73009 14.0475 7.73009C14.0475 7.73009 13.1506 8.06298 12.2558 7.90777C11.9953 7.86256 11.6754 7.89641 11.3777 7.95622C11.5736 7.83327 11.7891 7.71831 12.0128 7.64427C12.9552 7.33247 13.5401 6.45445 13.5401 6.45445C13.5401 6.45445 12.7613 7.00995 11.857 7.09373C11.5885 7.11862 11.2827 7.23913 11.0068 7.37797C11.166 7.20341 11.3477 7.03066 11.549 6.8971C12.376 6.34824 12.7092 5.34724 12.7092 5.34724C12.7092 5.34724 12.104 6.08819 11.2537 6.40706C11.0219 6.494 10.7816 6.66806 10.5659 6.85565C10.669 6.6682 10.7903 6.48057 10.9343 6.31955C11.5958 5.57951 11.6652 4.52683 11.6652 4.52683C11.6652 4.52683 11.2669 5.39663 10.5248 5.91997C10.3084 6.07251 10.1062 6.3231 9.93803 6.57619C9.98943 6.35049 10.0604 6.11642 10.1663 5.90555C10.6116 5.01842 10.4036 3.98412 10.4036 3.98412C10.4036 3.98412 10.2463 4.92775 9.66662 5.62676C9.49562 5.83299 9.36491 6.13224 9.26837 6.42379C9.25797 6.1894 9.26451 5.94092 9.312 5.706C9.50874 4.73306 9.03645 3.78967 9.03645 3.78967C9.03645 3.78967 9.13246 4.74153 8.75671 5.56823C8.65507 5.79179 8.60719 6.08183 8.58701 6.36483C8.52844 6.16128 8.48263 5.94521 8.47082 5.73195C8.4159 4.74083 7.72104 3.947 7.72104 3.947C7.72104 3.947 8.05394 4.84387 7.89869 5.73863C7.85347 5.99921 7.88733 6.31909 7.94713 6.61676C7.82419 6.42094 7.70923 6.2054 7.63519 5.98163C7.32339 5.03923 6.4454 4.45434 6.4454 4.45434C6.4454 4.45434 7.0009 5.23319 7.08468 6.13741C7.10957 6.40593 7.23008 6.71179 7.36892 6.98773C7.19437 6.82847 7.02157 6.64679 6.88801 6.44548C6.33915 5.6184 5.33811 5.28529 5.33811 5.28529C5.33811 5.28529 6.07907 5.89043 6.39794 6.74072C6.48488 6.97251 6.65894 7.2128 6.84653 7.42849C6.65908 7.32537 6.47148 7.20412 6.31047 7.06015C5.57043 6.39858 4.51771 6.32918 4.51771 6.32918C4.51771 6.32918 5.38751 6.7275 5.91085 7.46962C6.06339 7.68593 6.31391 7.88819 6.56697 8.05634C6.3413 8.00494 6.10726 7.93396 5.89643 7.82811C5.0093 7.38282 3.97497 7.59077 3.97497 7.59077C3.97497 7.59077 4.9186 7.74809 5.61761 8.32775C5.82383 8.49875 6.12308 8.62946 6.41463 8.726C6.18025 8.73644 5.93176 8.72986 5.69685 8.68237C4.7239 8.48563 3.78052 8.95792 3.78052 8.95792C3.78052 8.95792 4.73237 8.86191 5.55907 9.23766C5.78263 9.3393 6.07267 9.38718 6.35568 9.40736C6.15212 9.46593 5.93605 9.51174 5.72276 9.52355C4.73163 9.57847 3.93781 10.2733 3.93781 10.2733C3.93781 10.2733 4.83468 9.94043 5.72944 10.0956C5.99002 10.1409 6.30987 10.107 6.60757 10.0472C6.41175 10.1702 6.19621 10.2851 5.97244 10.3591C5.03004 10.6709 4.44515 11.549 4.44515 11.549C4.44515 11.549 5.22396 10.9935 6.12822 10.9097C6.39674 10.8848 6.7026 10.7643 6.97854 10.6254C6.81932 10.7999 6.6376 10.9727 6.43633 11.1063C5.60924 11.6552 5.2761 12.6562 5.2761 12.6562C5.2761 12.6562 5.88124 11.9152 6.73153 11.5964C6.96332 11.5094 7.20358 11.3354 7.41929 11.1478C7.31618 11.3352 7.19493 11.5228 7.05096 11.6838C6.38939 12.4238 6.31999 13.4766 6.31999 13.4766C6.31999 13.4766 6.71831 12.6068 7.46046 12.0834C7.67681 11.9308 7.879 11.6803 8.04719 11.4272C7.99579 11.6529 7.92481 11.887 7.81895 12.0979C7.37363 12.985 7.58161 14.0193 7.58161 14.0193C7.58161 14.0193 7.7389 13.0756 8.31859 12.3767C8.48959 12.1704 8.6203 11.8712 8.71684 11.5796C8.72725 11.814 8.72071 12.0625 8.67321 12.2974C8.47648 13.2704 8.94877 14.2137 8.94877 14.2137C8.94877 14.2137 8.85276 13.2619 9.22851 12.4352C9.33014 12.2117 9.37803 11.9216 9.3982 11.6386C9.45678 11.8421 9.50258 12.0582 9.5144 12.2715C9.56931 13.2626 10.2642 14.0565 10.2642 14.0565C10.2642 14.0565 9.93128 13.1596 10.0865 12.2648C10.1317 12.0042 10.0979 11.6844 10.0381 11.3867C10.161 11.5825 10.276 11.7981 10.35 12.0218C10.6618 12.9642 11.5399 13.5491 11.5399 13.5491C11.5399 13.5491 10.9843 12.7703 10.9006 11.866C10.8757 11.5975 10.7552 11.2916 10.6163 11.0157C10.7909 11.1749 10.9636 11.3566 11.0972 11.5579C11.6461 12.385 12.6471 12.7181 12.6471 12.7181C12.6471 12.7181 11.9062 12.113 11.5873 11.2627C11.5004 11.0309 11.3263 10.7907 11.1388 10.5749C11.3262 10.678 11.5138 10.7993 11.6748 10.9432C12.4148 11.6048 13.4675 11.6742 13.4675 11.6742C13.4675 11.6742 12.5977 11.2759 12.0744 10.5338C11.9218 10.3174 11.6713 10.1152 11.4181 9.94704C11.6438 9.99844 11.8779 10.0694 12.0888 10.1753C12.976 10.6206 14.0104 10.4127 14.0104 10.4127ZM8.99887 11.4052C7.67063 11.4052 6.5939 10.3285 6.5939 9.00025C6.5939 7.67201 7.67063 6.59528 8.99887 6.59528C10.3271 6.59528 11.4038 7.67201 11.4038 9.00025C11.4038 10.3285 10.3271 11.4052 8.99887 11.4052Z" fill="#FFE15A"/>
<path d="M8.23633 8.02695C8.28759 7.98691 8.33864 7.94669 8.39053 7.911C8.04979 7.75603 7.74309 7.68164 7.5279 7.64832C7.49366 7.68555 7.46276 7.72555 7.4314 7.76528C7.64262 7.80627 7.9265 7.88464 8.23633 8.02695Z" fill="#FFE15A"/>
<path d="M7.63135 7.54218C7.86254 7.5683 8.19726 7.63717 8.56861 7.79689C8.63084 7.7598 8.69278 7.72693 8.75484 7.69522C8.35388 7.53058 7.99184 7.46923 7.74269 7.45032C7.70528 7.48066 7.66643 7.50924 7.63135 7.54218Z" fill="#FFE15A"/>
<path d="M8.83539 8.65687C8.78743 8.61155 8.73885 8.5687 8.68984 8.5282C8.23959 8.95672 7.84567 9.58166 7.66785 10.4885C7.7325 10.5463 7.79669 10.6048 7.86845 10.654C7.99909 9.73174 8.38201 9.0952 8.83539 8.65687Z" fill="#FFE15A"/>
<path d="M8.66081 8.25862C8.71186 8.21759 8.76284 8.17635 8.81452 8.13968C8.75152 8.09947 8.68876 8.06424 8.62618 8.02979C8.57261 8.06652 8.51889 8.10203 8.46594 8.1433C8.53081 8.17899 8.59563 8.21692 8.66081 8.25862Z" fill="#FFE15A"/>
<path d="M9.90503 8.14246C10.2911 8.48155 10.6439 8.95893 10.895 9.62096C10.9594 9.42437 11.003 9.21831 11.003 9.00024C11.003 8.58617 10.8772 8.2016 10.6621 7.8822C10.463 7.92189 10.1957 7.9992 9.90503 8.14246Z" fill="#FFE15A"/>
<path d="M8.84985 8.38731C8.90013 8.42468 8.94942 8.46684 8.99885 8.50836C9.04828 8.46684 9.09756 8.42468 9.14784 8.38731C9.09834 8.34611 9.04901 8.30557 8.99885 8.26855C8.94868 8.30557 8.89935 8.34614 8.84985 8.38731Z" fill="#FFE15A"/>
<path d="M8.99882 7.80701C8.93589 7.83889 8.87285 7.87493 8.80957 7.91237C8.87254 7.94549 8.93543 7.98103 8.99882 8.01988C9.0622 7.98103 9.1251 7.94552 9.18806 7.91237C9.12478 7.87493 9.06175 7.83889 8.99882 7.80701Z" fill="#FFE15A"/>
<path d="M7.44939 10.2571C7.66141 9.39129 8.06107 8.7981 8.50829 8.39011C8.44575 8.34592 8.38345 8.30546 8.32105 8.26794C7.89067 8.6464 7.50114 9.19333 7.26123 9.98128C7.31653 10.079 7.37904 10.1705 7.44939 10.2571Z" fill="#FFE15A"/>
<path d="M8.09272 8.14246C7.80204 7.9992 7.53479 7.92189 7.33566 7.8822C7.12054 8.2016 6.99475 8.58617 6.99475 9.00024C6.99475 9.21831 7.03834 9.42437 7.10279 9.62096C7.35387 8.95897 7.70667 8.48155 8.09272 8.14246Z" fill="#FFE15A"/>
<path d="M8.99886 7.58215C9.42523 7.40598 9.81856 7.34344 10.0983 7.32691C9.78238 7.11893 9.40533 6.99609 8.99886 6.99609C8.59238 6.99609 8.21533 7.11893 7.89941 7.32691C8.17915 7.34344 8.57248 7.40598 8.99886 7.58215Z" fill="#FFE15A"/>
<path d="M8.99888 8.82642C8.59912 9.26938 8.26925 9.90536 8.16223 10.8162C8.41754 10.9341 8.69917 11.0044 8.99888 11.0044C9.29859 11.0044 9.58022 10.9341 9.83553 10.8162C9.72851 9.90536 9.39864 9.26935 8.99888 8.82642Z" fill="#FFE15A"/>
<path d="M9.67662 8.26794C9.61419 8.30549 9.55192 8.34596 9.48938 8.39011C9.9366 8.7981 10.3363 9.39129 10.5483 10.2571C10.6186 10.1704 10.6811 10.079 10.7364 9.98125C10.4965 9.19333 10.107 8.6464 9.67662 8.26794Z" fill="#FFE15A"/>
<path d="M10.3299 10.4885C10.1521 9.58165 9.75815 8.95672 9.3079 8.5282C9.25889 8.56873 9.21031 8.61159 9.16235 8.65687C9.61569 9.09523 9.99865 9.73177 10.1293 10.654C10.2011 10.6048 10.2652 10.5463 10.3299 10.4885Z" fill="#FFE15A"/>
<path d="M9.24292 7.69522C9.30497 7.72693 9.36692 7.7598 9.42914 7.79689C9.80053 7.63714 10.1352 7.5683 10.3664 7.54218C10.3313 7.50924 10.2925 7.48066 10.2551 7.45032C10.0059 7.46923 9.64388 7.53058 9.24292 7.69522Z" fill="#FFE15A"/>
<path d="M9.33693 8.25862C9.40211 8.21692 9.46694 8.17899 9.5318 8.1433C9.47889 8.10203 9.42514 8.06652 9.37156 8.02979C9.30898 8.06424 9.24626 8.0995 9.18323 8.13968C9.23491 8.17635 9.28588 8.21759 9.33693 8.25862Z" fill="#FFE15A"/>
<path d="M9.76141 8.02695C10.0712 7.88464 10.3551 7.80627 10.5663 7.76528C10.535 7.72552 10.504 7.68551 10.4698 7.64832C10.2546 7.68164 9.94795 7.75603 9.60718 7.911C9.6591 7.94669 9.71015 7.98691 9.76141 8.02695Z" fill="#FFE15A"/>
</g>
<defs>
<clipPath id="clip0_371_24383">
<rect width="18" height="18" rx="9" fill="white"/>
</clipPath>
</defs>
</svg>
