<svg width="18" height="18" viewBox="0 0 18 18" fill="none" xmlns="http://www.w3.org/2000/svg">
<g clip-path="url(#clip0_371_24359)">
<path d="M14.0625 0H3.9375C1.76288 0 0 1.76288 0 3.9375V14.0625C0 16.2371 1.76288 18 3.9375 18H14.0625C16.2371 18 18 16.2371 18 14.0625V3.9375C18 1.76288 16.2371 0 14.0625 0Z" fill="#73AF00"/>
<path d="M3.93756 0C3.05095 0 2.23283 0.293098 1.57471 0.787605V17.2124C2.23283 17.7069 3.05095 18 3.93756 18H6.31152V0H3.93756Z" fill="#FF4B55"/>
<path d="M5.83783 2.05269L4.89044 2.84216H2.99573L2.04834 2.05269V1.26322L2.99573 0.473755H4.89044L5.83783 1.26322V2.05269Z" fill="#F5F5F5"/>
<path d="M5.83783 8.6842L4.89044 9.47367H2.99573L2.04834 8.6842V7.89469L2.99573 7.10522H4.89044L5.83783 7.89469V8.6842Z" fill="#73AF00"/>
<path d="M5.83783 5.3684L4.89044 6.15787H2.99573L2.04834 5.3684V4.57893L2.99573 3.78943H4.89044L5.83783 4.57893V5.3684Z" fill="#73AF00"/>
<path d="M5.83783 12L4.89044 12.7894H2.99573L2.04834 12V11.2105L2.99573 10.421H4.89044L5.83783 11.2105V12Z" fill="#73AF00"/>
<path d="M1.57471 2.36841L2.52206 3.3158L1.57471 4.26315V2.36841Z" fill="#FFB400"/>
<path d="M6.31149 4.26315L5.36414 3.3158L6.31149 2.36841V4.26315Z" fill="#FFB400"/>
<path d="M1.57471 5.6842L2.52206 6.63159L1.57471 7.57895V5.6842Z" fill="#FFB400"/>
<path d="M6.31149 7.57895L5.36414 6.63159L6.31149 5.6842V7.57895Z" fill="#FFB400"/>
<path d="M1.57471 9L2.52206 9.94736L1.57471 10.8947V9Z" fill="#FFB400"/>
<path d="M6.31149 10.8947L5.36414 9.94736L6.31149 9V10.8947Z" fill="#FFB400"/>
<path d="M1.57471 12.3158L2.52206 13.2632L1.57471 14.2105V12.3158Z" fill="#FFB400"/>
<path d="M6.31149 14.2105L5.36414 13.2632L6.31149 12.3158V14.2105Z" fill="#FFB400"/>
<path d="M6.31149 0.947356L5.36414 0H6.31149V0.947356Z" fill="#FFB400"/>
<path d="M4.17987 3.78955H3.70618V6.15803H4.17987V3.78955Z" fill="#FFB400"/>
<path d="M4.89032 4.73694H2.99561V5.21063H4.89032V4.73694Z" fill="#FF4B55"/>
<path d="M5.36408 4.18429L4.89038 3.78955V6.15799L5.36408 5.76322V4.18429Z" fill="#FFB400"/>
<path d="M2.52209 5.76319L2.99579 6.15792V3.78955L2.52209 4.18425V5.76319Z" fill="#FFB400"/>
<path d="M3.94309 0.473755H2.99573L2.04834 1.26319V1.65796H3.94309V0.473755Z" fill="#FFB400"/>
<path d="M3.94312 2.84216H4.89044L5.83786 2.05273V1.65796H3.94312V2.84216Z" fill="#FFB400"/>
<path d="M3.94308 2.36844L2.99573 1.66071L3.94308 0.947388L4.89044 1.66071L3.94308 2.36844Z" fill="#FF4B55"/>
<path d="M3.94299 2.36847L4.89035 1.66074L4.88666 1.65796H3.94299V2.36847Z" fill="#73AF00"/>
<path d="M3.94305 1.65793V0.947388L2.99939 1.65793H3.94305Z" fill="#73AF00"/>
<path d="M4.89035 7.57898H2.99561V8.99999H4.89035V7.57898Z" fill="#FF4B55"/>
<path d="M5.36395 8.05249H4.89026V8.52619H5.36395V8.05249Z" fill="#FFB400"/>
<path d="M4.17987 8.05249H3.70618V8.52619H4.17987V8.05249Z" fill="#F5F5F5"/>
<path d="M4.17987 10.8945H3.70618V11.3682H4.17987V10.8945Z" fill="#FF4B55"/>
<path d="M4.89032 11.3685H4.41663V11.8422H4.89032V11.3685Z" fill="#FFB400"/>
<path d="M3.4693 11.3685H2.99561V11.8422H3.4693V11.3685Z" fill="#FFB400"/>
<path d="M4.17987 11.842H3.70618V12.3157H4.17987V11.842Z" fill="#FF4B55"/>
<path d="M2.99579 8.05249H2.52209V8.52619H2.99579V8.05249Z" fill="#FFB400"/>
<path d="M5.83783 15.3158L4.89044 16.1052H2.99573L2.04834 15.3158V14.5263L2.99573 13.7368H4.89044L5.83783 14.5263V15.3158Z" fill="#F5F5F5"/>
<path d="M3.94309 13.7368H2.99573L2.04834 14.5263V14.921H3.94309V13.7368Z" fill="#FFB400"/>
<path d="M3.94312 16.1052H4.89044L5.83786 15.3158V14.921H3.94312V16.1052Z" fill="#FFB400"/>
<path d="M4.89044 15.1579L3.94308 15.6316L2.99573 15.1579V14.6842L3.94308 14.2106L4.89044 14.6842V15.1579Z" fill="#FF4B55"/>
<path d="M12.8103 2.57918C12.7599 2.55439 12.7143 2.62003 12.7551 2.6586C13.2912 3.16446 13.63 3.87483 13.63 4.66721C13.63 6.22372 12.3789 7.47251 10.8405 7.47251C10.5565 7.47251 10.283 7.42821 10.025 7.3476C9.97154 7.3309 9.93698 7.40262 9.983 7.43457C10.4328 7.74725 10.9749 7.93411 11.5667 7.93411C13.1255 7.93411 14.3992 6.68522 14.3992 5.10614C14.3992 3.99633 13.7478 3.03997 12.8103 2.57918Z" fill="#F5F5F5"/>
<path d="M8.95561 4.40683L8.8397 4.73463L9.11234 4.95041C9.14763 4.97836 9.12707 5.03514 9.08207 5.03398L8.73451 5.02505L8.61354 5.35102C8.5979 5.39321 8.53753 5.3912 8.5247 5.34803L8.42581 5.01472L8.07843 5.00041C8.03346 4.99854 8.01673 4.9405 8.05382 4.91501L8.34027 4.71796L8.24654 4.38317C8.23442 4.33982 8.28444 4.30597 8.32016 4.33335L8.5961 4.54489L8.88554 4.3523C8.92299 4.32731 8.97062 4.36439 8.95561 4.40683Z" fill="#F5F5F5"/>
<path d="M10.3634 5.1178L10.2475 5.4456L10.5201 5.66139C10.5553 5.68934 10.5348 5.74611 10.4898 5.74495L10.1422 5.73602L10.0213 6.06199C10.0056 6.10418 9.94521 6.10218 9.93242 6.059L9.83352 5.72569L9.48614 5.71134C9.44118 5.70948 9.42444 5.65147 9.46153 5.62595L9.74799 5.4289L9.65426 5.09411C9.64213 5.05076 9.69216 5.0169 9.72788 5.04429L10.0038 5.25583L10.2933 5.06324C10.3307 5.03824 10.3784 5.07537 10.3634 5.1178Z" fill="#F5F5F5"/>
<path d="M10.3491 3.65317L10.2332 3.98096L10.5058 4.19675C10.5411 4.2247 10.5205 4.28148 10.4755 4.28032L10.1279 4.27139L10.007 4.59736C9.99133 4.63955 9.93093 4.63754 9.91813 4.59437L9.81924 4.26105L9.47186 4.24674C9.4269 4.24488 9.41016 4.18684 9.44725 4.16135L9.73367 3.9643L9.63994 3.62951C9.62781 3.58616 9.67784 3.5523 9.71356 3.57969L9.9895 3.79123L10.2789 3.59864C10.3165 3.57361 10.3641 3.61073 10.3491 3.65317Z" fill="#F5F5F5"/>
<path d="M10.3971 2.23951L10.2812 2.5673L10.5539 2.78309C10.5892 2.81104 10.5686 2.86782 10.5236 2.86666L10.176 2.85773L10.0551 3.18366C10.0394 3.22585 9.97903 3.22385 9.96623 3.18067L9.86733 2.84736L9.51995 2.83305C9.47499 2.83118 9.45826 2.77314 9.49535 2.74765L9.78176 2.5506L9.68804 2.21581C9.67591 2.17246 9.72594 2.13861 9.76165 2.16599L10.0376 2.37753L10.327 2.18494C10.3645 2.15995 10.4122 2.19707 10.3971 2.23951Z" fill="#F5F5F5"/>
<path d="M11.7764 2.95057L11.6605 3.27836L11.9331 3.49415C11.9684 3.5221 11.9479 3.57888 11.9029 3.57772L11.5553 3.56879L11.4343 3.89476C11.4187 3.93694 11.3583 3.93494 11.3455 3.89177L11.2466 3.55845L10.8992 3.54411C10.8543 3.54224 10.8375 3.48424 10.8746 3.45871L11.161 3.26166L11.0673 2.92687C11.0552 2.88352 11.1052 2.84967 11.1409 2.87705L11.4169 3.08859L11.7063 2.896C11.7438 2.87101 11.7915 2.90813 11.7764 2.95057Z" fill="#F5F5F5"/>
</g>
<defs>
<clipPath id="clip0_371_24359">
<rect width="18" height="18" rx="9" fill="white"/>
</clipPath>
</defs>
</svg>
