<svg width="18" height="18" viewBox="0 0 18 18" fill="none" xmlns="http://www.w3.org/2000/svg">
<g clip-path="url(#clip0_371_24380)">
<path d="M14.0625 0H3.9375C1.76288 0 0 1.76288 0 3.9375V14.0625C0 16.2371 1.76288 18 3.9375 18H14.0625C16.2371 18 18 16.2371 18 14.0625V3.9375C18 1.76288 16.2371 0 14.0625 0Z" fill="#FF4B55"/>
<path d="M11.9348 8.09491L12.4854 8.81523L13.3452 8.52744C13.3933 8.51133 13.4342 8.56572 13.4054 8.60745L12.8905 9.35371L13.4299 10.0825C13.46 10.1232 13.421 10.1789 13.3724 10.1645L12.5035 9.90535L11.9771 10.6436C11.9476 10.6848 11.8826 10.6649 11.8814 10.6142L11.8593 9.70781L10.9945 9.43528C10.9462 9.42002 10.945 9.35203 10.9929 9.33519L11.8481 9.03411L11.8401 8.12746C11.8396 8.07673 11.904 8.05465 11.9348 8.09491Z" fill="#F5F5F5"/>
<path d="M8.88971 12.1105C7.33795 12.1105 6.07914 10.8517 6.07914 9.2985C6.07914 7.74818 7.33795 6.48656 8.88971 6.48656C9.46704 6.48656 9.99949 6.66414 10.4432 6.96465C10.5111 7.01067 10.5887 6.92138 10.5318 6.86224C9.86863 6.1728 8.93007 5.75222 7.88948 5.78773C6.10168 5.84873 4.62163 7.28212 4.50741 9.06731C4.37656 11.1121 5.99564 12.8114 8.0115 12.8114C9.00449 12.8114 9.8969 12.3963 10.5342 11.7325C10.5905 11.6739 10.5128 11.586 10.4455 11.6316C10.0014 11.9327 9.4681 12.1105 8.88971 12.1105Z" fill="#F5F5F5"/>
</g>
<defs>
<clipPath id="clip0_371_24380">
<rect width="18" height="18" rx="9" fill="white"/>
</clipPath>
</defs>
</svg>
