<svg width="18" height="18" viewBox="0 0 18 18" fill="none" xmlns="http://www.w3.org/2000/svg">
<g clip-path="url(#clip0_371_24063)">
<rect width="18" height="18" rx="9" fill="#07091C" fill-opacity="0.5"/>
<path d="M14.0625 18H3.9375C1.76288 18 0 16.2371 0 14.0625V3.9375C0 1.76288 1.76288 0 3.9375 0H14.0625C16.2371 0 18 1.76288 18 3.9375V14.0625C18 16.2371 16.2371 18 14.0625 18Z" fill="#41479B"/>
<path d="M18 14.0621V13.1977L15.2079 11.3684H18V10.421H10.421V18H11.3684V12.2505L17.3777 16.1877C17.5905 15.8563 17.7549 15.4909 17.8611 15.1015" fill="#F5F5F5"/>
<path d="M0.264762 15.4843C0.360668 15.7318 0.480691 15.9673 0.62223 16.1877L6.63156 12.2505V18H7.57891V10.421H0V11.3684H2.79207L0 13.1977V14.0625C0 14.2139 0.00885938 14.3632 0.0254883 14.5101" fill="#F5F5F5"/>
<path d="M0 4.07134V4.80227L2.79207 6.63159H0V7.57895H7.57895V0H6.63159V5.74945L0.62223 1.8123C0.388687 2.17593 0.213504 2.58054 0.109477 3.01289" fill="#F5F5F5"/>
<path d="M17.73 2.50203C17.635 2.25949 17.5167 2.02862 17.3777 1.81227L11.3684 5.74945V0H10.421V7.57895H18V6.63159H15.2079L18 4.80227V3.9375C18 3.7807 17.9905 3.62609 17.9727 3.47407" fill="#F5F5F5"/>
<path d="M10.4211 0H7.57895V7.57895H0V10.4211H7.57895V18H10.4211V10.4211H18V7.57895H10.4211V0Z" fill="#FF4B55"/>
<path d="M4.86547 11.3684L0.0255127 14.5101C0.0639736 14.8499 0.145536 15.1765 0.264821 15.4843L6.60557 11.3684H4.86547V11.3684Z" fill="#FF4B55"/>
<path d="M12.1101 11.3684L17.8612 15.1015C17.9515 14.7705 18 14.4222 18 14.0625V14.0621L13.8502 11.3684L12.1101 11.3684Z" fill="#FF4B55"/>
<path d="M5.6842 6.63164L0.109477 3.01294C0.0380742 3.30952 0 3.61907 0 3.93755V4.07139L3.94411 6.63164H5.6842Z" fill="#FF4B55"/>
<path d="M13.1085 6.6316L17.9727 3.47408C17.9329 3.13503 17.8503 2.80913 17.73 2.50208L11.3684 6.6316H13.1085Z" fill="#FF4B55"/>
</g>
<defs>
<clipPath id="clip0_371_24063">
<rect width="18" height="18" rx="9" fill="white"/>
</clipPath>
</defs>
</svg>
