<svg width="40" height="40" viewBox="0 0 40 40" fill="none" xmlns="http://www.w3.org/2000/svg">
<g clip-path="url(#clip0_298_29394)">
<path d="M0 31.25C0 36.0825 3.9175 40 8.75 40H31.25C36.0825 40 40 36.0825 40 31.25V26.6666H0V31.25Z" fill="#73AF00"/>
<path d="M31.25 0H8.75C3.9175 0 0 3.9175 0 8.75V13.3334H40V8.75C40 3.9175 36.0825 0 31.25 0Z" fill="#82AFFF"/>
<path d="M40 13.3336H0V26.6672H40V13.3336Z" fill="#FF4B55"/>
<path d="M21.4398 24.3652C19.0776 24.3652 17.1613 22.4489 17.1613 20.0845C17.1613 17.7244 19.0776 15.8038 21.4398 15.8038C22.3187 15.8038 23.1293 16.0741 23.8047 16.5316C23.9081 16.6017 24.0262 16.4658 23.9396 16.3757C22.9301 15.3262 21.5014 14.6859 19.9172 14.7399C17.1957 14.8328 14.9426 17.0149 14.7687 19.7324C14.5695 22.8452 17.0343 25.4321 20.103 25.4321C21.6147 25.4321 22.9732 24.8002 23.9433 23.7897C24.029 23.7004 23.9108 23.5666 23.8083 23.636C23.1322 24.0945 22.3203 24.3652 21.4398 24.3652Z" fill="#F5F5F5"/>
<path d="M25.1855 17.4495L25.6294 18.6977L26.8259 18.129C26.916 18.0862 27.01 18.1802 26.9672 18.2703L26.3985 19.4668L27.6467 19.9107C27.7406 19.9442 27.7406 20.0771 27.6467 20.1106L26.3985 20.5545L26.9672 21.7509C27.01 21.8411 26.916 21.9351 26.8259 21.8923L25.6294 21.3235L25.1855 22.5717C25.152 22.6657 25.0191 22.6657 24.9856 22.5717L24.5417 21.3235L23.3452 21.8923C23.2551 21.9351 23.1611 21.8411 23.2039 21.7509L23.7727 20.5545L22.5245 20.1106C22.4305 20.0771 22.4305 19.9442 22.5245 19.9107L23.7727 19.4668L23.2039 18.2703C23.1611 18.1802 23.2551 18.0862 23.3452 18.129L24.5417 18.6977L24.9856 17.4495C25.0191 17.3555 25.152 17.3555 25.1855 17.4495Z" fill="#F5F5F5"/>
</g>
<defs>
<clipPath id="clip0_298_29394">
<rect width="40" height="40" rx="8" fill="white"/>
</clipPath>
</defs>
</svg>
