<svg width="40" height="40" viewBox="0 0 40 40" fill="none" xmlns="http://www.w3.org/2000/svg">
<g clip-path="url(#clip0_298_29414)">
<path d="M31.25 0H8.75C3.9175 0 0 3.9175 0 8.75V31.25C0 36.0825 3.9175 40 8.75 40H31.25C36.0825 40 40 36.0825 40 31.25V8.75C40 3.9175 36.0825 0 31.25 0Z" fill="#82C3D2"/>
<path d="M4.26895 37.3234C4.17441 37.0401 3.80738 36.2797 3.7952 36.2544C3.69457 36.0283 3.6416 35.7783 3.6416 35.5311C3.6416 35.1854 3.84215 34.8828 4.12941 34.7951C4.36301 34.7228 4.6034 34.7618 4.78988 34.8997C4.9759 35.0371 5.08262 35.2487 5.08262 35.4794C5.08262 35.7684 4.89731 35.8641 4.81762 35.8918C4.69426 35.9349 4.57629 35.9101 4.53824 35.8618C4.50613 35.821 4.50941 35.7093 4.62457 35.5283C4.6959 35.4166 4.66324 35.2679 4.55137 35.1966C4.43926 35.1262 4.29129 35.1591 4.21973 35.2703C3.91293 35.7512 4.07668 36.0523 4.16129 36.1597C4.33199 36.375 4.65027 36.449 4.95723 36.3491C4.85637 36.7769 4.76348 37.1812 5.15285 37.5707C5.19973 37.6176 5.26121 37.641 5.3227 37.641C5.3841 37.641 5.44559 37.6176 5.49254 37.5707C5.58637 37.4769 5.58637 37.3249 5.49254 37.2311C5.3002 37.0387 5.32527 36.8807 5.4266 36.4519C5.48738 36.1949 5.56285 35.8745 5.56285 35.4795C5.56285 35.1031 5.38246 34.7447 5.08098 34.5188C5.38246 34.293 5.56285 33.9346 5.56285 33.5581C5.56285 33.1631 5.4873 32.8428 5.4266 32.5857C5.32527 32.1569 5.3002 31.9989 5.49254 31.8066C5.58637 31.7127 5.58637 31.5608 5.49254 31.4669C5.39871 31.3731 5.24676 31.3731 5.15293 31.4669C4.76348 31.8564 4.85637 32.2607 4.9573 32.6886C4.65035 32.5883 4.33207 32.6622 4.16137 32.878C4.07668 32.9854 3.91301 33.2866 4.2198 33.7673C4.29113 33.879 4.43863 33.9118 4.55145 33.841C4.66332 33.7697 4.6959 33.621 4.62465 33.5094C4.50949 33.3283 4.50621 33.2166 4.53832 33.1758C4.57629 33.1276 4.69426 33.1026 4.8177 33.1458C4.89746 33.1735 5.0827 33.2692 5.0827 33.5582C5.0827 33.789 4.97598 34.0005 4.78996 34.138C4.60348 34.2759 4.36215 34.3153 4.12949 34.2426C3.84215 34.1548 3.64168 33.8523 3.64168 33.5066C3.64168 33.2594 3.69465 33.0093 3.79527 32.7832L5.36809 29.2444C5.4973 28.9536 5.56301 28.6445 5.56301 28.326C5.56301 27.9162 5.37668 27.542 5.08348 27.3137C5.37668 27.0854 5.56301 26.7112 5.56301 26.3015C5.56301 25.983 5.4973 25.6738 5.36809 25.383L3.79527 21.8443C3.69465 21.6182 3.64168 21.3682 3.64168 21.121C3.64168 20.7753 3.84223 20.4727 4.12949 20.385C4.36309 20.3127 4.60348 20.3517 4.78996 20.4896C4.97598 20.627 5.0827 20.8386 5.0827 21.0694C5.0827 21.3583 4.89738 21.454 4.8177 21.4817C4.69434 21.5253 4.57637 21.5 4.53832 21.4517C4.50621 21.4109 4.50949 21.2993 4.62465 21.1182C4.69598 21.0066 4.66332 20.8579 4.55145 20.7866C4.43934 20.7162 4.29137 20.7491 4.2198 20.8602C3.91301 21.341 4.07676 21.6422 4.16137 21.7496C4.33207 21.9649 4.65035 22.0389 4.9573 21.939C4.85645 22.3668 4.76355 22.7711 5.15293 23.1605C5.19981 23.2075 5.26129 23.2309 5.32277 23.2309C5.38418 23.2309 5.44566 23.2075 5.49262 23.1605C5.58645 23.0667 5.58645 22.9148 5.49262 22.8209C5.30027 22.6286 5.32535 22.4705 5.42668 22.0418C5.48746 21.7848 5.56293 21.4644 5.56293 21.0694C5.56293 20.8065 5.47051 20.5552 5.31504 20.3488H5.32277C5.45551 20.3488 5.56293 20.2414 5.56293 20.1087C5.56293 19.9759 5.45551 19.8685 5.32277 19.8685H5.31504C5.47051 19.6621 5.56293 19.4108 5.56293 19.148C5.56293 18.753 5.48738 18.4326 5.42668 18.1755C5.32535 17.7468 5.30027 17.5887 5.49262 17.3964C5.58645 17.3026 5.58645 17.1506 5.49262 17.0568C5.39879 16.963 5.24684 16.963 5.15301 17.0568C4.76355 17.4462 4.85645 17.8506 4.95738 18.2784C4.65043 18.1785 4.33215 18.2525 4.16145 18.4678C4.07676 18.5752 3.91309 18.8764 4.21988 19.3572C4.29121 19.4688 4.43871 19.5012 4.55152 19.4308C4.6634 19.3595 4.69598 19.2108 4.62473 19.0992C4.50957 18.9181 4.50629 18.8066 4.5384 18.7657C4.57637 18.7174 4.69434 18.6925 4.81777 18.7357C4.89754 18.7633 5.08277 18.8591 5.08277 19.148C5.08277 19.3788 4.97605 19.5904 4.79004 19.7278C4.60355 19.8657 4.36223 19.9047 4.12957 19.8324C3.84223 19.7447 3.64176 19.4421 3.64176 19.0964C3.64176 18.8492 3.69473 18.5991 3.79535 18.3731L5.36816 14.8344C5.49738 14.5435 5.56309 14.2344 5.56309 13.9159C5.56309 13.5062 5.37676 13.1319 5.08355 12.9037C5.37676 12.6753 5.56309 12.3011 5.56309 11.8914C5.56309 11.5729 5.49738 11.2637 5.36816 10.973L3.79512 7.43389C3.69449 7.2078 3.64152 6.9578 3.64152 6.71053C3.64152 6.36483 3.84207 6.06225 4.12934 5.97452C4.36293 5.90225 4.60332 5.94124 4.7898 6.07913C4.97582 6.21655 5.08254 6.42811 5.08254 6.65889C5.08254 6.94788 4.89723 7.04358 4.81754 7.07124C4.69418 7.11436 4.57621 7.08905 4.53816 7.04124C4.50605 7.00046 4.50934 6.88882 4.62449 6.70772C4.69582 6.59608 4.66316 6.44741 4.55129 6.37608C4.43918 6.30569 4.29121 6.33811 4.21965 6.44975C3.91285 6.93053 4.0766 7.23171 4.16121 7.33913C4.33191 7.55444 4.6502 7.62843 4.95715 7.5285C4.85629 7.95632 4.7634 8.36069 5.15277 8.75014C5.19965 8.79702 5.26113 8.82053 5.32262 8.82053C5.38402 8.82053 5.44551 8.7971 5.49246 8.75014C5.58629 8.65632 5.58629 8.50436 5.49246 8.41053C5.30012 8.21819 5.3252 8.06014 5.42652 7.63139C5.4873 7.37436 5.56277 7.05397 5.56277 6.65897C5.56277 6.39608 5.47035 6.14483 5.31488 5.93843H5.32262C5.45535 5.93843 5.56277 5.831 5.56277 5.69827C5.56277 5.56553 5.45535 5.45811 5.32262 5.45811H5.31488C5.47035 5.25171 5.56277 5.00046 5.56277 4.73764C5.56277 4.34264 5.48723 4.02225 5.42652 3.76522C5.3252 3.33647 5.30012 3.17842 5.49246 2.98608C5.58629 2.89225 5.58629 2.7403 5.49246 2.64647C5.39863 2.55264 5.24668 2.55264 5.15285 2.64647C4.7634 3.03592 4.85629 3.44022 4.95723 3.86811C4.65027 3.7678 4.33199 3.84218 4.16129 4.05749C4.0766 4.16491 3.91293 4.46608 4.21973 4.94686C4.29105 5.0585 4.43855 5.09132 4.55137 5.02053C4.66324 4.94921 4.69582 4.80053 4.62457 4.68889C4.50941 4.5078 4.50613 4.39616 4.53824 4.35538C4.57621 4.3071 4.69418 4.28171 4.81762 4.32538C4.89738 4.35303 5.08262 4.44874 5.08262 4.73772C5.08262 4.9685 4.9759 5.18007 4.78988 5.31749C4.6034 5.45538 4.36207 5.49436 4.12941 5.4221C3.84207 5.33436 3.6416 5.03178 3.6416 4.68608C3.6416 4.43889 3.69457 4.18889 3.79191 3.96983C3.80738 3.93749 4.17449 3.1771 4.26895 2.89374C4.4559 2.33319 4.2659 2.05124 4.13621 1.9335C3.96262 1.77546 3.7091 1.736 3.49074 1.83171C3.45762 1.84639 3.4302 1.86772 3.40137 1.88757C3.38715 1.8778 3.37316 1.86757 3.35879 1.85803C3.04574 2.10327 2.7502 2.3696 2.47348 2.65444C2.48598 2.72811 2.50496 2.80717 2.53379 2.89374C2.62832 3.17702 2.99535 3.93741 3.00754 3.9628C3.10816 4.18889 3.16113 4.43889 3.16113 4.68616C3.16113 5.03186 2.96059 5.33444 2.67332 5.42218C2.43996 5.49444 2.19934 5.45593 2.01285 5.31757C1.82684 5.18014 1.72012 4.96858 1.72012 4.7378C1.72012 4.44882 1.90543 4.35311 1.98512 4.32546C2.10895 4.28186 2.22621 4.30718 2.26449 4.35546C2.2966 4.39624 2.29332 4.50788 2.17816 4.68897C2.10684 4.80061 2.13949 4.94928 2.25137 5.02061C2.36418 5.09194 2.51215 5.05858 2.58301 4.94694C2.8898 4.46616 2.72605 4.16499 2.64145 4.05757C2.47074 3.84225 2.15246 3.76788 1.84551 3.86819C1.89402 3.66241 1.94012 3.4621 1.93215 3.26632C1.69934 3.55538 1.48434 3.85944 1.28926 4.17702C1.26074 4.34467 1.2398 4.53077 1.2398 4.73772C1.2398 5.00053 1.33215 5.25186 1.4877 5.45819H1.47996C1.34723 5.45819 1.2398 5.56561 1.2398 5.69835C1.2398 5.83108 1.34723 5.9385 1.47996 5.9385H1.4877C1.33223 6.14491 1.2398 6.39616 1.2398 6.65905C1.2398 7.05405 1.31535 7.37444 1.37605 7.63147C1.47738 8.06022 1.50246 8.21827 1.31012 8.41061C1.21629 8.50444 1.21629 8.65639 1.31012 8.75022C1.35699 8.7971 1.41848 8.82061 1.47996 8.82061C1.54145 8.82061 1.60285 8.79717 1.6498 8.75022C2.03926 8.36077 1.94637 7.95639 1.84551 7.52858C2.15246 7.6285 2.47074 7.55452 2.64145 7.33921C2.72613 7.23178 2.8898 6.93061 2.58301 6.44983C2.51191 6.33819 2.36348 6.30491 2.25137 6.37616C2.13949 6.44749 2.10691 6.59616 2.17816 6.7078C2.29332 6.88889 2.2966 7.00053 2.26449 7.04132C2.22629 7.08921 2.10902 7.11452 1.98512 7.07132C1.90535 7.04366 1.72012 6.94796 1.72012 6.65897C1.72012 6.42819 1.82684 6.21663 2.01285 6.07921C2.19934 5.94132 2.44043 5.90186 2.67332 5.9746C2.96066 6.06233 3.16113 6.36483 3.16113 6.71061C3.16113 6.9578 3.10809 7.20788 3.00754 7.43397L1.43473 10.9726C1.30551 11.2635 1.2398 11.5726 1.2398 11.8911C1.2398 12.3008 1.42613 12.6751 1.71934 12.9033C1.42613 13.1317 1.2398 13.5058 1.2398 13.9156C1.2398 14.2341 1.30551 14.5433 1.43473 14.8341L3.00754 18.3728C3.10816 18.5989 3.16113 18.8489 3.16113 19.0961C3.16113 19.4418 2.96059 19.7444 2.67332 19.8321C2.43996 19.9048 2.19934 19.8658 2.01285 19.7275C1.82684 19.5901 1.72012 19.3785 1.72012 19.1477C1.72012 18.8587 1.90543 18.763 1.98512 18.7354C2.10895 18.6923 2.22621 18.7171 2.26449 18.7654C2.2966 18.8062 2.29332 18.9178 2.17816 19.0989C2.10684 19.2105 2.13949 19.3592 2.25137 19.4305C2.36418 19.5019 2.51215 19.469 2.58301 19.3569C2.8898 18.8761 2.72605 18.5749 2.64145 18.4675C2.47074 18.2522 2.15246 18.1782 1.84551 18.2781C1.94637 17.8503 2.03926 17.4459 1.6498 17.0565C1.55598 16.9626 1.40402 16.9626 1.3102 17.0565C1.21637 17.1503 1.21637 17.3023 1.3102 17.3961C1.50254 17.5884 1.47746 17.7465 1.37613 18.1752C1.31535 18.4323 1.23988 18.7526 1.23988 19.1476C1.23988 19.4105 1.33223 19.6618 1.48777 19.8682H1.48004C1.3473 19.8682 1.23988 19.9756 1.23988 20.1083C1.23988 20.2411 1.3473 20.3485 1.48004 20.3485H1.48777C1.3323 20.5549 1.23988 20.8062 1.23988 21.0691C1.23988 21.464 1.31543 21.7844 1.37613 22.0415C1.47746 22.4702 1.50254 22.6283 1.3102 22.8206C1.21637 22.9144 1.21637 23.0664 1.3102 23.1602C1.35707 23.2072 1.41855 23.2306 1.48004 23.2306C1.54152 23.2306 1.60293 23.2072 1.64988 23.1602C2.03934 22.7708 1.94645 22.3664 1.84559 21.9387C2.15254 22.0386 2.47082 21.9646 2.64152 21.7493C2.72621 21.6419 2.88988 21.3407 2.58309 20.8599C2.51199 20.7483 2.36355 20.715 2.25145 20.7862C2.13957 20.8576 2.10699 21.0062 2.17824 21.1179C2.2934 21.299 2.29668 21.4106 2.26457 21.4514C2.22637 21.4997 2.1091 21.5251 1.9852 21.4814C1.90543 21.4537 1.7202 21.358 1.7202 21.0691C1.7202 20.8383 1.82691 20.6267 2.01293 20.4893C2.19941 20.3514 2.44051 20.3119 2.6734 20.3847C2.96074 20.4724 3.16121 20.775 3.16121 21.1207C3.16121 21.3679 3.10816 21.618 3.00762 21.844L1.4348 25.3827C1.30559 25.6736 1.23988 25.9826 1.23988 26.3012C1.23988 26.7109 1.42621 27.0851 1.71941 27.3134C1.42621 27.5418 1.23988 27.9159 1.23988 28.3257C1.23988 28.6442 1.30559 28.9534 1.4348 29.2441L3.00762 32.7829C3.10824 33.009 3.16121 33.259 3.16121 33.5062C3.16121 33.8519 2.96066 34.1545 2.6734 34.2423C2.44004 34.315 2.19941 34.2755 2.01293 34.1376C1.82691 34.0002 1.7202 33.7887 1.7202 33.5579C1.7202 33.269 1.90551 33.1732 1.9852 33.1455C2.10902 33.1024 2.22629 33.1273 2.26457 33.1755C2.29668 33.2163 2.2934 33.328 2.17824 33.5091C2.10691 33.6207 2.13957 33.7694 2.25145 33.8407C2.36426 33.912 2.51223 33.8791 2.58309 33.767C2.88988 33.2862 2.72613 32.9851 2.64152 32.8776C2.47082 32.6619 2.15254 32.588 1.84559 32.6883C1.94645 32.2604 2.03934 31.8561 1.64988 31.4666C1.55605 31.3728 1.4041 31.3728 1.31027 31.4666C1.21645 31.5605 1.21645 31.7124 1.31027 31.8062C1.50262 31.9986 1.47754 32.1566 1.37621 32.5854C1.31543 32.8424 1.23996 33.1628 1.23996 33.5578C1.23996 33.9342 1.42035 34.2926 1.72184 34.5185C1.42035 34.7444 1.23996 35.1028 1.23996 35.4792C1.23996 35.5785 1.24473 35.673 1.25285 35.7631C1.4541 36.0967 1.67723 36.4155 1.9198 36.7182C1.90355 36.5969 1.87504 36.4738 1.84559 36.3488C2.15254 36.4487 2.47082 36.3748 2.64152 36.1594C2.72621 36.052 2.88988 35.7509 2.58309 35.2701C2.51199 35.1584 2.36355 35.1256 2.25145 35.1964C2.13957 35.2677 2.10699 35.4164 2.17824 35.528C2.2934 35.7091 2.29668 35.8208 2.26457 35.8616C2.22637 35.9098 2.1091 35.9348 1.9852 35.8916C1.90543 35.8639 1.7202 35.7682 1.7202 35.4792C1.7202 35.2484 1.82691 35.0369 2.01293 34.8994C2.19941 34.7616 2.44051 34.7226 2.6734 34.7948C2.96074 34.8826 3.16121 35.1851 3.16121 35.5308C3.16121 35.778 3.10816 36.0281 3.0109 36.2471C2.99543 36.2794 2.6284 37.0398 2.53387 37.3232C2.52652 37.3452 2.52074 37.3662 2.51449 37.3873C2.65113 37.5261 2.7923 37.6602 2.93785 37.7897C2.93184 37.7137 2.94434 37.6101 2.98934 37.4751C3.05145 37.2894 3.27621 36.8061 3.40137 36.5437C3.52379 36.7999 3.7509 37.2881 3.81348 37.4751C3.89887 37.7312 3.86902 37.8772 3.81277 37.9283C3.77504 37.9626 3.71965 37.9611 3.68496 37.9456C3.6416 37.9264 3.6416 37.8959 3.6416 37.8809C3.6416 37.7481 3.53418 37.6407 3.40145 37.6407C3.26871 37.6407 3.16129 37.7481 3.16129 37.8809C3.16129 37.8959 3.16129 37.9263 3.11801 37.9455C3.32355 38.1186 3.53715 38.2823 3.75824 38.4362C3.89637 38.4312 4.0309 38.3792 4.13629 38.2834C4.2659 38.1659 4.45582 37.884 4.26895 37.3234ZM2.98926 2.74163C2.90387 2.48553 2.93363 2.3396 2.98996 2.2885C3.02676 2.25382 3.08262 2.25522 3.11777 2.27116C3.16113 2.29038 3.16113 2.32085 3.16113 2.33592C3.16113 2.46866 3.26855 2.57608 3.40129 2.57608C3.53402 2.57608 3.64145 2.46866 3.64145 2.33592C3.64145 2.32092 3.64145 2.29046 3.6848 2.27116C3.71949 2.25522 3.77488 2.25382 3.81262 2.2885C3.86895 2.33967 3.89871 2.48553 3.81332 2.74163C3.75121 2.92741 3.52645 3.41069 3.40129 3.67311C3.27895 3.41686 3.05184 2.92866 2.98926 2.74163ZM3.64074 5.69827C3.5498 5.76905 3.46926 5.85366 3.40137 5.94936C3.33348 5.85366 3.25293 5.76905 3.16199 5.69827C3.25293 5.62749 3.33348 5.54288 3.40137 5.44718C3.46918 5.54288 3.5498 5.62749 3.64074 5.69827ZM1.87379 11.1678L3.40137 7.73085L4.92895 11.1678C5.02957 11.3939 5.08254 11.6439 5.08254 11.8912C5.08254 12.2369 4.88199 12.5394 4.59473 12.6272C4.3616 12.6999 4.12051 12.6605 3.93426 12.5226C3.74824 12.3851 3.64152 12.1736 3.64152 11.9428C3.64152 11.6538 3.82684 11.5582 3.90652 11.5305C4.03012 11.4873 4.14785 11.5122 4.1859 11.5605C4.21801 11.6012 4.21473 11.7129 4.09957 11.894C4.02824 12.0056 4.0609 12.1543 4.17277 12.2256C4.28559 12.2965 4.43355 12.2641 4.50441 12.1519C4.81121 11.6712 4.64746 11.37 4.56277 11.2626C4.38871 11.043 4.06184 10.968 3.74895 11.0768C3.71324 11.0891 3.67723 11.1044 3.64152 11.1226V10.5151C3.6416 10.5152 3.64191 10.5155 3.64191 10.5155C3.64926 10.6419 3.75387 10.7418 3.88168 10.7418C4.01441 10.7418 4.12184 10.6344 4.12184 10.5016C4.12184 10.345 4.0123 10.0733 3.64152 9.98905V9.541C3.64152 9.40827 3.5341 9.30085 3.40137 9.30085C3.26863 9.30085 3.16121 9.40827 3.16121 9.541V9.98905C2.79043 10.0733 2.6809 10.345 2.6809 10.5016C2.6809 10.6344 2.78809 10.7498 2.92059 10.7498C3.05332 10.7498 3.16027 10.6503 3.16027 10.5176C3.16035 10.5171 3.16105 10.5166 3.16121 10.5162V11.1225C3.12551 11.1044 3.08949 11.0891 3.05379 11.0767C2.7409 10.9679 2.41371 11.043 2.23996 11.2625C2.15527 11.3699 1.9916 11.6711 2.2984 12.1519C2.36973 12.2635 2.51793 12.2958 2.63004 12.2255C2.74191 12.1542 2.77449 12.0055 2.70324 11.8939C2.58809 11.7128 2.5848 11.6012 2.61691 11.5604C2.65465 11.5121 2.77246 11.4872 2.89629 11.5304C2.97605 11.558 3.16129 11.6537 3.16129 11.9427C3.16129 12.1735 3.05457 12.3851 2.86855 12.5225C2.68207 12.6604 2.44121 12.6998 2.20809 12.6271C1.92074 12.5394 1.72027 12.2368 1.72027 11.8911C1.72012 11.6439 1.77316 11.3939 1.87379 11.1678ZM3.64309 12.9034C3.54824 12.9745 3.47035 13.0616 3.40137 13.1553C3.33238 13.0616 3.25441 12.9744 3.15965 12.9034C3.25449 12.8323 3.33238 12.7453 3.40137 12.6516C3.47027 12.7452 3.54824 12.8323 3.64309 12.9034ZM1.87379 14.639C1.77316 14.4129 1.7202 14.1629 1.7202 13.9156C1.7202 13.5699 1.92074 13.2673 2.20801 13.1796C2.44137 13.1074 2.68223 13.1463 2.86848 13.2842C3.05449 13.4216 3.16121 13.6332 3.16121 13.864C3.16121 14.153 2.9759 14.2487 2.89621 14.2763C2.77238 14.3199 2.65465 14.2946 2.61684 14.2463C2.58473 14.2055 2.58801 14.0939 2.70316 13.9128C2.77449 13.8012 2.74184 13.6525 2.62996 13.5812C2.51785 13.5103 2.36988 13.5432 2.29832 13.6548C1.99152 14.1357 2.15527 14.4368 2.23988 14.5442C2.41371 14.7637 2.7409 14.8388 3.05371 14.73C3.08941 14.7176 3.12543 14.7023 3.16113 14.6842V15.2916L3.16066 15.291C3.1534 15.1648 3.04879 15.0649 2.92098 15.0649C2.78824 15.0649 2.68082 15.1723 2.68082 15.3051C2.68082 15.4618 2.79035 15.7334 3.16113 15.8176V16.2657C3.16113 16.3984 3.26855 16.5058 3.40129 16.5058C3.53402 16.5058 3.64145 16.3984 3.64145 16.2657V15.8176C4.01223 15.7334 4.12176 15.4617 4.12176 15.3051C4.12176 15.1723 4.01457 15.0569 3.88207 15.0569C3.74934 15.0569 3.64238 15.1564 3.64238 15.2891C3.6423 15.2896 3.6416 15.2901 3.6416 15.2901L3.64152 14.6842C3.67723 14.7023 3.71324 14.7176 3.74895 14.73C4.06184 14.8388 4.38879 14.7637 4.56277 14.5442C4.64746 14.4368 4.81113 14.1356 4.50441 13.6548C4.43309 13.5427 4.28488 13.5099 4.17277 13.5812C4.0609 13.6525 4.02832 13.8012 4.09957 13.9128C4.21473 14.0939 4.21801 14.2055 4.1859 14.2463C4.14793 14.2946 4.0302 14.32 3.90652 14.2763C3.82676 14.2487 3.64152 14.153 3.64152 13.864C3.64152 13.6332 3.74824 13.4216 3.93426 13.2842C4.12074 13.1463 4.36207 13.1074 4.59473 13.1796C4.88207 13.2673 5.08254 13.5699 5.08254 13.9156C5.08254 14.1628 5.02957 14.4129 4.92895 14.639L3.40137 18.0759L1.87379 14.639ZM3.64074 20.1085C3.5498 20.1793 3.46926 20.2639 3.40137 20.3596C3.33348 20.2639 3.25293 20.1793 3.16199 20.1085C3.25293 20.0377 3.33348 19.9531 3.40137 19.8574C3.46918 19.9531 3.5498 20.0377 3.64074 20.1085ZM1.87379 25.578L3.40137 22.1412L4.92895 25.578C5.02957 25.8041 5.08254 26.0541 5.08254 26.3014C5.08254 26.6471 4.88199 26.9497 4.59473 27.0374C4.3616 27.1101 4.12051 27.0707 3.93426 26.9328C3.74824 26.7954 3.64152 26.5838 3.64152 26.353C3.64152 26.0641 3.82684 25.9684 3.90652 25.9407C4.03012 25.8976 4.14785 25.9224 4.1859 25.9707C4.21801 26.0115 4.21473 26.1231 4.09957 26.3042C4.02824 26.4158 4.0609 26.5645 4.17277 26.6358C4.28559 26.7072 4.43355 26.6743 4.50441 26.5622C4.81121 26.0814 4.64746 25.7802 4.56277 25.6728C4.38871 25.4533 4.06184 25.3787 3.74895 25.487C3.71324 25.4994 3.67723 25.5147 3.64152 25.5328V24.9253L3.64199 24.9259C3.64926 25.0521 3.75387 25.152 3.88168 25.152C4.01441 25.152 4.12184 25.0446 4.12184 24.9119C4.12184 24.7552 4.0123 24.4835 3.64152 24.3993V23.9512C3.64152 23.8184 3.5341 23.711 3.40137 23.711C3.26863 23.711 3.16121 23.8184 3.16121 23.9512V24.3993C2.79043 24.4835 2.6809 24.7552 2.6809 24.9119C2.6809 25.0446 2.78809 25.16 2.92059 25.16C3.05332 25.16 3.16027 25.0605 3.16027 24.9278C3.16035 24.9273 3.16105 24.9269 3.16105 24.9269L3.16121 25.5327C3.12551 25.5146 3.08949 25.4993 3.05379 25.4869C2.7409 25.3786 2.41371 25.4532 2.23996 25.6727C2.15527 25.7801 1.9916 26.0813 2.2984 26.5621C2.36973 26.6737 2.51793 26.7061 2.63004 26.6358C2.74191 26.5644 2.77449 26.4158 2.70324 26.3041C2.58809 26.123 2.5848 26.0114 2.61691 25.9706C2.65465 25.9223 2.77246 25.8974 2.89629 25.9406C2.97605 25.9683 3.16129 26.064 3.16129 26.353C3.16129 26.5837 3.05457 26.7953 2.86855 26.9327C2.68207 27.0706 2.44121 27.1101 2.20809 27.0373C1.92074 26.9496 1.72027 26.6471 1.72027 26.3013C1.72012 26.0541 1.77316 25.8041 1.87379 25.578ZM3.64309 27.3137C3.54824 27.3848 3.47035 27.4718 3.40137 27.5655C3.33238 27.4718 3.25441 27.3847 3.15965 27.3137C3.25449 27.2426 3.33238 27.1555 3.40137 27.0618C3.47027 27.1555 3.54824 27.2426 3.64309 27.3137ZM1.87379 29.0493C1.77316 28.8232 1.7202 28.5731 1.7202 28.3259C1.7202 27.9802 1.92074 27.6776 2.20801 27.5899C2.44137 27.5176 2.68223 27.5566 2.86848 27.6945C3.05449 27.8319 3.16121 28.0435 3.16121 28.2743C3.16121 28.5633 2.9759 28.659 2.89621 28.6866C2.77238 28.7298 2.65465 28.7049 2.61684 28.6566C2.58473 28.6158 2.58801 28.5041 2.70316 28.3231C2.77449 28.2115 2.74184 28.0628 2.62996 27.9915C2.51785 27.9211 2.36988 27.954 2.29832 28.0651C1.99152 28.546 2.15527 28.8471 2.23988 28.9545C2.41371 29.1741 2.7409 29.2496 3.05371 29.1403C3.08941 29.1279 3.12543 29.1126 3.16113 29.0945V29.7019C3.16105 29.7018 3.16074 29.7016 3.16074 29.7016C3.1534 29.5751 3.04879 29.4752 2.92098 29.4752C2.78824 29.4752 2.68082 29.5826 2.68082 29.7154C2.68082 29.8721 2.79035 30.1437 3.16113 30.228V30.6761C3.16113 30.8088 3.26855 30.9162 3.40129 30.9162C3.53402 30.9162 3.64145 30.8088 3.64145 30.6761V30.228C4.01223 30.1437 4.12176 29.872 4.12176 29.7154C4.12176 29.5826 4.01457 29.4673 3.88207 29.4673C3.74934 29.4673 3.64238 29.5667 3.64238 29.6994C3.6423 29.6999 3.6416 29.7004 3.64145 29.7008V29.0945C3.67715 29.1126 3.71316 29.128 3.74887 29.1403C4.06176 29.2496 4.38871 29.1741 4.5627 28.9545C4.64738 28.8471 4.81105 28.5459 4.50434 28.0651C4.43301 27.9535 4.2848 27.9207 4.1727 27.9915C4.06082 28.0628 4.02824 28.2115 4.09949 28.3231C4.21465 28.5042 4.21793 28.6158 4.18582 28.6566C4.14785 28.7049 4.03012 28.7298 3.90645 28.6866C3.82668 28.659 3.64145 28.5633 3.64145 28.2743C3.64145 28.0435 3.74816 27.8319 3.93418 27.6945C4.12066 27.5566 4.36199 27.5172 4.59465 27.5899C4.88199 27.6776 5.08246 27.9802 5.08246 28.3259C5.08246 28.5731 5.02949 28.8232 4.92887 29.0493L3.40129 32.4862L1.87379 29.0493ZM3.40137 34.7698C3.33348 34.6741 3.25293 34.5895 3.16199 34.5187C3.25293 34.448 3.33348 34.3633 3.40137 34.2676C3.46926 34.3633 3.5498 34.448 3.64074 34.5187C3.5498 34.5895 3.46918 34.6741 3.40137 34.7698Z" fill="#FFE15A"/>
<path d="M21.1172 22.3609C23.6353 22.3609 25.6766 20.3196 25.6766 17.8016C25.6766 15.2835 23.6353 13.2422 21.1172 13.2422C18.5992 13.2422 16.5579 15.2835 16.5579 17.8016C16.5579 20.3196 18.5992 22.3609 21.1172 22.3609Z" fill="#FFE15A"/>
<path d="M21.4589 11.9877C21.4589 12.1766 21.3058 12.3297 21.117 12.3297C20.9281 12.3297 20.775 12.1766 20.775 11.9877C20.775 11.7989 21.117 10.9618 21.117 10.9618C21.117 10.9618 21.4589 11.7989 21.4589 11.9877Z" fill="#FFE15A"/>
<path d="M20.775 23.6148C20.775 23.4259 20.9281 23.2728 21.117 23.2728C21.3059 23.2728 21.4589 23.4259 21.4589 23.6148C21.4589 23.8037 21.117 24.6407 21.117 24.6407C21.117 24.6407 20.775 23.8037 20.775 23.6148Z" fill="#FFE15A"/>
<path d="M26.9305 18.1433C26.7416 18.1433 26.5885 17.9901 26.5885 17.8013C26.5885 17.6125 26.7416 17.4594 26.9305 17.4594C27.1194 17.4594 27.9564 17.8013 27.9564 17.8013C27.9564 17.8013 27.1194 18.1433 26.9305 18.1433Z" fill="#FFE15A"/>
<path d="M15.3035 17.4593C15.4924 17.4593 15.6455 17.6124 15.6455 17.8012C15.6455 17.9901 15.4924 18.1432 15.3035 18.1432C15.1147 18.1432 14.2776 17.8012 14.2776 17.8012C14.2776 17.8012 15.1147 17.4593 15.3035 17.4593Z" fill="#FFE15A"/>
<path d="M25.4696 13.9323C25.3361 14.0659 25.1195 14.0659 24.986 13.9323C24.8525 13.7988 24.8525 13.5823 24.986 13.4487C25.1195 13.3151 25.9533 12.9651 25.9533 12.9651C25.9533 12.9651 25.6032 13.7987 25.4696 13.9323Z" fill="#FFE15A"/>
<path d="M16.7644 21.6702C16.8979 21.5367 17.1145 21.5367 17.248 21.6702C17.3815 21.8038 17.3815 22.0203 17.248 22.1538C17.1145 22.2873 16.2808 22.6374 16.2808 22.6374C16.2808 22.6374 16.6309 21.8038 16.7644 21.6702Z" fill="#FFE15A"/>
<path d="M24.986 22.1538C24.8525 22.0203 24.8525 21.8038 24.986 21.6702C25.1195 21.5367 25.3361 21.5367 25.4696 21.6702C25.6031 21.8038 25.9532 22.6375 25.9532 22.6375C25.9532 22.6375 25.1195 22.2874 24.986 22.1538Z" fill="#FFE15A"/>
<path d="M17.2479 13.4487C17.3815 13.5822 17.3815 13.7987 17.2479 13.9323C17.1144 14.0658 16.8979 14.0658 16.7644 13.9323C16.6308 13.7987 16.2808 12.965 16.2808 12.965C16.2808 12.965 17.1144 13.3152 17.2479 13.4487Z" fill="#FFE15A"/>
<path d="M19.2083 12.2994C19.2805 12.474 19.1977 12.674 19.0232 12.7462C18.8487 12.8185 18.6487 12.7357 18.5764 12.5612C18.5041 12.3867 18.4998 11.4825 18.4998 11.4825C18.4998 11.4825 19.1359 12.1249 19.2083 12.2994Z" fill="#FFE15A"/>
<path d="M23.0259 23.3031C22.9536 23.1287 23.0364 22.9286 23.211 22.8563C23.3854 22.7841 23.5855 22.8669 23.6578 23.0414C23.73 23.2159 23.7344 24.1201 23.7344 24.1201C23.7344 24.1201 23.0981 23.4776 23.0259 23.3031Z" fill="#FFE15A"/>
<path d="M26.6189 15.8925C26.4445 15.9647 26.2444 15.8819 26.1721 15.7074C26.0999 15.5329 26.1827 15.3329 26.3572 15.2606C26.5316 15.1883 27.4359 15.184 27.4359 15.184C27.4359 15.184 26.7934 15.8202 26.6189 15.8925Z" fill="#FFE15A"/>
<path d="M15.6152 19.7101C15.7896 19.6378 15.9897 19.7206 16.062 19.8952C16.1342 20.0696 16.0514 20.2697 15.8769 20.342C15.7024 20.4142 14.7982 20.4186 14.7982 20.4186C14.7982 20.4186 15.4406 19.7823 15.6152 19.7101Z" fill="#FFE15A"/>
<path d="M23.6577 12.5612C23.5855 12.7357 23.3854 12.8185 23.2109 12.7462C23.0365 12.674 22.9536 12.4739 23.0259 12.2994C23.0981 12.125 23.7344 11.4825 23.7344 11.4825C23.7344 11.4825 23.73 12.3866 23.6577 12.5612Z" fill="#FFE15A"/>
<path d="M18.5764 23.0414C18.6487 22.8669 18.8487 22.7841 19.0232 22.8563C19.1976 22.9286 19.2805 23.1287 19.2083 23.3031C19.136 23.4776 18.4998 24.1201 18.4998 24.1201C18.4998 24.1201 18.5041 23.2159 18.5764 23.0414Z" fill="#FFE15A"/>
<path d="M26.3572 20.3419C26.1827 20.2697 26.0998 20.0696 26.1721 19.8951C26.2444 19.7207 26.4445 19.6378 26.6189 19.7101C26.7934 19.7823 27.4359 20.4186 27.4359 20.4186C27.4359 20.4186 26.5316 20.4142 26.3572 20.3419Z" fill="#FFE15A"/>
<path d="M15.8769 15.2606C16.0513 15.3329 16.1342 15.5329 16.062 15.7074C15.9897 15.8819 15.7896 15.9647 15.6152 15.8925C15.4406 15.8202 14.7982 15.184 14.7982 15.184C14.7982 15.184 15.7024 15.1883 15.8769 15.2606Z" fill="#FFE15A"/>
<path d="M20.3183 12.0327C20.3552 12.2179 20.2349 12.3979 20.0496 12.4348C19.8644 12.4717 19.6844 12.3514 19.6475 12.1662C19.6106 11.9809 19.7827 11.0933 19.7827 11.0933C19.7827 11.0933 20.2814 11.8475 20.3183 12.0327Z" fill="#FFE15A"/>
<path d="M21.9157 23.5698C21.8788 23.3845 21.9991 23.2045 22.1844 23.1677C22.3696 23.1308 22.5496 23.2511 22.5865 23.4363C22.6234 23.6216 22.4513 24.5092 22.4513 24.5092C22.4513 24.5092 21.9526 23.755 21.9157 23.5698Z" fill="#FFE15A"/>
<path d="M26.8856 17.0025C26.7003 17.0394 26.5203 16.9191 26.4835 16.7338C26.4466 16.5486 26.5669 16.3685 26.7521 16.3317C26.9374 16.2948 27.825 16.467 27.825 16.467C27.825 16.467 27.0708 16.9657 26.8856 17.0025Z" fill="#FFE15A"/>
<path d="M15.3485 18.6001C15.5337 18.5632 15.7138 18.6835 15.7506 18.8687C15.7875 19.054 15.6672 19.234 15.4819 19.2708C15.2967 19.3077 14.4091 19.1356 14.4091 19.1356C14.4091 19.1356 15.1633 18.6369 15.3485 18.6001Z" fill="#FFE15A"/>
<path d="M24.6311 13.1575C24.5262 13.3145 24.3138 13.3568 24.1568 13.2519C23.9998 13.147 23.9575 12.9346 24.0624 12.7776C24.1673 12.6205 24.9167 12.1145 24.9167 12.1145C24.9167 12.1145 24.736 13.0005 24.6311 13.1575Z" fill="#FFE15A"/>
<path d="M17.6029 22.4451C17.7078 22.288 17.9202 22.2458 18.0772 22.3507C18.2342 22.4556 18.2765 22.668 18.1716 22.825C18.0666 22.982 17.3173 23.488 17.3173 23.488C17.3173 23.488 17.498 22.6021 17.6029 22.4451Z" fill="#FFE15A"/>
<path d="M25.7608 21.3154C25.6038 21.2105 25.5615 20.9981 25.6664 20.8411C25.7713 20.6841 25.9837 20.6418 26.1407 20.7467C26.2978 20.8516 26.8038 21.601 26.8038 21.601C26.8038 21.601 25.9178 21.4204 25.7608 21.3154Z" fill="#FFE15A"/>
<path d="M16.4733 14.2871C16.6303 14.392 16.6726 14.6044 16.5676 14.7614C16.4627 14.9184 16.2504 14.9607 16.0933 14.8558C15.9363 14.7508 15.4303 14.0015 15.4303 14.0015C15.4303 14.0015 16.3162 14.1822 16.4733 14.2871Z" fill="#FFE15A"/>
<path d="M18.1716 12.7776C18.2765 12.9346 18.2342 13.147 18.0772 13.2519C17.9202 13.3568 17.7078 13.3145 17.6029 13.1575C17.498 13.0005 17.3173 12.1145 17.3173 12.1145C17.3173 12.1145 18.0666 12.6205 18.1716 12.7776Z" fill="#FFE15A"/>
<path d="M24.0624 22.825C23.9575 22.668 23.9998 22.4556 24.1568 22.3507C24.3138 22.2458 24.5262 22.288 24.6311 22.4451C24.736 22.6021 24.9167 23.488 24.9167 23.488C24.9167 23.488 24.1673 22.982 24.0624 22.825Z" fill="#FFE15A"/>
<path d="M26.1407 14.8558C25.9837 14.9607 25.7713 14.9184 25.6664 14.7614C25.5615 14.6044 25.6038 14.392 25.7608 14.2871C25.9178 14.1822 26.8038 14.0015 26.8038 14.0015C26.8038 14.0015 26.2978 14.7508 26.1407 14.8558Z" fill="#FFE15A"/>
<path d="M16.0932 20.7467C16.2503 20.6418 16.4626 20.6841 16.5675 20.8411C16.6724 20.9981 16.6302 21.2105 16.4731 21.3154C16.3161 21.4203 15.4302 21.601 15.4302 21.601C15.4302 21.601 15.9362 20.8516 16.0932 20.7467Z" fill="#FFE15A"/>
<path d="M22.5866 12.1662C22.5497 12.3514 22.3697 12.4717 22.1845 12.4348C21.9993 12.3979 21.8789 12.2179 21.9158 12.0327C21.9527 11.8475 22.4514 11.0933 22.4514 11.0933C22.4514 11.0933 22.6234 11.9809 22.5866 12.1662Z" fill="#FFE15A"/>
<path d="M19.6475 23.4364C19.6844 23.2512 19.8644 23.1308 20.0496 23.1677C20.2349 23.2046 20.3552 23.3846 20.3183 23.5698C20.2814 23.7551 19.7827 24.5093 19.7827 24.5093C19.7827 24.5093 19.6106 23.6216 19.6475 23.4364Z" fill="#FFE15A"/>
<path d="M26.7521 19.2708C26.5669 19.234 26.4466 19.054 26.4835 18.8687C26.5203 18.6835 26.7003 18.5632 26.8856 18.6001C27.0708 18.6369 27.825 19.1356 27.825 19.1356C27.825 19.1356 26.9374 19.3076 26.7521 19.2708Z" fill="#FFE15A"/>
<path d="M15.4819 16.3317C15.6672 16.3686 15.7875 16.5486 15.7506 16.7338C15.7137 16.9191 15.5337 17.0394 15.3485 17.0025C15.1633 16.9656 14.4091 16.467 14.4091 16.467C14.4091 16.467 15.2967 16.2948 15.4819 16.3317Z" fill="#FFE15A"/>
<path d="M31.842 19.0009C31.7085 18.9448 31.5557 19.0091 31.5001 19.1419C31.5001 19.1424 31.5001 19.1424 31.5001 19.1424C31.4991 19.145 31.494 19.1573 31.485 19.1782C31.2874 19.6398 30.8786 20.3145 30.4657 20.9493C30.8502 19.7113 31.2018 18.3891 31.2264 18.2962C31.2632 18.1572 31.1809 18.0148 31.0422 17.9769C30.9033 17.9397 30.7606 18.0204 30.7218 18.1587C30.5422 18.8017 30.1753 19.648 29.8367 20.3644C29.8987 19.5657 29.9105 18.8257 29.9112 18.7721C29.9132 18.6306 29.8025 18.5137 29.661 18.507C29.5279 18.5111 29.3995 18.6081 29.389 18.7496C29.0543 23.3551 24.6226 25.4153 24.1911 25.6048C23.9654 25.6273 22.9139 25.7457 21.9593 26.0772C21.8511 26.1148 21.759 26.1524 21.6671 26.1898C21.6331 26.177 21.5964 26.1698 21.5579 26.1722C18.6286 26.3841 16.2929 25.1824 14.6142 22.608C13.3458 20.6627 12.948 18.6209 12.9442 18.6005C12.9174 18.4585 12.7815 18.3671 12.6388 18.3921C12.4968 18.4191 12.4036 18.5555 12.4304 18.6975C12.4411 18.7538 12.6155 19.6451 13.0963 20.818C12.4532 19.8027 12.005 18.5728 11.8472 17.9324C11.8441 17.9196 11.8359 17.9099 11.8311 17.898C11.8237 17.8799 11.8175 17.8618 11.8066 17.8461C11.7989 17.835 11.7889 17.8269 11.7796 17.8173C11.7654 17.8022 11.7516 17.7874 11.7343 17.7762C11.7243 17.7697 11.713 17.7665 11.7022 17.7614C11.6829 17.7524 11.664 17.7435 11.6425 17.7395C11.6277 17.7366 11.6124 17.7385 11.597 17.7383C11.5814 17.7381 11.5665 17.734 11.5505 17.7369C11.547 17.7374 11.5443 17.7397 11.5408 17.7405C11.5375 17.7412 11.5342 17.7401 11.5308 17.7409C11.5168 17.7444 11.5061 17.7531 11.4933 17.7586C11.477 17.7656 11.4603 17.7709 11.446 17.7808C11.4319 17.7905 11.4214 17.8031 11.4096 17.8152C11.398 17.8273 11.3857 17.8378 11.3765 17.8517C11.3672 17.8658 11.3621 17.8817 11.3557 17.8974C11.3493 17.9127 11.3421 17.9271 11.3387 17.9437C11.3353 17.9606 11.3368 17.978 11.3369 17.9956C11.3369 18.0097 11.3331 18.0232 11.3355 18.0376C11.3365 18.0437 11.3386 18.05 11.3396 18.0561V18.057C11.3399 18.0582 11.3403 18.0597 11.3406 18.0607C11.5023 19.0137 11.8879 20.0017 12.2364 20.7551C11.6828 20.1269 11.2204 19.4033 11.0564 18.9748C11.0516 18.9623 11.0421 18.9536 11.0357 18.9423C11.026 18.925 11.0175 18.9073 11.0044 18.893C10.9952 18.8829 10.9838 18.8762 10.9732 18.8677C10.9574 18.855 10.9422 18.842 10.9239 18.8333C10.9121 18.8276 10.8993 18.8258 10.8868 18.822C10.8675 18.8162 10.8489 18.8098 10.8283 18.8086C10.8121 18.8075 10.7962 18.8115 10.7799 18.8137C10.7648 18.8156 10.7499 18.8137 10.7348 18.8183C10.7319 18.8193 10.73 18.8215 10.7271 18.8226C10.7243 18.8234 10.7215 18.823 10.7187 18.824C10.7045 18.8294 10.6944 18.8399 10.6817 18.8474C10.6668 18.8563 10.6509 18.8635 10.6382 18.8749C10.6252 18.8866 10.6163 18.901 10.6061 18.9149C10.5964 18.928 10.5855 18.9398 10.5784 18.9543C10.5709 18.9696 10.5682 18.9862 10.5638 19.0026C10.5595 19.0187 10.5538 19.0338 10.5527 19.0507C10.5515 19.0676 10.5557 19.0844 10.5579 19.1015C10.5599 19.1163 10.5579 19.131 10.5625 19.1457C10.8469 20.0634 11.5313 21.1553 12.0672 21.9244C11.6206 21.5802 11.2922 21.2079 11.197 21.0955C11.1868 21.0833 11.1766 21.071 11.1664 21.0587C11.0742 20.9479 10.9113 20.9321 10.7996 21.0225C10.6883 21.1134 10.671 21.2768 10.7608 21.3887C10.7657 21.3948 10.7854 21.4193 10.818 21.4576C11.2102 21.9244 11.6377 22.3601 12.0248 22.7278L11.4952 22.5021C11.3744 22.45 11.2325 22.497 11.1663 22.6119C11.1002 22.7268 11.13 22.8723 11.236 22.952C11.2875 22.9903 12.2254 23.691 13.0375 24.1051C12.9608 24.1097 12.871 24.1041 12.7704 24.0965C12.6475 24.0848 12.5268 24.1726 12.4968 24.2972C12.4675 24.4223 12.5329 24.55 12.6516 24.599C12.6715 24.6072 12.9189 24.7093 13.2246 24.818C13.1533 24.8472 13.0967 24.9069 13.0732 24.9845C13.0379 25.1005 13.0875 25.2261 13.1927 25.2863C13.22 25.3022 13.5898 25.5141 14.0471 25.702C14.0348 25.7209 14.0249 25.7413 14.0175 25.7638C13.9817 25.8736 14.0225 25.9941 14.1179 26.0601C14.1972 26.1147 15.9732 27.32 18.0475 27.32C18.1836 27.32 18.3212 27.3149 18.4596 27.3037C18.6033 27.2924 18.7108 27.1662 18.6993 27.0223C18.6879 26.8783 18.563 26.7694 18.4177 26.7827C17.1146 26.889 15.8593 26.3997 15.1127 26.0258C15.2113 26.0019 15.2679 25.9799 15.282 25.9743C15.3971 25.9273 15.4636 25.8062 15.4411 25.6842C15.4186 25.5622 15.3134 25.4728 15.189 25.4702C14.8859 25.4641 14.4661 25.3165 14.1046 25.1582C14.2412 25.0898 14.3208 25.0244 14.328 25.0187C14.4067 24.9529 14.4399 24.8476 14.413 24.7486C14.386 24.65 14.3037 24.5759 14.2026 24.5596C14.0915 24.5412 13.9532 24.5055 13.8081 24.4615C13.949 24.3804 14.009 24.291 14.0321 24.2455C14.0683 24.173 14.0691 24.0883 14.0343 24.0152C13.9993 23.9422 13.9327 23.8896 13.8536 23.8727C13.7851 23.8579 13.7078 23.8329 13.624 23.8002C13.6393 23.7849 13.6534 23.7676 13.6649 23.7476C13.7315 23.6348 13.7039 23.4898 13.6005 23.4085C13.5951 23.4044 13.3921 23.2451 13.085 22.98C13.1337 22.9621 13.1769 22.9289 13.208 22.884C13.2739 22.789 13.2693 22.6618 13.197 22.5719C13.1912 22.5648 12.9879 22.3092 12.7079 21.9211C12.8003 21.9929 12.8928 22.0662 12.985 22.1255C13.0285 22.1531 13.0777 22.1669 13.1265 22.1669C13.1926 22.1669 13.258 22.1419 13.3083 22.0934C13.329 22.0734 13.3452 22.0504 13.3579 22.0258C13.5165 22.1953 13.6832 22.3492 13.8583 22.4805C13.8811 22.4976 13.9088 22.4973 13.9345 22.5058C14.0086 22.6301 14.0859 22.7548 14.1668 22.8794C15.7546 25.3225 17.9934 26.6312 20.6787 26.7097C20.4314 26.8598 20.1631 27.015 19.738 27.1805C19.6453 27.2165 19.5633 27.2529 19.4808 27.2891C19.4411 27.2969 19.4037 27.3113 19.3725 27.336C18.6307 27.6794 18.3236 28.0187 18.1989 28.256C18.0746 28.4919 18.1818 28.734 18.3338 28.8597C18.3811 28.8985 18.4411 28.9184 18.5013 28.9184C18.5426 28.9184 18.584 28.9092 18.6216 28.8903C18.714 28.8444 18.7758 28.7468 18.7718 28.6441C18.7825 28.6324 18.8279 28.5946 18.9704 28.59C19.0743 28.5813 19.2929 28.6048 19.548 28.6252C19.7907 28.6452 20.0818 28.6679 20.3913 28.6838C20.1977 28.9095 19.9726 29.1712 19.9726 29.1712C19.905 29.2498 19.8901 29.3612 19.9351 29.4546C19.9804 29.5486 20.0776 29.6068 20.1797 29.6032C20.3863 29.596 20.5268 29.5919 20.6189 29.5899C20.6994 29.6951 20.7979 29.737 20.8615 29.7533C21.0413 29.7993 21.2205 29.7273 21.3556 29.642C21.4577 29.7155 21.5599 29.7467 21.6408 29.7584C21.8234 29.7834 21.9925 29.7304 22.1147 29.6701C22.2414 29.7518 22.3655 29.7727 22.46 29.7727C22.4612 29.7727 22.4628 29.7727 22.4643 29.7727C22.6683 29.7717 22.8468 29.6731 22.9732 29.5766C23.0847 29.643 23.1914 29.6644 23.2739 29.668C23.4611 29.6747 23.6164 29.6026 23.7196 29.5352C24.088 29.6093 24.4057 29.4356 24.6156 29.2441C24.7114 29.2998 24.8025 29.3136 24.875 29.31C25.0617 29.3033 25.2039 29.19 25.2951 29.0883C25.7129 29.1389 26.0126 29.0618 26.1861 28.856C26.2805 28.7441 26.3189 28.618 26.3293 28.5031C27.4884 28.4965 27.5933 27.8637 27.6018 27.7856C27.6094 27.7146 27.5877 27.6437 27.5415 27.589C27.4956 27.5344 27.4289 27.5006 27.3577 27.4965L24.319 27.3137C24.1918 27.3045 24.0785 27.3898 24.0489 27.514C24.0483 27.516 23.9965 27.709 23.8343 27.8633C23.6162 28.0715 23.265 28.1815 22.8829 28.2398C22.8844 28.2048 22.8794 28.1691 22.8661 28.1344C22.8139 27.9996 22.6623 27.9342 22.5279 27.9848C21.9006 28.2283 20.8849 28.1976 20.0903 28.1423C20.2122 28.0426 20.3589 27.9441 20.4761 27.8797C20.5752 27.8251 20.6283 27.7132 20.6074 27.6019C20.5921 27.521 20.5337 27.4648 20.4632 27.4285C20.6842 27.317 20.8653 27.2092 21.0371 27.1044C21.3354 26.9215 21.6173 26.7494 22.1306 26.5712C23.1214 26.2269 24.2679 26.1222 24.2793 26.1212C24.3054 26.1192 24.3309 26.1126 24.3552 26.1029C24.3961 26.086 27.63 24.7312 29.1538 21.6051C29.1339 21.6996 29.1124 21.7859 29.0892 21.8615C29.0493 21.9902 29.1137 22.1276 29.2378 22.1798C29.3338 22.2201 29.4429 22.1991 29.5166 22.1307C29.4204 22.3845 29.3332 22.5842 29.2623 22.7022C29.1898 22.8222 29.2248 22.978 29.3414 23.0556C29.3688 23.0735 29.3982 23.0858 29.4282 23.0929C29.3103 23.2655 29.1907 23.4289 29.0715 23.5786C28.9921 23.6782 28.9967 23.8201 29.0797 23.9141C28.875 24.1286 28.6934 24.3053 28.5555 24.4176C28.4654 24.4907 28.436 24.6127 28.4774 24.7169C28.3443 24.793 28.235 24.8466 28.1592 24.8696C28.032 24.9079 27.9539 25.0361 27.9779 25.1669C27.9904 25.2358 28.0292 25.294 28.0828 25.3323C27.9229 25.3752 27.748 25.4166 27.558 25.4544C27.451 25.4758 27.3686 25.5611 27.3509 25.6688C27.3336 25.7765 27.3846 25.8838 27.4793 25.938C27.4875 25.9426 27.5768 25.9931 27.7135 26.0513C27.2076 26.2551 26.3044 26.5212 24.8224 26.6673C24.6789 26.6815 24.5736 26.8098 24.588 26.9533C24.6021 27.0968 24.7261 27.1964 24.874 27.1882C27.6875 26.9098 28.5562 26.2056 28.5917 26.1755C28.6729 26.1076 28.705 25.9967 28.6729 25.8956C28.6514 25.8287 28.6044 25.7746 28.5442 25.7434C29.443 25.4605 29.8289 25.1474 29.849 25.1306C29.9476 25.0489 29.9724 24.9074 29.9075 24.7966C29.8421 24.6858 29.7061 24.6378 29.5873 24.6858C29.5539 24.6985 29.5005 24.7118 29.4331 24.7251C30.0362 24.3119 30.6767 23.8201 30.9583 23.6005C31.0079 23.5637 31.0528 23.5284 31.0924 23.4952C31.2017 23.4033 31.217 23.2409 31.1268 23.1301C31.0372 23.0198 30.874 23.0014 30.7622 23.0898C30.7214 23.1219 30.679 23.1551 30.635 23.1894C30.505 23.2859 30.3388 23.3951 30.1575 23.5076C30.8421 22.7303 31.5313 21.8876 31.7282 21.6455C31.7461 21.6236 31.7636 21.6016 31.7815 21.5797C31.8719 21.4673 31.8543 21.3029 31.7419 21.2125C31.6293 21.1205 31.4646 21.1394 31.3745 21.2513L31.3739 21.2519L31.3737 21.2524C31.3689 21.258 31.3466 21.2856 31.3093 21.3315C31.103 21.5833 30.886 21.8269 30.6718 22.0547C31.3691 20.7907 31.8971 19.5466 31.9746 19.3623C31.9774 19.3556 31.98 19.349 31.9828 19.3423C32.0383 19.2093 31.9753 19.0561 31.842 19.0009ZM19.5864 27.8151L19.6579 27.8244C19.5703 27.9062 19.499 27.998 19.4424 28.0927C19.3182 28.0827 19.2056 28.074 19.1173 28.07C19.2389 27.9905 19.3955 27.9043 19.5864 27.8151Z" fill="#FFE15A"/>
</g>
<defs>
<clipPath id="clip0_298_29414">
<rect width="40" height="40" rx="8" fill="white"/>
</clipPath>
</defs>
</svg>
