<svg width="40" height="40" viewBox="0 0 40 40" fill="none" xmlns="http://www.w3.org/2000/svg">
<g clip-path="url(#clip0_298_29429)">
<path d="M31.25 0H8.75C3.9175 0 0 3.9175 0 8.75V31.25C0 36.0825 3.9175 40 8.75 40H31.25C36.0825 40 40 36.0825 40 31.25V8.75C40 3.9175 36.0825 0 31.25 0Z" fill="#FF4B55"/>
<path d="M31.1341 23.1394C31.1341 23.1394 29.0371 22.7899 27.4837 21.5016C27.0254 21.1216 26.3604 20.8312 25.7126 20.6166C26.2335 20.5935 26.7857 20.6081 27.3076 20.7136C29.4697 21.1508 31.5661 20.1012 31.5661 20.1012C31.5661 20.1012 29.4509 20.3146 27.6138 19.4795C27.117 19.2537 26.4725 19.1473 25.8435 19.1024C26.2959 18.9723 26.776 18.8705 27.25 18.8442C29.4525 18.7221 31.2166 17.1781 31.2166 17.1781C31.2166 17.1781 29.2235 17.9178 27.2352 17.5729C26.6561 17.4724 25.9453 17.5477 25.2839 17.6806C25.719 17.4074 26.198 17.1519 26.6952 16.9874C28.7894 16.2945 30.0891 14.3433 30.0891 14.3433C30.0891 14.3433 28.3584 15.5777 26.3489 15.7639C25.7522 15.8192 25.0726 16.087 24.4595 16.3956C24.8133 16.0077 25.2171 15.6238 25.6643 15.327C27.5023 14.1073 28.2425 11.8828 28.2425 11.8828C28.2425 11.8828 26.8978 13.5294 25.0082 14.238C24.4931 14.4312 23.9592 14.818 23.4798 15.2349C23.7089 14.8183 23.9784 14.4013 24.2983 14.0435C25.7685 12.399 25.9227 10.0597 25.9227 10.0597C25.9227 10.0597 25.0375 11.9926 23.3883 13.1556C22.9075 13.4945 22.4582 14.0514 22.0845 14.6138C22.1987 14.1123 22.3565 13.5921 22.5917 13.1235C23.5814 11.1521 23.1192 8.85368 23.1192 8.85368C23.1192 8.85368 22.7696 10.9506 21.4814 12.504C21.1014 12.9623 20.8109 13.6273 20.5964 14.2752C20.5732 13.7543 20.5878 13.2021 20.6933 12.6801C21.1305 10.518 20.081 8.42157 20.081 8.42157C20.081 8.42157 20.2943 10.5368 19.4593 12.3739C19.2335 12.8707 19.1271 13.5152 19.0822 14.1441C18.9521 13.6918 18.8503 13.2116 18.824 12.7377C18.702 10.5352 17.1578 8.77118 17.1578 8.77118C17.1578 8.77118 17.8976 10.7642 17.5526 12.7526C17.4521 13.3316 17.5274 14.0425 17.6603 14.704C17.3871 14.2688 17.1316 13.7899 16.9671 13.2926C16.2742 11.1984 14.3231 9.8986 14.3231 9.8986C14.3231 9.8986 15.5575 11.6294 15.7437 13.6388C15.799 14.2355 16.0668 14.9152 16.3753 15.5284C15.9875 15.1745 15.6035 14.7707 15.3067 14.3234C14.087 12.4854 11.8625 11.7452 11.8625 11.7452C11.8625 11.7452 13.509 13.0899 14.2176 14.9795C14.4108 15.4945 14.7976 16.0285 15.2145 16.5078C14.7979 16.2787 14.381 16.0092 14.0232 15.6893C12.3787 14.2191 10.0393 14.0649 10.0393 14.0649C10.0393 14.0649 11.9722 14.9501 13.1352 16.5992C13.4742 17.0799 14.0309 17.5294 14.5932 17.9031C14.0917 17.7888 13.5717 17.6311 13.1032 17.3959C11.1317 16.4063 8.83323 16.8684 8.83323 16.8684C8.83323 16.8684 10.9302 17.2181 12.4835 18.5062C12.9418 18.8862 13.6068 19.1766 14.2547 19.3912C13.7339 19.4144 13.1817 19.3998 12.6596 19.2942C10.4975 18.857 8.40112 19.9066 8.40112 19.9066C8.40112 19.9066 10.5164 19.6932 12.3535 20.5282C12.8503 20.7541 13.4948 20.8605 14.1237 20.9053C13.6714 21.0355 13.1912 21.1373 12.7172 21.1635C10.5147 21.2856 8.75065 22.8297 8.75065 22.8297C8.75065 22.8297 10.7437 22.0899 12.7321 22.4349C13.3111 22.5353 14.0219 22.4601 14.6835 22.3272C14.2483 22.6005 13.7693 22.8559 13.2721 23.0204C11.1778 23.7133 9.87808 25.6645 9.87808 25.6645C9.87808 25.6645 11.6088 24.43 13.6182 24.2438C14.215 24.1884 14.8946 23.9206 15.5078 23.612C15.154 23.9999 14.7502 24.3839 14.3029 24.6807C12.465 25.9005 11.7246 28.1249 11.7246 28.1249C11.7246 28.1249 13.0694 26.4784 14.9589 25.7698C15.474 25.5766 16.0079 25.1898 16.4873 24.7729C16.2582 25.1895 15.9887 25.6063 15.6688 25.9641C14.1986 27.6086 14.0444 29.948 14.0444 29.948C14.0444 29.948 14.9296 28.0151 16.5788 26.8521C17.0596 26.5131 17.5089 25.9563 17.8826 25.3939C17.7684 25.8955 17.6107 26.4156 17.3754 26.8842C16.3858 28.8556 16.848 31.1541 16.848 31.1541C16.848 31.1541 17.1975 29.057 18.4857 27.5038C18.8657 27.0455 19.1562 26.3805 19.3707 25.7326C19.3939 26.2534 19.3793 26.8057 19.2738 27.3277C18.8366 29.4898 19.8861 31.5862 19.8861 31.5862C19.8861 31.5862 19.6728 29.471 20.5078 27.6339C20.7336 27.1371 20.84 26.4925 20.8849 25.8636C21.015 26.3159 21.1168 26.7961 21.1431 27.2701C21.2651 29.4726 22.8092 31.2366 22.8092 31.2366C22.8092 31.2366 22.0695 29.2435 22.4145 27.2552C22.515 26.6762 22.4397 25.9654 22.3068 25.3039C22.58 25.7391 22.8355 26.2181 23 26.7152C23.6929 28.8094 25.6441 30.1092 25.6441 30.1092C25.6441 30.1092 24.4096 28.3784 24.2235 26.369C24.1682 25.7723 23.9003 25.0926 23.5918 24.4794C23.9797 24.8332 24.3636 25.237 24.6605 25.6844C25.8802 27.5224 28.1047 28.2626 28.1047 28.2626C28.1047 28.2626 26.4582 26.9178 25.7496 25.0283C25.5564 24.5132 25.1696 23.9793 24.7528 23.4999C25.1693 23.7291 25.5861 23.9984 25.9439 24.3184C27.5885 25.7885 29.9278 25.9427 29.9278 25.9427C29.9278 25.9427 27.9949 25.0576 26.8319 23.4084C26.4928 22.9277 25.9361 22.4782 25.3736 22.1046C25.8752 22.2188 26.3953 22.3766 26.8639 22.6118C28.8356 23.6015 31.1341 23.1394 31.1341 23.1394ZM19.9975 25.345C17.0458 25.345 14.6531 22.9523 14.6531 20.0006C14.6531 17.049 17.0458 14.6563 19.9975 14.6563C22.9491 14.6563 25.3418 17.049 25.3418 20.0006C25.3418 22.9522 22.9491 25.345 19.9975 25.345Z" fill="#FFE15A"/>
<path d="M18.303 17.8377C18.4169 17.7488 18.5304 17.6594 18.6457 17.5801C17.8885 17.2357 17.2069 17.0704 16.7287 16.9963C16.6526 17.0791 16.584 17.168 16.5143 17.2563C16.9837 17.3474 17.6145 17.5215 18.303 17.8377Z" fill="#FFE15A"/>
<path d="M16.9585 16.7604C17.4722 16.8184 18.2161 16.9715 19.0413 17.3264C19.1796 17.244 19.3172 17.1709 19.4551 17.1005C18.5641 16.7346 17.7596 16.5983 17.2059 16.5563C17.1228 16.6237 17.0365 16.6872 16.9585 16.7604Z" fill="#FFE15A"/>
<path d="M19.6342 19.2376C19.5276 19.1369 19.4197 19.0416 19.3108 18.9516C18.3102 19.9039 17.4348 21.2927 17.0397 23.3078C17.1833 23.4364 17.326 23.5664 17.4855 23.6756C17.7758 21.6262 18.6267 20.2116 19.6342 19.2376Z" fill="#FFE15A"/>
<path d="M19.2462 18.3524C19.3596 18.2613 19.4729 18.1696 19.5877 18.0881C19.4477 17.9988 19.3083 17.9205 19.1692 17.8439C19.0501 17.9256 18.9308 18.0045 18.8131 18.0962C18.9573 18.1755 19.1013 18.2598 19.2462 18.3524Z" fill="#FFE15A"/>
<path d="M22.0111 18.0944C22.869 18.8479 23.653 19.9088 24.211 21.3799C24.3542 20.9431 24.4511 20.4852 24.4511 20.0006C24.4511 19.0804 24.1716 18.2258 23.6935 17.516C23.251 17.6042 22.657 17.776 22.0111 18.0944Z" fill="#FFE15A"/>
<path d="M19.6664 18.6387C19.7781 18.7217 19.8876 18.8154 19.9975 18.9077C20.1073 18.8154 20.2169 18.7217 20.3286 18.6387C20.2186 18.5471 20.109 18.457 19.9975 18.3748C19.886 18.457 19.7764 18.5472 19.6664 18.6387Z" fill="#FFE15A"/>
<path d="M19.9975 17.3491C19.8576 17.4199 19.7175 17.5 19.5769 17.5832C19.7168 17.6568 19.8566 17.7358 19.9975 17.8221C20.1383 17.7358 20.2781 17.6569 20.418 17.5832C20.2774 17.5 20.1373 17.4199 19.9975 17.3491Z" fill="#FFE15A"/>
<path d="M16.5542 22.7934C17.0254 20.8695 17.9135 19.5513 18.9074 18.6447C18.7684 18.5465 18.6299 18.4566 18.4913 18.3732C17.5349 19.2142 16.6692 20.4296 16.1361 22.1806C16.259 22.3977 16.3979 22.601 16.5542 22.7934Z" fill="#FFE15A"/>
<path d="M17.9837 18.0944C17.3378 17.776 16.7439 17.6042 16.3014 17.516C15.8234 18.2258 15.5438 19.0804 15.5438 20.0006C15.5438 20.4852 15.6407 20.9431 15.7839 21.3799C16.3419 19.9088 17.1259 18.8479 17.9837 18.0944Z" fill="#FFE15A"/>
<path d="M19.9974 16.8493C20.9449 16.4578 21.819 16.3188 22.4406 16.2821C21.7386 15.8199 20.9007 15.547 19.9974 15.547C19.0941 15.547 18.2562 15.8199 17.5542 16.2821C18.1758 16.3188 19.0499 16.4578 19.9974 16.8493Z" fill="#FFE15A"/>
<path d="M19.9974 19.6143C19.109 20.5987 18.376 22.012 18.1382 24.036C18.7055 24.2981 19.3314 24.4542 19.9974 24.4542C20.6634 24.4542 21.2893 24.2981 21.8566 24.036C21.6188 22.012 20.8858 20.5986 19.9974 19.6143Z" fill="#FFE15A"/>
<path d="M21.5036 18.3732C21.3649 18.4567 21.2265 18.5466 21.0875 18.6447C22.0814 19.5513 22.9695 20.8695 23.4406 22.7934C23.597 22.6009 23.7359 22.3977 23.8588 22.1806C23.3256 20.4296 22.46 19.2142 21.5036 18.3732Z" fill="#FFE15A"/>
<path d="M22.9551 23.3077C22.56 21.2926 21.6846 19.9038 20.684 18.9516C20.5751 19.0416 20.4672 19.1369 20.3606 19.2375C21.368 20.2116 22.219 21.6262 22.5093 23.6756C22.6689 23.5663 22.8115 23.4363 22.9551 23.3077Z" fill="#FFE15A"/>
<path d="M20.5397 17.1005C20.6776 17.1709 20.8152 17.244 20.9535 17.3264C21.7788 16.9714 22.5226 16.8184 23.0363 16.7604C22.9583 16.6872 22.872 16.6237 22.7889 16.5563C22.2352 16.5983 21.4307 16.7346 20.5397 17.1005Z" fill="#FFE15A"/>
<path d="M20.7488 18.3524C20.8936 18.2598 21.0377 18.1755 21.1818 18.0962C21.0643 18.0045 20.9448 17.9256 20.8257 17.8439C20.6867 17.9205 20.5473 17.9988 20.4072 18.0881C20.5221 18.1696 20.6353 18.2613 20.7488 18.3524Z" fill="#FFE15A"/>
<path d="M21.6919 17.8377C22.3803 17.5215 23.0112 17.3474 23.4805 17.2563C23.4108 17.1679 23.3422 17.079 23.2661 16.9963C22.7879 17.0704 22.1064 17.2357 21.3491 17.5801C21.4645 17.6594 21.578 17.7488 21.6919 17.8377Z" fill="#FFE15A"/>
</g>
<defs>
<clipPath id="clip0_298_29429">
<rect width="40" height="40" rx="8" fill="white"/>
</clipPath>
</defs>
</svg>
