<svg width="40" height="40" viewBox="0 0 40 40" fill="none" xmlns="http://www.w3.org/2000/svg">
<g clip-path="url(#clip0_298_29374)">
<path d="M31.25 0H8.75C3.9175 0 0 3.9175 0 8.75V31.25C0 36.0825 3.9175 40 8.75 40H31.25C36.0825 40 40 36.0825 40 31.25V8.75C40 3.9175 36.0825 0 31.25 0Z" fill="#FF4B55"/>
<path d="M26.5216 17.9887L27.7453 19.5894L29.6559 18.9499C29.7627 18.9141 29.8536 19.0349 29.7897 19.1277L28.6454 20.786L29.844 22.4056C29.9111 22.4961 29.8243 22.6199 29.7163 22.5877L27.7854 22.0119L26.6156 23.6524C26.5502 23.7441 26.4057 23.6998 26.4029 23.5871L26.3539 21.5729L24.4322 20.9673C24.3248 20.9334 24.3222 20.7823 24.4286 20.7449L26.329 20.0758L26.3112 18.061C26.3102 17.9483 26.4532 17.8992 26.5216 17.9887Z" fill="#F5F5F5"/>
<path d="M19.7549 26.9123C16.3065 26.9123 13.5092 24.115 13.5092 20.6635C13.5092 17.2183 16.3065 14.4147 19.7549 14.4147C21.0379 14.4147 22.2211 14.8093 23.207 15.4771C23.358 15.5794 23.5304 15.381 23.4039 15.2496C21.9303 13.7175 19.8446 12.7828 17.5322 12.8617C13.5593 12.9973 10.2703 16.1826 10.0165 20.1497C9.72569 24.6937 13.3237 28.47 17.8033 28.47C20.01 28.47 21.9931 27.5475 23.4094 26.0725C23.5345 25.9421 23.3618 25.7467 23.2122 25.8481C22.2253 26.5172 21.0402 26.9123 19.7549 26.9123Z" fill="#F5F5F5"/>
</g>
<defs>
<clipPath id="clip0_298_29374">
<rect width="40" height="40" rx="6" fill="white"/>
</clipPath>
</defs>
</svg>
