<svg width="40" height="40" viewBox="0 0 40 40" fill="none" xmlns="http://www.w3.org/2000/svg">
<g clip-path="url(#clip0_298_29389)">
<path d="M31.25 0H8.75C3.9175 0 0 3.9175 0 8.75V31.25C0 36.0825 3.9175 40 8.75 40H31.25C36.0825 40 40 36.0825 40 31.25V8.75C40 3.9175 36.0825 0 31.25 0Z" fill="#73AF00"/>
<path d="M8.75005 0C6.77981 0 4.96177 0.651328 3.49927 1.75023V38.2498C4.96177 39.3487 6.77981 40 8.75005 40H14.0255V0H8.75005Z" fill="#FF4B55"/>
<path d="M12.9729 4.56139L10.8675 6.31577H6.65707L4.55176 4.56139V2.80702L6.65707 1.05264H10.8675L12.9729 2.80702V4.56139Z" fill="#F5F5F5"/>
<path d="M12.9729 19.2983L10.8675 21.0527H6.65707L4.55176 19.2983V17.5438L6.65707 15.7895H10.8675L12.9729 17.5438V19.2983Z" fill="#73AF00"/>
<path d="M12.9729 11.9298L10.8675 13.6842H6.65707L4.55176 11.9298V10.1755L6.65707 8.42102H10.8675L12.9729 10.1755V11.9298Z" fill="#73AF00"/>
<path d="M12.9729 26.6666L10.8675 28.421H6.65707L4.55176 26.6666V24.9123L6.65707 23.1579H10.8675L12.9729 24.9123V26.6666Z" fill="#73AF00"/>
<path d="M3.49927 5.26312L5.6045 7.36844L3.49927 9.47367V5.26312Z" fill="#FFB400"/>
<path d="M14.0255 9.47367L11.9203 7.36844L14.0255 5.26312V9.47367Z" fill="#FFB400"/>
<path d="M3.49927 12.6316L5.6045 14.7369L3.49927 16.8421V12.6316Z" fill="#FFB400"/>
<path d="M14.0255 16.8421L11.9203 14.7369L14.0255 12.6316V16.8421Z" fill="#FFB400"/>
<path d="M3.49927 20L5.6045 22.1052L3.49927 24.2105V20Z" fill="#FFB400"/>
<path d="M14.0255 24.2105L11.9203 22.1052L14.0255 20V24.2105Z" fill="#FFB400"/>
<path d="M3.49927 27.3684L5.6045 29.4737L3.49927 31.579V27.3684Z" fill="#FFB400"/>
<path d="M14.0255 31.579L11.9203 29.4737L14.0255 27.3684V31.579Z" fill="#FFB400"/>
<path d="M14.0255 2.10523L11.9203 0H14.0255V2.10523Z" fill="#FFB400"/>
<path d="M9.28862 8.42108H8.23596V13.6844H9.28862V8.42108Z" fill="#FFB400"/>
<path d="M10.8675 10.5266H6.65698V11.5792H10.8675V10.5266Z" fill="#FF4B55"/>
<path d="M11.9202 9.29818L10.8676 8.42099V13.6842L11.9202 12.8069V9.29818Z" fill="#FFB400"/>
<path d="M5.60437 12.8069L6.65703 13.6841V8.42108L5.60437 9.29819V12.8069Z" fill="#FFB400"/>
<path d="M8.7623 1.05264H6.65707L4.55176 2.80694V3.68421H8.7623V1.05264Z" fill="#FFB400"/>
<path d="M8.76233 6.31577H10.8675L12.9729 4.56147V3.6842H8.76233V6.31577Z" fill="#FFB400"/>
<path d="M8.76234 5.26311L6.6571 3.69038L8.76234 2.10522L10.8676 3.69038L8.76234 5.26311Z" fill="#FF4B55"/>
<path d="M8.76233 5.26311L10.8676 3.69038L10.8594 3.6842H8.76233V5.26311Z" fill="#73AF00"/>
<path d="M8.76231 3.68421V2.10522L6.66528 3.68421H8.76231Z" fill="#73AF00"/>
<path d="M10.8675 16.8422H6.65698V20H10.8675V16.8422Z" fill="#FF4B55"/>
<path d="M11.9198 17.8945H10.8672V18.9472H11.9198V17.8945Z" fill="#FFB400"/>
<path d="M9.28862 17.8945H8.23596V18.9472H9.28862V17.8945Z" fill="#F5F5F5"/>
<path d="M9.28862 24.2101H8.23596V25.2628H9.28862V24.2101Z" fill="#FF4B55"/>
<path d="M10.8675 25.2633H9.81482V26.3159H10.8675V25.2633Z" fill="#FFB400"/>
<path d="M7.70964 25.2633H6.65698V26.3159H7.70964V25.2633Z" fill="#FFB400"/>
<path d="M9.28862 26.3156H8.23596V27.3683H9.28862V26.3156Z" fill="#FF4B55"/>
<path d="M6.65739 17.8945H5.60474V18.9472H6.65739V17.8945Z" fill="#FFB400"/>
<path d="M12.9729 34.0351L10.8675 35.7895H6.65707L4.55176 34.0351V32.2807L6.65707 30.5263H10.8675L12.9729 32.2807V34.0351Z" fill="#F5F5F5"/>
<path d="M8.7623 30.5263H6.65707L4.55176 32.2807V33.1579H8.7623V30.5263Z" fill="#FFB400"/>
<path d="M8.76233 35.7895H10.8675L12.9729 34.0352V33.1579H8.76233V35.7895Z" fill="#FFB400"/>
<path d="M10.8676 33.6842L8.76234 34.7369L6.6571 33.6842V32.6316L8.76234 31.579L10.8676 32.6316V33.6842Z" fill="#FF4B55"/>
<path d="M28.4675 5.73171C28.3554 5.67663 28.254 5.82249 28.3448 5.90819C29.5361 7.03233 30.2889 8.61093 30.2889 10.3718C30.2889 13.8307 27.5087 16.6058 24.09 16.6058C23.4589 16.6058 22.8512 16.5073 22.2779 16.3282C22.159 16.2911 22.0822 16.4505 22.1845 16.5215C23.184 17.2163 24.3888 17.6316 25.7038 17.6316C29.1678 17.6316 31.9983 14.8562 31.9983 11.3472C31.9983 8.88093 30.5508 6.75569 28.4675 5.73171Z" fill="#F5F5F5"/>
<path d="M19.9013 9.79302L19.6437 10.5215L20.2496 11.001C20.328 11.0631 20.2823 11.1893 20.1823 11.1867L19.41 11.1669L19.1411 11.8912C19.1064 11.985 18.9722 11.9805 18.9437 11.8846L18.724 11.1439L17.952 11.1121C17.8521 11.1079 17.8149 10.979 17.8973 10.9223L18.5339 10.4844L18.3256 9.74045C18.2986 9.64412 18.4098 9.56888 18.4892 9.62974L19.1024 10.0998L19.7456 9.67185C19.8288 9.61631 19.9347 9.69873 19.9013 9.79302Z" fill="#F5F5F5"/>
<path d="M23.0297 11.373L22.7721 12.1015L23.3779 12.581C23.4563 12.6431 23.4106 12.7693 23.3106 12.7667L22.5383 12.7469L22.2694 13.4712C22.2347 13.565 22.1005 13.5605 22.072 13.4646L21.8523 12.7239L21.0803 12.692C20.9804 12.6879 20.9432 12.559 21.0256 12.5022L21.6622 12.0644L21.4539 11.3204C21.4269 11.224 21.5381 11.1488 21.6175 11.2097L22.2307 11.6797L22.8739 11.2518C22.9571 11.1962 23.063 11.2787 23.0297 11.373Z" fill="#F5F5F5"/>
<path d="M22.9981 8.11828L22.7405 8.84672L23.3463 9.32625C23.4247 9.38836 23.379 9.51453 23.279 9.51195L22.5067 9.49211L22.2378 10.2165C22.2031 10.3102 22.0688 10.3058 22.0404 10.2098L21.8206 9.46914L21.0487 9.43734C20.9488 9.4332 20.9116 9.30422 20.994 9.24758L21.6305 8.80969L21.4222 8.0657C21.3952 7.96937 21.5064 7.89414 21.5858 7.955L22.199 8.42508L22.8422 7.99711C22.9256 7.94148 23.0314 8.02398 22.9981 8.11828Z" fill="#F5F5F5"/>
<path d="M23.1046 4.97679L22.847 5.70522L23.4528 6.18476C23.5313 6.24687 23.4856 6.37304 23.3856 6.37046L22.6132 6.35062L22.3444 7.07491C22.3096 7.16866 22.1754 7.16421 22.147 7.06827L21.9272 6.32757L21.1553 6.29577C21.0553 6.29163 21.0181 6.16265 21.1006 6.10601L21.737 5.66812L21.5288 4.92413C21.5018 4.8278 21.613 4.75257 21.6924 4.81343L22.3056 5.28351L22.9488 4.85554C23.032 4.79999 23.1379 4.88249 23.1046 4.97679Z" fill="#F5F5F5"/>
<path d="M26.1697 6.55677L25.9121 7.28521L26.5179 7.76474C26.5963 7.82685 26.5506 7.95302 26.4506 7.95045L25.6783 7.9306L25.4095 8.65498C25.3747 8.74873 25.2405 8.74427 25.212 8.64834L24.9923 7.90763L24.2203 7.87576C24.1204 7.87162 24.0832 7.74271 24.1656 7.68599L24.8021 7.2481L24.5938 6.50412C24.5669 6.40779 24.678 6.33255 24.7574 6.39341L25.3706 6.86349L26.0138 6.43552C26.0971 6.37998 26.203 6.46248 26.1697 6.55677Z" fill="#F5F5F5"/>
</g>
<defs>
<clipPath id="clip0_298_29389">
<rect width="40" height="40" rx="8" fill="white"/>
</clipPath>
</defs>
</svg>
