<svg width="422" height="231" viewBox="0 0 422 231" fill="none" xmlns="http://www.w3.org/2000/svg">
<path d="M357.641 232.897C376.439 234.869 401.018 248.244 419.045 234.225C393.353 229.596 368.004 216.349 344.324 207.475C368.603 197.443 400.718 217.806 422 196.543C395.837 195.986 368.817 186.897 344.024 181.796C366.462 168.12 401.361 183.21 419.045 158.86C393.096 162.418 365.006 157.66 339.699 156.545C359.739 139.397 396.565 148.914 410.224 122.249C385.175 129.88 356.656 129.537 331.521 132.41C348.649 112.432 386.459 115.99 395.751 87.3533C372.157 98.7567 343.982 102.958 319.574 109.689C333.362 87.2676 371.301 84.8669 376.011 55.1152C354.601 70.1196 327.324 78.6507 304.287 89.111C314.393 64.8037 351.389 56.487 351.389 26.3923C332.506 44.5263 306.985 57.2158 285.874 71.1914C292.04 45.4694 327.41 31.5796 322.7 1.82789C306.899 22.7484 283.648 39.2533 264.978 56.3584C267.076 30.122 299.791 10.7448 290.67 -17.8922C278.338 5.17175 257.956 24.9776 242.198 44.955C240.185 18.7186 269.431 -5.54572 255.815 -32.2108C247.251 -7.43199 230.122 15.4605 217.747 37.4956C211.667 11.7737 236.76 -16.649 219.075 -41.042C214.493 -15.3201 201.262 10.0589 192.398 33.766C182.378 9.45874 202.717 -22.6937 181.479 -44C180.922 -17.8065 171.844 9.24438 166.748 34.066C153.089 11.6022 168.161 -23.3367 143.84 -41.042C147.394 -15.0628 142.641 13.1027 141.527 38.3959C124.399 18.3328 133.905 -18.5353 107.271 -32.2108C114.85 -7.1319 114.551 21.4194 117.419 46.5841C97.4652 29.4361 101.019 -8.418 72.4154 -17.7208C83.8056 5.85767 88.002 34.1089 94.7247 58.5019C72.1156 44.3548 69.5464 6.3721 40.0004 1.65641C54.9447 23.0913 63.5088 50.3995 73.9569 73.4635C49.6778 63.3462 41.3707 26.3066 11.3109 26.3066C29.4239 45.2122 42.0986 70.7627 56.058 91.8975C30.3659 85.7243 16.4921 50.3566 -13.2251 55.0294C7.62833 70.8484 24.157 94.1267 41.2422 112.818C15.0362 110.717 -4.31852 77.9648 -32.9225 87.0961C-9.88516 99.4426 9.8978 119.849 29.852 135.625C3.64605 137.64 -20.5902 108.36 -47.2244 121.992C-22.4743 130.566 0.391716 147.714 22.4013 160.146C-3.29083 166.234 -31.6807 141.069 -56.0454 158.775C-30.3533 163.362 -5.00365 176.608 18.676 185.525C-5.60313 195.514 -37.7183 175.151 -59 196.457C-32.8368 196.972 -5.81724 206.103 18.9757 211.162C-3.46212 224.837 -38.3606 209.747 -56.0454 234.14C-30.0963 230.539 -2.00623 235.297 23.3006 236.455C3.26067 253.603 -33.5648 244.043 -47.2244 270.751C-22.1746 263.163 6.34373 263.463 31.4792 260.59C14.3511 280.568 -23.4592 277.01 -32.7512 305.647C-9.20003 294.243 19.0185 290.085 43.3832 283.312C29.5951 305.732 -8.34363 308.133 -13.0539 337.885C8.35627 322.923 35.6328 314.392 58.6701 303.889C48.5645 328.196 11.5678 336.513 11.5678 366.608C30.4515 348.474 55.9724 335.784 77.0828 321.809C70.9167 347.531 35.5471 361.42 40.2574 391.172C56.058 370.294 79.3094 353.747 97.9791 336.642C95.8809 362.878 63.1662 382.255 72.2869 410.935C84.6192 387.828 105.002 367.851 120.759 348.045C122.772 374.281 93.5258 398.546 107.143 425.211C115.707 400.475 132.835 377.54 145.21 355.504C151.29 381.226 126.198 409.649 143.882 434.042C148.464 408.32 161.696 382.941 170.559 359.234C180.579 383.584 160.24 415.694 181.521 437C182.035 410.807 191.113 383.756 196.209 358.934C209.868 381.398 194.796 416.337 219.118 434.042C215.564 408.063 220.317 379.94 221.473 354.647C238.601 374.667 229.052 411.535 255.729 425.211C248.15 400.132 248.449 371.581 245.581 346.416C265.535 363.564 261.981 401.418 290.585 410.721C279.194 387.099 274.998 358.891 268.275 334.455C290.67 348.259 293.068 386.242 322.785 390.958C307.841 369.523 299.277 342.215 288.829 319.151C313.108 329.268 321.415 366.308 351.475 366.308C333.362 347.445 320.687 321.852 306.728 300.717C332.42 306.89 346.294 342.3 376.011 337.585C355.158 321.766 338.629 298.487 321.544 279.796C347.75 281.897 367.104 314.649 395.751 305.518C372.671 293.172 352.717 272.766 332.934 256.989C359.14 254.975 383.376 284.255 410.01 270.622C385.303 262.048 362.394 244.9 340.385 232.511C345.99 230.971 351.907 230.971 357.513 232.511M272.172 252.145L232.435 234.997L216.42 275.252L200.576 235.426L160.839 252.574L177.967 212.833L137.802 196.8L177.967 180.767L160.839 140.984L200.576 158.131L216.548 117.877L232.563 158.089L272.3 140.941L255.172 180.724L295.338 196.757L255.172 212.791L272.172 252.145ZM213.637 69.7767C144.739 69.7767 85.1758 123.493 85.1758 195.857C85.1758 268.221 145.724 321.894 213.637 321.894C246.366 321.91 277.919 309.678 302.103 287.599C278.852 325.195 220.745 352.203 187.559 352.203H163.751C152.481 350.697 141.313 348.507 130.308 345.644C107.013 338.495 85.6687 326.087 67.9193 309.376C39.7863 283.654 19.4895 235.94 19.4895 205.974V185.482C19.4895 171.936 27.2828 145.313 31.8218 134.467C38.5762 117.858 48.38 102.662 60.7254 89.6683C96.8658 52.2 138.059 39.339 175.698 39.339C207.034 39.1968 237.675 48.5852 263.565 66.2613C276.411 74.8353 293.925 90.6972 302.403 104.587C278.357 82.0331 246.586 69.5737 213.637 69.7767Z" fill="url(#paint0_linear_35_18044)" fill-opacity="0.11"/>
<defs>
<linearGradient id="paint0_linear_35_18044" x1="525.682" y1="-275.682" x2="175.087" y2="351.756" gradientUnits="userSpaceOnUse">
<stop stop-color="white"/>
<stop offset="1" stop-color="white" stop-opacity="0"/>
</linearGradient>
</defs>
</svg>
