<svg width="759" height="900" viewBox="0 0 759 900" fill="none" xmlns="http://www.w3.org/2000/svg">
<path d="M638.578 518.102C673.751 521.791 719.741 546.818 753.472 520.588C705.399 511.925 657.967 487.139 613.66 470.535C659.089 451.765 719.18 489.866 759 450.08C710.046 449.037 659.49 432.032 613.099 422.487C655.083 396.898 720.382 425.134 753.472 379.572C704.918 386.23 652.359 377.326 605.007 375.241C642.504 343.155 711.408 360.963 736.967 311.07C690.096 325.348 636.735 324.706 589.704 330.08C621.753 292.701 692.499 299.358 709.886 245.775C665.739 267.112 613.019 274.973 567.35 287.567C593.149 245.615 664.137 241.123 672.95 185.455C632.889 213.529 581.852 229.492 538.747 249.064C557.656 203.583 626.88 188.021 626.88 131.711C591.547 165.642 543.795 189.385 504.295 215.535C515.832 167.406 582.013 141.417 573.199 85.7486C543.635 124.893 500.129 155.775 465.196 187.781C469.122 138.69 530.334 102.433 513.269 48.8503C490.194 92.0053 452.056 129.064 422.572 166.444C418.806 117.353 473.529 71.9519 448.05 22.0588C432.026 68.4225 399.977 111.257 376.823 152.487C365.445 104.358 412.396 51.1765 379.306 5.53475C370.733 53.6631 345.976 101.15 329.391 145.508C310.642 100.027 348.7 39.8663 308.96 0C307.918 49.0107 290.933 99.6257 281.398 146.07C255.84 104.037 284.042 38.6631 238.534 5.53475C245.184 54.1444 236.29 106.845 234.207 154.171C202.159 116.631 219.945 47.6471 170.11 22.0588C184.292 68.984 183.731 122.406 189.099 169.492C151.762 137.406 158.412 66.5776 104.892 49.1711C126.204 93.2888 134.056 146.15 146.635 191.791C104.331 165.321 99.5234 94.2513 44.2399 85.4278C72.2021 125.535 88.2264 176.631 107.776 219.786C62.3473 200.856 46.8038 131.551 -9.44119 131.551C24.45 166.925 48.1658 214.733 74.2853 254.278C26.2127 242.727 0.253433 176.551 -55.3506 185.294C-16.3316 214.893 14.5951 258.449 46.5634 293.422C-2.47067 289.492 -38.6854 228.209 -92.2063 245.294C-49.1011 268.396 -12.0852 306.578 25.2512 336.096C-23.7829 339.866 -69.1314 285.08 -118.967 310.588C-72.6567 326.631 -29.8721 358.717 11.3102 381.979C-36.7625 393.369 -89.8828 346.283 -135.472 379.412C-87.399 387.995 -39.9673 412.781 4.33961 429.465C-41.089 448.155 -101.18 410.053 -141 449.92C-92.046 450.882 -41.4896 467.968 4.90045 477.433C-37.083 503.021 -102.382 474.786 -135.472 520.428C-86.9183 513.69 -34.3588 522.594 12.9927 524.759C-24.504 556.845 -93.4081 538.957 -118.967 588.93C-72.0959 574.733 -18.7352 575.294 28.2958 569.92C-3.75261 607.299 -74.4995 600.642 -91.8858 654.225C-47.8192 632.888 4.98059 625.107 50.5695 612.433C24.7705 654.385 -46.2168 658.877 -55.0301 714.545C-14.9696 686.551 36.0676 670.588 79.1727 650.936C60.2641 696.417 -8.96048 711.979 -8.96048 768.289C26.3729 734.358 74.1251 710.615 113.625 684.465C102.087 732.594 35.9073 758.583 44.7206 814.251C74.2853 775.187 117.791 744.225 152.724 712.219C148.798 761.31 87.5854 797.567 104.651 851.23C127.726 807.995 165.864 770.615 195.348 733.556C199.114 782.647 144.391 828.048 169.87 877.941C185.894 831.658 217.942 788.743 241.097 747.513C252.475 795.642 205.524 848.823 238.614 894.465C247.187 846.337 271.944 798.85 288.529 754.492C307.277 800.053 269.22 860.134 309.04 900C310.002 850.989 326.987 800.374 336.522 753.931C362.08 795.963 333.878 861.337 379.386 894.465C372.736 845.856 381.63 793.235 383.793 745.909C415.841 783.369 397.974 852.353 447.89 877.941C433.708 831.016 434.269 777.594 428.901 730.508C466.238 762.594 459.588 833.422 513.108 850.829C491.796 806.631 483.944 753.85 471.365 708.128C513.269 733.957 517.755 805.027 573.359 813.85C545.397 773.743 529.373 722.647 509.823 679.492C555.252 698.422 570.796 767.727 627.041 767.727C593.149 732.433 569.434 684.545 543.314 645C591.387 656.551 617.346 722.807 672.95 713.984C633.931 684.385 603.004 640.829 571.036 605.856C620.07 609.786 656.285 671.07 709.886 653.984C666.701 630.882 629.364 592.701 592.348 563.182C641.382 559.412 686.731 614.198 736.566 588.69C690.336 572.647 647.471 540.561 606.289 517.38C616.778 514.499 627.849 514.499 638.338 517.38M478.656 554.118L404.304 522.032L374.339 597.353L344.694 522.834L270.342 554.92L302.39 480.561L227.236 450.562L302.39 420.561L270.342 346.123L344.694 378.209L374.579 302.888L404.544 378.128L478.897 346.043L446.848 420.481L522.002 450.481L446.848 480.481L478.656 554.118ZM369.131 212.888C240.216 212.888 128.768 313.396 128.768 448.797C128.768 584.198 242.059 684.626 369.131 684.626C430.371 684.655 489.411 661.767 534.661 620.455C491.155 690.802 382.431 741.337 320.337 741.337H275.79C254.703 738.519 233.806 734.42 213.215 729.064C169.628 715.687 129.69 692.471 96.4788 661.203C43.8393 613.075 5.86194 523.797 5.86194 467.727V429.385C5.86194 404.037 20.444 354.225 28.9368 333.93C41.575 302.852 59.9189 274.42 83.0185 250.107C150.641 180 227.717 155.936 298.144 155.936C356.777 155.67 414.11 173.236 462.552 206.31C486.588 222.353 519.358 252.032 535.222 278.021C490.23 235.821 430.782 212.508 369.131 212.888Z" fill="url(#paint0_linear_55_19023)" fill-opacity="0.11"/>
<defs>
<linearGradient id="paint0_linear_55_19023" x1="953" y1="-433.5" x2="297" y2="740.5" gradientUnits="userSpaceOnUse">
<stop stop-color="white"/>
<stop offset="1" stop-color="white" stop-opacity="0"/>
</linearGradient>
</defs>
</svg>
