<svg width="28" height="28" viewBox="0 0 28 28" fill="none" xmlns="http://www.w3.org/2000/svg">
<path d="M19.0199 5.18226V6.63706C19.0199 7.97401 18.5058 9.19306 17.6653 10.1075L22.2252 11.8869V21.878L23.4061 22.6653C25.3266 20.4107 26.374 17.5777 26.374 14.5834C26.374 11.2479 25.0751 8.11216 22.7167 5.75369C21.4996 4.53656 20.0751 3.6025 18.5233 2.98267C18.8456 3.66107 19.0199 4.41089 19.0199 5.18226Z" fill="white"/>
<path d="M5.5488 21.8779V11.8868L10.1087 10.1073C9.26812 9.19295 8.75416 7.97391 8.75416 6.63695V5.18221C8.75416 4.41084 8.92834 3.66101 9.25061 2.98267C7.6989 3.6025 6.27451 4.53656 5.05738 5.75364C2.69891 8.1121 1.40002 11.2479 1.40002 14.5833C1.40002 17.5776 2.44746 20.4106 4.36793 22.6652L5.5488 21.8779Z" fill="white"/>
<path d="M23.476 25.84C23.476 25.1161 23.1164 24.4441 22.514 24.0426L21.186 23.1572C21.186 23.1572 17.9977 25.7591 13.887 25.7591C9.77626 25.7591 6.58785 23.1572 6.58785 23.1572L5.25987 24.0426C4.65754 24.4441 4.29791 25.1161 4.29791 25.84C4.29791 27.0313 5.26703 28.0004 6.45819 28.0004H21.3157C22.5068 28.0003 23.476 27.0312 23.476 25.84Z" fill="white"/>
<path d="M7.18939 21.5371L7.70526 21.9498C9.23898 23.1768 11.1172 23.9198 13.0667 24.0836V21.4826C12.0536 21.3675 11.0695 21.0414 10.1827 20.5208L9.7776 20.2831V15.2231H11.4182V19.3222C12.188 19.6943 13.0328 19.8894 13.887 19.8894C14.7412 19.8894 15.586 19.6944 16.3557 19.3223V15.2231H17.9963V20.2831L17.5913 20.5209C16.7045 21.0415 15.7205 21.3676 14.7074 21.4826V24.0836C16.6569 23.9198 18.5351 23.1768 20.0688 21.9498L20.5846 21.5372V13.0077L16.1118 11.2622C15.4383 11.5874 14.6836 11.7698 13.8871 11.7698C13.0905 11.7698 12.3357 11.5874 11.6623 11.2622L7.18945 13.0077L7.18939 21.5371Z" fill="white"/>
<path d="M10.3947 5.18232V6.63712C10.3947 8.56273 11.9613 10.1294 13.887 10.1294C15.8126 10.1294 17.3792 8.56279 17.3792 6.63712V5.18232C17.3792 4.04224 16.8195 2.97102 15.8818 2.31679L15.531 2.07195V1.64408C15.531 0.737519 14.7935 0 13.887 0C12.9805 0 12.243 0.737519 12.243 1.64402V2.07185L11.8921 2.31668C10.9545 2.97102 10.3947 4.04224 10.3947 5.18232Z" fill="white"/>
</svg>
