<svg width="28" height="28" viewBox="0 0 28 28" fill="none" xmlns="http://www.w3.org/2000/svg">
<path d="M13.9999 28.0001C12.9522 28.0001 12.0767 27.2489 11.8837 26.2568C10.9903 25.9935 10.3362 25.1658 10.3362 24.1883C10.3362 23.3104 10.8704 22.5432 11.6379 22.2098V13.308H8.50694C8.17597 14.08 7.40744 14.6174 6.52456 14.6174C5.54702 14.6174 4.71938 13.9634 4.45611 13.0699C3.46397 12.8769 2.71283 12.0014 2.71283 10.9537C2.71283 9.90597 3.46402 9.03042 4.45611 8.83743C4.71938 7.944 5.54708 7.28998 6.52456 7.28998C7.39765 7.28998 8.16356 7.82106 8.49928 8.58379H11.6379V5.79028C10.8705 5.45691 10.3362 4.68969 10.3362 3.81173C10.3362 2.83419 10.9902 2.00655 11.8837 1.74328C12.0767 0.751245 12.9522 0 13.9999 0C15.0476 0 15.9232 0.751245 16.1162 1.74328C17.0096 2.00655 17.6636 2.83425 17.6636 3.81173C17.6636 4.68969 17.1294 5.45691 16.362 5.79028V8.58379H19.5006C19.8363 7.82106 20.6022 7.28998 21.4753 7.28998C22.4529 7.28998 23.2805 7.94394 23.5438 8.83743C24.5359 9.03042 25.287 9.90597 25.287 10.9537C25.287 12.0014 24.5359 12.8769 23.5438 13.0699C23.2805 13.9634 22.4528 14.6174 21.4753 14.6174C20.5924 14.6174 19.8239 14.08 19.4929 13.308H16.362V22.2098C17.1294 22.5432 17.6636 23.3104 17.6636 24.1883C17.6636 25.1659 17.0097 25.9935 16.1162 26.2568C15.9232 27.2489 15.0476 28.0001 13.9999 28.0001Z" fill="white"/>
</svg>
