<svg width="40" height="40" viewBox="0 0 40 40" fill="none" xmlns="http://www.w3.org/2000/svg">
<g filter="url(#filter0_b_298_29775)">
<path d="M19.998 33.9999C18.9503 33.9999 18.0748 33.2487 17.8818 32.2566C16.9884 31.9933 16.3344 31.1656 16.3344 30.1881C16.3344 29.3102 16.8685 28.543 17.636 28.2096V19.3078H14.505C14.1741 20.0798 13.4056 20.6172 12.5227 20.6172C11.5451 20.6172 10.7175 19.9632 10.4542 19.0697C9.46207 18.8768 8.71094 18.0012 8.71094 16.9535C8.71094 15.9058 9.46213 15.0302 10.4542 14.8372C10.7175 13.9438 11.5452 13.2898 12.5227 13.2898C13.3958 13.2898 14.1617 13.8209 14.4974 14.5836H17.636V11.7901C16.8686 11.4567 16.3344 10.6895 16.3344 9.81155C16.3344 8.83401 16.9883 8.00636 17.8818 7.7431C18.0748 6.75106 18.9503 5.99982 19.998 5.99982C21.0458 5.99982 21.9213 6.75106 22.1143 7.7431C23.0077 8.00636 23.6617 8.83406 23.6617 9.81155C23.6617 10.6895 23.1276 11.4567 22.3601 11.7901V14.5836H25.4987C25.8344 13.8209 26.6003 13.2898 27.4734 13.2898C28.451 13.2898 29.2786 13.9438 29.5419 14.8372C30.534 15.0302 31.2852 15.9058 31.2852 16.9535C31.2852 18.0012 30.534 18.8768 29.5419 19.0697C29.2786 19.9632 28.4509 20.6172 27.4734 20.6172C26.5905 20.6172 25.822 20.0798 25.491 19.3078H22.3601V28.2096C23.1275 28.543 23.6617 29.3102 23.6617 30.1881C23.6617 31.1657 23.0078 31.9933 22.1143 32.2566C21.9213 33.2487 21.0458 33.9999 19.998 33.9999Z" fill="white"/>
</g>
<defs>
<filter id="filter0_b_298_29775" x="-30" y="-30" width="100" height="100" filterUnits="userSpaceOnUse" color-interpolation-filters="sRGB">
<feFlood flood-opacity="0" result="BackgroundImageFix"/>
<feGaussianBlur in="BackgroundImageFix" stdDeviation="15"/>
<feComposite in2="SourceAlpha" operator="in" result="effect1_backgroundBlur_298_29775"/>
<feBlend mode="normal" in="SourceGraphic" in2="effect1_backgroundBlur_298_29775" result="shape"/>
</filter>
</defs>
</svg>
