<svg width="40" height="40" viewBox="0 0 40 40" fill="none" xmlns="http://www.w3.org/2000/svg">
<g filter="url(#filter0_b_298_29780)">
<path d="M25.6202 11.1821V12.6369C25.6202 13.9738 25.1062 15.1929 24.2657 16.1073L28.8256 17.8867V27.8778L30.0065 28.6651C31.927 26.4105 32.9744 23.5775 32.9744 20.5832C32.9744 17.2478 31.6755 14.112 29.317 11.7535C28.0999 10.5364 26.6755 9.60231 25.1237 8.98248C25.446 9.66088 25.6202 10.4107 25.6202 11.1821Z" fill="white"/>
<path d="M12.1488 27.8777V17.8867L16.7086 16.1072C15.8681 15.1928 15.3541 13.9738 15.3541 12.6368V11.1821C15.3541 10.4107 15.5283 9.66088 15.8506 8.98253C14.2989 9.60237 12.8745 10.5364 11.6574 11.7535C9.29889 14.112 8 17.2478 8 20.5832C8 23.5775 9.04743 26.4105 10.9679 28.665L12.1488 27.8777Z" fill="white"/>
<path d="M30.0765 31.8396C30.0765 31.1156 29.7169 30.4437 29.1145 30.0421L27.7866 29.1568C27.7866 29.1568 24.5982 31.7587 20.4875 31.7587C16.3768 31.7587 13.1884 29.1568 13.1884 29.1568L11.8604 30.0421C11.2581 30.4437 10.8984 31.1156 10.8984 31.8396C10.8984 33.0308 11.8676 33.9999 13.0587 33.9999H27.9162C29.1074 33.9999 30.0765 33.0308 30.0765 31.8396Z" fill="white"/>
<path d="M13.7891 27.537L14.305 27.9497C15.8387 29.1766 17.7169 29.9197 19.6664 30.0835V27.4825C18.6533 27.3674 17.6692 27.0412 16.7824 26.5207L16.3773 26.2829V21.223H18.0179V25.3221C18.7877 25.6942 19.6325 25.8893 20.4867 25.8893C21.3409 25.8893 22.1857 25.6943 22.9554 25.3222V21.223H24.596V26.283L24.191 26.5208C23.3042 27.0414 22.3202 27.3675 21.3071 27.4825V30.0835C23.2566 29.9197 25.1348 29.1766 26.6685 27.9497L27.1843 27.537V19.0076L22.7114 17.2621C22.038 17.5873 21.2833 17.7697 20.4868 17.7697C19.6902 17.7697 18.9354 17.5873 18.262 17.2621L13.7891 19.0076L13.7891 27.537Z" fill="white"/>
<path d="M16.9961 11.1821V12.6369C16.9961 14.5625 18.5627 16.1291 20.4884 16.1291C22.414 16.1291 23.9806 14.5625 23.9806 12.6369V11.1821C23.9806 10.042 23.4208 8.97078 22.4832 8.31655L22.1323 8.07171V7.64383C22.1324 6.73727 21.3949 5.99976 20.4884 5.99976C19.5819 5.99976 18.8444 6.73727 18.8444 7.64378V8.0716L18.4935 8.31644C17.5559 8.97078 16.9961 10.042 16.9961 11.1821Z" fill="white"/>
</g>
<defs>
<filter id="filter0_b_298_29780" x="-30" y="-30" width="100" height="100" filterUnits="userSpaceOnUse" color-interpolation-filters="sRGB">
<feFlood flood-opacity="0" result="BackgroundImageFix"/>
<feGaussianBlur in="BackgroundImageFix" stdDeviation="15"/>
<feComposite in2="SourceAlpha" operator="in" result="effect1_backgroundBlur_298_29780"/>
<feBlend mode="normal" in="SourceGraphic" in2="effect1_backgroundBlur_298_29780" result="shape"/>
</filter>
</defs>
</svg>
