<svg width="28" height="28" viewBox="0 0 28 28" fill="none" xmlns="http://www.w3.org/2000/svg">
<path d="M14.0251 28.0001C10.2788 28.0001 6.75685 26.5412 4.10785 23.8922C1.45885 21.2432 0 17.7212 0 13.975C0 10.2287 1.45885 6.70677 4.10785 4.05777C6.43911 1.72651 9.53007 0.286501 12.8114 0.00311379C13.21 -0.0315699 13.5761 0.226777 13.6773 0.614161C13.7786 1.0016 13.5858 1.40564 13.2209 1.57073C12.1265 2.066 11.1377 2.75107 10.2818 3.60693C6.39133 7.49743 6.39133 13.8277 10.2818 17.7182C14.1723 21.6087 20.5026 21.6087 24.3931 17.7182C25.2489 16.8624 25.934 15.8735 26.4293 14.7791C26.5944 14.4143 26.9983 14.2215 27.3859 14.3228C27.7733 14.424 28.0314 14.7897 27.9969 15.1887C27.7135 18.47 26.2735 21.561 23.9423 23.8922C21.2934 26.5412 17.7713 28.0001 14.0251 28.0001Z" fill="white"/>
<path d="M22.68 9.25027C22.5834 8.95275 22.3262 8.73588 22.0166 8.6909L19.1612 8.27601L17.8843 5.68859C17.7458 5.40805 17.4601 5.23047 17.1473 5.23047C16.8344 5.23047 16.5487 5.40811 16.4102 5.68859L15.1333 8.27601L12.2779 8.6909C11.6213 8.76459 11.3346 9.6473 11.8224 10.0928L13.8886 12.1068L13.4008 14.9506C13.2679 15.5979 14.0189 16.1433 14.5933 15.817L17.1473 14.4744L19.7012 15.817C20.2747 16.1434 21.027 15.5978 20.8937 14.9506L20.4059 12.1068L22.4721 10.0928C22.6961 9.87442 22.7767 9.5478 22.68 9.25027Z" fill="white"/>
</svg>
