<svg width="40" height="40" viewBox="0 0 40 40" fill="none" xmlns="http://www.w3.org/2000/svg">
<g filter="url(#filter0_b_298_29770)">
<path d="M20.0251 34C16.2788 34 12.7569 32.5412 10.1079 29.8922C7.45885 27.2432 6 23.7212 6 19.9749C6 16.2287 7.45885 12.7067 10.1079 10.0577C12.4391 7.72644 15.5301 6.28644 18.8114 6.00305C19.21 5.96837 19.5761 6.22672 19.6773 6.6141C19.7786 7.00154 19.5858 7.40558 19.2209 7.57067C18.1265 8.06594 17.1377 8.75101 16.2818 9.60687C12.3913 13.4974 12.3913 19.8277 16.2818 23.7182C20.1723 27.6086 26.5026 27.6086 30.3931 23.7182C31.2489 22.8623 31.934 21.8735 32.4293 20.779C32.5944 20.4142 32.9983 20.2214 33.3859 20.3227C33.7733 20.424 34.0314 20.7897 33.9969 21.1887C33.7135 24.47 32.2735 27.561 29.9423 29.8922C27.2934 32.5412 23.7713 34 20.0251 34Z" fill="white"/>
<path d="M28.6808 15.25C28.5842 14.9525 28.327 14.7356 28.0174 14.6906L25.162 14.2758L23.885 11.6883C23.7466 11.4078 23.4608 11.2302 23.148 11.2302C22.8352 11.2302 22.5495 11.4079 22.411 11.6883L21.1341 14.2758L18.2787 14.6906C17.622 14.7643 17.3354 15.647 17.8232 16.0925L19.8893 18.1065L19.4016 20.9504C19.2687 21.5976 20.0197 22.1431 20.5941 21.8167L23.148 20.4741L25.702 21.8167C26.2754 22.1431 27.0277 21.5976 26.8945 20.9504L26.4067 18.1065L28.4729 16.0925C28.6969 15.8742 28.7775 15.5475 28.6808 15.25Z" fill="white"/>
</g>
<defs>
<filter id="filter0_b_298_29770" x="-30" y="-30" width="100" height="100" filterUnits="userSpaceOnUse" color-interpolation-filters="sRGB">
<feFlood flood-opacity="0" result="BackgroundImageFix"/>
<feGaussianBlur in="BackgroundImageFix" stdDeviation="15"/>
<feComposite in2="SourceAlpha" operator="in" result="effect1_backgroundBlur_298_29770"/>
<feBlend mode="normal" in="SourceGraphic" in2="effect1_backgroundBlur_298_29770" result="shape"/>
</filter>
</defs>
</svg>
