<svg width="98" height="98" viewBox="0 0 98 98" fill="none" xmlns="http://www.w3.org/2000/svg">
<g clip-path="url(#clip0_2457_2531)">
<path d="M74.3125 4H23.6875C12.8144 4 4 12.8144 4 23.6875V74.3125C4 85.1856 12.8144 94 23.6875 94H74.3125C85.1856 94 94 85.1856 94 74.3125V23.6875C94 12.8144 85.1856 4 74.3125 4Z" fill="#FF4B55"/>
<path d="M74.0518 56.0636C74.0518 56.0636 69.3335 55.2771 65.8384 52.3787C64.8073 51.5237 63.3111 50.8701 61.8535 50.3874C63.0254 50.3354 64.2678 50.3681 65.4422 50.6056C70.307 51.5892 75.0239 49.2276 75.0239 49.2276C75.0239 49.2276 70.2646 49.7078 66.1311 47.8289C65.0133 47.3207 63.5631 47.0813 62.1481 46.9804C63.1659 46.6876 64.2462 46.4585 65.3127 46.3995C70.2683 46.1247 74.2375 42.6506 74.2375 42.6506C74.2375 42.6506 69.7531 44.315 65.2793 43.539C63.9764 43.3129 62.3771 43.4822 60.8888 43.7812C61.8679 43.1665 62.9456 42.5917 64.0643 42.2215C68.7763 40.6625 71.7006 36.2724 71.7006 36.2724C71.7006 36.2724 67.8065 39.0499 63.2852 39.4688C61.9426 39.5932 60.4135 40.1958 59.034 40.89C59.8301 40.0172 60.7385 39.1534 61.7449 38.4856C65.8803 35.7413 67.5458 30.7363 67.5458 30.7363C67.5458 30.7363 64.5201 34.4411 60.2685 36.0354C59.1095 36.4701 57.9083 37.3404 56.8297 38.2784C57.3452 37.3411 57.9515 36.403 58.6713 35.5979C61.9792 31.8977 62.3262 26.6343 62.3262 26.6343C62.3262 26.6343 60.3346 30.9833 56.6238 33.6C55.5421 34.3627 54.531 35.6156 53.6902 36.8811C53.9472 35.7526 54.3023 34.5822 54.8316 33.5279C57.0582 29.0922 56.0183 23.9207 56.0183 23.9207C56.0183 23.9207 55.2316 28.6389 52.3332 32.1339C51.4782 33.1651 50.8246 34.6613 50.3419 36.1191C50.2899 34.9471 50.3226 33.7047 50.5601 32.5301C51.5437 27.6654 49.1823 22.9485 49.1823 22.9485C49.1823 22.9485 49.6624 27.7078 47.7836 31.8413C47.2754 32.9591 47.036 34.4092 46.9351 35.8243C46.6423 34.8065 46.4132 33.7262 46.3542 32.6599C46.0796 27.7042 42.6053 23.7351 42.6053 23.7351C42.6053 23.7351 44.2697 28.2195 43.4935 32.6933C43.2674 33.9962 43.4367 35.5956 43.7357 37.0839C43.121 36.1048 42.5462 35.0271 42.176 33.9083C40.617 29.1963 36.227 26.2718 36.227 26.2718C36.227 26.2718 39.0046 30.1661 39.4235 34.6872C39.5479 36.0298 40.1505 37.5591 40.8446 38.9388C39.9719 38.1425 39.1079 37.2341 38.4401 36.2275C35.6958 32.0921 30.6906 30.4266 30.6906 30.4266C30.6906 30.4266 34.3954 33.4523 35.9897 37.7037C36.4244 38.8627 37.2947 40.0641 38.2327 41.1425C37.2954 40.627 36.3575 40.0207 35.5524 39.3009C31.8522 35.993 26.5886 35.646 26.5886 35.646C26.5886 35.646 30.9376 37.6376 33.5543 41.3482C34.317 42.4298 35.5696 43.4411 36.8349 44.2818C35.7066 44.0248 34.5364 43.6699 33.4822 43.1407C29.0466 40.9142 23.8749 41.954 23.8749 41.954C23.8749 41.954 28.593 42.7406 32.0881 45.6389C33.1192 46.4939 34.6155 47.1474 36.0732 47.6301C34.9013 47.6823 33.6589 47.6494 32.4843 47.412C27.6196 46.4283 22.9026 48.7897 22.9026 48.7897C22.9026 48.7897 27.6619 48.3097 31.7954 50.1884C32.9132 50.6966 34.3634 50.936 35.7784 51.0369C34.7607 51.3298 33.6803 51.5588 32.6139 51.6179C27.6582 51.8925 23.6891 55.3668 23.6891 55.3668C23.6891 55.3668 28.1734 53.7023 32.6473 54.4784C33.9501 54.7044 35.5494 54.5351 37.0379 54.2361C36.0588 54.851 34.9811 55.4257 33.8623 55.7958C29.1503 57.3549 26.2258 61.745 26.2258 61.745C26.2258 61.745 30.1199 58.9675 34.6411 58.5484C35.9838 58.424 37.5131 57.8214 38.8928 57.127C38.0967 57.9998 37.188 58.8638 36.1817 59.5316C32.0463 62.276 30.3806 67.281 30.3806 67.281C30.3806 67.281 33.4063 63.5763 37.6577 61.9819C38.8167 61.5472 40.0179 60.6769 41.0965 59.739C40.581 60.6762 39.9747 61.614 39.2549 62.4191C35.947 66.1193 35.6 71.3829 35.6 71.3829C35.6 71.3829 37.5916 67.0339 41.3024 64.4172C42.3841 63.6543 43.3951 62.4017 44.236 61.1363C43.979 62.2648 43.6241 63.435 43.0948 64.4895C40.8682 68.9251 41.9081 74.0966 41.9081 74.0966C41.9081 74.0966 42.6946 69.3783 45.593 65.8834C46.448 64.8523 47.1016 63.356 47.5843 61.8983C47.6363 63.0702 47.6036 64.3128 47.3661 65.4872C46.3825 70.3519 48.7439 75.0689 48.7439 75.0689C48.7439 75.0689 48.2638 70.3098 50.1426 66.1763C50.6508 65.0585 50.8902 63.6081 50.9911 62.1931C51.2839 63.2108 51.513 64.2912 51.572 65.3576C51.8466 70.3133 55.3209 74.2824 55.3209 74.2824C55.3209 74.2824 53.6565 69.7979 54.4327 65.3242C54.6588 64.0214 54.4895 62.4221 54.1905 60.9338C54.8052 61.9129 55.38 62.9906 55.7502 64.1092C57.3092 68.8211 61.6993 71.7457 61.6993 71.7457C61.6993 71.7457 58.9218 67.8515 58.5029 63.3302C58.3785 61.9876 57.7759 60.4583 57.0817 59.0786C57.9545 59.8747 58.8183 60.7833 59.4862 61.7898C62.2305 65.9252 67.2357 67.5908 67.2357 67.5908C67.2357 67.5908 63.531 64.565 61.9366 60.3136C61.5019 59.1547 60.6316 57.9534 59.6938 56.8748C60.6311 57.3904 61.5689 57.9965 62.374 58.7163C66.0742 62.0241 71.3376 62.3711 71.3376 62.3711C71.3376 62.3711 66.9886 60.3795 64.3719 56.669C63.609 55.5872 62.3564 54.5759 61.0908 53.7353C62.2193 53.9923 63.3895 54.3472 64.444 54.8765C68.8802 57.1033 74.0518 56.0636 74.0518 56.0636ZM48.9944 61.0262C42.3532 61.0262 36.9695 55.6426 36.9695 49.0014C36.9695 42.3602 42.3532 36.9765 48.9944 36.9765C55.6356 36.9765 61.0192 42.3602 61.0192 49.0014C61.0192 55.6424 55.6356 61.0262 48.9944 61.0262Z" fill="#FFE15A"/>
<path d="M45.1819 44.1349C45.4381 43.9346 45.6934 43.7336 45.9528 43.5551C44.2492 42.7803 42.7156 42.4083 41.6397 42.2417C41.4685 42.4279 41.314 42.6279 41.1572 42.8265C42.2133 43.0315 43.6327 43.4233 45.1819 44.1349Z" fill="#FFE15A"/>
<path d="M42.1569 41.7109C43.3128 41.8415 44.9864 42.1859 46.8432 42.9844C47.1543 42.799 47.464 42.6346 47.7743 42.4761C45.7695 41.6529 43.9593 41.3462 42.7136 41.2516C42.5265 41.4033 42.3323 41.5462 42.1569 41.7109Z" fill="#FFE15A"/>
<path d="M48.1772 47.2845C47.9374 47.0579 47.6945 46.8436 47.4494 46.6411C45.1982 48.7837 43.2286 51.9084 42.3395 56.4425C42.6627 56.7318 42.9837 57.0243 43.3425 57.2701C43.9957 52.6588 45.9103 49.4761 48.1772 47.2845Z" fill="#FFE15A"/>
<path d="M47.3039 45.293C47.5591 45.0878 47.814 44.8816 48.0724 44.6983C47.7574 44.4972 47.4436 44.3211 47.1307 44.1488C46.8628 44.3325 46.5943 44.51 46.3295 44.7164C46.6538 44.8948 46.978 45.0845 47.3039 45.293Z" fill="#FFE15A"/>
<path d="M53.5251 44.7123C55.4554 46.4077 57.2194 48.7947 58.475 52.1048C58.797 51.1218 59.0151 50.0916 59.0151 49.0012C59.0151 46.9309 58.3862 45.008 57.3106 43.411C56.315 43.6095 54.9785 43.996 53.5251 44.7123Z" fill="#FFE15A"/>
<path d="M48.2494 45.9369C48.5008 46.1238 48.7472 46.3345 48.9944 46.5421C49.2415 46.3345 49.488 46.1238 49.7393 45.9369C49.4918 45.7309 49.2452 45.5282 48.9944 45.3431C48.7435 45.5282 48.4969 45.7311 48.2494 45.9369Z" fill="#FFE15A"/>
<path d="M48.9944 43.0354C48.6797 43.1948 48.3646 43.375 48.0482 43.5622C48.363 43.7278 48.6775 43.9055 48.9944 44.0998C49.3113 43.9055 49.6258 43.728 49.9406 43.5622C49.6242 43.375 49.309 43.1948 48.9944 43.0354Z" fill="#FFE15A"/>
<path d="M41.2472 55.2853C42.3073 50.9565 44.3056 47.9905 46.5417 45.9506C46.229 45.7296 45.9175 45.5273 45.6055 45.3397C43.4536 47.232 41.5059 49.9666 40.3064 53.9064C40.5829 54.3949 40.8954 54.8523 41.2472 55.2853Z" fill="#FFE15A"/>
<path d="M44.4635 44.7123C43.0101 43.996 41.6738 43.6095 40.6782 43.411C39.6026 45.008 38.9736 46.9309 38.9736 49.0012C38.9736 50.0916 39.1916 51.1218 39.5138 52.1048C40.7692 48.7948 42.5332 46.4077 44.4635 44.7123Z" fill="#FFE15A"/>
<path d="M48.9944 41.9109C51.1263 41.03 53.0929 40.7173 54.4916 40.6347C52.912 39.5948 51.0268 38.9806 48.9944 38.9806C46.962 38.9806 45.0768 39.5948 43.4972 40.6347C44.8959 40.7173 46.8625 41.03 48.9944 41.9109Z" fill="#FFE15A"/>
<path d="M48.9944 48.1321C46.9956 50.3469 45.3462 53.5268 44.8112 58.0809C46.0877 58.6705 47.4959 59.0219 48.9944 59.0219C50.4929 59.0219 51.9011 58.6705 53.1776 58.0809C52.6426 53.5268 50.9932 50.3467 48.9944 48.1321Z" fill="#FFE15A"/>
<path d="M52.3833 45.3397C52.0711 45.5275 51.7598 45.7298 51.4471 45.9506C53.6832 47.9905 55.6814 50.9565 56.7416 55.2853C57.0933 54.8521 57.4059 54.3949 57.6824 53.9062C56.4828 49.9666 54.5352 47.232 52.3833 45.3397Z" fill="#FFE15A"/>
<path d="M55.6493 56.4424C54.7602 51.9083 52.7905 48.7836 50.5393 46.641C50.2943 46.8437 50.0514 47.0579 49.8116 47.2844C52.0783 49.4762 53.9931 52.6589 54.6463 57.27C55.0052 57.0242 55.326 56.7317 55.6493 56.4424Z" fill="#FFE15A"/>
<path d="M50.2145 42.4761C50.5247 42.6346 50.8345 42.799 51.1456 42.9844C53.0025 42.1857 54.676 41.8415 55.8319 41.7109C55.6563 41.5462 55.4623 41.4033 55.2752 41.2516C54.0295 41.3462 52.2193 41.6529 50.2145 42.4761Z" fill="#FFE15A"/>
<path d="M50.6849 45.293C51.0108 45.0845 51.3349 44.8948 51.6592 44.7164C51.3947 44.51 51.1259 44.3325 50.858 44.1488C50.5451 44.3211 50.2315 44.4974 49.9164 44.6983C50.1747 44.8816 50.4296 45.0878 50.6849 45.293Z" fill="#FFE15A"/>
<path d="M52.8069 44.1349C54.3559 43.4233 55.7753 43.0315 56.8314 42.8265C56.6746 42.6277 56.5201 42.4277 56.3489 42.2417C55.273 42.4083 53.7396 42.7803 52.0358 43.5551C52.2954 43.7336 52.5506 43.9346 52.8069 44.1349Z" fill="#FFE15A"/>
</g>
<rect x="2" y="2" width="94" height="94" rx="47" stroke="white" stroke-opacity="0.1" stroke-width="4"/>
<defs>
<clipPath id="clip0_2457_2531">
<rect x="4" y="4" width="90" height="90" rx="45" fill="white"/>
</clipPath>
</defs>
</svg>
