<svg width="160" height="125" viewBox="0 0 160 125" fill="none" xmlns="http://www.w3.org/2000/svg">
<path d="M82.7893 118.151C115.577 118.151 142.159 91.7531 142.159 59.0755C142.159 26.3979 115.46 0 82.7893 0C50.0015 0 23.4199 26.3979 23.4199 59.0755C23.4199 91.7531 50.0015 118.151 82.7893 118.151Z" fill="white" fill-opacity="0.04"/>
<path d="M149.696 40.3581C152.347 40.3581 154.497 38.2234 154.497 35.5902C154.497 32.9569 152.347 30.8223 149.696 30.8223C147.044 30.8223 144.895 32.9569 144.895 35.5902C144.895 38.2234 147.044 40.3581 149.696 40.3581Z" fill="white" fill-opacity="0.04"/>
<path d="M156.721 21.7515C158.532 21.7515 160 20.2937 160 18.4954C160 16.6971 158.532 15.2393 156.721 15.2393C154.91 15.2393 153.442 16.6971 153.442 18.4954C153.442 20.2937 154.91 21.7515 156.721 21.7515Z" fill="white" fill-opacity="0.04"/>
<path d="M26.1133 20.3506C27.9241 20.3506 29.392 18.8928 29.392 17.0945C29.392 15.2962 27.9241 13.8384 26.1133 13.8384C24.3024 13.8384 22.8345 15.2962 22.8345 17.0945C22.8345 18.8928 24.3024 20.3506 26.1133 20.3506Z" fill="white" fill-opacity="0.04"/>
<path d="M6.08917 83.1479C9.45213 83.1479 12.1783 80.4405 12.1783 77.1008C12.1783 73.7611 9.45213 71.0537 6.08917 71.0537C2.72621 71.0537 0 73.7611 0 77.1008C0 80.4405 2.72621 83.1479 6.08917 83.1479Z" fill="white" fill-opacity="0.04"/>
<path d="M133.053 111.438H33.7309C31.7961 111.438 30.2085 109.861 30.2085 107.94V83.8472C30.2085 81.9257 31.7961 80.3491 33.7309 80.3491H133.053C134.988 80.3491 136.576 81.9257 136.576 83.8472V107.94C136.576 109.861 134.988 111.438 133.053 111.438Z" fill="#2A2C40"/>
<path d="M45.0706 103.827C49.9478 103.827 53.9015 99.9004 53.9015 95.057C53.9015 90.2135 49.9478 86.2871 45.0706 86.2871C40.1935 86.2871 36.2397 90.2135 36.2397 95.057C36.2397 99.9004 40.1935 103.827 45.0706 103.827Z" fill="white" fill-opacity="0.5"/>
<path d="M116.583 92.0257H61.2656C60.0749 92.0257 59.1323 91.3073 59.1323 90.3998C59.1323 89.4923 60.0749 88.7739 61.2656 88.7739H116.583C117.773 88.7739 118.716 89.4923 118.716 90.3998C118.716 91.3073 117.773 92.0257 116.583 92.0257Z" fill="#07091C"/>
<path d="M96.7379 101.929H61.2656C60.0749 101.929 59.1323 101.211 59.1323 100.303C59.1323 99.3957 60.0749 98.6772 61.2656 98.6772H96.7379C97.9286 98.6772 98.8712 99.3957 98.8712 100.303C98.8712 101.211 97.9286 101.929 96.7379 101.929Z" fill="#07091C"/>
<path d="M133.053 32.0886H33.7309C31.7961 32.0886 30.2085 30.512 30.2085 28.5906V4.49809C30.2085 2.5766 31.7961 1 33.7309 1H133.053C134.988 1 136.576 2.5766 136.576 4.49809V28.5906C136.576 30.512 134.988 32.0886 133.053 32.0886Z" fill="#2A2C40"/>
<path d="M44.7542 24.8268C49.6314 24.8268 53.5851 20.9004 53.5851 16.057C53.5851 11.2135 49.6314 7.28711 44.7542 7.28711C39.8771 7.28711 35.9233 11.2135 35.9233 16.057C35.9233 20.9004 39.8771 24.8268 44.7542 24.8268Z" fill="white" fill-opacity="0.5"/>
<path d="M116.583 12.6765H61.2656C60.0749 12.6765 59.1323 11.9581 59.1323 11.0507C59.1323 10.1432 60.0749 9.4248 61.2656 9.4248H116.583C117.773 9.4248 118.716 10.1432 118.716 11.0507C118.716 11.9581 117.773 12.6765 116.583 12.6765Z" fill="#07091C"/>
<path d="M96.7379 22.5799H61.2656C60.0749 22.5799 59.1323 21.8615 59.1323 20.954C59.1323 20.0465 60.0749 19.3281 61.2656 19.3281H96.7379C97.9286 19.3281 98.8712 20.0465 98.8712 20.954C98.8712 21.8615 97.9286 22.5799 96.7379 22.5799Z" fill="#07091C"/>
<path d="M133.103 71.5764H33.7309C31.7961 71.5764 30.2085 69.9998 30.2085 68.0784V43.9859C30.2085 42.0644 31.7961 40.4878 33.7309 40.4878H133.053C134.988 40.4878 136.576 42.0644 136.576 43.9859V68.0784C136.625 70.0491 135.038 71.5764 133.103 71.5764Z" fill="#2A2C40"/>
<path d="M44.9432 64.8268C49.8203 64.8268 53.774 60.9004 53.774 56.057C53.774 51.2135 49.8203 47.2871 44.9432 47.2871C40.066 47.2871 36.1123 51.2135 36.1123 56.057C36.1123 60.9004 40.066 64.8268 44.9432 64.8268Z" fill="white" fill-opacity="0.5"/>
<path d="M116.632 52.1648H61.3149C60.1243 52.1648 59.1816 51.4464 59.1816 50.539C59.1816 49.6315 60.1243 48.9131 61.3149 48.9131H116.632C117.823 48.9131 118.765 49.6315 118.765 50.539C118.765 51.4464 117.773 52.1648 116.632 52.1648Z" fill="#07091C"/>
<path d="M96.7873 62.117H61.3149C60.1243 62.117 59.1816 61.3986 59.1816 60.4911C59.1816 59.5836 60.1243 58.8652 61.3149 58.8652H96.7873C97.9779 58.8652 98.9206 59.5836 98.9206 60.4911C98.8709 61.3986 97.9283 62.117 96.7873 62.117Z" fill="#07091C"/>
<path d="M136.603 114.03L118.934 96.4972L122.985 92.4746L140.64 110.022L136.603 114.03Z" fill="#252738" stroke="#83848D" stroke-width="2" stroke-miterlimit="10"/>
<path d="M145.403 122.838L131.854 109.383C130.723 108.26 130.723 106.429 131.854 105.305C132.986 104.182 134.829 104.182 135.961 105.305L149.509 118.76C150.641 119.884 150.641 121.715 149.509 122.838C148.378 123.962 146.534 123.962 145.403 122.838Z" fill="#252738" stroke="#83848D" stroke-width="2" stroke-miterlimit="10"/>
<path d="M144.439 123.698L127.007 106.387C126.602 105.985 126.602 105.333 127.007 104.917L131.463 100.492C131.868 100.09 132.525 100.09 132.944 100.492L150.375 117.803C150.78 118.206 150.78 118.857 150.375 119.274L145.92 123.698C145.501 124.101 144.844 124.101 144.439 123.698Z" fill="#252738" stroke="#83848D" stroke-width="2" stroke-miterlimit="10"/>
<path d="M98.9325 40C80.4394 40 65.4521 54.8837 65.4521 73.2491C65.4521 91.6005 80.4394 106.498 98.9186 106.498C117.412 106.498 132.399 91.6144 132.399 73.2491C132.399 54.8837 117.412 40 98.9325 40ZM98.9325 100.339C84.085 100.339 72.0588 88.2021 72.0588 73.2352C72.0588 58.2683 84.085 46.1449 98.9325 46.1449C113.78 46.1449 125.806 58.2821 125.806 73.2491C125.806 88.216 113.766 100.339 98.9325 100.339Z" fill="#252738" stroke="#83848D" stroke-width="2" stroke-miterlimit="10"/>
</svg>
